<?xml version="1.0" encoding="utf-8" standalone="no"?>
<!DOCTYPE svg PUBLIC "-//W3C//DTD SVG 1.1//EN"
  "http://www.w3.org/Graphics/SVG/1.1/DTD/svg11.dtd">
<svg xmlns:xlink="http://www.w3.org/1999/xlink" width="1158.9575pt" height="280.046484pt" viewBox="0 0 1158.9575 280.046484" xmlns="http://www.w3.org/2000/svg" version="1.1">
 <metadata>
  <rdf:RDF xmlns:dc="http://purl.org/dc/elements/1.1/" xmlns:cc="http://creativecommons.org/ns#" xmlns:rdf="http://www.w3.org/1999/02/22-rdf-syntax-ns#">
   <cc:Work>
    <dc:type rdf:resource="http://purl.org/dc/dcmitype/StillImage"/>
    <dc:date>2026-04-24T11:04:21.199144</dc:date>
    <dc:format>image/svg+xml</dc:format>
    <dc:creator>
     <cc:Agent>
      <dc:title>Matplotlib v3.10.9, https://matplotlib.org/</dc:title>
     </cc:Agent>
    </dc:creator>
   </cc:Work>
  </rdf:RDF>
 </metadata>
 <defs>
  <style type="text/css">*{stroke-linejoin: round; stroke-linecap: butt}</style>
 </defs>
 <g id="figure_1">
  <g id="patch_1">
   <path d="M 0 280.046484 
L 1158.9575 280.046484 
L 1158.9575 0 
L 0 0 
z
" style="fill: #ffffff"/>
  </g>
  <g id="axes_1">
   <g id="patch_2">
    <path d="M 46.847813 240.282806 
L 1112.227812 240.282806 
L 1112.227812 23.551406 
L 46.847813 23.551406 
z
" style="fill: #ffffff"/>
   </g>
   <g id="patch_3">
    <path d="M 95.274176 240.282806 
L 124.185438 240.282806 
L 124.185438 160.548998 
L 95.274176 160.548998 
z
" clip-path="url(#pfdf15888cf)" style="fill: #4472c4; opacity: 0.85"/>
   </g>
   <g id="patch_4">
    <path d="M 131.413253 240.282806 
L 160.324515 240.282806 
L 160.324515 180.277888 
L 131.413253 180.277888 
z
" clip-path="url(#pfdf15888cf)" style="fill: #4472c4; opacity: 0.85"/>
   </g>
   <g id="patch_5">
    <path d="M 167.552331 240.282806 
L 196.463593 240.282806 
L 196.463593 154.366673 
L 167.552331 154.366673 
z
" clip-path="url(#pfdf15888cf)" style="fill: #4472c4; opacity: 0.85"/>
   </g>
   <g id="patch_6">
    <path d="M 203.691408 240.282806 
L 232.60267 240.282806 
L 232.60267 150.123901 
L 203.691408 150.123901 
z
" clip-path="url(#pfdf15888cf)" style="fill: #4472c4; opacity: 0.85"/>
   </g>
   <g id="patch_7">
    <path d="M 239.830485 240.282806 
L 268.741747 240.282806 
L 268.741747 133.789229 
L 239.830485 133.789229 
z
" clip-path="url(#pfdf15888cf)" style="fill: #4472c4; opacity: 0.85"/>
   </g>
   <g id="patch_8">
    <path d="M 275.969563 240.282806 
L 304.880825 240.282806 
L 304.880825 141.547441 
L 275.969563 141.547441 
z
" clip-path="url(#pfdf15888cf)" style="fill: #4472c4; opacity: 0.85"/>
   </g>
   <g id="patch_9">
    <path d="M 312.10864 240.282806 
L 341.019902 240.282806 
L 341.019902 139.789721 
L 312.10864 139.789721 
z
" clip-path="url(#pfdf15888cf)" style="fill: #4472c4; opacity: 0.85"/>
   </g>
   <g id="patch_10">
    <path d="M 348.247718 240.282806 
L 377.158979 240.282806 
L 377.158979 146.638767 
L 348.247718 146.638767 
z
" clip-path="url(#pfdf15888cf)" style="fill: #4472c4; opacity: 0.85"/>
   </g>
   <g id="patch_11">
    <path d="M 384.386795 240.282806 
L 413.298057 240.282806 
L 413.298057 118.939527 
L 384.386795 118.939527 
z
" clip-path="url(#pfdf15888cf)" style="fill: #4472c4; opacity: 0.85"/>
   </g>
   <g id="patch_12">
    <path d="M 420.525872 240.282806 
L 449.437134 240.282806 
L 449.437134 103.907992 
L 420.525872 103.907992 
z
" clip-path="url(#pfdf15888cf)" style="fill: #4472c4; opacity: 0.85"/>
   </g>
   <g id="patch_13">
    <path d="M 456.66495 240.282806 
L 485.576211 240.282806 
L 485.576211 58.146666 
L 456.66495 58.146666 
z
" clip-path="url(#pfdf15888cf)" style="fill: #4472c4; opacity: 0.85"/>
   </g>
   <g id="patch_14">
    <path d="M 492.804027 240.282806 
L 521.715289 240.282806 
L 521.715289 54.843365 
L 492.804027 54.843365 
z
" clip-path="url(#pfdf15888cf)" style="fill: #4472c4; opacity: 0.85"/>
   </g>
   <g id="patch_15">
    <path d="M 528.943104 240.282806 
L 557.854366 240.282806 
L 557.854366 109.090235 
L 528.943104 109.090235 
z
" clip-path="url(#pfdf15888cf)" style="fill: #4472c4; opacity: 0.85"/>
   </g>
   <g id="patch_16">
    <path d="M 565.082182 240.282806 
L 593.993443 240.282806 
L 593.993443 70.571927 
L 565.082182 70.571927 
z
" clip-path="url(#pfdf15888cf)" style="fill: #4472c4; opacity: 0.85"/>
   </g>
   <g id="patch_17">
    <path d="M 601.221259 240.282806 
L 630.132521 240.282806 
L 630.132521 73.935839 
L 601.221259 73.935839 
z
" clip-path="url(#pfdf15888cf)" style="fill: #4472c4; opacity: 0.85"/>
   </g>
   <g id="patch_18">
    <path d="M 637.360336 240.282806 
L 666.271598 240.282806 
L 666.271598 33.871949 
L 637.360336 33.871949 
z
" clip-path="url(#pfdf15888cf)" style="fill: #4472c4; opacity: 0.85"/>
   </g>
   <g id="patch_19">
    <path d="M 673.499414 240.282806 
L 702.410675 240.282806 
L 702.410675 54.813059 
L 673.499414 54.813059 
z
" clip-path="url(#pfdf15888cf)" style="fill: #4472c4; opacity: 0.85"/>
   </g>
   <g id="patch_20">
    <path d="M 709.638491 240.282806 
L 738.549753 240.282806 
L 738.549753 107.484043 
L 709.638491 107.484043 
z
" clip-path="url(#pfdf15888cf)" style="fill: #4472c4; opacity: 0.85"/>
   </g>
   <g id="patch_21">
    <path d="M 745.777568 240.282806 
L 774.68883 240.282806 
L 774.68883 80.542441 
L 745.777568 80.542441 
z
" clip-path="url(#pfdf15888cf)" style="fill: #4472c4; opacity: 0.85"/>
   </g>
   <g id="patch_22">
    <path d="M 781.916646 240.282806 
L 810.827907 240.282806 
L 810.827907 135.971226 
L 781.916646 135.971226 
z
" clip-path="url(#pfdf15888cf)" style="fill: #4472c4; opacity: 0.85"/>
   </g>
   <g id="patch_23">
    <path d="M 818.055723 240.282806 
L 846.966985 240.282806 
L 846.966985 107.30221 
L 818.055723 107.30221 
z
" clip-path="url(#pfdf15888cf)" style="fill: #4472c4; opacity: 0.85"/>
   </g>
   <g id="patch_24">
    <path d="M 854.1948 240.282806 
L 883.106062 240.282806 
L 883.106062 126.909877 
L 854.1948 126.909877 
z
" clip-path="url(#pfdf15888cf)" style="fill: #4472c4; opacity: 0.85"/>
   </g>
   <g id="patch_25">
    <path d="M 890.333878 240.282806 
L 919.24514 240.282806 
L 919.24514 117.242418 
L 890.333878 117.242418 
z
" clip-path="url(#pfdf15888cf)" style="fill: #4472c4; opacity: 0.85"/>
   </g>
   <g id="patch_26">
    <path d="M 926.472955 240.282806 
L 955.384217 240.282806 
L 955.384217 115.393782 
L 926.472955 115.393782 
z
" clip-path="url(#pfdf15888cf)" style="fill: #4472c4; opacity: 0.85"/>
   </g>
   <g id="patch_27">
    <path d="M 962.612032 240.282806 
L 991.523294 240.282806 
L 991.523294 130.485928 
L 962.612032 130.485928 
z
" clip-path="url(#pfdf15888cf)" style="fill: #4472c4; opacity: 0.85"/>
   </g>
   <g id="patch_28">
    <path d="M 998.75111 240.282806 
L 1027.662372 240.282806 
L 1027.662372 155.851643 
L 998.75111 155.851643 
z
" clip-path="url(#pfdf15888cf)" style="fill: #4472c4; opacity: 0.85"/>
   </g>
   <g id="patch_29">
    <path d="M 1034.890187 240.282806 
L 1063.801449 240.282806 
L 1063.801449 170.277068 
L 1034.890187 170.277068 
z
" clip-path="url(#pfdf15888cf)" style="fill: #4472c4; opacity: 0.85"/>
   </g>
   <g id="matplotlib.axis_1">
    <g id="xtick_1">
     <g id="line2d_1">
      <defs>
       <path id="me378b1b23a" d="M 0 0 
L 0 3.5 
" style="stroke: #000000; stroke-width: 0.8"/>
      </defs>
      <g>
       <use xlink:href="#me378b1b23a" x="109.729807" y="240.282806" style="stroke: #000000; stroke-width: 0.8"/>
      </g>
     </g>
     <g id="text_1">
      <!-- 2024.01 -->
      <g transform="translate(88.460919 271.509168) rotate(-45) scale(0.08 -0.08)">
       <defs>
        <path id="MalgunGothic-32" d="M 2519 3372 
Q 2519 3784 2275 4018 
Q 2031 4253 1628 4253 
Q 1341 4253 1053 4104 
Q 766 3956 534 3697 
L 534 4234 
Q 981 4675 1691 4675 
Q 2281 4675 2642 4334 
Q 3003 3994 3003 3416 
Q 3003 2919 2772 2545 
Q 2541 2172 1984 1775 
Q 1459 1406 1254 1215 
Q 1050 1025 967 854 
Q 884 684 884 450 
L 3116 450 
L 3116 0 
L 356 0 
L 356 225 
Q 356 603 461 870 
Q 566 1138 811 1392 
Q 1056 1647 1597 2022 
Q 2091 2363 2305 2670 
Q 2519 2978 2519 3372 
z
" transform="scale(0.015625)"/>
        <path id="MalgunGothic-30" d="M 278 2206 
Q 278 3425 675 4050 
Q 1072 4675 1819 4675 
Q 3253 4675 3253 2319 
Q 3253 1156 2854 539 
Q 2456 -78 1716 -78 
Q 1016 -78 647 520 
Q 278 1119 278 2206 
z
M 784 2231 
Q 784 344 1769 344 
Q 2747 344 2747 2259 
Q 2747 4250 1794 4250 
Q 784 4250 784 2231 
z
" transform="scale(0.015625)"/>
        <path id="MalgunGothic-34" d="M 2703 4600 
L 2703 1563 
L 3309 1563 
L 3309 1113 
L 2703 1113 
L 2703 0 
L 2213 0 
L 2213 1113 
L 50 1113 
L 50 1534 
Q 728 2297 1295 3109 
Q 1863 3922 2172 4600 
L 2703 4600 
z
M 625 1563 
L 2213 1563 
L 2213 3831 
Q 1613 2788 959 1981 
L 625 1563 
z
" transform="scale(0.015625)"/>
        <path id="MalgunGothic-2e" d="M 356 275 
Q 356 422 459 523 
Q 563 625 700 625 
Q 838 625 941 523 
Q 1044 422 1044 275 
Q 1044 138 942 33 
Q 841 -72 700 -72 
Q 559 -72 457 29 
Q 356 131 356 275 
z
" transform="scale(0.015625)"/>
        <path id="MalgunGothic-31" d="M 2231 0 
L 1734 0 
L 1734 3972 
Q 1591 3828 1266 3661 
Q 941 3494 672 3428 
L 672 3959 
Q 1016 4056 1409 4275 
Q 1803 4494 2031 4700 
L 2231 4700 
L 2231 0 
z
" transform="scale(0.015625)"/>
       </defs>
       <use xlink:href="#MalgunGothic-32"/>
       <use xlink:href="#MalgunGothic-30" transform="translate(55.078125 0)"/>
       <use xlink:href="#MalgunGothic-32" transform="translate(110.15625 0)"/>
       <use xlink:href="#MalgunGothic-34" transform="translate(165.234375 0)"/>
       <use xlink:href="#MalgunGothic-2e" transform="translate(220.3125 0)"/>
       <use xlink:href="#MalgunGothic-30" transform="translate(242.1875 0)"/>
       <use xlink:href="#MalgunGothic-31" transform="translate(297.265625 0)"/>
      </g>
     </g>
    </g>
    <g id="xtick_2">
     <g id="line2d_2">
      <g>
       <use xlink:href="#me378b1b23a" x="145.868884" y="240.282806" style="stroke: #000000; stroke-width: 0.8"/>
      </g>
     </g>
     <g id="text_2">
      <!-- 02 -->
      <g transform="translate(138.30019 257.808974) rotate(-45) scale(0.08 -0.08)">
       <use xlink:href="#MalgunGothic-30"/>
       <use xlink:href="#MalgunGothic-32" transform="translate(55.078125 0)"/>
      </g>
     </g>
    </g>
    <g id="xtick_3">
     <g id="line2d_3">
      <g>
       <use xlink:href="#me378b1b23a" x="182.007962" y="240.282806" style="stroke: #000000; stroke-width: 0.8"/>
      </g>
     </g>
     <g id="text_3">
      <!-- 03 -->
      <g transform="translate(174.439268 257.808974) rotate(-45) scale(0.08 -0.08)">
       <defs>
        <path id="MalgunGothic-33" d="M 416 719 
Q 891 344 1478 344 
Q 1959 344 2254 587 
Q 2550 831 2550 1247 
Q 2550 2169 1253 2169 
L 872 2169 
L 872 2591 
L 1234 2591 
Q 2388 2591 2388 3453 
Q 2388 4250 1509 4250 
Q 1022 4250 594 3916 
L 594 4413 
Q 1031 4675 1634 4675 
Q 2184 4675 2539 4372 
Q 2894 4069 2894 3581 
Q 2894 2678 1972 2409 
L 1972 2400 
Q 2469 2356 2764 2053 
Q 3059 1750 3059 1300 
Q 3059 672 2604 297 
Q 2150 -78 1450 -78 
Q 806 -78 416 169 
L 416 719 
z
" transform="scale(0.015625)"/>
       </defs>
       <use xlink:href="#MalgunGothic-30"/>
       <use xlink:href="#MalgunGothic-33" transform="translate(55.078125 0)"/>
      </g>
     </g>
    </g>
    <g id="xtick_4">
     <g id="line2d_4">
      <g>
       <use xlink:href="#me378b1b23a" x="218.147039" y="240.282806" style="stroke: #000000; stroke-width: 0.8"/>
      </g>
     </g>
     <g id="text_4">
      <!-- 04 -->
      <g transform="translate(210.578345 257.808974) rotate(-45) scale(0.08 -0.08)">
       <use xlink:href="#MalgunGothic-30"/>
       <use xlink:href="#MalgunGothic-34" transform="translate(55.078125 0)"/>
      </g>
     </g>
    </g>
    <g id="xtick_5">
     <g id="line2d_5">
      <g>
       <use xlink:href="#me378b1b23a" x="254.286116" y="240.282806" style="stroke: #000000; stroke-width: 0.8"/>
      </g>
     </g>
     <g id="text_5">
      <!-- 05 -->
      <g transform="translate(246.717422 257.808974) rotate(-45) scale(0.08 -0.08)">
       <defs>
        <path id="MalgunGothic-35" d="M 3072 1403 
Q 3072 722 2636 322 
Q 2200 -78 1469 -78 
Q 828 -78 516 113 
L 516 650 
Q 994 344 1475 344 
Q 1969 344 2270 630 
Q 2572 916 2572 1372 
Q 2572 1838 2265 2092 
Q 1959 2347 1381 2347 
Q 994 2347 603 2300 
L 759 4600 
L 2869 4600 
L 2869 4147 
L 1206 4147 
L 1106 2763 
Q 1347 2784 1547 2784 
Q 2263 2784 2667 2414 
Q 3072 2044 3072 1403 
z
" transform="scale(0.015625)"/>
       </defs>
       <use xlink:href="#MalgunGothic-30"/>
       <use xlink:href="#MalgunGothic-35" transform="translate(55.078125 0)"/>
      </g>
     </g>
    </g>
    <g id="xtick_6">
     <g id="line2d_6">
      <g>
       <use xlink:href="#me378b1b23a" x="290.425194" y="240.282806" style="stroke: #000000; stroke-width: 0.8"/>
      </g>
     </g>
     <g id="text_6">
      <!-- 06 -->
      <g transform="translate(282.8565 257.808974) rotate(-45) scale(0.08 -0.08)">
       <defs>
        <path id="MalgunGothic-36" d="M 2981 4069 
Q 2619 4250 2228 4250 
Q 1591 4250 1228 3689 
Q 866 3128 869 2213 
L 884 2213 
Q 1203 2872 1938 2872 
Q 2547 2872 2903 2478 
Q 3259 2084 3259 1450 
Q 3259 797 2857 359 
Q 2456 -78 1825 -78 
Q 1116 -78 736 478 
Q 356 1034 356 2019 
Q 356 3181 847 3928 
Q 1338 4675 2222 4675 
Q 2700 4675 2981 4544 
L 2981 4069 
z
M 906 1506 
Q 906 1022 1165 683 
Q 1425 344 1844 344 
Q 2247 344 2498 645 
Q 2750 947 2750 1388 
Q 2750 1888 2509 2167 
Q 2269 2447 1838 2447 
Q 1444 2447 1175 2173 
Q 906 1900 906 1506 
z
" transform="scale(0.015625)"/>
       </defs>
       <use xlink:href="#MalgunGothic-30"/>
       <use xlink:href="#MalgunGothic-36" transform="translate(55.078125 0)"/>
      </g>
     </g>
    </g>
    <g id="xtick_7">
     <g id="line2d_7">
      <g>
       <use xlink:href="#me378b1b23a" x="326.564271" y="240.282806" style="stroke: #000000; stroke-width: 0.8"/>
      </g>
     </g>
     <g id="text_7">
      <!-- 07 -->
      <g transform="translate(318.995577 257.808974) rotate(-45) scale(0.08 -0.08)">
       <defs>
        <path id="MalgunGothic-37" d="M 3213 4297 
Q 2478 3006 2064 1918 
Q 1650 831 1550 0 
L 1009 0 
Q 1084 531 1290 1176 
Q 1497 1822 1815 2537 
Q 2134 3253 2631 4147 
L 291 4147 
L 291 4600 
L 3213 4600 
L 3213 4297 
z
" transform="scale(0.015625)"/>
       </defs>
       <use xlink:href="#MalgunGothic-30"/>
       <use xlink:href="#MalgunGothic-37" transform="translate(55.078125 0)"/>
      </g>
     </g>
    </g>
    <g id="xtick_8">
     <g id="line2d_8">
      <g>
       <use xlink:href="#me378b1b23a" x="362.703348" y="240.282806" style="stroke: #000000; stroke-width: 0.8"/>
      </g>
     </g>
     <g id="text_8">
      <!-- 08 -->
      <g transform="translate(355.134654 257.808974) rotate(-45) scale(0.08 -0.08)">
       <defs>
        <path id="MalgunGothic-38" d="M 303 1281 
Q 303 1669 539 2011 
Q 775 2353 1153 2494 
Q 856 2647 675 2915 
Q 494 3184 494 3500 
Q 494 3828 659 4098 
Q 825 4369 1122 4522 
Q 1419 4675 1778 4675 
Q 2334 4675 2700 4342 
Q 3066 4009 3066 3500 
Q 3066 3181 2881 2914 
Q 2697 2647 2413 2494 
Q 2788 2350 3022 2009 
Q 3256 1669 3256 1281 
Q 3256 672 2843 297 
Q 2431 -78 1778 -78 
Q 1131 -78 717 301 
Q 303 681 303 1281 
z
M 809 1328 
Q 809 878 1081 611 
Q 1353 344 1781 344 
Q 2206 344 2482 619 
Q 2759 894 2759 1328 
Q 2759 1731 2482 2011 
Q 2206 2291 1781 2291 
Q 1372 2291 1090 2020 
Q 809 1750 809 1328 
z
M 1003 3459 
Q 1003 3125 1234 2900 
Q 1466 2675 1781 2675 
Q 2097 2675 2330 2900 
Q 2563 3125 2563 3459 
Q 2563 3803 2341 4026 
Q 2119 4250 1781 4250 
Q 1450 4250 1226 4029 
Q 1003 3809 1003 3459 
z
" transform="scale(0.015625)"/>
       </defs>
       <use xlink:href="#MalgunGothic-30"/>
       <use xlink:href="#MalgunGothic-38" transform="translate(55.078125 0)"/>
      </g>
     </g>
    </g>
    <g id="xtick_9">
     <g id="line2d_9">
      <g>
       <use xlink:href="#me378b1b23a" x="398.842426" y="240.282806" style="stroke: #000000; stroke-width: 0.8"/>
      </g>
     </g>
     <g id="text_9">
      <!-- 09 -->
      <g transform="translate(391.273732 257.808974) rotate(-45) scale(0.08 -0.08)">
       <defs>
        <path id="MalgunGothic-39" d="M 556 563 
Q 941 344 1366 344 
Q 1994 344 2347 855 
Q 2700 1366 2700 2313 
Q 2694 2306 2688 2313 
Q 2388 1713 1653 1713 
Q 1059 1713 682 2120 
Q 306 2528 306 3144 
Q 306 3806 711 4240 
Q 1116 4675 1772 4675 
Q 2466 4675 2833 4131 
Q 3200 3588 3200 2578 
Q 3200 1319 2717 620 
Q 2234 -78 1344 -78 
Q 881 -78 556 78 
L 556 563 
z
M 813 3219 
Q 813 2741 1063 2450 
Q 1313 2159 1759 2159 
Q 2147 2159 2406 2417 
Q 2666 2675 2666 3047 
Q 2666 3556 2411 3903 
Q 2156 4250 1725 4250 
Q 1322 4250 1067 3948 
Q 813 3647 813 3219 
z
" transform="scale(0.015625)"/>
       </defs>
       <use xlink:href="#MalgunGothic-30"/>
       <use xlink:href="#MalgunGothic-39" transform="translate(55.078125 0)"/>
      </g>
     </g>
    </g>
    <g id="xtick_10">
     <g id="line2d_10">
      <g>
       <use xlink:href="#me378b1b23a" x="434.981503" y="240.282806" style="stroke: #000000; stroke-width: 0.8"/>
      </g>
     </g>
     <g id="text_10">
      <!-- 10 -->
      <g transform="translate(427.412809 257.808974) rotate(-45) scale(0.08 -0.08)">
       <use xlink:href="#MalgunGothic-31"/>
       <use xlink:href="#MalgunGothic-30" transform="translate(55.078125 0)"/>
      </g>
     </g>
    </g>
    <g id="xtick_11">
     <g id="line2d_11">
      <g>
       <use xlink:href="#me378b1b23a" x="471.12058" y="240.282806" style="stroke: #000000; stroke-width: 0.8"/>
      </g>
     </g>
     <g id="text_11">
      <!-- 11 -->
      <g transform="translate(463.551886 257.808974) rotate(-45) scale(0.08 -0.08)">
       <use xlink:href="#MalgunGothic-31"/>
       <use xlink:href="#MalgunGothic-31" transform="translate(55.078125 0)"/>
      </g>
     </g>
    </g>
    <g id="xtick_12">
     <g id="line2d_12">
      <g>
       <use xlink:href="#me378b1b23a" x="507.259658" y="240.282806" style="stroke: #000000; stroke-width: 0.8"/>
      </g>
     </g>
     <g id="text_12">
      <!-- 12 -->
      <g transform="translate(499.690964 257.808974) rotate(-45) scale(0.08 -0.08)">
       <use xlink:href="#MalgunGothic-31"/>
       <use xlink:href="#MalgunGothic-32" transform="translate(55.078125 0)"/>
      </g>
     </g>
    </g>
    <g id="xtick_13">
     <g id="line2d_13">
      <g>
       <use xlink:href="#me378b1b23a" x="543.398735" y="240.282806" style="stroke: #000000; stroke-width: 0.8"/>
      </g>
     </g>
     <g id="text_13">
      <!-- 2025.01 -->
      <g transform="translate(522.129847 271.509168) rotate(-45) scale(0.08 -0.08)">
       <use xlink:href="#MalgunGothic-32"/>
       <use xlink:href="#MalgunGothic-30" transform="translate(55.078125 0)"/>
       <use xlink:href="#MalgunGothic-32" transform="translate(110.15625 0)"/>
       <use xlink:href="#MalgunGothic-35" transform="translate(165.234375 0)"/>
       <use xlink:href="#MalgunGothic-2e" transform="translate(220.3125 0)"/>
       <use xlink:href="#MalgunGothic-30" transform="translate(242.1875 0)"/>
       <use xlink:href="#MalgunGothic-31" transform="translate(297.265625 0)"/>
      </g>
     </g>
    </g>
    <g id="xtick_14">
     <g id="line2d_14">
      <g>
       <use xlink:href="#me378b1b23a" x="579.537812" y="240.282806" style="stroke: #000000; stroke-width: 0.8"/>
      </g>
     </g>
     <g id="text_14">
      <!-- 02 -->
      <g transform="translate(571.969118 257.808974) rotate(-45) scale(0.08 -0.08)">
       <use xlink:href="#MalgunGothic-30"/>
       <use xlink:href="#MalgunGothic-32" transform="translate(55.078125 0)"/>
      </g>
     </g>
    </g>
    <g id="xtick_15">
     <g id="line2d_15">
      <g>
       <use xlink:href="#me378b1b23a" x="615.67689" y="240.282806" style="stroke: #000000; stroke-width: 0.8"/>
      </g>
     </g>
     <g id="text_15">
      <!-- 03 -->
      <g transform="translate(608.108196 257.808974) rotate(-45) scale(0.08 -0.08)">
       <use xlink:href="#MalgunGothic-30"/>
       <use xlink:href="#MalgunGothic-33" transform="translate(55.078125 0)"/>
      </g>
     </g>
    </g>
    <g id="xtick_16">
     <g id="line2d_16">
      <g>
       <use xlink:href="#me378b1b23a" x="651.815967" y="240.282806" style="stroke: #000000; stroke-width: 0.8"/>
      </g>
     </g>
     <g id="text_16">
      <!-- 04 -->
      <g transform="translate(644.247273 257.808974) rotate(-45) scale(0.08 -0.08)">
       <use xlink:href="#MalgunGothic-30"/>
       <use xlink:href="#MalgunGothic-34" transform="translate(55.078125 0)"/>
      </g>
     </g>
    </g>
    <g id="xtick_17">
     <g id="line2d_17">
      <g>
       <use xlink:href="#me378b1b23a" x="687.955045" y="240.282806" style="stroke: #000000; stroke-width: 0.8"/>
      </g>
     </g>
     <g id="text_17">
      <!-- 05 -->
      <g transform="translate(680.38635 257.808974) rotate(-45) scale(0.08 -0.08)">
       <use xlink:href="#MalgunGothic-30"/>
       <use xlink:href="#MalgunGothic-35" transform="translate(55.078125 0)"/>
      </g>
     </g>
    </g>
    <g id="xtick_18">
     <g id="line2d_18">
      <g>
       <use xlink:href="#me378b1b23a" x="724.094122" y="240.282806" style="stroke: #000000; stroke-width: 0.8"/>
      </g>
     </g>
     <g id="text_18">
      <!-- 06 -->
      <g transform="translate(716.525428 257.808974) rotate(-45) scale(0.08 -0.08)">
       <use xlink:href="#MalgunGothic-30"/>
       <use xlink:href="#MalgunGothic-36" transform="translate(55.078125 0)"/>
      </g>
     </g>
    </g>
    <g id="xtick_19">
     <g id="line2d_19">
      <g>
       <use xlink:href="#me378b1b23a" x="760.233199" y="240.282806" style="stroke: #000000; stroke-width: 0.8"/>
      </g>
     </g>
     <g id="text_19">
      <!-- 07 -->
      <g transform="translate(752.664505 257.808974) rotate(-45) scale(0.08 -0.08)">
       <use xlink:href="#MalgunGothic-30"/>
       <use xlink:href="#MalgunGothic-37" transform="translate(55.078125 0)"/>
      </g>
     </g>
    </g>
    <g id="xtick_20">
     <g id="line2d_20">
      <g>
       <use xlink:href="#me378b1b23a" x="796.372277" y="240.282806" style="stroke: #000000; stroke-width: 0.8"/>
      </g>
     </g>
     <g id="text_20">
      <!-- 08 -->
      <g transform="translate(788.803582 257.808974) rotate(-45) scale(0.08 -0.08)">
       <use xlink:href="#MalgunGothic-30"/>
       <use xlink:href="#MalgunGothic-38" transform="translate(55.078125 0)"/>
      </g>
     </g>
    </g>
    <g id="xtick_21">
     <g id="line2d_21">
      <g>
       <use xlink:href="#me378b1b23a" x="832.511354" y="240.282806" style="stroke: #000000; stroke-width: 0.8"/>
      </g>
     </g>
     <g id="text_21">
      <!-- 09 -->
      <g transform="translate(824.94266 257.808974) rotate(-45) scale(0.08 -0.08)">
       <use xlink:href="#MalgunGothic-30"/>
       <use xlink:href="#MalgunGothic-39" transform="translate(55.078125 0)"/>
      </g>
     </g>
    </g>
    <g id="xtick_22">
     <g id="line2d_22">
      <g>
       <use xlink:href="#me378b1b23a" x="868.650431" y="240.282806" style="stroke: #000000; stroke-width: 0.8"/>
      </g>
     </g>
     <g id="text_22">
      <!-- 10 -->
      <g transform="translate(861.081737 257.808974) rotate(-45) scale(0.08 -0.08)">
       <use xlink:href="#MalgunGothic-31"/>
       <use xlink:href="#MalgunGothic-30" transform="translate(55.078125 0)"/>
      </g>
     </g>
    </g>
    <g id="xtick_23">
     <g id="line2d_23">
      <g>
       <use xlink:href="#me378b1b23a" x="904.789509" y="240.282806" style="stroke: #000000; stroke-width: 0.8"/>
      </g>
     </g>
     <g id="text_23">
      <!-- 11 -->
      <g transform="translate(897.220814 257.808974) rotate(-45) scale(0.08 -0.08)">
       <use xlink:href="#MalgunGothic-31"/>
       <use xlink:href="#MalgunGothic-31" transform="translate(55.078125 0)"/>
      </g>
     </g>
    </g>
    <g id="xtick_24">
     <g id="line2d_24">
      <g>
       <use xlink:href="#me378b1b23a" x="940.928586" y="240.282806" style="stroke: #000000; stroke-width: 0.8"/>
      </g>
     </g>
     <g id="text_24">
      <!-- 12 -->
      <g transform="translate(933.359892 257.808974) rotate(-45) scale(0.08 -0.08)">
       <use xlink:href="#MalgunGothic-31"/>
       <use xlink:href="#MalgunGothic-32" transform="translate(55.078125 0)"/>
      </g>
     </g>
    </g>
    <g id="xtick_25">
     <g id="line2d_25">
      <g>
       <use xlink:href="#me378b1b23a" x="977.067663" y="240.282806" style="stroke: #000000; stroke-width: 0.8"/>
      </g>
     </g>
     <g id="text_25">
      <!-- 2026.01 -->
      <g transform="translate(955.798775 271.509168) rotate(-45) scale(0.08 -0.08)">
       <use xlink:href="#MalgunGothic-32"/>
       <use xlink:href="#MalgunGothic-30" transform="translate(55.078125 0)"/>
       <use xlink:href="#MalgunGothic-32" transform="translate(110.15625 0)"/>
       <use xlink:href="#MalgunGothic-36" transform="translate(165.234375 0)"/>
       <use xlink:href="#MalgunGothic-2e" transform="translate(220.3125 0)"/>
       <use xlink:href="#MalgunGothic-30" transform="translate(242.1875 0)"/>
       <use xlink:href="#MalgunGothic-31" transform="translate(297.265625 0)"/>
      </g>
     </g>
    </g>
    <g id="xtick_26">
     <g id="line2d_26">
      <g>
       <use xlink:href="#me378b1b23a" x="1013.206741" y="240.282806" style="stroke: #000000; stroke-width: 0.8"/>
      </g>
     </g>
     <g id="text_26">
      <!-- 02 -->
      <g transform="translate(1005.638046 257.808974) rotate(-45) scale(0.08 -0.08)">
       <use xlink:href="#MalgunGothic-30"/>
       <use xlink:href="#MalgunGothic-32" transform="translate(55.078125 0)"/>
      </g>
     </g>
    </g>
    <g id="xtick_27">
     <g id="line2d_27">
      <g>
       <use xlink:href="#me378b1b23a" x="1049.345818" y="240.282806" style="stroke: #000000; stroke-width: 0.8"/>
      </g>
     </g>
     <g id="text_27">
      <!-- 03 -->
      <g transform="translate(1041.777124 257.808974) rotate(-45) scale(0.08 -0.08)">
       <use xlink:href="#MalgunGothic-30"/>
       <use xlink:href="#MalgunGothic-33" transform="translate(55.078125 0)"/>
      </g>
     </g>
    </g>
   </g>
   <g id="matplotlib.axis_2">
    <g id="ytick_1">
     <g id="line2d_28">
      <defs>
       <path id="mf881c7a328" d="M 0 0 
L -3.5 0 
" style="stroke: #000000; stroke-width: 0.8"/>
      </defs>
      <g>
       <use xlink:href="#mf881c7a328" x="46.847813" y="240.282806" style="stroke: #000000; stroke-width: 0.8"/>
      </g>
     </g>
     <g id="text_28">
      <!-- 0 -->
      <g transform="translate(35.441563 243.319681) scale(0.08 -0.08)">
       <use xlink:href="#MalgunGothic-30"/>
      </g>
     </g>
    </g>
    <g id="ytick_2">
     <g id="line2d_29">
      <g>
       <use xlink:href="#mf881c7a328" x="46.847813" y="209.977292" style="stroke: #000000; stroke-width: 0.8"/>
      </g>
     </g>
     <g id="text_29">
      <!-- 1,000 -->
      <g transform="translate(20.472813 213.014167) scale(0.08 -0.08)">
       <defs>
        <path id="MalgunGothic-2c" d="M 988 725 
L 472 -850 
L 125 -850 
L 503 725 
L 988 725 
z
" transform="scale(0.015625)"/>
       </defs>
       <use xlink:href="#MalgunGothic-31"/>
       <use xlink:href="#MalgunGothic-2c" transform="translate(55.078125 0)"/>
       <use xlink:href="#MalgunGothic-30" transform="translate(76.953125 0)"/>
       <use xlink:href="#MalgunGothic-30" transform="translate(132.03125 0)"/>
       <use xlink:href="#MalgunGothic-30" transform="translate(187.109375 0)"/>
      </g>
     </g>
    </g>
    <g id="ytick_3">
     <g id="line2d_30">
      <g>
       <use xlink:href="#mf881c7a328" x="46.847813" y="179.671777" style="stroke: #000000; stroke-width: 0.8"/>
      </g>
     </g>
     <g id="text_30">
      <!-- 2,000 -->
      <g transform="translate(20.472813 182.708652) scale(0.08 -0.08)">
       <use xlink:href="#MalgunGothic-32"/>
       <use xlink:href="#MalgunGothic-2c" transform="translate(55.078125 0)"/>
       <use xlink:href="#MalgunGothic-30" transform="translate(76.953125 0)"/>
       <use xlink:href="#MalgunGothic-30" transform="translate(132.03125 0)"/>
       <use xlink:href="#MalgunGothic-30" transform="translate(187.109375 0)"/>
      </g>
     </g>
    </g>
    <g id="ytick_4">
     <g id="line2d_31">
      <g>
       <use xlink:href="#mf881c7a328" x="46.847813" y="149.366263" style="stroke: #000000; stroke-width: 0.8"/>
      </g>
     </g>
     <g id="text_31">
      <!-- 3,000 -->
      <g transform="translate(20.472813 152.403138) scale(0.08 -0.08)">
       <use xlink:href="#MalgunGothic-33"/>
       <use xlink:href="#MalgunGothic-2c" transform="translate(55.078125 0)"/>
       <use xlink:href="#MalgunGothic-30" transform="translate(76.953125 0)"/>
       <use xlink:href="#MalgunGothic-30" transform="translate(132.03125 0)"/>
       <use xlink:href="#MalgunGothic-30" transform="translate(187.109375 0)"/>
      </g>
     </g>
    </g>
    <g id="ytick_5">
     <g id="line2d_32">
      <g>
       <use xlink:href="#mf881c7a328" x="46.847813" y="119.060749" style="stroke: #000000; stroke-width: 0.8"/>
      </g>
     </g>
     <g id="text_32">
      <!-- 4,000 -->
      <g transform="translate(20.472813 122.097624) scale(0.08 -0.08)">
       <use xlink:href="#MalgunGothic-34"/>
       <use xlink:href="#MalgunGothic-2c" transform="translate(55.078125 0)"/>
       <use xlink:href="#MalgunGothic-30" transform="translate(76.953125 0)"/>
       <use xlink:href="#MalgunGothic-30" transform="translate(132.03125 0)"/>
       <use xlink:href="#MalgunGothic-30" transform="translate(187.109375 0)"/>
      </g>
     </g>
    </g>
    <g id="ytick_6">
     <g id="line2d_33">
      <g>
       <use xlink:href="#mf881c7a328" x="46.847813" y="88.755235" style="stroke: #000000; stroke-width: 0.8"/>
      </g>
     </g>
     <g id="text_33">
      <!-- 5,000 -->
      <g transform="translate(20.472813 91.79211) scale(0.08 -0.08)">
       <use xlink:href="#MalgunGothic-35"/>
       <use xlink:href="#MalgunGothic-2c" transform="translate(55.078125 0)"/>
       <use xlink:href="#MalgunGothic-30" transform="translate(76.953125 0)"/>
       <use xlink:href="#MalgunGothic-30" transform="translate(132.03125 0)"/>
       <use xlink:href="#MalgunGothic-30" transform="translate(187.109375 0)"/>
      </g>
     </g>
    </g>
    <g id="ytick_7">
     <g id="line2d_34">
      <g>
       <use xlink:href="#mf881c7a328" x="46.847813" y="58.449721" style="stroke: #000000; stroke-width: 0.8"/>
      </g>
     </g>
     <g id="text_34">
      <!-- 6,000 -->
      <g transform="translate(20.472813 61.486596) scale(0.08 -0.08)">
       <use xlink:href="#MalgunGothic-36"/>
       <use xlink:href="#MalgunGothic-2c" transform="translate(55.078125 0)"/>
       <use xlink:href="#MalgunGothic-30" transform="translate(76.953125 0)"/>
       <use xlink:href="#MalgunGothic-30" transform="translate(132.03125 0)"/>
       <use xlink:href="#MalgunGothic-30" transform="translate(187.109375 0)"/>
      </g>
     </g>
    </g>
    <g id="ytick_8">
     <g id="line2d_35">
      <g>
       <use xlink:href="#mf881c7a328" x="46.847813" y="28.144207" style="stroke: #000000; stroke-width: 0.8"/>
      </g>
     </g>
     <g id="text_35">
      <!-- 7,000 -->
      <g transform="translate(20.472813 31.181082) scale(0.08 -0.08)">
       <use xlink:href="#MalgunGothic-37"/>
       <use xlink:href="#MalgunGothic-2c" transform="translate(55.078125 0)"/>
       <use xlink:href="#MalgunGothic-30" transform="translate(76.953125 0)"/>
       <use xlink:href="#MalgunGothic-30" transform="translate(132.03125 0)"/>
       <use xlink:href="#MalgunGothic-30" transform="translate(187.109375 0)"/>
      </g>
     </g>
    </g>
    <g id="text_36">
     <!-- 수출 (천$) -->
     <g transform="translate(14.345156 152.21984) rotate(-90) scale(0.09 -0.09)">
      <defs>
       <path id="MalgunGothic-c218" d="M 5491 2994 
Q 4750 3097 4078 3498 
Q 3406 3900 3200 4275 
Q 2975 3891 2309 3491 
Q 1644 3091 922 2956 
L 634 3347 
Q 1559 3450 2261 3942 
Q 2963 4434 2963 5013 
L 2963 5275 
L 3431 5275 
L 3431 5013 
Q 3431 4431 4118 3948 
Q 4806 3466 5766 3378 
L 5491 2994 
z
M 3431 1838 
L 3431 -563 
L 2963 -563 
L 2963 1838 
L 403 1838 
L 403 2253 
L 5997 2253 
L 5997 1838 
L 3431 1838 
z
" transform="scale(0.015625)"/>
       <path id="MalgunGothic-cd9c" d="M 5466 3334 
Q 4759 3400 4114 3664 
Q 3469 3928 3213 4225 
Q 2966 3931 2323 3670 
Q 1681 3409 966 3341 
L 709 3750 
Q 1328 3725 2017 3970 
Q 2706 4216 2906 4603 
L 1056 4603 
L 1056 5019 
L 2969 5019 
L 2969 5550 
L 3444 5550 
L 3444 5019 
L 5344 5019 
L 5344 4603 
L 3494 4603 
Q 3691 4241 4356 3995 
Q 5022 3750 5691 3750 
L 5466 3334 
z
M 1319 -416 
L 1319 947 
L 4616 947 
L 4616 1478 
L 1319 1478 
L 1319 1888 
L 2963 1888 
L 2963 2484 
L 403 2484 
L 403 2900 
L 5997 2900 
L 5997 2484 
L 3438 2484 
L 3438 1888 
L 5075 1888 
L 5075 544 
L 1778 544 
L 1778 0 
L 5234 0 
L 5234 -416 
L 1319 -416 
z
" transform="scale(0.015625)"/>
       <path id="MalgunGothic-20" transform="scale(0.015625)"/>
       <path id="MalgunGothic-28" d="M 1438 -1044 
Q 447 88 447 1753 
Q 447 3431 1438 4600 
L 1888 4600 
Q 878 3372 878 1759 
Q 878 153 1881 -1044 
L 1438 -1044 
z
" transform="scale(0.015625)"/>
       <path id="MalgunGothic-cc9c" d="M 4884 1056 
L 4884 3278 
L 3541 3278 
L 3541 3694 
L 4884 3694 
L 4884 5466 
L 5350 5466 
L 5350 1056 
L 4884 1056 
z
M 3756 1881 
Q 3306 2091 2892 2470 
Q 2478 2850 2297 3200 
Q 2109 2797 1686 2380 
Q 1263 1963 831 1747 
L 488 2106 
Q 1100 2319 1576 2876 
Q 2053 3434 2053 3916 
L 2053 4347 
L 678 4347 
L 678 4763 
L 2059 4763 
L 2059 5459 
L 2528 5459 
L 2528 4763 
L 3897 4763 
L 3897 4347 
L 2528 4347 
L 2528 3922 
Q 2528 3456 3006 2948 
Q 3484 2441 4072 2266 
L 3756 1881 
z
M 1638 -366 
L 1638 1581 
L 2113 1581 
L 2113 44 
L 5509 44 
L 5509 -366 
L 1638 -366 
z
" transform="scale(0.015625)"/>
       <path id="MalgunGothic-24" d="M 1963 -672 
L 1638 -672 
L 1638 0 
Q 953 0 534 272 
L 534 809 
Q 703 653 1039 537 
Q 1375 422 1638 428 
L 1638 2103 
Q 922 2453 725 2731 
Q 528 3009 528 3400 
Q 528 3841 842 4192 
Q 1156 4544 1638 4603 
L 1638 5181 
L 1963 5181 
L 1963 4616 
Q 2594 4597 2822 4441 
L 2822 3916 
Q 2509 4172 1963 4188 
L 1963 2466 
Q 2497 2200 2803 1912 
Q 3109 1625 3109 1181 
Q 3109 725 2804 420 
Q 2500 116 1963 28 
L 1963 -672 
z
M 1638 4172 
Q 1044 4031 1044 3469 
Q 1044 3222 1136 3056 
Q 1228 2891 1638 2644 
L 1638 4172 
z
M 1963 453 
Q 2591 594 2591 1134 
Q 2591 1588 1963 1934 
L 1963 453 
z
" transform="scale(0.015625)"/>
       <path id="MalgunGothic-29" d="M 81 -1044 
Q 1081 150 1081 1759 
Q 1081 3378 72 4600 
L 525 4600 
Q 1522 3431 1522 1753 
Q 1522 88 525 -1044 
L 81 -1044 
z
" transform="scale(0.015625)"/>
      </defs>
      <use xlink:href="#MalgunGothic-c218"/>
      <use xlink:href="#MalgunGothic-cd9c" transform="translate(100 0)"/>
      <use xlink:href="#MalgunGothic-20" transform="translate(200 0)"/>
      <use xlink:href="#MalgunGothic-28" transform="translate(235.15625 0)"/>
      <use xlink:href="#MalgunGothic-cc9c" transform="translate(265.625 0)"/>
      <use xlink:href="#MalgunGothic-24" transform="translate(365.625 0)"/>
      <use xlink:href="#MalgunGothic-29" transform="translate(420.703125 0)"/>
     </g>
    </g>
   </g>
   <g id="patch_30">
    <path d="M 46.847813 240.282806 
L 46.847813 23.551406 
" style="fill: none; stroke: #000000; stroke-width: 0.8; stroke-linejoin: miter; stroke-linecap: square"/>
   </g>
   <g id="patch_31">
    <path d="M 1112.227812 240.282806 
L 1112.227812 23.551406 
" style="fill: none; stroke: #000000; stroke-width: 0.8; stroke-linejoin: miter; stroke-linecap: square"/>
   </g>
   <g id="patch_32">
    <path d="M 46.847813 240.282806 
L 1112.227812 240.282806 
" style="fill: none; stroke: #000000; stroke-width: 0.8; stroke-linejoin: miter; stroke-linecap: square"/>
   </g>
   <g id="patch_33">
    <path d="M 46.847813 23.551406 
L 1112.227812 23.551406 
" style="fill: none; stroke: #000000; stroke-width: 0.8; stroke-linejoin: miter; stroke-linecap: square"/>
   </g>
   <g id="text_37">
    <!-- HS 180600 — 초콜릿과 코코아를 함유한 그 밖의 조 수출 -->
    <g transform="translate(437.844922 15.551406) scale(0.11 -0.11)">
     <defs>
      <path id="MalgunGothic-48" d="M 4028 0 
L 3525 0 
L 3525 2109 
L 1113 2109 
L 1113 0 
L 609 0 
L 609 4600 
L 1113 4600 
L 1113 2569 
L 3525 2569 
L 3525 4600 
L 4028 4600 
L 4028 0 
z
" transform="scale(0.015625)"/>
      <path id="MalgunGothic-53" d="M 394 797 
Q 606 613 964 500 
Q 1322 388 1625 388 
Q 2628 388 2628 1116 
Q 2628 1325 2523 1484 
Q 2419 1644 2250 1756 
Q 2081 1869 1547 2144 
Q 903 2475 651 2754 
Q 400 3034 400 3456 
Q 400 4019 858 4347 
Q 1316 4675 1988 4675 
Q 2669 4675 2963 4513 
L 2963 3928 
Q 2563 4206 1922 4206 
Q 1484 4206 1207 4018 
Q 931 3831 931 3500 
Q 931 3200 1126 3011 
Q 1322 2822 1938 2522 
Q 2656 2163 2906 1844 
Q 3156 1525 3156 1153 
Q 3156 556 2725 239 
Q 2294 -78 1531 -78 
Q 1291 -78 927 -1 
Q 563 75 394 188 
L 394 797 
z
" transform="scale(0.015625)"/>
      <path id="MalgunGothic-2014" d="M 6566 1634 
L 0 1634 
L 0 2031 
L 6566 2031 
L 6566 1634 
z
" transform="scale(0.015625)"/>
      <path id="MalgunGothic-cd08" d="M 3438 4256 
Q 3478 3700 4140 3189 
Q 4803 2678 5734 2522 
L 5434 2113 
Q 4759 2278 4103 2708 
Q 3447 3138 3194 3578 
Q 2919 3122 2306 2709 
Q 1694 2297 997 2106 
L 672 2509 
Q 1550 2638 2229 3166 
Q 2909 3694 2956 4256 
L 1025 4256 
L 1025 4672 
L 2969 4672 
L 2969 5356 
L 3444 5356 
L 3444 4672 
L 5375 4672 
L 5375 4256 
L 3438 4256 
z
M 403 391 
L 403 806 
L 2956 806 
L 2956 2209 
L 3431 2209 
L 3431 806 
L 5997 806 
L 5997 391 
L 403 391 
z
" transform="scale(0.015625)"/>
      <path id="MalgunGothic-cf5c" d="M 1178 3828 
L 1081 4263 
L 4738 4391 
L 4744 4922 
L 1344 4922 
L 1344 5325 
L 5209 5325 
Q 5209 3938 5131 3250 
L 4684 3278 
Q 4706 3466 4722 4013 
L 1178 3828 
z
M 403 2509 
L 403 2925 
L 2778 2925 
L 2778 3694 
L 3238 3694 
L 3238 2925 
L 5997 2925 
L 5997 2509 
L 403 2509 
z
M 1325 -416 
L 1325 978 
L 4616 978 
L 4616 1544 
L 1325 1544 
L 1325 1953 
L 5075 1953 
L 5075 575 
L 1784 575 
L 1784 0 
L 5234 0 
L 5234 -416 
L 1325 -416 
z
" transform="scale(0.015625)"/>
      <path id="MalgunGothic-b9bf" d="M 4947 1269 
L 4947 5466 
L 5422 5466 
L 5422 1269 
L 4947 1269 
z
M 4391 2247 
Q 3903 2169 3378 2150 
Q 2853 2131 1044 2131 
L 1044 3909 
L 3278 3909 
L 3278 4769 
L 1044 4769 
L 1044 5184 
L 3738 5184 
L 3738 3506 
L 1503 3506 
L 1503 2547 
Q 3009 2547 3492 2565 
Q 3975 2584 4313 2650 
L 4391 2247 
z
M 5544 -428 
Q 4916 -316 4292 56 
Q 3669 428 3431 806 
Q 3241 444 2608 59 
Q 1975 -325 1344 -428 
L 1050 -38 
Q 1903 38 2543 511 
Q 3184 984 3194 1522 
L 3194 1638 
L 3659 1638 
L 3659 1528 
Q 3659 1016 4296 544 
Q 4934 72 5806 -38 
L 5544 -428 
z
" transform="scale(0.015625)"/>
      <path id="MalgunGothic-acfc" d="M 6188 2663 
L 5203 2663 
L 5203 -563 
L 4728 -563 
L 4728 5466 
L 5197 5466 
L 5197 3078 
L 6188 3078 
L 6188 2663 
z
M 3828 4897 
Q 3828 3144 3713 1800 
L 3256 1831 
Q 3294 2163 3326 3077 
Q 3359 3991 3359 4481 
L 800 4481 
L 800 4897 
L 3828 4897 
z
M 4319 666 
Q 2688 575 281 575 
L 238 984 
Q 559 984 1747 1000 
L 1747 3084 
L 2216 3084 
L 2216 1006 
L 4288 1069 
L 4319 666 
z
" transform="scale(0.015625)"/>
      <path id="MalgunGothic-cf54" d="M 5006 1478 
L 4563 1528 
Q 4656 2344 4666 3047 
L 959 2797 
L 863 3244 
L 4666 3438 
L 4672 4481 
L 1147 4481 
L 1147 4891 
L 5141 4891 
L 5141 3481 
Q 5141 2375 5006 1478 
z
M 403 416 
L 403 838 
L 2656 838 
L 2656 2309 
L 3122 2309 
L 3122 838 
L 5997 838 
L 5997 416 
L 403 416 
z
" transform="scale(0.015625)"/>
      <path id="MalgunGothic-c544" d="M 5094 2600 
L 5094 -563 
L 4628 -563 
L 4628 5466 
L 5094 5466 
L 5094 3022 
L 6113 3022 
L 6113 2600 
L 5094 2600 
z
M 2194 966 
Q 1509 966 1087 1512 
Q 666 2059 666 3016 
Q 666 3981 1083 4522 
Q 1500 5063 2194 5063 
Q 2891 5063 3308 4514 
Q 3725 3966 3725 3016 
Q 3725 2063 3306 1514 
Q 2888 966 2194 966 
z
M 2194 4647 
Q 1716 4647 1420 4208 
Q 1125 3769 1125 3016 
Q 1125 2275 1423 1828 
Q 1722 1381 2194 1381 
Q 2663 1381 2963 1831 
Q 3263 2281 3263 3016 
Q 3263 3766 2969 4206 
Q 2675 4647 2194 4647 
z
" transform="scale(0.015625)"/>
      <path id="MalgunGothic-b97c" d="M 5222 3144 
L 1313 3144 
L 1313 4447 
L 4628 4447 
L 4628 4966 
L 1313 4966 
L 1313 5363 
L 5088 5363 
L 5088 4084 
L 1772 4084 
L 1772 3541 
L 5222 3541 
L 5222 3144 
z
M 5997 2241 
L 403 2241 
L 403 2638 
L 5997 2638 
L 5997 2241 
z
M 5234 -500 
L 1294 -500 
L 1294 819 
L 4641 819 
L 4641 1338 
L 1294 1338 
L 1294 1734 
L 5100 1734 
L 5100 447 
L 1753 447 
L 1753 -103 
L 5234 -103 
L 5234 -500 
z
" transform="scale(0.015625)"/>
      <path id="MalgunGothic-d568" d="M 447 4306 
L 447 4716 
L 1997 4716 
L 1997 5497 
L 2463 5497 
L 2463 4716 
L 4013 4716 
L 4013 4306 
L 447 4306 
z
M 5125 3150 
L 5125 1869 
L 4659 1869 
L 4659 5466 
L 5125 5466 
L 5125 3572 
L 6034 3572 
L 6034 3150 
L 5125 3150 
z
M 2241 1966 
Q 1544 1966 1150 2252 
Q 756 2538 756 2994 
Q 756 3453 1154 3742 
Q 1553 4031 2247 4031 
Q 2941 4031 3339 3742 
Q 3738 3453 3738 2994 
Q 3738 2544 3339 2255 
Q 2941 1966 2241 1966 
z
M 2247 3634 
Q 1763 3634 1489 3456 
Q 1216 3278 1216 2994 
Q 1216 2713 1487 2538 
Q 1759 2363 2247 2363 
Q 2734 2363 3006 2538 
Q 3278 2713 3278 2994 
Q 3278 3278 3004 3456 
Q 2731 3634 2247 3634 
z
M 1428 -453 
L 1428 1538 
L 5125 1538 
L 5125 -453 
L 1428 -453 
z
M 4666 1125 
L 1888 1125 
L 1888 -38 
L 4666 -38 
L 4666 1125 
z
" transform="scale(0.015625)"/>
      <path id="MalgunGothic-c720" d="M 3200 2784 
Q 2278 2784 1768 3131 
Q 1259 3478 1259 4078 
Q 1259 4669 1775 5025 
Q 2291 5381 3200 5381 
Q 4128 5381 4640 5025 
Q 5153 4669 5153 4078 
Q 5153 3484 4640 3134 
Q 4128 2784 3200 2784 
z
M 3200 4978 
Q 2513 4978 2130 4736 
Q 1747 4494 1747 4078 
Q 1747 3669 2130 3425 
Q 2513 3181 3200 3181 
Q 3888 3181 4270 3425 
Q 4653 3669 4653 4078 
Q 4653 4494 4270 4736 
Q 3888 4978 3200 4978 
z
M 1913 -556 
L 1913 1672 
L 403 1672 
L 403 2094 
L 5997 2094 
L 5997 1672 
L 4488 1672 
L 4488 -556 
L 4019 -556 
L 4019 1672 
L 2381 1672 
L 2381 -556 
L 1913 -556 
z
" transform="scale(0.015625)"/>
      <path id="MalgunGothic-d55c" d="M 5125 2713 
L 5125 978 
L 4659 978 
L 4659 5466 
L 5125 5466 
L 5125 3138 
L 6034 3138 
L 6034 2713 
L 5125 2713 
z
M 447 4244 
L 447 4659 
L 2003 4659 
L 2003 5441 
L 2478 5441 
L 2478 4659 
L 4031 4659 
L 4031 4244 
L 447 4244 
z
M 2241 1650 
Q 1559 1650 1161 1979 
Q 763 2309 763 2791 
Q 763 3266 1161 3594 
Q 1559 3922 2247 3922 
Q 2931 3922 3331 3595 
Q 3731 3269 3731 2791 
Q 3731 2316 3329 1983 
Q 2928 1650 2241 1650 
z
M 2247 3525 
Q 1772 3525 1497 3319 
Q 1222 3113 1222 2791 
Q 1222 2466 1498 2256 
Q 1775 2047 2247 2047 
Q 2719 2047 2995 2256 
Q 3272 2466 3272 2791 
Q 3272 3113 2997 3319 
Q 2722 3525 2247 3525 
z
M 1459 -453 
L 1459 1216 
L 1919 1216 
L 1919 -38 
L 5313 -38 
L 5313 -453 
L 1459 -453 
z
" transform="scale(0.015625)"/>
      <path id="MalgunGothic-adf8" d="M 403 622 
L 403 1038 
L 4434 1038 
Q 4563 1981 4563 3053 
L 4563 4481 
L 1253 4481 
L 1253 4897 
L 5031 4897 
L 5031 3238 
Q 5031 2322 4891 1038 
L 5997 1038 
L 5997 622 
L 403 622 
z
" transform="scale(0.015625)"/>
      <path id="MalgunGothic-bc16" d="M 5125 3456 
L 5125 2119 
L 4659 2119 
L 4659 5466 
L 5125 5466 
L 5125 3872 
L 6034 3872 
L 6034 3456 
L 5125 3456 
z
M 756 2472 
L 756 5253 
L 1216 5253 
L 1216 4231 
L 3059 4231 
L 3059 5253 
L 3519 5253 
L 3519 2472 
L 756 2472 
z
M 3059 3816 
L 1216 3816 
L 1216 2881 
L 3059 2881 
L 3059 3816 
z
M 4678 -563 
L 4678 1381 
L 3278 1381 
L 3278 1784 
L 5141 1784 
L 5141 -563 
L 4678 -563 
z
M 2528 -563 
L 2528 1381 
L 1056 1381 
L 1056 1784 
L 2981 1784 
L 2981 -563 
L 2528 -563 
z
" transform="scale(0.015625)"/>
      <path id="MalgunGothic-c758" d="M 5013 -563 
L 5013 5466 
L 5478 5466 
L 5478 -563 
L 5013 -563 
z
M 2450 2131 
Q 1775 2131 1315 2540 
Q 856 2950 856 3572 
Q 856 4181 1312 4593 
Q 1769 5006 2450 5006 
Q 3128 5006 3586 4590 
Q 4044 4175 4044 3572 
Q 4044 2947 3587 2539 
Q 3131 2131 2450 2131 
z
M 2450 4594 
Q 1975 4594 1656 4306 
Q 1338 4019 1338 3572 
Q 1338 3119 1664 2833 
Q 1991 2547 2450 2547 
Q 2922 2547 3244 2833 
Q 3566 3119 3566 3572 
Q 3566 4025 3247 4309 
Q 2928 4594 2450 4594 
z
M 459 531 
L 416 934 
Q 1222 934 2667 965 
Q 4113 997 4588 1038 
L 4616 634 
Q 4125 594 2679 562 
Q 1234 531 459 531 
z
" transform="scale(0.015625)"/>
      <path id="MalgunGothic-c870" d="M 3438 4494 
L 3438 4441 
Q 3438 3903 4070 3286 
Q 4703 2669 5759 2425 
L 5428 2041 
Q 4684 2275 4050 2754 
Q 3416 3234 3194 3688 
Q 2963 3231 2341 2759 
Q 1719 2288 972 2034 
L 641 2419 
Q 1666 2628 2311 3268 
Q 2956 3909 2956 4441 
L 2956 4494 
L 1025 4494 
L 1025 4909 
L 5375 4909 
L 5375 4494 
L 3438 4494 
z
M 403 391 
L 403 800 
L 2963 800 
L 2963 2322 
L 3438 2322 
L 3438 800 
L 5997 800 
L 5997 391 
L 403 391 
z
" transform="scale(0.015625)"/>
     </defs>
     <use xlink:href="#MalgunGothic-48"/>
     <use xlink:href="#MalgunGothic-53" transform="translate(72.460938 0)"/>
     <use xlink:href="#MalgunGothic-20" transform="translate(126.757812 0)"/>
     <use xlink:href="#MalgunGothic-31" transform="translate(161.914062 0)"/>
     <use xlink:href="#MalgunGothic-38" transform="translate(216.992188 0)"/>
     <use xlink:href="#MalgunGothic-30" transform="translate(272.070312 0)"/>
     <use xlink:href="#MalgunGothic-36" transform="translate(327.148438 0)"/>
     <use xlink:href="#MalgunGothic-30" transform="translate(382.226562 0)"/>
     <use xlink:href="#MalgunGothic-30" transform="translate(437.304688 0)"/>
     <use xlink:href="#MalgunGothic-20" transform="translate(492.382812 0)"/>
     <use xlink:href="#MalgunGothic-2014" transform="translate(527.539062 0)"/>
     <use xlink:href="#MalgunGothic-20" transform="translate(630.126953 0)"/>
     <use xlink:href="#MalgunGothic-cd08" transform="translate(665.283203 0)"/>
     <use xlink:href="#MalgunGothic-cf5c" transform="translate(765.283203 0)"/>
     <use xlink:href="#MalgunGothic-b9bf" transform="translate(865.283203 0)"/>
     <use xlink:href="#MalgunGothic-acfc" transform="translate(965.283203 0)"/>
     <use xlink:href="#MalgunGothic-20" transform="translate(1065.283203 0)"/>
     <use xlink:href="#MalgunGothic-cf54" transform="translate(1100.439453 0)"/>
     <use xlink:href="#MalgunGothic-cf54" transform="translate(1200.439453 0)"/>
     <use xlink:href="#MalgunGothic-c544" transform="translate(1300.439453 0)"/>
     <use xlink:href="#MalgunGothic-b97c" transform="translate(1400.439453 0)"/>
     <use xlink:href="#MalgunGothic-20" transform="translate(1500.439453 0)"/>
     <use xlink:href="#MalgunGothic-d568" transform="translate(1535.595703 0)"/>
     <use xlink:href="#MalgunGothic-c720" transform="translate(1635.595703 0)"/>
     <use xlink:href="#MalgunGothic-d55c" transform="translate(1735.595703 0)"/>
     <use xlink:href="#MalgunGothic-20" transform="translate(1835.595703 0)"/>
     <use xlink:href="#MalgunGothic-adf8" transform="translate(1870.751953 0)"/>
     <use xlink:href="#MalgunGothic-20" transform="translate(1970.751953 0)"/>
     <use xlink:href="#MalgunGothic-bc16" transform="translate(2005.908203 0)"/>
     <use xlink:href="#MalgunGothic-c758" transform="translate(2105.908203 0)"/>
     <use xlink:href="#MalgunGothic-20" transform="translate(2205.908203 0)"/>
     <use xlink:href="#MalgunGothic-c870" transform="translate(2241.064453 0)"/>
     <use xlink:href="#MalgunGothic-20" transform="translate(2341.064453 0)"/>
     <use xlink:href="#MalgunGothic-c218" transform="translate(2376.220703 0)"/>
     <use xlink:href="#MalgunGothic-cd9c" transform="translate(2476.220703 0)"/>
    </g>
   </g>
   <g id="legend_1">
    <g id="patch_34">
     <path d="M 52.447813 54.436406 
L 141.794063 54.436406 
Q 143.394063 54.436406 143.394063 52.836406 
L 143.394063 29.151406 
Q 143.394063 27.551406 141.794063 27.551406 
L 52.447813 27.551406 
Q 50.847813 27.551406 50.847813 29.151406 
L 50.847813 52.836406 
Q 50.847813 54.436406 52.447813 54.436406 
z
" style="fill: #ffffff; opacity: 0.7; stroke: #cccccc; stroke-linejoin: miter"/>
    </g>
    <g id="patch_35">
     <path d="M 54.047813 37.102656 
L 70.047813 37.102656 
L 70.047813 31.502656 
L 54.047813 31.502656 
z
" style="fill: #4472c4; opacity: 0.85"/>
    </g>
    <g id="text_38">
     <!-- 수출(천$) -->
     <g transform="translate(76.447812 37.102656) scale(0.08 -0.08)">
      <use xlink:href="#MalgunGothic-c218"/>
      <use xlink:href="#MalgunGothic-cd9c" transform="translate(100 0)"/>
      <use xlink:href="#MalgunGothic-28" transform="translate(200 0)"/>
      <use xlink:href="#MalgunGothic-cc9c" transform="translate(230.46875 0)"/>
      <use xlink:href="#MalgunGothic-24" transform="translate(330.46875 0)"/>
      <use xlink:href="#MalgunGothic-29" transform="translate(385.546875 0)"/>
     </g>
    </g>
    <g id="line2d_36">
     <path d="M 54.047813 46.545156 
L 62.047813 46.545156 
L 70.047813 46.545156 
" style="fill: none; stroke: #1f4e79; stroke-width: 1.5; stroke-linecap: square"/>
     <defs>
      <path id="mdeadc99bb4" d="M 0 1.5 
C 0.397805 1.5 0.77937 1.341951 1.06066 1.06066 
C 1.341951 0.77937 1.5 0.397805 1.5 0 
C 1.5 -0.397805 1.341951 -0.77937 1.06066 -1.06066 
C 0.77937 -1.341951 0.397805 -1.5 0 -1.5 
C -0.397805 -1.5 -0.77937 -1.341951 -1.06066 -1.06066 
C -1.341951 -0.77937 -1.5 -0.397805 -1.5 0 
C -1.5 0.397805 -1.341951 0.77937 -1.06066 1.06066 
C -0.77937 1.341951 -0.397805 1.5 0 1.5 
z
" style="stroke: #1f4e79"/>
     </defs>
     <g>
      <use xlink:href="#mdeadc99bb4" x="62.047813" y="46.545156" style="fill: #1f4e79; stroke: #1f4e79"/>
     </g>
    </g>
    <g id="text_39">
     <!-- 수출단가(USD/톤) -->
     <g transform="translate(76.447812 49.345156) scale(0.08 -0.08)">
      <defs>
       <path id="MalgunGothic-b2e8" d="M 5125 3169 
L 5125 1063 
L 4659 1063 
L 4659 5466 
L 5125 5466 
L 5125 3584 
L 6034 3584 
L 6034 3169 
L 5125 3169 
z
M 3903 2363 
Q 3306 2291 850 2291 
L 850 5081 
L 3688 5081 
L 3688 4666 
L 1319 4666 
L 1319 2706 
Q 3244 2706 3872 2766 
L 3903 2363 
z
M 1459 -378 
L 1459 1581 
L 1925 1581 
L 1925 38 
L 5294 38 
L 5294 -378 
L 1459 -378 
z
" transform="scale(0.015625)"/>
       <path id="MalgunGothic-ac00" d="M 5094 2566 
L 5094 -563 
L 4628 -563 
L 4628 5466 
L 5094 5466 
L 5094 2981 
L 6175 2981 
L 6175 2566 
L 5094 2566 
z
M 3609 4928 
Q 3541 2363 897 863 
L 538 1241 
Q 1484 1631 2234 2506 
Q 2984 3381 3109 4513 
L 794 4513 
L 794 4928 
L 3609 4928 
z
" transform="scale(0.015625)"/>
       <path id="MalgunGothic-55" d="M 3947 1850 
Q 3947 -78 2209 -78 
Q 553 -78 553 1778 
L 553 4600 
L 1056 4600 
L 1056 1813 
Q 1056 381 2272 381 
Q 3441 381 3441 1763 
L 3441 4600 
L 3947 4600 
L 3947 1850 
z
" transform="scale(0.015625)"/>
       <path id="MalgunGothic-44" d="M 609 0 
L 609 4600 
L 1856 4600 
Q 4281 4600 4281 2356 
Q 4281 1288 3587 644 
Q 2894 0 1800 0 
L 609 0 
z
M 1113 4134 
L 1113 463 
L 1813 463 
Q 2734 463 3243 958 
Q 3753 1453 3753 2344 
Q 3753 4134 1844 4134 
L 1113 4134 
z
" transform="scale(0.015625)"/>
       <path id="MalgunGothic-2f" d="M 2584 4600 
L 378 -763 
L -84 -763 
L 2113 4600 
L 2584 4600 
z
" transform="scale(0.015625)"/>
       <path id="MalgunGothic-d1a4" d="M 403 1684 
L 403 2100 
L 2969 2100 
L 2969 2809 
L 1331 2809 
L 1331 5269 
L 5088 5269 
L 5088 4850 
L 1797 4850 
L 1797 4244 
L 4984 4244 
L 4984 3841 
L 1797 3841 
L 1797 3225 
L 5166 3225 
L 5166 2809 
L 3438 2809 
L 3438 2100 
L 5997 2100 
L 5997 1684 
L 403 1684 
z
M 1325 -422 
L 1325 1191 
L 1791 1191 
L 1791 0 
L 5203 0 
L 5203 -422 
L 1325 -422 
z
" transform="scale(0.015625)"/>
      </defs>
      <use xlink:href="#MalgunGothic-c218"/>
      <use xlink:href="#MalgunGothic-cd9c" transform="translate(100 0)"/>
      <use xlink:href="#MalgunGothic-b2e8" transform="translate(200 0)"/>
      <use xlink:href="#MalgunGothic-ac00" transform="translate(300 0)"/>
      <use xlink:href="#MalgunGothic-28" transform="translate(400 0)"/>
      <use xlink:href="#MalgunGothic-55" transform="translate(430.46875 0)"/>
      <use xlink:href="#MalgunGothic-53" transform="translate(500.732422 0)"/>
      <use xlink:href="#MalgunGothic-44" transform="translate(555.029297 0)"/>
      <use xlink:href="#MalgunGothic-2f" transform="translate(626.757812 0)"/>
      <use xlink:href="#MalgunGothic-d1a4" transform="translate(666.357422 0)"/>
      <use xlink:href="#MalgunGothic-29" transform="translate(766.357422 0)"/>
     </g>
    </g>
   </g>
  </g>
  <g id="axes_2">
   <g id="matplotlib.axis_3">
    <g id="ytick_9">
     <g id="line2d_37">
      <defs>
       <path id="m30783d0be9" d="M 0 0 
L 3.5 0 
" style="stroke: #000000; stroke-width: 0.8"/>
      </defs>
      <g>
       <use xlink:href="#m30783d0be9" x="1112.227812" y="230.689071" style="stroke: #000000; stroke-width: 0.8"/>
      </g>
     </g>
     <g id="text_40">
      <!-- 1,600 -->
      <g style="fill: #808080" transform="translate(1119.227812 233.725946) scale(0.08 -0.08)">
       <use xlink:href="#MalgunGothic-31"/>
       <use xlink:href="#MalgunGothic-2c" transform="translate(55.078125 0)"/>
       <use xlink:href="#MalgunGothic-36" transform="translate(76.953125 0)"/>
       <use xlink:href="#MalgunGothic-30" transform="translate(132.03125 0)"/>
       <use xlink:href="#MalgunGothic-30" transform="translate(187.109375 0)"/>
      </g>
     </g>
    </g>
    <g id="ytick_10">
     <g id="line2d_38">
      <g>
       <use xlink:href="#m30783d0be9" x="1112.227812" y="201.50563" style="stroke: #000000; stroke-width: 0.8"/>
      </g>
     </g>
     <g id="text_41">
      <!-- 1,800 -->
      <g style="fill: #808080" transform="translate(1119.227812 204.542505) scale(0.08 -0.08)">
       <use xlink:href="#MalgunGothic-31"/>
       <use xlink:href="#MalgunGothic-2c" transform="translate(55.078125 0)"/>
       <use xlink:href="#MalgunGothic-38" transform="translate(76.953125 0)"/>
       <use xlink:href="#MalgunGothic-30" transform="translate(132.03125 0)"/>
       <use xlink:href="#MalgunGothic-30" transform="translate(187.109375 0)"/>
      </g>
     </g>
    </g>
    <g id="ytick_11">
     <g id="line2d_39">
      <g>
       <use xlink:href="#m30783d0be9" x="1112.227812" y="172.32219" style="stroke: #000000; stroke-width: 0.8"/>
      </g>
     </g>
     <g id="text_42">
      <!-- 2,000 -->
      <g style="fill: #808080" transform="translate(1119.227812 175.359065) scale(0.08 -0.08)">
       <use xlink:href="#MalgunGothic-32"/>
       <use xlink:href="#MalgunGothic-2c" transform="translate(55.078125 0)"/>
       <use xlink:href="#MalgunGothic-30" transform="translate(76.953125 0)"/>
       <use xlink:href="#MalgunGothic-30" transform="translate(132.03125 0)"/>
       <use xlink:href="#MalgunGothic-30" transform="translate(187.109375 0)"/>
      </g>
     </g>
    </g>
    <g id="ytick_12">
     <g id="line2d_40">
      <g>
       <use xlink:href="#m30783d0be9" x="1112.227812" y="143.138749" style="stroke: #000000; stroke-width: 0.8"/>
      </g>
     </g>
     <g id="text_43">
      <!-- 2,200 -->
      <g style="fill: #808080" transform="translate(1119.227812 146.175624) scale(0.08 -0.08)">
       <use xlink:href="#MalgunGothic-32"/>
       <use xlink:href="#MalgunGothic-2c" transform="translate(55.078125 0)"/>
       <use xlink:href="#MalgunGothic-32" transform="translate(76.953125 0)"/>
       <use xlink:href="#MalgunGothic-30" transform="translate(132.03125 0)"/>
       <use xlink:href="#MalgunGothic-30" transform="translate(187.109375 0)"/>
      </g>
     </g>
    </g>
    <g id="ytick_13">
     <g id="line2d_41">
      <g>
       <use xlink:href="#m30783d0be9" x="1112.227812" y="113.955308" style="stroke: #000000; stroke-width: 0.8"/>
      </g>
     </g>
     <g id="text_44">
      <!-- 2,400 -->
      <g style="fill: #808080" transform="translate(1119.227812 116.992183) scale(0.08 -0.08)">
       <use xlink:href="#MalgunGothic-32"/>
       <use xlink:href="#MalgunGothic-2c" transform="translate(55.078125 0)"/>
       <use xlink:href="#MalgunGothic-34" transform="translate(76.953125 0)"/>
       <use xlink:href="#MalgunGothic-30" transform="translate(132.03125 0)"/>
       <use xlink:href="#MalgunGothic-30" transform="translate(187.109375 0)"/>
      </g>
     </g>
    </g>
    <g id="ytick_14">
     <g id="line2d_42">
      <g>
       <use xlink:href="#m30783d0be9" x="1112.227812" y="84.771867" style="stroke: #000000; stroke-width: 0.8"/>
      </g>
     </g>
     <g id="text_45">
      <!-- 2,600 -->
      <g style="fill: #808080" transform="translate(1119.227812 87.808742) scale(0.08 -0.08)">
       <use xlink:href="#MalgunGothic-32"/>
       <use xlink:href="#MalgunGothic-2c" transform="translate(55.078125 0)"/>
       <use xlink:href="#MalgunGothic-36" transform="translate(76.953125 0)"/>
       <use xlink:href="#MalgunGothic-30" transform="translate(132.03125 0)"/>
       <use xlink:href="#MalgunGothic-30" transform="translate(187.109375 0)"/>
      </g>
     </g>
    </g>
    <g id="ytick_15">
     <g id="line2d_43">
      <g>
       <use xlink:href="#m30783d0be9" x="1112.227812" y="55.588426" style="stroke: #000000; stroke-width: 0.8"/>
      </g>
     </g>
     <g id="text_46">
      <!-- 2,800 -->
      <g style="fill: #808080" transform="translate(1119.227812 58.625301) scale(0.08 -0.08)">
       <use xlink:href="#MalgunGothic-32"/>
       <use xlink:href="#MalgunGothic-2c" transform="translate(55.078125 0)"/>
       <use xlink:href="#MalgunGothic-38" transform="translate(76.953125 0)"/>
       <use xlink:href="#MalgunGothic-30" transform="translate(132.03125 0)"/>
       <use xlink:href="#MalgunGothic-30" transform="translate(187.109375 0)"/>
      </g>
     </g>
    </g>
    <g id="ytick_16">
     <g id="line2d_44">
      <g>
       <use xlink:href="#m30783d0be9" x="1112.227812" y="26.404985" style="stroke: #000000; stroke-width: 0.8"/>
      </g>
     </g>
     <g id="text_47">
      <!-- 3,000 -->
      <g style="fill: #808080" transform="translate(1119.227812 29.44186) scale(0.08 -0.08)">
       <use xlink:href="#MalgunGothic-33"/>
       <use xlink:href="#MalgunGothic-2c" transform="translate(55.078125 0)"/>
       <use xlink:href="#MalgunGothic-30" transform="translate(76.953125 0)"/>
       <use xlink:href="#MalgunGothic-30" transform="translate(132.03125 0)"/>
       <use xlink:href="#MalgunGothic-30" transform="translate(187.109375 0)"/>
      </g>
     </g>
    </g>
    <g id="text_48">
     <!-- 단가 (USD/톤) -->
     <g style="fill: #808080" transform="translate(1149.629844 160.356403) rotate(-90) scale(0.09 -0.09)">
      <use xlink:href="#MalgunGothic-b2e8"/>
      <use xlink:href="#MalgunGothic-ac00" transform="translate(100 0)"/>
      <use xlink:href="#MalgunGothic-20" transform="translate(200 0)"/>
      <use xlink:href="#MalgunGothic-28" transform="translate(235.15625 0)"/>
      <use xlink:href="#MalgunGothic-55" transform="translate(265.625 0)"/>
      <use xlink:href="#MalgunGothic-53" transform="translate(335.888672 0)"/>
      <use xlink:href="#MalgunGothic-44" transform="translate(390.185547 0)"/>
      <use xlink:href="#MalgunGothic-2f" transform="translate(461.914062 0)"/>
      <use xlink:href="#MalgunGothic-d1a4" transform="translate(501.513672 0)"/>
      <use xlink:href="#MalgunGothic-29" transform="translate(601.513672 0)"/>
     </g>
    </g>
   </g>
   <g id="line2d_45">
    <path d="M 109.729807 230.431378 
L 145.868884 187.671841 
L 182.007962 195.123482 
L 218.147039 220.278399 
L 254.286116 200.583063 
L 290.425194 204.122351 
L 326.564271 220.494042 
L 362.703348 219.991974 
L 398.842426 170.031185 
L 434.981503 204.538284 
L 471.12058 139.87612 
L 507.259658 75.180514 
L 543.398735 131.148934 
L 579.537812 125.16072 
L 615.67689 109.209191 
L 651.815967 40.955498 
L 687.955045 33.402833 
L 724.094122 101.963492 
L 760.233199 75.019445 
L 796.372277 89.540527 
L 832.511354 144.997263 
L 868.650431 106.12184 
L 904.789509 111.634357 
L 940.928586 129.429154 
L 977.067663 139.418503 
L 1013.206741 136.186633 
L 1049.345818 135.117721 
" clip-path="url(#pfdf15888cf)" style="fill: none; stroke: #1f4e79; stroke-width: 1.5; stroke-linecap: square"/>
    <g clip-path="url(#pfdf15888cf)">
     <use xlink:href="#mdeadc99bb4" x="109.729807" y="230.431378" style="fill: #1f4e79; stroke: #1f4e79"/>
     <use xlink:href="#mdeadc99bb4" x="145.868884" y="187.671841" style="fill: #1f4e79; stroke: #1f4e79"/>
     <use xlink:href="#mdeadc99bb4" x="182.007962" y="195.123482" style="fill: #1f4e79; stroke: #1f4e79"/>
     <use xlink:href="#mdeadc99bb4" x="218.147039" y="220.278399" style="fill: #1f4e79; stroke: #1f4e79"/>
     <use xlink:href="#mdeadc99bb4" x="254.286116" y="200.583063" style="fill: #1f4e79; stroke: #1f4e79"/>
     <use xlink:href="#mdeadc99bb4" x="290.425194" y="204.122351" style="fill: #1f4e79; stroke: #1f4e79"/>
     <use xlink:href="#mdeadc99bb4" x="326.564271" y="220.494042" style="fill: #1f4e79; stroke: #1f4e79"/>
     <use xlink:href="#mdeadc99bb4" x="362.703348" y="219.991974" style="fill: #1f4e79; stroke: #1f4e79"/>
     <use xlink:href="#mdeadc99bb4" x="398.842426" y="170.031185" style="fill: #1f4e79; stroke: #1f4e79"/>
     <use xlink:href="#mdeadc99bb4" x="434.981503" y="204.538284" style="fill: #1f4e79; stroke: #1f4e79"/>
     <use xlink:href="#mdeadc99bb4" x="471.12058" y="139.87612" style="fill: #1f4e79; stroke: #1f4e79"/>
     <use xlink:href="#mdeadc99bb4" x="507.259658" y="75.180514" style="fill: #1f4e79; stroke: #1f4e79"/>
     <use xlink:href="#mdeadc99bb4" x="543.398735" y="131.148934" style="fill: #1f4e79; stroke: #1f4e79"/>
     <use xlink:href="#mdeadc99bb4" x="579.537812" y="125.16072" style="fill: #1f4e79; stroke: #1f4e79"/>
     <use xlink:href="#mdeadc99bb4" x="615.67689" y="109.209191" style="fill: #1f4e79; stroke: #1f4e79"/>
     <use xlink:href="#mdeadc99bb4" x="651.815967" y="40.955498" style="fill: #1f4e79; stroke: #1f4e79"/>
     <use xlink:href="#mdeadc99bb4" x="687.955045" y="33.402833" style="fill: #1f4e79; stroke: #1f4e79"/>
     <use xlink:href="#mdeadc99bb4" x="724.094122" y="101.963492" style="fill: #1f4e79; stroke: #1f4e79"/>
     <use xlink:href="#mdeadc99bb4" x="760.233199" y="75.019445" style="fill: #1f4e79; stroke: #1f4e79"/>
     <use xlink:href="#mdeadc99bb4" x="796.372277" y="89.540527" style="fill: #1f4e79; stroke: #1f4e79"/>
     <use xlink:href="#mdeadc99bb4" x="832.511354" y="144.997263" style="fill: #1f4e79; stroke: #1f4e79"/>
     <use xlink:href="#mdeadc99bb4" x="868.650431" y="106.12184" style="fill: #1f4e79; stroke: #1f4e79"/>
     <use xlink:href="#mdeadc99bb4" x="904.789509" y="111.634357" style="fill: #1f4e79; stroke: #1f4e79"/>
     <use xlink:href="#mdeadc99bb4" x="940.928586" y="129.429154" style="fill: #1f4e79; stroke: #1f4e79"/>
     <use xlink:href="#mdeadc99bb4" x="977.067663" y="139.418503" style="fill: #1f4e79; stroke: #1f4e79"/>
     <use xlink:href="#mdeadc99bb4" x="1013.206741" y="136.186633" style="fill: #1f4e79; stroke: #1f4e79"/>
     <use xlink:href="#mdeadc99bb4" x="1049.345818" y="135.117721" style="fill: #1f4e79; stroke: #1f4e79"/>
    </g>
   </g>
   <g id="patch_36">
    <path d="M 46.847813 240.282806 
L 46.847813 23.551406 
" style="fill: none; stroke: #000000; stroke-width: 0.8; stroke-linejoin: miter; stroke-linecap: square"/>
   </g>
   <g id="patch_37">
    <path d="M 1112.227812 240.282806 
L 1112.227812 23.551406 
" style="fill: none; stroke: #000000; stroke-width: 0.8; stroke-linejoin: miter; stroke-linecap: square"/>
   </g>
   <g id="patch_38">
    <path d="M 46.847813 240.282806 
L 1112.227812 240.282806 
" style="fill: none; stroke: #000000; stroke-width: 0.8; stroke-linejoin: miter; stroke-linecap: square"/>
   </g>
   <g id="patch_39">
    <path d="M 46.847813 23.551406 
L 1112.227812 23.551406 
" style="fill: none; stroke: #000000; stroke-width: 0.8; stroke-linejoin: miter; stroke-linecap: square"/>
   </g>
  </g>
 </g>
 <defs>
  <clipPath id="pfdf15888cf">
   <rect x="46.847813" y="23.551406" width="1065.38" height="216.731399"/>
  </clipPath>
 </defs>
</svg>
