<?xml version="1.0" encoding="utf-8" standalone="no"?>
<!DOCTYPE svg PUBLIC "-//W3C//DTD SVG 1.1//EN"
  "http://www.w3.org/Graphics/SVG/1.1/DTD/svg11.dtd">
<svg xmlns:xlink="http://www.w3.org/1999/xlink" width="1159.04375pt" height="280.046484pt" viewBox="0 0 1159.04375 280.046484" xmlns="http://www.w3.org/2000/svg" version="1.1">
 <metadata>
  <rdf:RDF xmlns:dc="http://purl.org/dc/elements/1.1/" xmlns:cc="http://creativecommons.org/ns#" xmlns:rdf="http://www.w3.org/1999/02/22-rdf-syntax-ns#">
   <cc:Work>
    <dc:type rdf:resource="http://purl.org/dc/dcmitype/StillImage"/>
    <dc:date>2026-04-24T11:04:27.512378</dc:date>
    <dc:format>image/svg+xml</dc:format>
    <dc:creator>
     <cc:Agent>
      <dc:title>Matplotlib v3.10.9, https://matplotlib.org/</dc:title>
     </cc:Agent>
    </dc:creator>
   </cc:Work>
  </rdf:RDF>
 </metadata>
 <defs>
  <style type="text/css">*{stroke-linejoin: round; stroke-linecap: butt}</style>
 </defs>
 <g id="figure_1">
  <g id="patch_1">
   <path d="M 0 280.046484 
L 1159.04375 280.046484 
L 1159.04375 0 
L 0 0 
z
" style="fill: #ffffff"/>
  </g>
  <g id="axes_1">
   <g id="patch_2">
    <path d="M 51.254063 240.282806 
L 1112.314062 240.282806 
L 1112.314062 23.551406 
L 51.254063 23.551406 
z
" style="fill: #ffffff"/>
   </g>
   <g id="patch_3">
    <path d="M 99.484062 240.282806 
L 128.278092 240.282806 
L 128.278092 60.611111 
L 99.484062 60.611111 
z
" clip-path="url(#p08267103d4)" style="fill: #4472c4; opacity: 0.85"/>
   </g>
   <g id="patch_4">
    <path d="M 135.4766 240.282806 
L 164.27063 240.282806 
L 164.27063 40.120074 
L 135.4766 40.120074 
z
" clip-path="url(#p08267103d4)" style="fill: #4472c4; opacity: 0.85"/>
   </g>
   <g id="patch_5">
    <path d="M 171.469137 240.282806 
L 200.263167 240.282806 
L 200.263167 50.025638 
L 171.469137 50.025638 
z
" clip-path="url(#p08267103d4)" style="fill: #4472c4; opacity: 0.85"/>
   </g>
   <g id="patch_6">
    <path d="M 207.461674 240.282806 
L 236.255704 240.282806 
L 236.255704 43.636843 
L 207.461674 43.636843 
z
" clip-path="url(#p08267103d4)" style="fill: #4472c4; opacity: 0.85"/>
   </g>
   <g id="patch_7">
    <path d="M 243.454212 240.282806 
L 272.248242 240.282806 
L 272.248242 63.623809 
L 243.454212 63.623809 
z
" clip-path="url(#p08267103d4)" style="fill: #4472c4; opacity: 0.85"/>
   </g>
   <g id="patch_8">
    <path d="M 279.446749 240.282806 
L 308.240779 240.282806 
L 308.240779 67.187468 
L 279.446749 67.187468 
z
" clip-path="url(#p08267103d4)" style="fill: #4472c4; opacity: 0.85"/>
   </g>
   <g id="patch_9">
    <path d="M 315.439286 240.282806 
L 344.233316 240.282806 
L 344.233316 64.889846 
L 315.439286 64.889846 
z
" clip-path="url(#p08267103d4)" style="fill: #4472c4; opacity: 0.85"/>
   </g>
   <g id="patch_10">
    <path d="M 351.431824 240.282806 
L 380.225854 240.282806 
L 380.225854 69.016187 
L 351.431824 69.016187 
z
" clip-path="url(#p08267103d4)" style="fill: #4472c4; opacity: 0.85"/>
   </g>
   <g id="patch_11">
    <path d="M 387.424361 240.282806 
L 416.218391 240.282806 
L 416.218391 84.349297 
L 387.424361 84.349297 
z
" clip-path="url(#p08267103d4)" style="fill: #4472c4; opacity: 0.85"/>
   </g>
   <g id="patch_12">
    <path d="M 423.416898 240.282806 
L 452.210928 240.282806 
L 452.210928 64.022376 
L 423.416898 64.022376 
z
" clip-path="url(#p08267103d4)" style="fill: #4472c4; opacity: 0.85"/>
   </g>
   <g id="patch_13">
    <path d="M 459.409436 240.282806 
L 488.203465 240.282806 
L 488.203465 64.667117 
L 459.409436 64.667117 
z
" clip-path="url(#p08267103d4)" style="fill: #4472c4; opacity: 0.85"/>
   </g>
   <g id="patch_14">
    <path d="M 495.401973 240.282806 
L 524.196003 240.282806 
L 524.196003 37.49422 
L 495.401973 37.49422 
z
" clip-path="url(#p08267103d4)" style="fill: #4472c4; opacity: 0.85"/>
   </g>
   <g id="patch_15">
    <path d="M 531.39451 240.282806 
L 560.18854 240.282806 
L 560.18854 68.06666 
L 531.39451 68.06666 
z
" clip-path="url(#p08267103d4)" style="fill: #4472c4; opacity: 0.85"/>
   </g>
   <g id="patch_16">
    <path d="M 567.387048 240.282806 
L 596.181077 240.282806 
L 596.181077 63.623809 
L 567.387048 63.623809 
z
" clip-path="url(#p08267103d4)" style="fill: #4472c4; opacity: 0.85"/>
   </g>
   <g id="patch_17">
    <path d="M 603.379585 240.282806 
L 632.173615 240.282806 
L 632.173615 49.955303 
L 603.379585 49.955303 
z
" clip-path="url(#p08267103d4)" style="fill: #4472c4; opacity: 0.85"/>
   </g>
   <g id="patch_18">
    <path d="M 639.372122 240.282806 
L 668.166152 240.282806 
L 668.166152 33.871949 
L 639.372122 33.871949 
z
" clip-path="url(#p08267103d4)" style="fill: #4472c4; opacity: 0.85"/>
   </g>
   <g id="patch_19">
    <path d="M 675.36466 240.282806 
L 704.158689 240.282806 
L 704.158689 70.680791 
L 675.36466 70.680791 
z
" clip-path="url(#p08267103d4)" style="fill: #4472c4; opacity: 0.85"/>
   </g>
   <g id="patch_20">
    <path d="M 711.357197 240.282806 
L 740.151227 240.282806 
L 740.151227 56.156538 
L 711.357197 56.156538 
z
" clip-path="url(#p08267103d4)" style="fill: #4472c4; opacity: 0.85"/>
   </g>
   <g id="patch_21">
    <path d="M 747.349734 240.282806 
L 776.143764 240.282806 
L 776.143764 36.603306 
L 747.349734 36.603306 
z
" clip-path="url(#p08267103d4)" style="fill: #4472c4; opacity: 0.85"/>
   </g>
   <g id="patch_22">
    <path d="M 783.342271 240.282806 
L 812.136301 240.282806 
L 812.136301 59.239571 
L 783.342271 59.239571 
z
" clip-path="url(#p08267103d4)" style="fill: #4472c4; opacity: 0.85"/>
   </g>
   <g id="patch_23">
    <path d="M 819.334809 240.282806 
L 848.128839 240.282806 
L 848.128839 39.182269 
L 819.334809 39.182269 
z
" clip-path="url(#p08267103d4)" style="fill: #4472c4; opacity: 0.85"/>
   </g>
   <g id="patch_24">
    <path d="M 855.327346 240.282806 
L 884.121376 240.282806 
L 884.121376 81.993063 
L 855.327346 81.993063 
z
" clip-path="url(#p08267103d4)" style="fill: #4472c4; opacity: 0.85"/>
   </g>
   <g id="patch_25">
    <path d="M 891.319883 240.282806 
L 920.113913 240.282806 
L 920.113913 63.928596 
L 891.319883 63.928596 
z
" clip-path="url(#p08267103d4)" style="fill: #4472c4; opacity: 0.85"/>
   </g>
   <g id="patch_26">
    <path d="M 927.312421 240.282806 
L 956.106451 240.282806 
L 956.106451 48.232086 
L 927.312421 48.232086 
z
" clip-path="url(#p08267103d4)" style="fill: #4472c4; opacity: 0.85"/>
   </g>
   <g id="patch_27">
    <path d="M 963.304958 240.282806 
L 992.098988 240.282806 
L 992.098988 54.093367 
L 963.304958 54.093367 
z
" clip-path="url(#p08267103d4)" style="fill: #4472c4; opacity: 0.85"/>
   </g>
   <g id="patch_28">
    <path d="M 999.297495 240.282806 
L 1028.091525 240.282806 
L 1028.091525 61.959206 
L 999.297495 61.959206 
z
" clip-path="url(#p08267103d4)" style="fill: #4472c4; opacity: 0.85"/>
   </g>
   <g id="patch_29">
    <path d="M 1035.290033 240.282806 
L 1064.084063 240.282806 
L 1064.084063 52.088809 
L 1035.290033 52.088809 
z
" clip-path="url(#p08267103d4)" style="fill: #4472c4; opacity: 0.85"/>
   </g>
   <g id="matplotlib.axis_1">
    <g id="xtick_1">
     <g id="line2d_1">
      <defs>
       <path id="meed4e1f6b2" d="M 0 0 
L 0 3.5 
" style="stroke: #000000; stroke-width: 0.8"/>
      </defs>
      <g>
       <use xlink:href="#meed4e1f6b2" x="113.881077" y="240.282806" style="stroke: #000000; stroke-width: 0.8"/>
      </g>
     </g>
     <g id="text_1">
      <!-- 2024.01 -->
      <g transform="translate(92.612189 271.509168) rotate(-45) scale(0.08 -0.08)">
       <defs>
        <path id="MalgunGothic-32" d="M 2519 3372 
Q 2519 3784 2275 4018 
Q 2031 4253 1628 4253 
Q 1341 4253 1053 4104 
Q 766 3956 534 3697 
L 534 4234 
Q 981 4675 1691 4675 
Q 2281 4675 2642 4334 
Q 3003 3994 3003 3416 
Q 3003 2919 2772 2545 
Q 2541 2172 1984 1775 
Q 1459 1406 1254 1215 
Q 1050 1025 967 854 
Q 884 684 884 450 
L 3116 450 
L 3116 0 
L 356 0 
L 356 225 
Q 356 603 461 870 
Q 566 1138 811 1392 
Q 1056 1647 1597 2022 
Q 2091 2363 2305 2670 
Q 2519 2978 2519 3372 
z
" transform="scale(0.015625)"/>
        <path id="MalgunGothic-30" d="M 278 2206 
Q 278 3425 675 4050 
Q 1072 4675 1819 4675 
Q 3253 4675 3253 2319 
Q 3253 1156 2854 539 
Q 2456 -78 1716 -78 
Q 1016 -78 647 520 
Q 278 1119 278 2206 
z
M 784 2231 
Q 784 344 1769 344 
Q 2747 344 2747 2259 
Q 2747 4250 1794 4250 
Q 784 4250 784 2231 
z
" transform="scale(0.015625)"/>
        <path id="MalgunGothic-34" d="M 2703 4600 
L 2703 1563 
L 3309 1563 
L 3309 1113 
L 2703 1113 
L 2703 0 
L 2213 0 
L 2213 1113 
L 50 1113 
L 50 1534 
Q 728 2297 1295 3109 
Q 1863 3922 2172 4600 
L 2703 4600 
z
M 625 1563 
L 2213 1563 
L 2213 3831 
Q 1613 2788 959 1981 
L 625 1563 
z
" transform="scale(0.015625)"/>
        <path id="MalgunGothic-2e" d="M 356 275 
Q 356 422 459 523 
Q 563 625 700 625 
Q 838 625 941 523 
Q 1044 422 1044 275 
Q 1044 138 942 33 
Q 841 -72 700 -72 
Q 559 -72 457 29 
Q 356 131 356 275 
z
" transform="scale(0.015625)"/>
        <path id="MalgunGothic-31" d="M 2231 0 
L 1734 0 
L 1734 3972 
Q 1591 3828 1266 3661 
Q 941 3494 672 3428 
L 672 3959 
Q 1016 4056 1409 4275 
Q 1803 4494 2031 4700 
L 2231 4700 
L 2231 0 
z
" transform="scale(0.015625)"/>
       </defs>
       <use xlink:href="#MalgunGothic-32"/>
       <use xlink:href="#MalgunGothic-30" transform="translate(55.078125 0)"/>
       <use xlink:href="#MalgunGothic-32" transform="translate(110.15625 0)"/>
       <use xlink:href="#MalgunGothic-34" transform="translate(165.234375 0)"/>
       <use xlink:href="#MalgunGothic-2e" transform="translate(220.3125 0)"/>
       <use xlink:href="#MalgunGothic-30" transform="translate(242.1875 0)"/>
       <use xlink:href="#MalgunGothic-31" transform="translate(297.265625 0)"/>
      </g>
     </g>
    </g>
    <g id="xtick_2">
     <g id="line2d_2">
      <g>
       <use xlink:href="#meed4e1f6b2" x="149.873615" y="240.282806" style="stroke: #000000; stroke-width: 0.8"/>
      </g>
     </g>
     <g id="text_2">
      <!-- 02 -->
      <g transform="translate(142.304921 257.808974) rotate(-45) scale(0.08 -0.08)">
       <use xlink:href="#MalgunGothic-30"/>
       <use xlink:href="#MalgunGothic-32" transform="translate(55.078125 0)"/>
      </g>
     </g>
    </g>
    <g id="xtick_3">
     <g id="line2d_3">
      <g>
       <use xlink:href="#meed4e1f6b2" x="185.866152" y="240.282806" style="stroke: #000000; stroke-width: 0.8"/>
      </g>
     </g>
     <g id="text_3">
      <!-- 03 -->
      <g transform="translate(178.297458 257.808974) rotate(-45) scale(0.08 -0.08)">
       <defs>
        <path id="MalgunGothic-33" d="M 416 719 
Q 891 344 1478 344 
Q 1959 344 2254 587 
Q 2550 831 2550 1247 
Q 2550 2169 1253 2169 
L 872 2169 
L 872 2591 
L 1234 2591 
Q 2388 2591 2388 3453 
Q 2388 4250 1509 4250 
Q 1022 4250 594 3916 
L 594 4413 
Q 1031 4675 1634 4675 
Q 2184 4675 2539 4372 
Q 2894 4069 2894 3581 
Q 2894 2678 1972 2409 
L 1972 2400 
Q 2469 2356 2764 2053 
Q 3059 1750 3059 1300 
Q 3059 672 2604 297 
Q 2150 -78 1450 -78 
Q 806 -78 416 169 
L 416 719 
z
" transform="scale(0.015625)"/>
       </defs>
       <use xlink:href="#MalgunGothic-30"/>
       <use xlink:href="#MalgunGothic-33" transform="translate(55.078125 0)"/>
      </g>
     </g>
    </g>
    <g id="xtick_4">
     <g id="line2d_4">
      <g>
       <use xlink:href="#meed4e1f6b2" x="221.858689" y="240.282806" style="stroke: #000000; stroke-width: 0.8"/>
      </g>
     </g>
     <g id="text_4">
      <!-- 04 -->
      <g transform="translate(214.289995 257.808974) rotate(-45) scale(0.08 -0.08)">
       <use xlink:href="#MalgunGothic-30"/>
       <use xlink:href="#MalgunGothic-34" transform="translate(55.078125 0)"/>
      </g>
     </g>
    </g>
    <g id="xtick_5">
     <g id="line2d_5">
      <g>
       <use xlink:href="#meed4e1f6b2" x="257.851227" y="240.282806" style="stroke: #000000; stroke-width: 0.8"/>
      </g>
     </g>
     <g id="text_5">
      <!-- 05 -->
      <g transform="translate(250.282532 257.808974) rotate(-45) scale(0.08 -0.08)">
       <defs>
        <path id="MalgunGothic-35" d="M 3072 1403 
Q 3072 722 2636 322 
Q 2200 -78 1469 -78 
Q 828 -78 516 113 
L 516 650 
Q 994 344 1475 344 
Q 1969 344 2270 630 
Q 2572 916 2572 1372 
Q 2572 1838 2265 2092 
Q 1959 2347 1381 2347 
Q 994 2347 603 2300 
L 759 4600 
L 2869 4600 
L 2869 4147 
L 1206 4147 
L 1106 2763 
Q 1347 2784 1547 2784 
Q 2263 2784 2667 2414 
Q 3072 2044 3072 1403 
z
" transform="scale(0.015625)"/>
       </defs>
       <use xlink:href="#MalgunGothic-30"/>
       <use xlink:href="#MalgunGothic-35" transform="translate(55.078125 0)"/>
      </g>
     </g>
    </g>
    <g id="xtick_6">
     <g id="line2d_6">
      <g>
       <use xlink:href="#meed4e1f6b2" x="293.843764" y="240.282806" style="stroke: #000000; stroke-width: 0.8"/>
      </g>
     </g>
     <g id="text_6">
      <!-- 06 -->
      <g transform="translate(286.27507 257.808974) rotate(-45) scale(0.08 -0.08)">
       <defs>
        <path id="MalgunGothic-36" d="M 2981 4069 
Q 2619 4250 2228 4250 
Q 1591 4250 1228 3689 
Q 866 3128 869 2213 
L 884 2213 
Q 1203 2872 1938 2872 
Q 2547 2872 2903 2478 
Q 3259 2084 3259 1450 
Q 3259 797 2857 359 
Q 2456 -78 1825 -78 
Q 1116 -78 736 478 
Q 356 1034 356 2019 
Q 356 3181 847 3928 
Q 1338 4675 2222 4675 
Q 2700 4675 2981 4544 
L 2981 4069 
z
M 906 1506 
Q 906 1022 1165 683 
Q 1425 344 1844 344 
Q 2247 344 2498 645 
Q 2750 947 2750 1388 
Q 2750 1888 2509 2167 
Q 2269 2447 1838 2447 
Q 1444 2447 1175 2173 
Q 906 1900 906 1506 
z
" transform="scale(0.015625)"/>
       </defs>
       <use xlink:href="#MalgunGothic-30"/>
       <use xlink:href="#MalgunGothic-36" transform="translate(55.078125 0)"/>
      </g>
     </g>
    </g>
    <g id="xtick_7">
     <g id="line2d_7">
      <g>
       <use xlink:href="#meed4e1f6b2" x="329.836301" y="240.282806" style="stroke: #000000; stroke-width: 0.8"/>
      </g>
     </g>
     <g id="text_7">
      <!-- 07 -->
      <g transform="translate(322.267607 257.808974) rotate(-45) scale(0.08 -0.08)">
       <defs>
        <path id="MalgunGothic-37" d="M 3213 4297 
Q 2478 3006 2064 1918 
Q 1650 831 1550 0 
L 1009 0 
Q 1084 531 1290 1176 
Q 1497 1822 1815 2537 
Q 2134 3253 2631 4147 
L 291 4147 
L 291 4600 
L 3213 4600 
L 3213 4297 
z
" transform="scale(0.015625)"/>
       </defs>
       <use xlink:href="#MalgunGothic-30"/>
       <use xlink:href="#MalgunGothic-37" transform="translate(55.078125 0)"/>
      </g>
     </g>
    </g>
    <g id="xtick_8">
     <g id="line2d_8">
      <g>
       <use xlink:href="#meed4e1f6b2" x="365.828839" y="240.282806" style="stroke: #000000; stroke-width: 0.8"/>
      </g>
     </g>
     <g id="text_8">
      <!-- 08 -->
      <g transform="translate(358.260144 257.808974) rotate(-45) scale(0.08 -0.08)">
       <defs>
        <path id="MalgunGothic-38" d="M 303 1281 
Q 303 1669 539 2011 
Q 775 2353 1153 2494 
Q 856 2647 675 2915 
Q 494 3184 494 3500 
Q 494 3828 659 4098 
Q 825 4369 1122 4522 
Q 1419 4675 1778 4675 
Q 2334 4675 2700 4342 
Q 3066 4009 3066 3500 
Q 3066 3181 2881 2914 
Q 2697 2647 2413 2494 
Q 2788 2350 3022 2009 
Q 3256 1669 3256 1281 
Q 3256 672 2843 297 
Q 2431 -78 1778 -78 
Q 1131 -78 717 301 
Q 303 681 303 1281 
z
M 809 1328 
Q 809 878 1081 611 
Q 1353 344 1781 344 
Q 2206 344 2482 619 
Q 2759 894 2759 1328 
Q 2759 1731 2482 2011 
Q 2206 2291 1781 2291 
Q 1372 2291 1090 2020 
Q 809 1750 809 1328 
z
M 1003 3459 
Q 1003 3125 1234 2900 
Q 1466 2675 1781 2675 
Q 2097 2675 2330 2900 
Q 2563 3125 2563 3459 
Q 2563 3803 2341 4026 
Q 2119 4250 1781 4250 
Q 1450 4250 1226 4029 
Q 1003 3809 1003 3459 
z
" transform="scale(0.015625)"/>
       </defs>
       <use xlink:href="#MalgunGothic-30"/>
       <use xlink:href="#MalgunGothic-38" transform="translate(55.078125 0)"/>
      </g>
     </g>
    </g>
    <g id="xtick_9">
     <g id="line2d_9">
      <g>
       <use xlink:href="#meed4e1f6b2" x="401.821376" y="240.282806" style="stroke: #000000; stroke-width: 0.8"/>
      </g>
     </g>
     <g id="text_9">
      <!-- 09 -->
      <g transform="translate(394.252682 257.808974) rotate(-45) scale(0.08 -0.08)">
       <defs>
        <path id="MalgunGothic-39" d="M 556 563 
Q 941 344 1366 344 
Q 1994 344 2347 855 
Q 2700 1366 2700 2313 
Q 2694 2306 2688 2313 
Q 2388 1713 1653 1713 
Q 1059 1713 682 2120 
Q 306 2528 306 3144 
Q 306 3806 711 4240 
Q 1116 4675 1772 4675 
Q 2466 4675 2833 4131 
Q 3200 3588 3200 2578 
Q 3200 1319 2717 620 
Q 2234 -78 1344 -78 
Q 881 -78 556 78 
L 556 563 
z
M 813 3219 
Q 813 2741 1063 2450 
Q 1313 2159 1759 2159 
Q 2147 2159 2406 2417 
Q 2666 2675 2666 3047 
Q 2666 3556 2411 3903 
Q 2156 4250 1725 4250 
Q 1322 4250 1067 3948 
Q 813 3647 813 3219 
z
" transform="scale(0.015625)"/>
       </defs>
       <use xlink:href="#MalgunGothic-30"/>
       <use xlink:href="#MalgunGothic-39" transform="translate(55.078125 0)"/>
      </g>
     </g>
    </g>
    <g id="xtick_10">
     <g id="line2d_10">
      <g>
       <use xlink:href="#meed4e1f6b2" x="437.813913" y="240.282806" style="stroke: #000000; stroke-width: 0.8"/>
      </g>
     </g>
     <g id="text_10">
      <!-- 10 -->
      <g transform="translate(430.245219 257.808974) rotate(-45) scale(0.08 -0.08)">
       <use xlink:href="#MalgunGothic-31"/>
       <use xlink:href="#MalgunGothic-30" transform="translate(55.078125 0)"/>
      </g>
     </g>
    </g>
    <g id="xtick_11">
     <g id="line2d_11">
      <g>
       <use xlink:href="#meed4e1f6b2" x="473.806451" y="240.282806" style="stroke: #000000; stroke-width: 0.8"/>
      </g>
     </g>
     <g id="text_11">
      <!-- 11 -->
      <g transform="translate(466.237756 257.808974) rotate(-45) scale(0.08 -0.08)">
       <use xlink:href="#MalgunGothic-31"/>
       <use xlink:href="#MalgunGothic-31" transform="translate(55.078125 0)"/>
      </g>
     </g>
    </g>
    <g id="xtick_12">
     <g id="line2d_12">
      <g>
       <use xlink:href="#meed4e1f6b2" x="509.798988" y="240.282806" style="stroke: #000000; stroke-width: 0.8"/>
      </g>
     </g>
     <g id="text_12">
      <!-- 12 -->
      <g transform="translate(502.230294 257.808974) rotate(-45) scale(0.08 -0.08)">
       <use xlink:href="#MalgunGothic-31"/>
       <use xlink:href="#MalgunGothic-32" transform="translate(55.078125 0)"/>
      </g>
     </g>
    </g>
    <g id="xtick_13">
     <g id="line2d_13">
      <g>
       <use xlink:href="#meed4e1f6b2" x="545.791525" y="240.282806" style="stroke: #000000; stroke-width: 0.8"/>
      </g>
     </g>
     <g id="text_13">
      <!-- 2025.01 -->
      <g transform="translate(524.522637 271.509168) rotate(-45) scale(0.08 -0.08)">
       <use xlink:href="#MalgunGothic-32"/>
       <use xlink:href="#MalgunGothic-30" transform="translate(55.078125 0)"/>
       <use xlink:href="#MalgunGothic-32" transform="translate(110.15625 0)"/>
       <use xlink:href="#MalgunGothic-35" transform="translate(165.234375 0)"/>
       <use xlink:href="#MalgunGothic-2e" transform="translate(220.3125 0)"/>
       <use xlink:href="#MalgunGothic-30" transform="translate(242.1875 0)"/>
       <use xlink:href="#MalgunGothic-31" transform="translate(297.265625 0)"/>
      </g>
     </g>
    </g>
    <g id="xtick_14">
     <g id="line2d_14">
      <g>
       <use xlink:href="#meed4e1f6b2" x="581.784063" y="240.282806" style="stroke: #000000; stroke-width: 0.8"/>
      </g>
     </g>
     <g id="text_14">
      <!-- 02 -->
      <g transform="translate(574.215368 257.808974) rotate(-45) scale(0.08 -0.08)">
       <use xlink:href="#MalgunGothic-30"/>
       <use xlink:href="#MalgunGothic-32" transform="translate(55.078125 0)"/>
      </g>
     </g>
    </g>
    <g id="xtick_15">
     <g id="line2d_15">
      <g>
       <use xlink:href="#meed4e1f6b2" x="617.7766" y="240.282806" style="stroke: #000000; stroke-width: 0.8"/>
      </g>
     </g>
     <g id="text_15">
      <!-- 03 -->
      <g transform="translate(610.207906 257.808974) rotate(-45) scale(0.08 -0.08)">
       <use xlink:href="#MalgunGothic-30"/>
       <use xlink:href="#MalgunGothic-33" transform="translate(55.078125 0)"/>
      </g>
     </g>
    </g>
    <g id="xtick_16">
     <g id="line2d_16">
      <g>
       <use xlink:href="#meed4e1f6b2" x="653.769137" y="240.282806" style="stroke: #000000; stroke-width: 0.8"/>
      </g>
     </g>
     <g id="text_16">
      <!-- 04 -->
      <g transform="translate(646.200443 257.808974) rotate(-45) scale(0.08 -0.08)">
       <use xlink:href="#MalgunGothic-30"/>
       <use xlink:href="#MalgunGothic-34" transform="translate(55.078125 0)"/>
      </g>
     </g>
    </g>
    <g id="xtick_17">
     <g id="line2d_17">
      <g>
       <use xlink:href="#meed4e1f6b2" x="689.761674" y="240.282806" style="stroke: #000000; stroke-width: 0.8"/>
      </g>
     </g>
     <g id="text_17">
      <!-- 05 -->
      <g transform="translate(682.19298 257.808974) rotate(-45) scale(0.08 -0.08)">
       <use xlink:href="#MalgunGothic-30"/>
       <use xlink:href="#MalgunGothic-35" transform="translate(55.078125 0)"/>
      </g>
     </g>
    </g>
    <g id="xtick_18">
     <g id="line2d_18">
      <g>
       <use xlink:href="#meed4e1f6b2" x="725.754212" y="240.282806" style="stroke: #000000; stroke-width: 0.8"/>
      </g>
     </g>
     <g id="text_18">
      <!-- 06 -->
      <g transform="translate(718.185518 257.808974) rotate(-45) scale(0.08 -0.08)">
       <use xlink:href="#MalgunGothic-30"/>
       <use xlink:href="#MalgunGothic-36" transform="translate(55.078125 0)"/>
      </g>
     </g>
    </g>
    <g id="xtick_19">
     <g id="line2d_19">
      <g>
       <use xlink:href="#meed4e1f6b2" x="761.746749" y="240.282806" style="stroke: #000000; stroke-width: 0.8"/>
      </g>
     </g>
     <g id="text_19">
      <!-- 07 -->
      <g transform="translate(754.178055 257.808974) rotate(-45) scale(0.08 -0.08)">
       <use xlink:href="#MalgunGothic-30"/>
       <use xlink:href="#MalgunGothic-37" transform="translate(55.078125 0)"/>
      </g>
     </g>
    </g>
    <g id="xtick_20">
     <g id="line2d_20">
      <g>
       <use xlink:href="#meed4e1f6b2" x="797.739286" y="240.282806" style="stroke: #000000; stroke-width: 0.8"/>
      </g>
     </g>
     <g id="text_20">
      <!-- 08 -->
      <g transform="translate(790.170592 257.808974) rotate(-45) scale(0.08 -0.08)">
       <use xlink:href="#MalgunGothic-30"/>
       <use xlink:href="#MalgunGothic-38" transform="translate(55.078125 0)"/>
      </g>
     </g>
    </g>
    <g id="xtick_21">
     <g id="line2d_21">
      <g>
       <use xlink:href="#meed4e1f6b2" x="833.731824" y="240.282806" style="stroke: #000000; stroke-width: 0.8"/>
      </g>
     </g>
     <g id="text_21">
      <!-- 09 -->
      <g transform="translate(826.163129 257.808974) rotate(-45) scale(0.08 -0.08)">
       <use xlink:href="#MalgunGothic-30"/>
       <use xlink:href="#MalgunGothic-39" transform="translate(55.078125 0)"/>
      </g>
     </g>
    </g>
    <g id="xtick_22">
     <g id="line2d_22">
      <g>
       <use xlink:href="#meed4e1f6b2" x="869.724361" y="240.282806" style="stroke: #000000; stroke-width: 0.8"/>
      </g>
     </g>
     <g id="text_22">
      <!-- 10 -->
      <g transform="translate(862.155667 257.808974) rotate(-45) scale(0.08 -0.08)">
       <use xlink:href="#MalgunGothic-31"/>
       <use xlink:href="#MalgunGothic-30" transform="translate(55.078125 0)"/>
      </g>
     </g>
    </g>
    <g id="xtick_23">
     <g id="line2d_23">
      <g>
       <use xlink:href="#meed4e1f6b2" x="905.716898" y="240.282806" style="stroke: #000000; stroke-width: 0.8"/>
      </g>
     </g>
     <g id="text_23">
      <!-- 11 -->
      <g transform="translate(898.148204 257.808974) rotate(-45) scale(0.08 -0.08)">
       <use xlink:href="#MalgunGothic-31"/>
       <use xlink:href="#MalgunGothic-31" transform="translate(55.078125 0)"/>
      </g>
     </g>
    </g>
    <g id="xtick_24">
     <g id="line2d_24">
      <g>
       <use xlink:href="#meed4e1f6b2" x="941.709436" y="240.282806" style="stroke: #000000; stroke-width: 0.8"/>
      </g>
     </g>
     <g id="text_24">
      <!-- 12 -->
      <g transform="translate(934.140741 257.808974) rotate(-45) scale(0.08 -0.08)">
       <use xlink:href="#MalgunGothic-31"/>
       <use xlink:href="#MalgunGothic-32" transform="translate(55.078125 0)"/>
      </g>
     </g>
    </g>
    <g id="xtick_25">
     <g id="line2d_25">
      <g>
       <use xlink:href="#meed4e1f6b2" x="977.701973" y="240.282806" style="stroke: #000000; stroke-width: 0.8"/>
      </g>
     </g>
     <g id="text_25">
      <!-- 2026.01 -->
      <g transform="translate(956.433085 271.509168) rotate(-45) scale(0.08 -0.08)">
       <use xlink:href="#MalgunGothic-32"/>
       <use xlink:href="#MalgunGothic-30" transform="translate(55.078125 0)"/>
       <use xlink:href="#MalgunGothic-32" transform="translate(110.15625 0)"/>
       <use xlink:href="#MalgunGothic-36" transform="translate(165.234375 0)"/>
       <use xlink:href="#MalgunGothic-2e" transform="translate(220.3125 0)"/>
       <use xlink:href="#MalgunGothic-30" transform="translate(242.1875 0)"/>
       <use xlink:href="#MalgunGothic-31" transform="translate(297.265625 0)"/>
      </g>
     </g>
    </g>
    <g id="xtick_26">
     <g id="line2d_26">
      <g>
       <use xlink:href="#meed4e1f6b2" x="1013.69451" y="240.282806" style="stroke: #000000; stroke-width: 0.8"/>
      </g>
     </g>
     <g id="text_26">
      <!-- 02 -->
      <g transform="translate(1006.125816 257.808974) rotate(-45) scale(0.08 -0.08)">
       <use xlink:href="#MalgunGothic-30"/>
       <use xlink:href="#MalgunGothic-32" transform="translate(55.078125 0)"/>
      </g>
     </g>
    </g>
    <g id="xtick_27">
     <g id="line2d_27">
      <g>
       <use xlink:href="#meed4e1f6b2" x="1049.687048" y="240.282806" style="stroke: #000000; stroke-width: 0.8"/>
      </g>
     </g>
     <g id="text_27">
      <!-- 03 -->
      <g transform="translate(1042.118353 257.808974) rotate(-45) scale(0.08 -0.08)">
       <use xlink:href="#MalgunGothic-30"/>
       <use xlink:href="#MalgunGothic-33" transform="translate(55.078125 0)"/>
      </g>
     </g>
    </g>
   </g>
   <g id="matplotlib.axis_2">
    <g id="ytick_1">
     <g id="line2d_28">
      <defs>
       <path id="ma7e479a4f7" d="M 0 0 
L -3.5 0 
" style="stroke: #000000; stroke-width: 0.8"/>
      </defs>
      <g>
       <use xlink:href="#ma7e479a4f7" x="51.254063" y="240.282806" style="stroke: #000000; stroke-width: 0.8"/>
      </g>
     </g>
     <g id="text_28">
      <!-- 0 -->
      <g transform="translate(39.847813 243.319681) scale(0.08 -0.08)">
       <use xlink:href="#MalgunGothic-30"/>
      </g>
     </g>
    </g>
    <g id="ytick_2">
     <g id="line2d_29">
      <g>
       <use xlink:href="#ma7e479a4f7" x="51.254063" y="210.976403" style="stroke: #000000; stroke-width: 0.8"/>
      </g>
     </g>
     <g id="text_29">
      <!-- 2,500 -->
      <g transform="translate(24.879063 214.013278) scale(0.08 -0.08)">
       <defs>
        <path id="MalgunGothic-2c" d="M 988 725 
L 472 -850 
L 125 -850 
L 503 725 
L 988 725 
z
" transform="scale(0.015625)"/>
       </defs>
       <use xlink:href="#MalgunGothic-32"/>
       <use xlink:href="#MalgunGothic-2c" transform="translate(55.078125 0)"/>
       <use xlink:href="#MalgunGothic-35" transform="translate(76.953125 0)"/>
       <use xlink:href="#MalgunGothic-30" transform="translate(132.03125 0)"/>
       <use xlink:href="#MalgunGothic-30" transform="translate(187.109375 0)"/>
      </g>
     </g>
    </g>
    <g id="ytick_3">
     <g id="line2d_30">
      <g>
       <use xlink:href="#ma7e479a4f7" x="51.254063" y="181.67" style="stroke: #000000; stroke-width: 0.8"/>
      </g>
     </g>
     <g id="text_30">
      <!-- 5,000 -->
      <g transform="translate(24.879063 184.706875) scale(0.08 -0.08)">
       <use xlink:href="#MalgunGothic-35"/>
       <use xlink:href="#MalgunGothic-2c" transform="translate(55.078125 0)"/>
       <use xlink:href="#MalgunGothic-30" transform="translate(76.953125 0)"/>
       <use xlink:href="#MalgunGothic-30" transform="translate(132.03125 0)"/>
       <use xlink:href="#MalgunGothic-30" transform="translate(187.109375 0)"/>
      </g>
     </g>
    </g>
    <g id="ytick_4">
     <g id="line2d_31">
      <g>
       <use xlink:href="#ma7e479a4f7" x="51.254063" y="152.363597" style="stroke: #000000; stroke-width: 0.8"/>
      </g>
     </g>
     <g id="text_31">
      <!-- 7,500 -->
      <g transform="translate(24.879063 155.400472) scale(0.08 -0.08)">
       <use xlink:href="#MalgunGothic-37"/>
       <use xlink:href="#MalgunGothic-2c" transform="translate(55.078125 0)"/>
       <use xlink:href="#MalgunGothic-35" transform="translate(76.953125 0)"/>
       <use xlink:href="#MalgunGothic-30" transform="translate(132.03125 0)"/>
       <use xlink:href="#MalgunGothic-30" transform="translate(187.109375 0)"/>
      </g>
     </g>
    </g>
    <g id="ytick_5">
     <g id="line2d_32">
      <g>
       <use xlink:href="#ma7e479a4f7" x="51.254063" y="123.057194" style="stroke: #000000; stroke-width: 0.8"/>
      </g>
     </g>
     <g id="text_32">
      <!-- 10,000 -->
      <g transform="translate(20.472813 126.094069) scale(0.08 -0.08)">
       <use xlink:href="#MalgunGothic-31"/>
       <use xlink:href="#MalgunGothic-30" transform="translate(55.078125 0)"/>
       <use xlink:href="#MalgunGothic-2c" transform="translate(110.15625 0)"/>
       <use xlink:href="#MalgunGothic-30" transform="translate(132.03125 0)"/>
       <use xlink:href="#MalgunGothic-30" transform="translate(187.109375 0)"/>
       <use xlink:href="#MalgunGothic-30" transform="translate(242.1875 0)"/>
      </g>
     </g>
    </g>
    <g id="ytick_6">
     <g id="line2d_33">
      <g>
       <use xlink:href="#ma7e479a4f7" x="51.254063" y="93.750791" style="stroke: #000000; stroke-width: 0.8"/>
      </g>
     </g>
     <g id="text_33">
      <!-- 12,500 -->
      <g transform="translate(20.472813 96.787666) scale(0.08 -0.08)">
       <use xlink:href="#MalgunGothic-31"/>
       <use xlink:href="#MalgunGothic-32" transform="translate(55.078125 0)"/>
       <use xlink:href="#MalgunGothic-2c" transform="translate(110.15625 0)"/>
       <use xlink:href="#MalgunGothic-35" transform="translate(132.03125 0)"/>
       <use xlink:href="#MalgunGothic-30" transform="translate(187.109375 0)"/>
       <use xlink:href="#MalgunGothic-30" transform="translate(242.1875 0)"/>
      </g>
     </g>
    </g>
    <g id="ytick_7">
     <g id="line2d_34">
      <g>
       <use xlink:href="#ma7e479a4f7" x="51.254063" y="64.444389" style="stroke: #000000; stroke-width: 0.8"/>
      </g>
     </g>
     <g id="text_34">
      <!-- 15,000 -->
      <g transform="translate(20.472813 67.481264) scale(0.08 -0.08)">
       <use xlink:href="#MalgunGothic-31"/>
       <use xlink:href="#MalgunGothic-35" transform="translate(55.078125 0)"/>
       <use xlink:href="#MalgunGothic-2c" transform="translate(110.15625 0)"/>
       <use xlink:href="#MalgunGothic-30" transform="translate(132.03125 0)"/>
       <use xlink:href="#MalgunGothic-30" transform="translate(187.109375 0)"/>
       <use xlink:href="#MalgunGothic-30" transform="translate(242.1875 0)"/>
      </g>
     </g>
    </g>
    <g id="ytick_8">
     <g id="line2d_35">
      <g>
       <use xlink:href="#ma7e479a4f7" x="51.254063" y="35.137986" style="stroke: #000000; stroke-width: 0.8"/>
      </g>
     </g>
     <g id="text_35">
      <!-- 17,500 -->
      <g transform="translate(20.472813 38.174861) scale(0.08 -0.08)">
       <use xlink:href="#MalgunGothic-31"/>
       <use xlink:href="#MalgunGothic-37" transform="translate(55.078125 0)"/>
       <use xlink:href="#MalgunGothic-2c" transform="translate(110.15625 0)"/>
       <use xlink:href="#MalgunGothic-35" transform="translate(132.03125 0)"/>
       <use xlink:href="#MalgunGothic-30" transform="translate(187.109375 0)"/>
       <use xlink:href="#MalgunGothic-30" transform="translate(242.1875 0)"/>
      </g>
     </g>
    </g>
    <g id="text_36">
     <!-- 수출 (천$) -->
     <g transform="translate(14.345156 152.21984) rotate(-90) scale(0.09 -0.09)">
      <defs>
       <path id="MalgunGothic-c218" d="M 5491 2994 
Q 4750 3097 4078 3498 
Q 3406 3900 3200 4275 
Q 2975 3891 2309 3491 
Q 1644 3091 922 2956 
L 634 3347 
Q 1559 3450 2261 3942 
Q 2963 4434 2963 5013 
L 2963 5275 
L 3431 5275 
L 3431 5013 
Q 3431 4431 4118 3948 
Q 4806 3466 5766 3378 
L 5491 2994 
z
M 3431 1838 
L 3431 -563 
L 2963 -563 
L 2963 1838 
L 403 1838 
L 403 2253 
L 5997 2253 
L 5997 1838 
L 3431 1838 
z
" transform="scale(0.015625)"/>
       <path id="MalgunGothic-cd9c" d="M 5466 3334 
Q 4759 3400 4114 3664 
Q 3469 3928 3213 4225 
Q 2966 3931 2323 3670 
Q 1681 3409 966 3341 
L 709 3750 
Q 1328 3725 2017 3970 
Q 2706 4216 2906 4603 
L 1056 4603 
L 1056 5019 
L 2969 5019 
L 2969 5550 
L 3444 5550 
L 3444 5019 
L 5344 5019 
L 5344 4603 
L 3494 4603 
Q 3691 4241 4356 3995 
Q 5022 3750 5691 3750 
L 5466 3334 
z
M 1319 -416 
L 1319 947 
L 4616 947 
L 4616 1478 
L 1319 1478 
L 1319 1888 
L 2963 1888 
L 2963 2484 
L 403 2484 
L 403 2900 
L 5997 2900 
L 5997 2484 
L 3438 2484 
L 3438 1888 
L 5075 1888 
L 5075 544 
L 1778 544 
L 1778 0 
L 5234 0 
L 5234 -416 
L 1319 -416 
z
" transform="scale(0.015625)"/>
       <path id="MalgunGothic-20" transform="scale(0.015625)"/>
       <path id="MalgunGothic-28" d="M 1438 -1044 
Q 447 88 447 1753 
Q 447 3431 1438 4600 
L 1888 4600 
Q 878 3372 878 1759 
Q 878 153 1881 -1044 
L 1438 -1044 
z
" transform="scale(0.015625)"/>
       <path id="MalgunGothic-cc9c" d="M 4884 1056 
L 4884 3278 
L 3541 3278 
L 3541 3694 
L 4884 3694 
L 4884 5466 
L 5350 5466 
L 5350 1056 
L 4884 1056 
z
M 3756 1881 
Q 3306 2091 2892 2470 
Q 2478 2850 2297 3200 
Q 2109 2797 1686 2380 
Q 1263 1963 831 1747 
L 488 2106 
Q 1100 2319 1576 2876 
Q 2053 3434 2053 3916 
L 2053 4347 
L 678 4347 
L 678 4763 
L 2059 4763 
L 2059 5459 
L 2528 5459 
L 2528 4763 
L 3897 4763 
L 3897 4347 
L 2528 4347 
L 2528 3922 
Q 2528 3456 3006 2948 
Q 3484 2441 4072 2266 
L 3756 1881 
z
M 1638 -366 
L 1638 1581 
L 2113 1581 
L 2113 44 
L 5509 44 
L 5509 -366 
L 1638 -366 
z
" transform="scale(0.015625)"/>
       <path id="MalgunGothic-24" d="M 1963 -672 
L 1638 -672 
L 1638 0 
Q 953 0 534 272 
L 534 809 
Q 703 653 1039 537 
Q 1375 422 1638 428 
L 1638 2103 
Q 922 2453 725 2731 
Q 528 3009 528 3400 
Q 528 3841 842 4192 
Q 1156 4544 1638 4603 
L 1638 5181 
L 1963 5181 
L 1963 4616 
Q 2594 4597 2822 4441 
L 2822 3916 
Q 2509 4172 1963 4188 
L 1963 2466 
Q 2497 2200 2803 1912 
Q 3109 1625 3109 1181 
Q 3109 725 2804 420 
Q 2500 116 1963 28 
L 1963 -672 
z
M 1638 4172 
Q 1044 4031 1044 3469 
Q 1044 3222 1136 3056 
Q 1228 2891 1638 2644 
L 1638 4172 
z
M 1963 453 
Q 2591 594 2591 1134 
Q 2591 1588 1963 1934 
L 1963 453 
z
" transform="scale(0.015625)"/>
       <path id="MalgunGothic-29" d="M 81 -1044 
Q 1081 150 1081 1759 
Q 1081 3378 72 4600 
L 525 4600 
Q 1522 3431 1522 1753 
Q 1522 88 525 -1044 
L 81 -1044 
z
" transform="scale(0.015625)"/>
      </defs>
      <use xlink:href="#MalgunGothic-c218"/>
      <use xlink:href="#MalgunGothic-cd9c" transform="translate(100 0)"/>
      <use xlink:href="#MalgunGothic-20" transform="translate(200 0)"/>
      <use xlink:href="#MalgunGothic-28" transform="translate(235.15625 0)"/>
      <use xlink:href="#MalgunGothic-cc9c" transform="translate(265.625 0)"/>
      <use xlink:href="#MalgunGothic-24" transform="translate(365.625 0)"/>
      <use xlink:href="#MalgunGothic-29" transform="translate(420.703125 0)"/>
     </g>
    </g>
   </g>
   <g id="patch_30">
    <path d="M 51.254063 240.282806 
L 51.254063 23.551406 
" style="fill: none; stroke: #000000; stroke-width: 0.8; stroke-linejoin: miter; stroke-linecap: square"/>
   </g>
   <g id="patch_31">
    <path d="M 1112.314062 240.282806 
L 1112.314062 23.551406 
" style="fill: none; stroke: #000000; stroke-width: 0.8; stroke-linejoin: miter; stroke-linecap: square"/>
   </g>
   <g id="patch_32">
    <path d="M 51.254062 240.282806 
L 1112.314063 240.282806 
" style="fill: none; stroke: #000000; stroke-width: 0.8; stroke-linejoin: miter; stroke-linecap: square"/>
   </g>
   <g id="patch_33">
    <path d="M 51.254062 23.551406 
L 1112.314063 23.551406 
" style="fill: none; stroke: #000000; stroke-width: 0.8; stroke-linejoin: miter; stroke-linecap: square"/>
   </g>
   <g id="text_37">
    <!-- HS 200500 — 김치 수출 -->
    <g transform="translate(521.259141 15.551406) scale(0.11 -0.11)">
     <defs>
      <path id="MalgunGothic-48" d="M 4028 0 
L 3525 0 
L 3525 2109 
L 1113 2109 
L 1113 0 
L 609 0 
L 609 4600 
L 1113 4600 
L 1113 2569 
L 3525 2569 
L 3525 4600 
L 4028 4600 
L 4028 0 
z
" transform="scale(0.015625)"/>
      <path id="MalgunGothic-53" d="M 394 797 
Q 606 613 964 500 
Q 1322 388 1625 388 
Q 2628 388 2628 1116 
Q 2628 1325 2523 1484 
Q 2419 1644 2250 1756 
Q 2081 1869 1547 2144 
Q 903 2475 651 2754 
Q 400 3034 400 3456 
Q 400 4019 858 4347 
Q 1316 4675 1988 4675 
Q 2669 4675 2963 4513 
L 2963 3928 
Q 2563 4206 1922 4206 
Q 1484 4206 1207 4018 
Q 931 3831 931 3500 
Q 931 3200 1126 3011 
Q 1322 2822 1938 2522 
Q 2656 2163 2906 1844 
Q 3156 1525 3156 1153 
Q 3156 556 2725 239 
Q 2294 -78 1531 -78 
Q 1291 -78 927 -1 
Q 563 75 394 188 
L 394 797 
z
" transform="scale(0.015625)"/>
      <path id="MalgunGothic-2014" d="M 6566 1634 
L 0 1634 
L 0 2031 
L 6566 2031 
L 6566 1634 
z
" transform="scale(0.015625)"/>
      <path id="MalgunGothic-ae40" d="M 4947 2113 
L 4947 5466 
L 5416 5466 
L 5416 2113 
L 4947 2113 
z
M 3738 5178 
Q 3738 4269 3063 3416 
Q 2388 2563 1013 2003 
L 684 2375 
Q 1769 2722 2431 3383 
Q 3094 4044 3213 4763 
L 1069 4763 
L 1069 5178 
L 3738 5178 
z
M 1722 -397 
L 1722 1778 
L 5416 1778 
L 5416 -397 
L 1722 -397 
z
M 4953 1363 
L 2181 1363 
L 2181 13 
L 4953 13 
L 4953 1363 
z
" transform="scale(0.015625)"/>
      <path id="MalgunGothic-ce58" d="M 4941 -563 
L 4941 5466 
L 5409 5466 
L 5409 -563 
L 4941 -563 
z
M 3969 966 
Q 3447 1272 2995 1773 
Q 2544 2275 2406 2656 
Q 2281 2259 1817 1686 
Q 1353 1113 891 831 
L 531 1197 
Q 1197 1519 1683 2242 
Q 2169 2966 2169 3628 
L 2169 4206 
L 678 4206 
L 678 4622 
L 2163 4622 
L 2163 5466 
L 2631 5466 
L 2631 4622 
L 4128 4622 
L 4128 4206 
L 2638 4206 
L 2631 3603 
Q 2625 2991 3111 2314 
Q 3597 1638 4300 1338 
L 3969 966 
z
" transform="scale(0.015625)"/>
     </defs>
     <use xlink:href="#MalgunGothic-48"/>
     <use xlink:href="#MalgunGothic-53" transform="translate(72.460938 0)"/>
     <use xlink:href="#MalgunGothic-20" transform="translate(126.757812 0)"/>
     <use xlink:href="#MalgunGothic-32" transform="translate(161.914062 0)"/>
     <use xlink:href="#MalgunGothic-30" transform="translate(216.992188 0)"/>
     <use xlink:href="#MalgunGothic-30" transform="translate(272.070312 0)"/>
     <use xlink:href="#MalgunGothic-35" transform="translate(327.148438 0)"/>
     <use xlink:href="#MalgunGothic-30" transform="translate(382.226562 0)"/>
     <use xlink:href="#MalgunGothic-30" transform="translate(437.304688 0)"/>
     <use xlink:href="#MalgunGothic-20" transform="translate(492.382812 0)"/>
     <use xlink:href="#MalgunGothic-2014" transform="translate(527.539062 0)"/>
     <use xlink:href="#MalgunGothic-20" transform="translate(630.126953 0)"/>
     <use xlink:href="#MalgunGothic-ae40" transform="translate(665.283203 0)"/>
     <use xlink:href="#MalgunGothic-ce58" transform="translate(765.283203 0)"/>
     <use xlink:href="#MalgunGothic-20" transform="translate(865.283203 0)"/>
     <use xlink:href="#MalgunGothic-c218" transform="translate(900.439453 0)"/>
     <use xlink:href="#MalgunGothic-cd9c" transform="translate(1000.439453 0)"/>
    </g>
   </g>
   <g id="legend_1">
    <g id="patch_34">
     <path d="M 56.854063 54.436406 
L 146.200313 54.436406 
Q 147.800313 54.436406 147.800313 52.836406 
L 147.800313 29.151406 
Q 147.800313 27.551406 146.200313 27.551406 
L 56.854063 27.551406 
Q 55.254063 27.551406 55.254063 29.151406 
L 55.254063 52.836406 
Q 55.254063 54.436406 56.854063 54.436406 
z
" style="fill: #ffffff; opacity: 0.7; stroke: #cccccc; stroke-linejoin: miter"/>
    </g>
    <g id="patch_35">
     <path d="M 58.454063 37.102656 
L 74.454063 37.102656 
L 74.454063 31.502656 
L 58.454063 31.502656 
z
" style="fill: #4472c4; opacity: 0.85"/>
    </g>
    <g id="text_38">
     <!-- 수출(천$) -->
     <g transform="translate(80.854062 37.102656) scale(0.08 -0.08)">
      <use xlink:href="#MalgunGothic-c218"/>
      <use xlink:href="#MalgunGothic-cd9c" transform="translate(100 0)"/>
      <use xlink:href="#MalgunGothic-28" transform="translate(200 0)"/>
      <use xlink:href="#MalgunGothic-cc9c" transform="translate(230.46875 0)"/>
      <use xlink:href="#MalgunGothic-24" transform="translate(330.46875 0)"/>
      <use xlink:href="#MalgunGothic-29" transform="translate(385.546875 0)"/>
     </g>
    </g>
    <g id="line2d_36">
     <path d="M 58.454063 46.545156 
L 66.454063 46.545156 
L 74.454063 46.545156 
" style="fill: none; stroke: #1f4e79; stroke-width: 1.5; stroke-linecap: square"/>
     <defs>
      <path id="m0da6062d93" d="M 0 1.5 
C 0.397805 1.5 0.77937 1.341951 1.06066 1.06066 
C 1.341951 0.77937 1.5 0.397805 1.5 0 
C 1.5 -0.397805 1.341951 -0.77937 1.06066 -1.06066 
C 0.77937 -1.341951 0.397805 -1.5 0 -1.5 
C -0.397805 -1.5 -0.77937 -1.341951 -1.06066 -1.06066 
C -1.341951 -0.77937 -1.5 -0.397805 -1.5 0 
C -1.5 0.397805 -1.341951 0.77937 -1.06066 1.06066 
C -0.77937 1.341951 -0.397805 1.5 0 1.5 
z
" style="stroke: #1f4e79"/>
     </defs>
     <g>
      <use xlink:href="#m0da6062d93" x="66.454063" y="46.545156" style="fill: #1f4e79; stroke: #1f4e79"/>
     </g>
    </g>
    <g id="text_39">
     <!-- 수출단가(USD/톤) -->
     <g transform="translate(80.854062 49.345156) scale(0.08 -0.08)">
      <defs>
       <path id="MalgunGothic-b2e8" d="M 5125 3169 
L 5125 1063 
L 4659 1063 
L 4659 5466 
L 5125 5466 
L 5125 3584 
L 6034 3584 
L 6034 3169 
L 5125 3169 
z
M 3903 2363 
Q 3306 2291 850 2291 
L 850 5081 
L 3688 5081 
L 3688 4666 
L 1319 4666 
L 1319 2706 
Q 3244 2706 3872 2766 
L 3903 2363 
z
M 1459 -378 
L 1459 1581 
L 1925 1581 
L 1925 38 
L 5294 38 
L 5294 -378 
L 1459 -378 
z
" transform="scale(0.015625)"/>
       <path id="MalgunGothic-ac00" d="M 5094 2566 
L 5094 -563 
L 4628 -563 
L 4628 5466 
L 5094 5466 
L 5094 2981 
L 6175 2981 
L 6175 2566 
L 5094 2566 
z
M 3609 4928 
Q 3541 2363 897 863 
L 538 1241 
Q 1484 1631 2234 2506 
Q 2984 3381 3109 4513 
L 794 4513 
L 794 4928 
L 3609 4928 
z
" transform="scale(0.015625)"/>
       <path id="MalgunGothic-55" d="M 3947 1850 
Q 3947 -78 2209 -78 
Q 553 -78 553 1778 
L 553 4600 
L 1056 4600 
L 1056 1813 
Q 1056 381 2272 381 
Q 3441 381 3441 1763 
L 3441 4600 
L 3947 4600 
L 3947 1850 
z
" transform="scale(0.015625)"/>
       <path id="MalgunGothic-44" d="M 609 0 
L 609 4600 
L 1856 4600 
Q 4281 4600 4281 2356 
Q 4281 1288 3587 644 
Q 2894 0 1800 0 
L 609 0 
z
M 1113 4134 
L 1113 463 
L 1813 463 
Q 2734 463 3243 958 
Q 3753 1453 3753 2344 
Q 3753 4134 1844 4134 
L 1113 4134 
z
" transform="scale(0.015625)"/>
       <path id="MalgunGothic-2f" d="M 2584 4600 
L 378 -763 
L -84 -763 
L 2113 4600 
L 2584 4600 
z
" transform="scale(0.015625)"/>
       <path id="MalgunGothic-d1a4" d="M 403 1684 
L 403 2100 
L 2969 2100 
L 2969 2809 
L 1331 2809 
L 1331 5269 
L 5088 5269 
L 5088 4850 
L 1797 4850 
L 1797 4244 
L 4984 4244 
L 4984 3841 
L 1797 3841 
L 1797 3225 
L 5166 3225 
L 5166 2809 
L 3438 2809 
L 3438 2100 
L 5997 2100 
L 5997 1684 
L 403 1684 
z
M 1325 -422 
L 1325 1191 
L 1791 1191 
L 1791 0 
L 5203 0 
L 5203 -422 
L 1325 -422 
z
" transform="scale(0.015625)"/>
      </defs>
      <use xlink:href="#MalgunGothic-c218"/>
      <use xlink:href="#MalgunGothic-cd9c" transform="translate(100 0)"/>
      <use xlink:href="#MalgunGothic-b2e8" transform="translate(200 0)"/>
      <use xlink:href="#MalgunGothic-ac00" transform="translate(300 0)"/>
      <use xlink:href="#MalgunGothic-28" transform="translate(400 0)"/>
      <use xlink:href="#MalgunGothic-55" transform="translate(430.46875 0)"/>
      <use xlink:href="#MalgunGothic-53" transform="translate(500.732422 0)"/>
      <use xlink:href="#MalgunGothic-44" transform="translate(555.029297 0)"/>
      <use xlink:href="#MalgunGothic-2f" transform="translate(626.757812 0)"/>
      <use xlink:href="#MalgunGothic-d1a4" transform="translate(666.357422 0)"/>
      <use xlink:href="#MalgunGothic-29" transform="translate(766.357422 0)"/>
     </g>
    </g>
   </g>
  </g>
  <g id="axes_2">
   <g id="matplotlib.axis_3">
    <g id="ytick_9">
     <g id="line2d_37">
      <defs>
       <path id="m97a8e3e20a" d="M 0 0 
L 3.5 0 
" style="stroke: #000000; stroke-width: 0.8"/>
      </defs>
      <g>
       <use xlink:href="#m97a8e3e20a" x="1112.314062" y="233.352027" style="stroke: #000000; stroke-width: 0.8"/>
      </g>
     </g>
     <g id="text_40">
      <!-- 3,300 -->
      <g style="fill: #808080" transform="translate(1119.314062 236.388902) scale(0.08 -0.08)">
       <use xlink:href="#MalgunGothic-33"/>
       <use xlink:href="#MalgunGothic-2c" transform="translate(55.078125 0)"/>
       <use xlink:href="#MalgunGothic-33" transform="translate(76.953125 0)"/>
       <use xlink:href="#MalgunGothic-30" transform="translate(132.03125 0)"/>
       <use xlink:href="#MalgunGothic-30" transform="translate(187.109375 0)"/>
      </g>
     </g>
    </g>
    <g id="ytick_10">
     <g id="line2d_38">
      <g>
       <use xlink:href="#m97a8e3e20a" x="1112.314062" y="208.487566" style="stroke: #000000; stroke-width: 0.8"/>
      </g>
     </g>
     <g id="text_41">
      <!-- 3,350 -->
      <g style="fill: #808080" transform="translate(1119.314062 211.524441) scale(0.08 -0.08)">
       <use xlink:href="#MalgunGothic-33"/>
       <use xlink:href="#MalgunGothic-2c" transform="translate(55.078125 0)"/>
       <use xlink:href="#MalgunGothic-33" transform="translate(76.953125 0)"/>
       <use xlink:href="#MalgunGothic-35" transform="translate(132.03125 0)"/>
       <use xlink:href="#MalgunGothic-30" transform="translate(187.109375 0)"/>
      </g>
     </g>
    </g>
    <g id="ytick_11">
     <g id="line2d_39">
      <g>
       <use xlink:href="#m97a8e3e20a" x="1112.314062" y="183.623105" style="stroke: #000000; stroke-width: 0.8"/>
      </g>
     </g>
     <g id="text_42">
      <!-- 3,400 -->
      <g style="fill: #808080" transform="translate(1119.314062 186.65998) scale(0.08 -0.08)">
       <use xlink:href="#MalgunGothic-33"/>
       <use xlink:href="#MalgunGothic-2c" transform="translate(55.078125 0)"/>
       <use xlink:href="#MalgunGothic-34" transform="translate(76.953125 0)"/>
       <use xlink:href="#MalgunGothic-30" transform="translate(132.03125 0)"/>
       <use xlink:href="#MalgunGothic-30" transform="translate(187.109375 0)"/>
      </g>
     </g>
    </g>
    <g id="ytick_12">
     <g id="line2d_40">
      <g>
       <use xlink:href="#m97a8e3e20a" x="1112.314062" y="158.758643" style="stroke: #000000; stroke-width: 0.8"/>
      </g>
     </g>
     <g id="text_43">
      <!-- 3,450 -->
      <g style="fill: #808080" transform="translate(1119.314062 161.795518) scale(0.08 -0.08)">
       <use xlink:href="#MalgunGothic-33"/>
       <use xlink:href="#MalgunGothic-2c" transform="translate(55.078125 0)"/>
       <use xlink:href="#MalgunGothic-34" transform="translate(76.953125 0)"/>
       <use xlink:href="#MalgunGothic-35" transform="translate(132.03125 0)"/>
       <use xlink:href="#MalgunGothic-30" transform="translate(187.109375 0)"/>
      </g>
     </g>
    </g>
    <g id="ytick_13">
     <g id="line2d_41">
      <g>
       <use xlink:href="#m97a8e3e20a" x="1112.314062" y="133.894182" style="stroke: #000000; stroke-width: 0.8"/>
      </g>
     </g>
     <g id="text_44">
      <!-- 3,500 -->
      <g style="fill: #808080" transform="translate(1119.314062 136.931057) scale(0.08 -0.08)">
       <use xlink:href="#MalgunGothic-33"/>
       <use xlink:href="#MalgunGothic-2c" transform="translate(55.078125 0)"/>
       <use xlink:href="#MalgunGothic-35" transform="translate(76.953125 0)"/>
       <use xlink:href="#MalgunGothic-30" transform="translate(132.03125 0)"/>
       <use xlink:href="#MalgunGothic-30" transform="translate(187.109375 0)"/>
      </g>
     </g>
    </g>
    <g id="ytick_14">
     <g id="line2d_42">
      <g>
       <use xlink:href="#m97a8e3e20a" x="1112.314062" y="109.02972" style="stroke: #000000; stroke-width: 0.8"/>
      </g>
     </g>
     <g id="text_45">
      <!-- 3,550 -->
      <g style="fill: #808080" transform="translate(1119.314062 112.066595) scale(0.08 -0.08)">
       <use xlink:href="#MalgunGothic-33"/>
       <use xlink:href="#MalgunGothic-2c" transform="translate(55.078125 0)"/>
       <use xlink:href="#MalgunGothic-35" transform="translate(76.953125 0)"/>
       <use xlink:href="#MalgunGothic-35" transform="translate(132.03125 0)"/>
       <use xlink:href="#MalgunGothic-30" transform="translate(187.109375 0)"/>
      </g>
     </g>
    </g>
    <g id="ytick_15">
     <g id="line2d_43">
      <g>
       <use xlink:href="#m97a8e3e20a" x="1112.314062" y="84.165259" style="stroke: #000000; stroke-width: 0.8"/>
      </g>
     </g>
     <g id="text_46">
      <!-- 3,600 -->
      <g style="fill: #808080" transform="translate(1119.314062 87.202134) scale(0.08 -0.08)">
       <use xlink:href="#MalgunGothic-33"/>
       <use xlink:href="#MalgunGothic-2c" transform="translate(55.078125 0)"/>
       <use xlink:href="#MalgunGothic-36" transform="translate(76.953125 0)"/>
       <use xlink:href="#MalgunGothic-30" transform="translate(132.03125 0)"/>
       <use xlink:href="#MalgunGothic-30" transform="translate(187.109375 0)"/>
      </g>
     </g>
    </g>
    <g id="ytick_16">
     <g id="line2d_44">
      <g>
       <use xlink:href="#m97a8e3e20a" x="1112.314062" y="59.300798" style="stroke: #000000; stroke-width: 0.8"/>
      </g>
     </g>
     <g id="text_47">
      <!-- 3,650 -->
      <g style="fill: #808080" transform="translate(1119.314062 62.337673) scale(0.08 -0.08)">
       <use xlink:href="#MalgunGothic-33"/>
       <use xlink:href="#MalgunGothic-2c" transform="translate(55.078125 0)"/>
       <use xlink:href="#MalgunGothic-36" transform="translate(76.953125 0)"/>
       <use xlink:href="#MalgunGothic-35" transform="translate(132.03125 0)"/>
       <use xlink:href="#MalgunGothic-30" transform="translate(187.109375 0)"/>
      </g>
     </g>
    </g>
    <g id="ytick_17">
     <g id="line2d_45">
      <g>
       <use xlink:href="#m97a8e3e20a" x="1112.314062" y="34.436336" style="stroke: #000000; stroke-width: 0.8"/>
      </g>
     </g>
     <g id="text_48">
      <!-- 3,700 -->
      <g style="fill: #808080" transform="translate(1119.314062 37.473211) scale(0.08 -0.08)">
       <use xlink:href="#MalgunGothic-33"/>
       <use xlink:href="#MalgunGothic-2c" transform="translate(55.078125 0)"/>
       <use xlink:href="#MalgunGothic-37" transform="translate(76.953125 0)"/>
       <use xlink:href="#MalgunGothic-30" transform="translate(132.03125 0)"/>
       <use xlink:href="#MalgunGothic-30" transform="translate(187.109375 0)"/>
      </g>
     </g>
    </g>
    <g id="text_49">
     <!-- 단가 (USD/톤) -->
     <g style="fill: #808080" transform="translate(1149.716094 160.356403) rotate(-90) scale(0.09 -0.09)">
      <use xlink:href="#MalgunGothic-b2e8"/>
      <use xlink:href="#MalgunGothic-ac00" transform="translate(100 0)"/>
      <use xlink:href="#MalgunGothic-20" transform="translate(200 0)"/>
      <use xlink:href="#MalgunGothic-28" transform="translate(235.15625 0)"/>
      <use xlink:href="#MalgunGothic-55" transform="translate(265.625 0)"/>
      <use xlink:href="#MalgunGothic-53" transform="translate(335.888672 0)"/>
      <use xlink:href="#MalgunGothic-44" transform="translate(390.185547 0)"/>
      <use xlink:href="#MalgunGothic-2f" transform="translate(461.914062 0)"/>
      <use xlink:href="#MalgunGothic-d1a4" transform="translate(501.513672 0)"/>
      <use xlink:href="#MalgunGothic-29" transform="translate(601.513672 0)"/>
     </g>
    </g>
   </g>
   <g id="line2d_46">
    <path d="M 113.881077 55.308794 
L 149.873615 42.15589 
L 185.866152 33.402833 
L 221.858689 114.758442 
L 257.851227 150.308918 
L 293.843764 135.772521 
L 329.836301 200.486268 
L 365.828839 140.697831 
L 401.821376 58.455921 
L 437.813913 119.44434 
L 473.806451 108.994161 
L 509.798988 162.303278 
L 545.791525 142.857315 
L 581.784063 111.10435 
L 617.7766 132.043914 
L 653.769137 80.183609 
L 689.761674 113.811498 
L 725.754212 230.431378 
L 761.746749 61.378054 
L 797.739286 72.960602 
L 833.731824 43.170335 
L 869.724361 106.632523 
L 905.716898 85.23952 
L 941.709436 75.288601 
L 977.701973 83.583419 
L 1013.69451 101.961806 
L 1049.687048 65.341563 
" clip-path="url(#p08267103d4)" style="fill: none; stroke: #1f4e79; stroke-width: 1.5; stroke-linecap: square"/>
    <g clip-path="url(#p08267103d4)">
     <use xlink:href="#m0da6062d93" x="113.881077" y="55.308794" style="fill: #1f4e79; stroke: #1f4e79"/>
     <use xlink:href="#m0da6062d93" x="149.873615" y="42.15589" style="fill: #1f4e79; stroke: #1f4e79"/>
     <use xlink:href="#m0da6062d93" x="185.866152" y="33.402833" style="fill: #1f4e79; stroke: #1f4e79"/>
     <use xlink:href="#m0da6062d93" x="221.858689" y="114.758442" style="fill: #1f4e79; stroke: #1f4e79"/>
     <use xlink:href="#m0da6062d93" x="257.851227" y="150.308918" style="fill: #1f4e79; stroke: #1f4e79"/>
     <use xlink:href="#m0da6062d93" x="293.843764" y="135.772521" style="fill: #1f4e79; stroke: #1f4e79"/>
     <use xlink:href="#m0da6062d93" x="329.836301" y="200.486268" style="fill: #1f4e79; stroke: #1f4e79"/>
     <use xlink:href="#m0da6062d93" x="365.828839" y="140.697831" style="fill: #1f4e79; stroke: #1f4e79"/>
     <use xlink:href="#m0da6062d93" x="401.821376" y="58.455921" style="fill: #1f4e79; stroke: #1f4e79"/>
     <use xlink:href="#m0da6062d93" x="437.813913" y="119.44434" style="fill: #1f4e79; stroke: #1f4e79"/>
     <use xlink:href="#m0da6062d93" x="473.806451" y="108.994161" style="fill: #1f4e79; stroke: #1f4e79"/>
     <use xlink:href="#m0da6062d93" x="509.798988" y="162.303278" style="fill: #1f4e79; stroke: #1f4e79"/>
     <use xlink:href="#m0da6062d93" x="545.791525" y="142.857315" style="fill: #1f4e79; stroke: #1f4e79"/>
     <use xlink:href="#m0da6062d93" x="581.784063" y="111.10435" style="fill: #1f4e79; stroke: #1f4e79"/>
     <use xlink:href="#m0da6062d93" x="617.7766" y="132.043914" style="fill: #1f4e79; stroke: #1f4e79"/>
     <use xlink:href="#m0da6062d93" x="653.769137" y="80.183609" style="fill: #1f4e79; stroke: #1f4e79"/>
     <use xlink:href="#m0da6062d93" x="689.761674" y="113.811498" style="fill: #1f4e79; stroke: #1f4e79"/>
     <use xlink:href="#m0da6062d93" x="725.754212" y="230.431378" style="fill: #1f4e79; stroke: #1f4e79"/>
     <use xlink:href="#m0da6062d93" x="761.746749" y="61.378054" style="fill: #1f4e79; stroke: #1f4e79"/>
     <use xlink:href="#m0da6062d93" x="797.739286" y="72.960602" style="fill: #1f4e79; stroke: #1f4e79"/>
     <use xlink:href="#m0da6062d93" x="833.731824" y="43.170335" style="fill: #1f4e79; stroke: #1f4e79"/>
     <use xlink:href="#m0da6062d93" x="869.724361" y="106.632523" style="fill: #1f4e79; stroke: #1f4e79"/>
     <use xlink:href="#m0da6062d93" x="905.716898" y="85.23952" style="fill: #1f4e79; stroke: #1f4e79"/>
     <use xlink:href="#m0da6062d93" x="941.709436" y="75.288601" style="fill: #1f4e79; stroke: #1f4e79"/>
     <use xlink:href="#m0da6062d93" x="977.701973" y="83.583419" style="fill: #1f4e79; stroke: #1f4e79"/>
     <use xlink:href="#m0da6062d93" x="1013.69451" y="101.961806" style="fill: #1f4e79; stroke: #1f4e79"/>
     <use xlink:href="#m0da6062d93" x="1049.687048" y="65.341563" style="fill: #1f4e79; stroke: #1f4e79"/>
    </g>
   </g>
   <g id="patch_36">
    <path d="M 51.254063 240.282806 
L 51.254063 23.551406 
" style="fill: none; stroke: #000000; stroke-width: 0.8; stroke-linejoin: miter; stroke-linecap: square"/>
   </g>
   <g id="patch_37">
    <path d="M 1112.314062 240.282806 
L 1112.314062 23.551406 
" style="fill: none; stroke: #000000; stroke-width: 0.8; stroke-linejoin: miter; stroke-linecap: square"/>
   </g>
   <g id="patch_38">
    <path d="M 51.254062 240.282806 
L 1112.314063 240.282806 
" style="fill: none; stroke: #000000; stroke-width: 0.8; stroke-linejoin: miter; stroke-linecap: square"/>
   </g>
   <g id="patch_39">
    <path d="M 51.254062 23.551406 
L 1112.314063 23.551406 
" style="fill: none; stroke: #000000; stroke-width: 0.8; stroke-linejoin: miter; stroke-linecap: square"/>
   </g>
  </g>
 </g>
 <defs>
  <clipPath id="p08267103d4">
   <rect x="51.254063" y="23.551406" width="1061.06" height="216.731399"/>
  </clipPath>
 </defs>
</svg>
