<?xml version="1.0" encoding="utf-8" standalone="no"?>
<!DOCTYPE svg PUBLIC "-//W3C//DTD SVG 1.1//EN"
  "http://www.w3.org/Graphics/SVG/1.1/DTD/svg11.dtd">
<svg xmlns:xlink="http://www.w3.org/1999/xlink" width="1158.98625pt" height="280.428046pt" viewBox="0 0 1158.98625 280.428046" xmlns="http://www.w3.org/2000/svg" version="1.1">
 <metadata>
  <rdf:RDF xmlns:dc="http://purl.org/dc/elements/1.1/" xmlns:cc="http://creativecommons.org/ns#" xmlns:rdf="http://www.w3.org/1999/02/22-rdf-syntax-ns#">
   <cc:Work>
    <dc:type rdf:resource="http://purl.org/dc/dcmitype/StillImage"/>
    <dc:date>2026-04-24T11:04:35.855405</dc:date>
    <dc:format>image/svg+xml</dc:format>
    <dc:creator>
     <cc:Agent>
      <dc:title>Matplotlib v3.10.9, https://matplotlib.org/</dc:title>
     </cc:Agent>
    </dc:creator>
   </cc:Work>
  </rdf:RDF>
 </metadata>
 <defs>
  <style type="text/css">*{stroke-linejoin: round; stroke-linecap: butt}</style>
 </defs>
 <g id="figure_1">
  <g id="patch_1">
   <path d="M 0 280.428046 
L 1158.98625 280.428046 
L 1158.98625 0 
L 0 0 
z
" style="fill: #ffffff"/>
  </g>
  <g id="axes_1">
   <g id="patch_2">
    <path d="M 61.816563 240.664368 
L 1112.256562 240.664368 
L 1112.256562 23.932969 
L 61.816563 23.932969 
z
" style="fill: #ffffff"/>
   </g>
   <g id="patch_3">
    <path d="M 109.563835 240.664368 
L 138.06967 240.664368 
L 138.06967 88.884786 
L 109.563835 88.884786 
z
" clip-path="url(#p98c485612f)" style="fill: #4472c4; opacity: 0.85"/>
   </g>
   <g id="patch_4">
    <path d="M 145.196128 240.664368 
L 173.701963 240.664368 
L 173.701963 88.489201 
L 145.196128 88.489201 
z
" clip-path="url(#p98c485612f)" style="fill: #4472c4; opacity: 0.85"/>
   </g>
   <g id="patch_5">
    <path d="M 180.828421 240.664368 
L 209.334256 240.664368 
L 209.334256 85.883135 
L 180.828421 85.883135 
z
" clip-path="url(#p98c485612f)" style="fill: #4472c4; opacity: 0.85"/>
   </g>
   <g id="patch_6">
    <path d="M 216.460714 240.664368 
L 244.966549 240.664368 
L 244.966549 108.350452 
L 216.460714 108.350452 
z
" clip-path="url(#p98c485612f)" style="fill: #4472c4; opacity: 0.85"/>
   </g>
   <g id="patch_7">
    <path d="M 252.093008 240.664368 
L 280.598842 240.664368 
L 280.598842 97.22851 
L 252.093008 97.22851 
z
" clip-path="url(#p98c485612f)" style="fill: #4472c4; opacity: 0.85"/>
   </g>
   <g id="patch_8">
    <path d="M 287.725301 240.664368 
L 316.231135 240.664368 
L 316.231135 116.777685 
L 287.725301 116.777685 
z
" clip-path="url(#p98c485612f)" style="fill: #4472c4; opacity: 0.85"/>
   </g>
   <g id="patch_9">
    <path d="M 323.357594 240.664368 
L 351.863428 240.664368 
L 351.863428 89.912336 
L 323.357594 89.912336 
z
" clip-path="url(#p98c485612f)" style="fill: #4472c4; opacity: 0.85"/>
   </g>
   <g id="patch_10">
    <path d="M 358.989887 240.664368 
L 387.495721 240.664368 
L 387.495721 91.889289 
L 358.989887 91.889289 
z
" clip-path="url(#p98c485612f)" style="fill: #4472c4; opacity: 0.85"/>
   </g>
   <g id="patch_11">
    <path d="M 394.62218 240.664368 
L 423.128014 240.664368 
L 423.128014 104.50099 
L 394.62218 104.50099 
z
" clip-path="url(#p98c485612f)" style="fill: #4472c4; opacity: 0.85"/>
   </g>
   <g id="patch_12">
    <path d="M 430.254473 240.664368 
L 458.760307 240.664368 
L 458.760307 136.906804 
L 430.254473 136.906804 
z
" clip-path="url(#p98c485612f)" style="fill: #4472c4; opacity: 0.85"/>
   </g>
   <g id="patch_13">
    <path d="M 465.886766 240.664368 
L 494.3926 240.664368 
L 494.3926 119.134023 
L 465.886766 119.134023 
z
" clip-path="url(#p98c485612f)" style="fill: #4472c4; opacity: 0.85"/>
   </g>
   <g id="patch_14">
    <path d="M 501.519059 240.664368 
L 530.024894 240.664368 
L 530.024894 109.328661 
L 501.519059 109.328661 
z
" clip-path="url(#p98c485612f)" style="fill: #4472c4; opacity: 0.85"/>
   </g>
   <g id="patch_15">
    <path d="M 537.151352 240.664368 
L 565.657187 240.664368 
L 565.657187 129.627935 
L 537.151352 129.627935 
z
" clip-path="url(#p98c485612f)" style="fill: #4472c4; opacity: 0.85"/>
   </g>
   <g id="patch_16">
    <path d="M 572.783645 240.664368 
L 601.28948 240.664368 
L 601.28948 114.140817 
L 572.783645 114.140817 
z
" clip-path="url(#p98c485612f)" style="fill: #4472c4; opacity: 0.85"/>
   </g>
   <g id="patch_17">
    <path d="M 608.415938 240.664368 
L 636.921773 240.664368 
L 636.921773 137.126757 
L 608.415938 137.126757 
z
" clip-path="url(#p98c485612f)" style="fill: #4472c4; opacity: 0.85"/>
   </g>
   <g id="patch_18">
    <path d="M 644.048231 240.664368 
L 672.554066 240.664368 
L 672.554066 126.29356 
L 644.048231 126.29356 
z
" clip-path="url(#p98c485612f)" style="fill: #4472c4; opacity: 0.85"/>
   </g>
   <g id="patch_19">
    <path d="M 679.680525 240.664368 
L 708.186359 240.664368 
L 708.186359 121.714819 
L 679.680525 121.714819 
z
" clip-path="url(#p98c485612f)" style="fill: #4472c4; opacity: 0.85"/>
   </g>
   <g id="patch_20">
    <path d="M 715.312818 240.664368 
L 743.818652 240.664368 
L 743.818652 118.23938 
L 715.312818 118.23938 
z
" clip-path="url(#p98c485612f)" style="fill: #4472c4; opacity: 0.85"/>
   </g>
   <g id="patch_21">
    <path d="M 750.945111 240.664368 
L 779.450945 240.664368 
L 779.450945 94.779822 
L 750.945111 94.779822 
z
" clip-path="url(#p98c485612f)" style="fill: #4472c4; opacity: 0.85"/>
   </g>
   <g id="patch_22">
    <path d="M 786.577404 240.664368 
L 815.083238 240.664368 
L 815.083238 97.593121 
L 786.577404 97.593121 
z
" clip-path="url(#p98c485612f)" style="fill: #4472c4; opacity: 0.85"/>
   </g>
   <g id="patch_23">
    <path d="M 822.209697 240.664368 
L 850.715531 240.664368 
L 850.715531 94.965036 
L 822.209697 94.965036 
z
" clip-path="url(#p98c485612f)" style="fill: #4472c4; opacity: 0.85"/>
   </g>
   <g id="patch_24">
    <path d="M 857.84199 240.664368 
L 886.347824 240.664368 
L 886.347824 113.02143 
L 857.84199 113.02143 
z
" clip-path="url(#p98c485612f)" style="fill: #4472c4; opacity: 0.85"/>
   </g>
   <g id="patch_25">
    <path d="M 893.474283 240.664368 
L 921.980117 240.664368 
L 921.980117 133.607111 
L 893.474283 133.607111 
z
" clip-path="url(#p98c485612f)" style="fill: #4472c4; opacity: 0.85"/>
   </g>
   <g id="patch_26">
    <path d="M 929.106576 240.664368 
L 957.612411 240.664368 
L 957.612411 93.854776 
L 929.106576 93.854776 
z
" clip-path="url(#p98c485612f)" style="fill: #4472c4; opacity: 0.85"/>
   </g>
   <g id="patch_27">
    <path d="M 964.738869 240.664368 
L 993.244704 240.664368 
L 993.244704 120.017314 
L 964.738869 120.017314 
z
" clip-path="url(#p98c485612f)" style="fill: #4472c4; opacity: 0.85"/>
   </g>
   <g id="patch_28">
    <path d="M 1000.371162 240.664368 
L 1028.876997 240.664368 
L 1028.876997 112.220164 
L 1000.371162 112.220164 
z
" clip-path="url(#p98c485612f)" style="fill: #4472c4; opacity: 0.85"/>
   </g>
   <g id="patch_29">
    <path d="M 1036.003455 240.664368 
L 1064.50929 240.664368 
L 1064.50929 34.253512 
L 1036.003455 34.253512 
z
" clip-path="url(#p98c485612f)" style="fill: #4472c4; opacity: 0.85"/>
   </g>
   <g id="matplotlib.axis_1">
    <g id="xtick_1">
     <g id="line2d_1">
      <defs>
       <path id="m2d73d3b267" d="M 0 0 
L 0 3.5 
" style="stroke: #000000; stroke-width: 0.8"/>
      </defs>
      <g>
       <use xlink:href="#m2d73d3b267" x="123.816752" y="240.664368" style="stroke: #000000; stroke-width: 0.8"/>
      </g>
     </g>
     <g id="text_1">
      <!-- 2024.01 -->
      <g transform="translate(102.547864 271.89073) rotate(-45) scale(0.08 -0.08)">
       <defs>
        <path id="MalgunGothic-32" d="M 2519 3372 
Q 2519 3784 2275 4018 
Q 2031 4253 1628 4253 
Q 1341 4253 1053 4104 
Q 766 3956 534 3697 
L 534 4234 
Q 981 4675 1691 4675 
Q 2281 4675 2642 4334 
Q 3003 3994 3003 3416 
Q 3003 2919 2772 2545 
Q 2541 2172 1984 1775 
Q 1459 1406 1254 1215 
Q 1050 1025 967 854 
Q 884 684 884 450 
L 3116 450 
L 3116 0 
L 356 0 
L 356 225 
Q 356 603 461 870 
Q 566 1138 811 1392 
Q 1056 1647 1597 2022 
Q 2091 2363 2305 2670 
Q 2519 2978 2519 3372 
z
" transform="scale(0.015625)"/>
        <path id="MalgunGothic-30" d="M 278 2206 
Q 278 3425 675 4050 
Q 1072 4675 1819 4675 
Q 3253 4675 3253 2319 
Q 3253 1156 2854 539 
Q 2456 -78 1716 -78 
Q 1016 -78 647 520 
Q 278 1119 278 2206 
z
M 784 2231 
Q 784 344 1769 344 
Q 2747 344 2747 2259 
Q 2747 4250 1794 4250 
Q 784 4250 784 2231 
z
" transform="scale(0.015625)"/>
        <path id="MalgunGothic-34" d="M 2703 4600 
L 2703 1563 
L 3309 1563 
L 3309 1113 
L 2703 1113 
L 2703 0 
L 2213 0 
L 2213 1113 
L 50 1113 
L 50 1534 
Q 728 2297 1295 3109 
Q 1863 3922 2172 4600 
L 2703 4600 
z
M 625 1563 
L 2213 1563 
L 2213 3831 
Q 1613 2788 959 1981 
L 625 1563 
z
" transform="scale(0.015625)"/>
        <path id="MalgunGothic-2e" d="M 356 275 
Q 356 422 459 523 
Q 563 625 700 625 
Q 838 625 941 523 
Q 1044 422 1044 275 
Q 1044 138 942 33 
Q 841 -72 700 -72 
Q 559 -72 457 29 
Q 356 131 356 275 
z
" transform="scale(0.015625)"/>
        <path id="MalgunGothic-31" d="M 2231 0 
L 1734 0 
L 1734 3972 
Q 1591 3828 1266 3661 
Q 941 3494 672 3428 
L 672 3959 
Q 1016 4056 1409 4275 
Q 1803 4494 2031 4700 
L 2231 4700 
L 2231 0 
z
" transform="scale(0.015625)"/>
       </defs>
       <use xlink:href="#MalgunGothic-32"/>
       <use xlink:href="#MalgunGothic-30" transform="translate(55.078125 0)"/>
       <use xlink:href="#MalgunGothic-32" transform="translate(110.15625 0)"/>
       <use xlink:href="#MalgunGothic-34" transform="translate(165.234375 0)"/>
       <use xlink:href="#MalgunGothic-2e" transform="translate(220.3125 0)"/>
       <use xlink:href="#MalgunGothic-30" transform="translate(242.1875 0)"/>
       <use xlink:href="#MalgunGothic-31" transform="translate(297.265625 0)"/>
      </g>
     </g>
    </g>
    <g id="xtick_2">
     <g id="line2d_2">
      <g>
       <use xlink:href="#m2d73d3b267" x="159.449046" y="240.664368" style="stroke: #000000; stroke-width: 0.8"/>
      </g>
     </g>
     <g id="text_2">
      <!-- 02 -->
      <g transform="translate(151.880351 258.190536) rotate(-45) scale(0.08 -0.08)">
       <use xlink:href="#MalgunGothic-30"/>
       <use xlink:href="#MalgunGothic-32" transform="translate(55.078125 0)"/>
      </g>
     </g>
    </g>
    <g id="xtick_3">
     <g id="line2d_3">
      <g>
       <use xlink:href="#m2d73d3b267" x="195.081339" y="240.664368" style="stroke: #000000; stroke-width: 0.8"/>
      </g>
     </g>
     <g id="text_3">
      <!-- 03 -->
      <g transform="translate(187.512644 258.190536) rotate(-45) scale(0.08 -0.08)">
       <defs>
        <path id="MalgunGothic-33" d="M 416 719 
Q 891 344 1478 344 
Q 1959 344 2254 587 
Q 2550 831 2550 1247 
Q 2550 2169 1253 2169 
L 872 2169 
L 872 2591 
L 1234 2591 
Q 2388 2591 2388 3453 
Q 2388 4250 1509 4250 
Q 1022 4250 594 3916 
L 594 4413 
Q 1031 4675 1634 4675 
Q 2184 4675 2539 4372 
Q 2894 4069 2894 3581 
Q 2894 2678 1972 2409 
L 1972 2400 
Q 2469 2356 2764 2053 
Q 3059 1750 3059 1300 
Q 3059 672 2604 297 
Q 2150 -78 1450 -78 
Q 806 -78 416 169 
L 416 719 
z
" transform="scale(0.015625)"/>
       </defs>
       <use xlink:href="#MalgunGothic-30"/>
       <use xlink:href="#MalgunGothic-33" transform="translate(55.078125 0)"/>
      </g>
     </g>
    </g>
    <g id="xtick_4">
     <g id="line2d_4">
      <g>
       <use xlink:href="#m2d73d3b267" x="230.713632" y="240.664368" style="stroke: #000000; stroke-width: 0.8"/>
      </g>
     </g>
     <g id="text_4">
      <!-- 04 -->
      <g transform="translate(223.144937 258.190536) rotate(-45) scale(0.08 -0.08)">
       <use xlink:href="#MalgunGothic-30"/>
       <use xlink:href="#MalgunGothic-34" transform="translate(55.078125 0)"/>
      </g>
     </g>
    </g>
    <g id="xtick_5">
     <g id="line2d_5">
      <g>
       <use xlink:href="#m2d73d3b267" x="266.345925" y="240.664368" style="stroke: #000000; stroke-width: 0.8"/>
      </g>
     </g>
     <g id="text_5">
      <!-- 05 -->
      <g transform="translate(258.777231 258.190536) rotate(-45) scale(0.08 -0.08)">
       <defs>
        <path id="MalgunGothic-35" d="M 3072 1403 
Q 3072 722 2636 322 
Q 2200 -78 1469 -78 
Q 828 -78 516 113 
L 516 650 
Q 994 344 1475 344 
Q 1969 344 2270 630 
Q 2572 916 2572 1372 
Q 2572 1838 2265 2092 
Q 1959 2347 1381 2347 
Q 994 2347 603 2300 
L 759 4600 
L 2869 4600 
L 2869 4147 
L 1206 4147 
L 1106 2763 
Q 1347 2784 1547 2784 
Q 2263 2784 2667 2414 
Q 3072 2044 3072 1403 
z
" transform="scale(0.015625)"/>
       </defs>
       <use xlink:href="#MalgunGothic-30"/>
       <use xlink:href="#MalgunGothic-35" transform="translate(55.078125 0)"/>
      </g>
     </g>
    </g>
    <g id="xtick_6">
     <g id="line2d_6">
      <g>
       <use xlink:href="#m2d73d3b267" x="301.978218" y="240.664368" style="stroke: #000000; stroke-width: 0.8"/>
      </g>
     </g>
     <g id="text_6">
      <!-- 06 -->
      <g transform="translate(294.409524 258.190536) rotate(-45) scale(0.08 -0.08)">
       <defs>
        <path id="MalgunGothic-36" d="M 2981 4069 
Q 2619 4250 2228 4250 
Q 1591 4250 1228 3689 
Q 866 3128 869 2213 
L 884 2213 
Q 1203 2872 1938 2872 
Q 2547 2872 2903 2478 
Q 3259 2084 3259 1450 
Q 3259 797 2857 359 
Q 2456 -78 1825 -78 
Q 1116 -78 736 478 
Q 356 1034 356 2019 
Q 356 3181 847 3928 
Q 1338 4675 2222 4675 
Q 2700 4675 2981 4544 
L 2981 4069 
z
M 906 1506 
Q 906 1022 1165 683 
Q 1425 344 1844 344 
Q 2247 344 2498 645 
Q 2750 947 2750 1388 
Q 2750 1888 2509 2167 
Q 2269 2447 1838 2447 
Q 1444 2447 1175 2173 
Q 906 1900 906 1506 
z
" transform="scale(0.015625)"/>
       </defs>
       <use xlink:href="#MalgunGothic-30"/>
       <use xlink:href="#MalgunGothic-36" transform="translate(55.078125 0)"/>
      </g>
     </g>
    </g>
    <g id="xtick_7">
     <g id="line2d_7">
      <g>
       <use xlink:href="#m2d73d3b267" x="337.610511" y="240.664368" style="stroke: #000000; stroke-width: 0.8"/>
      </g>
     </g>
     <g id="text_7">
      <!-- 07 -->
      <g transform="translate(330.041817 258.190536) rotate(-45) scale(0.08 -0.08)">
       <defs>
        <path id="MalgunGothic-37" d="M 3213 4297 
Q 2478 3006 2064 1918 
Q 1650 831 1550 0 
L 1009 0 
Q 1084 531 1290 1176 
Q 1497 1822 1815 2537 
Q 2134 3253 2631 4147 
L 291 4147 
L 291 4600 
L 3213 4600 
L 3213 4297 
z
" transform="scale(0.015625)"/>
       </defs>
       <use xlink:href="#MalgunGothic-30"/>
       <use xlink:href="#MalgunGothic-37" transform="translate(55.078125 0)"/>
      </g>
     </g>
    </g>
    <g id="xtick_8">
     <g id="line2d_8">
      <g>
       <use xlink:href="#m2d73d3b267" x="373.242804" y="240.664368" style="stroke: #000000; stroke-width: 0.8"/>
      </g>
     </g>
     <g id="text_8">
      <!-- 08 -->
      <g transform="translate(365.67411 258.190536) rotate(-45) scale(0.08 -0.08)">
       <defs>
        <path id="MalgunGothic-38" d="M 303 1281 
Q 303 1669 539 2011 
Q 775 2353 1153 2494 
Q 856 2647 675 2915 
Q 494 3184 494 3500 
Q 494 3828 659 4098 
Q 825 4369 1122 4522 
Q 1419 4675 1778 4675 
Q 2334 4675 2700 4342 
Q 3066 4009 3066 3500 
Q 3066 3181 2881 2914 
Q 2697 2647 2413 2494 
Q 2788 2350 3022 2009 
Q 3256 1669 3256 1281 
Q 3256 672 2843 297 
Q 2431 -78 1778 -78 
Q 1131 -78 717 301 
Q 303 681 303 1281 
z
M 809 1328 
Q 809 878 1081 611 
Q 1353 344 1781 344 
Q 2206 344 2482 619 
Q 2759 894 2759 1328 
Q 2759 1731 2482 2011 
Q 2206 2291 1781 2291 
Q 1372 2291 1090 2020 
Q 809 1750 809 1328 
z
M 1003 3459 
Q 1003 3125 1234 2900 
Q 1466 2675 1781 2675 
Q 2097 2675 2330 2900 
Q 2563 3125 2563 3459 
Q 2563 3803 2341 4026 
Q 2119 4250 1781 4250 
Q 1450 4250 1226 4029 
Q 1003 3809 1003 3459 
z
" transform="scale(0.015625)"/>
       </defs>
       <use xlink:href="#MalgunGothic-30"/>
       <use xlink:href="#MalgunGothic-38" transform="translate(55.078125 0)"/>
      </g>
     </g>
    </g>
    <g id="xtick_9">
     <g id="line2d_9">
      <g>
       <use xlink:href="#m2d73d3b267" x="408.875097" y="240.664368" style="stroke: #000000; stroke-width: 0.8"/>
      </g>
     </g>
     <g id="text_9">
      <!-- 09 -->
      <g transform="translate(401.306403 258.190536) rotate(-45) scale(0.08 -0.08)">
       <defs>
        <path id="MalgunGothic-39" d="M 556 563 
Q 941 344 1366 344 
Q 1994 344 2347 855 
Q 2700 1366 2700 2313 
Q 2694 2306 2688 2313 
Q 2388 1713 1653 1713 
Q 1059 1713 682 2120 
Q 306 2528 306 3144 
Q 306 3806 711 4240 
Q 1116 4675 1772 4675 
Q 2466 4675 2833 4131 
Q 3200 3588 3200 2578 
Q 3200 1319 2717 620 
Q 2234 -78 1344 -78 
Q 881 -78 556 78 
L 556 563 
z
M 813 3219 
Q 813 2741 1063 2450 
Q 1313 2159 1759 2159 
Q 2147 2159 2406 2417 
Q 2666 2675 2666 3047 
Q 2666 3556 2411 3903 
Q 2156 4250 1725 4250 
Q 1322 4250 1067 3948 
Q 813 3647 813 3219 
z
" transform="scale(0.015625)"/>
       </defs>
       <use xlink:href="#MalgunGothic-30"/>
       <use xlink:href="#MalgunGothic-39" transform="translate(55.078125 0)"/>
      </g>
     </g>
    </g>
    <g id="xtick_10">
     <g id="line2d_10">
      <g>
       <use xlink:href="#m2d73d3b267" x="444.50739" y="240.664368" style="stroke: #000000; stroke-width: 0.8"/>
      </g>
     </g>
     <g id="text_10">
      <!-- 10 -->
      <g transform="translate(436.938696 258.190536) rotate(-45) scale(0.08 -0.08)">
       <use xlink:href="#MalgunGothic-31"/>
       <use xlink:href="#MalgunGothic-30" transform="translate(55.078125 0)"/>
      </g>
     </g>
    </g>
    <g id="xtick_11">
     <g id="line2d_11">
      <g>
       <use xlink:href="#m2d73d3b267" x="480.139683" y="240.664368" style="stroke: #000000; stroke-width: 0.8"/>
      </g>
     </g>
     <g id="text_11">
      <!-- 11 -->
      <g transform="translate(472.570989 258.190536) rotate(-45) scale(0.08 -0.08)">
       <use xlink:href="#MalgunGothic-31"/>
       <use xlink:href="#MalgunGothic-31" transform="translate(55.078125 0)"/>
      </g>
     </g>
    </g>
    <g id="xtick_12">
     <g id="line2d_12">
      <g>
       <use xlink:href="#m2d73d3b267" x="515.771976" y="240.664368" style="stroke: #000000; stroke-width: 0.8"/>
      </g>
     </g>
     <g id="text_12">
      <!-- 12 -->
      <g transform="translate(508.203282 258.190536) rotate(-45) scale(0.08 -0.08)">
       <use xlink:href="#MalgunGothic-31"/>
       <use xlink:href="#MalgunGothic-32" transform="translate(55.078125 0)"/>
      </g>
     </g>
    </g>
    <g id="xtick_13">
     <g id="line2d_13">
      <g>
       <use xlink:href="#m2d73d3b267" x="551.404269" y="240.664368" style="stroke: #000000; stroke-width: 0.8"/>
      </g>
     </g>
     <g id="text_13">
      <!-- 2025.01 -->
      <g transform="translate(530.135381 271.89073) rotate(-45) scale(0.08 -0.08)">
       <use xlink:href="#MalgunGothic-32"/>
       <use xlink:href="#MalgunGothic-30" transform="translate(55.078125 0)"/>
       <use xlink:href="#MalgunGothic-32" transform="translate(110.15625 0)"/>
       <use xlink:href="#MalgunGothic-35" transform="translate(165.234375 0)"/>
       <use xlink:href="#MalgunGothic-2e" transform="translate(220.3125 0)"/>
       <use xlink:href="#MalgunGothic-30" transform="translate(242.1875 0)"/>
       <use xlink:href="#MalgunGothic-31" transform="translate(297.265625 0)"/>
      </g>
     </g>
    </g>
    <g id="xtick_14">
     <g id="line2d_14">
      <g>
       <use xlink:href="#m2d73d3b267" x="587.036563" y="240.664368" style="stroke: #000000; stroke-width: 0.8"/>
      </g>
     </g>
     <g id="text_14">
      <!-- 02 -->
      <g transform="translate(579.467868 258.190536) rotate(-45) scale(0.08 -0.08)">
       <use xlink:href="#MalgunGothic-30"/>
       <use xlink:href="#MalgunGothic-32" transform="translate(55.078125 0)"/>
      </g>
     </g>
    </g>
    <g id="xtick_15">
     <g id="line2d_15">
      <g>
       <use xlink:href="#m2d73d3b267" x="622.668856" y="240.664368" style="stroke: #000000; stroke-width: 0.8"/>
      </g>
     </g>
     <g id="text_15">
      <!-- 03 -->
      <g transform="translate(615.100161 258.190536) rotate(-45) scale(0.08 -0.08)">
       <use xlink:href="#MalgunGothic-30"/>
       <use xlink:href="#MalgunGothic-33" transform="translate(55.078125 0)"/>
      </g>
     </g>
    </g>
    <g id="xtick_16">
     <g id="line2d_16">
      <g>
       <use xlink:href="#m2d73d3b267" x="658.301149" y="240.664368" style="stroke: #000000; stroke-width: 0.8"/>
      </g>
     </g>
     <g id="text_16">
      <!-- 04 -->
      <g transform="translate(650.732454 258.190536) rotate(-45) scale(0.08 -0.08)">
       <use xlink:href="#MalgunGothic-30"/>
       <use xlink:href="#MalgunGothic-34" transform="translate(55.078125 0)"/>
      </g>
     </g>
    </g>
    <g id="xtick_17">
     <g id="line2d_17">
      <g>
       <use xlink:href="#m2d73d3b267" x="693.933442" y="240.664368" style="stroke: #000000; stroke-width: 0.8"/>
      </g>
     </g>
     <g id="text_17">
      <!-- 05 -->
      <g transform="translate(686.364748 258.190536) rotate(-45) scale(0.08 -0.08)">
       <use xlink:href="#MalgunGothic-30"/>
       <use xlink:href="#MalgunGothic-35" transform="translate(55.078125 0)"/>
      </g>
     </g>
    </g>
    <g id="xtick_18">
     <g id="line2d_18">
      <g>
       <use xlink:href="#m2d73d3b267" x="729.565735" y="240.664368" style="stroke: #000000; stroke-width: 0.8"/>
      </g>
     </g>
     <g id="text_18">
      <!-- 06 -->
      <g transform="translate(721.997041 258.190536) rotate(-45) scale(0.08 -0.08)">
       <use xlink:href="#MalgunGothic-30"/>
       <use xlink:href="#MalgunGothic-36" transform="translate(55.078125 0)"/>
      </g>
     </g>
    </g>
    <g id="xtick_19">
     <g id="line2d_19">
      <g>
       <use xlink:href="#m2d73d3b267" x="765.198028" y="240.664368" style="stroke: #000000; stroke-width: 0.8"/>
      </g>
     </g>
     <g id="text_19">
      <!-- 07 -->
      <g transform="translate(757.629334 258.190536) rotate(-45) scale(0.08 -0.08)">
       <use xlink:href="#MalgunGothic-30"/>
       <use xlink:href="#MalgunGothic-37" transform="translate(55.078125 0)"/>
      </g>
     </g>
    </g>
    <g id="xtick_20">
     <g id="line2d_20">
      <g>
       <use xlink:href="#m2d73d3b267" x="800.830321" y="240.664368" style="stroke: #000000; stroke-width: 0.8"/>
      </g>
     </g>
     <g id="text_20">
      <!-- 08 -->
      <g transform="translate(793.261627 258.190536) rotate(-45) scale(0.08 -0.08)">
       <use xlink:href="#MalgunGothic-30"/>
       <use xlink:href="#MalgunGothic-38" transform="translate(55.078125 0)"/>
      </g>
     </g>
    </g>
    <g id="xtick_21">
     <g id="line2d_21">
      <g>
       <use xlink:href="#m2d73d3b267" x="836.462614" y="240.664368" style="stroke: #000000; stroke-width: 0.8"/>
      </g>
     </g>
     <g id="text_21">
      <!-- 09 -->
      <g transform="translate(828.89392 258.190536) rotate(-45) scale(0.08 -0.08)">
       <use xlink:href="#MalgunGothic-30"/>
       <use xlink:href="#MalgunGothic-39" transform="translate(55.078125 0)"/>
      </g>
     </g>
    </g>
    <g id="xtick_22">
     <g id="line2d_22">
      <g>
       <use xlink:href="#m2d73d3b267" x="872.094907" y="240.664368" style="stroke: #000000; stroke-width: 0.8"/>
      </g>
     </g>
     <g id="text_22">
      <!-- 10 -->
      <g transform="translate(864.526213 258.190536) rotate(-45) scale(0.08 -0.08)">
       <use xlink:href="#MalgunGothic-31"/>
       <use xlink:href="#MalgunGothic-30" transform="translate(55.078125 0)"/>
      </g>
     </g>
    </g>
    <g id="xtick_23">
     <g id="line2d_23">
      <g>
       <use xlink:href="#m2d73d3b267" x="907.7272" y="240.664368" style="stroke: #000000; stroke-width: 0.8"/>
      </g>
     </g>
     <g id="text_23">
      <!-- 11 -->
      <g transform="translate(900.158506 258.190536) rotate(-45) scale(0.08 -0.08)">
       <use xlink:href="#MalgunGothic-31"/>
       <use xlink:href="#MalgunGothic-31" transform="translate(55.078125 0)"/>
      </g>
     </g>
    </g>
    <g id="xtick_24">
     <g id="line2d_24">
      <g>
       <use xlink:href="#m2d73d3b267" x="943.359493" y="240.664368" style="stroke: #000000; stroke-width: 0.8"/>
      </g>
     </g>
     <g id="text_24">
      <!-- 12 -->
      <g transform="translate(935.790799 258.190536) rotate(-45) scale(0.08 -0.08)">
       <use xlink:href="#MalgunGothic-31"/>
       <use xlink:href="#MalgunGothic-32" transform="translate(55.078125 0)"/>
      </g>
     </g>
    </g>
    <g id="xtick_25">
     <g id="line2d_25">
      <g>
       <use xlink:href="#m2d73d3b267" x="978.991786" y="240.664368" style="stroke: #000000; stroke-width: 0.8"/>
      </g>
     </g>
     <g id="text_25">
      <!-- 2026.01 -->
      <g transform="translate(957.722898 271.89073) rotate(-45) scale(0.08 -0.08)">
       <use xlink:href="#MalgunGothic-32"/>
       <use xlink:href="#MalgunGothic-30" transform="translate(55.078125 0)"/>
       <use xlink:href="#MalgunGothic-32" transform="translate(110.15625 0)"/>
       <use xlink:href="#MalgunGothic-36" transform="translate(165.234375 0)"/>
       <use xlink:href="#MalgunGothic-2e" transform="translate(220.3125 0)"/>
       <use xlink:href="#MalgunGothic-30" transform="translate(242.1875 0)"/>
       <use xlink:href="#MalgunGothic-31" transform="translate(297.265625 0)"/>
      </g>
     </g>
    </g>
    <g id="xtick_26">
     <g id="line2d_26">
      <g>
       <use xlink:href="#m2d73d3b267" x="1014.624079" y="240.664368" style="stroke: #000000; stroke-width: 0.8"/>
      </g>
     </g>
     <g id="text_26">
      <!-- 02 -->
      <g transform="translate(1007.055385 258.190536) rotate(-45) scale(0.08 -0.08)">
       <use xlink:href="#MalgunGothic-30"/>
       <use xlink:href="#MalgunGothic-32" transform="translate(55.078125 0)"/>
      </g>
     </g>
    </g>
    <g id="xtick_27">
     <g id="line2d_27">
      <g>
       <use xlink:href="#m2d73d3b267" x="1050.256373" y="240.664368" style="stroke: #000000; stroke-width: 0.8"/>
      </g>
     </g>
     <g id="text_27">
      <!-- 03 -->
      <g transform="translate(1042.687678 258.190536) rotate(-45) scale(0.08 -0.08)">
       <use xlink:href="#MalgunGothic-30"/>
       <use xlink:href="#MalgunGothic-33" transform="translate(55.078125 0)"/>
      </g>
     </g>
    </g>
   </g>
   <g id="matplotlib.axis_2">
    <g id="ytick_1">
     <g id="line2d_28">
      <defs>
       <path id="m6fdc82f3cc" d="M 0 0 
L -3.5 0 
" style="stroke: #000000; stroke-width: 0.8"/>
      </defs>
      <g>
       <use xlink:href="#m6fdc82f3cc" x="61.816563" y="240.664368" style="stroke: #000000; stroke-width: 0.8"/>
      </g>
     </g>
     <g id="text_28">
      <!-- 0 -->
      <g transform="translate(50.410313 243.701243) scale(0.08 -0.08)">
       <use xlink:href="#MalgunGothic-30"/>
      </g>
     </g>
    </g>
    <g id="ytick_2">
     <g id="line2d_29">
      <g>
       <use xlink:href="#m6fdc82f3cc" x="61.816563" y="212.143496" style="stroke: #000000; stroke-width: 0.8"/>
      </g>
     </g>
     <g id="text_29">
      <!-- 500,000 -->
      <g transform="translate(26.629063 215.180371) scale(0.08 -0.08)">
       <defs>
        <path id="MalgunGothic-2c" d="M 988 725 
L 472 -850 
L 125 -850 
L 503 725 
L 988 725 
z
" transform="scale(0.015625)"/>
       </defs>
       <use xlink:href="#MalgunGothic-35"/>
       <use xlink:href="#MalgunGothic-30" transform="translate(55.078125 0)"/>
       <use xlink:href="#MalgunGothic-30" transform="translate(110.15625 0)"/>
       <use xlink:href="#MalgunGothic-2c" transform="translate(165.234375 0)"/>
       <use xlink:href="#MalgunGothic-30" transform="translate(187.109375 0)"/>
       <use xlink:href="#MalgunGothic-30" transform="translate(242.1875 0)"/>
       <use xlink:href="#MalgunGothic-30" transform="translate(297.265625 0)"/>
      </g>
     </g>
    </g>
    <g id="ytick_3">
     <g id="line2d_30">
      <g>
       <use xlink:href="#m6fdc82f3cc" x="61.816563" y="183.622624" style="stroke: #000000; stroke-width: 0.8"/>
      </g>
     </g>
     <g id="text_30">
      <!-- 1,000,000 -->
      <g transform="translate(20.472813 186.659499) scale(0.08 -0.08)">
       <use xlink:href="#MalgunGothic-31"/>
       <use xlink:href="#MalgunGothic-2c" transform="translate(55.078125 0)"/>
       <use xlink:href="#MalgunGothic-30" transform="translate(76.953125 0)"/>
       <use xlink:href="#MalgunGothic-30" transform="translate(132.03125 0)"/>
       <use xlink:href="#MalgunGothic-30" transform="translate(187.109375 0)"/>
       <use xlink:href="#MalgunGothic-2c" transform="translate(242.1875 0)"/>
       <use xlink:href="#MalgunGothic-30" transform="translate(264.0625 0)"/>
       <use xlink:href="#MalgunGothic-30" transform="translate(319.140625 0)"/>
       <use xlink:href="#MalgunGothic-30" transform="translate(374.21875 0)"/>
      </g>
     </g>
    </g>
    <g id="ytick_4">
     <g id="line2d_31">
      <g>
       <use xlink:href="#m6fdc82f3cc" x="61.816563" y="155.101752" style="stroke: #000000; stroke-width: 0.8"/>
      </g>
     </g>
     <g id="text_31">
      <!-- 1,500,000 -->
      <g transform="translate(20.472813 158.138627) scale(0.08 -0.08)">
       <use xlink:href="#MalgunGothic-31"/>
       <use xlink:href="#MalgunGothic-2c" transform="translate(55.078125 0)"/>
       <use xlink:href="#MalgunGothic-35" transform="translate(76.953125 0)"/>
       <use xlink:href="#MalgunGothic-30" transform="translate(132.03125 0)"/>
       <use xlink:href="#MalgunGothic-30" transform="translate(187.109375 0)"/>
       <use xlink:href="#MalgunGothic-2c" transform="translate(242.1875 0)"/>
       <use xlink:href="#MalgunGothic-30" transform="translate(264.0625 0)"/>
       <use xlink:href="#MalgunGothic-30" transform="translate(319.140625 0)"/>
       <use xlink:href="#MalgunGothic-30" transform="translate(374.21875 0)"/>
      </g>
     </g>
    </g>
    <g id="ytick_5">
     <g id="line2d_32">
      <g>
       <use xlink:href="#m6fdc82f3cc" x="61.816563" y="126.58088" style="stroke: #000000; stroke-width: 0.8"/>
      </g>
     </g>
     <g id="text_32">
      <!-- 2,000,000 -->
      <g transform="translate(20.472813 129.617755) scale(0.08 -0.08)">
       <use xlink:href="#MalgunGothic-32"/>
       <use xlink:href="#MalgunGothic-2c" transform="translate(55.078125 0)"/>
       <use xlink:href="#MalgunGothic-30" transform="translate(76.953125 0)"/>
       <use xlink:href="#MalgunGothic-30" transform="translate(132.03125 0)"/>
       <use xlink:href="#MalgunGothic-30" transform="translate(187.109375 0)"/>
       <use xlink:href="#MalgunGothic-2c" transform="translate(242.1875 0)"/>
       <use xlink:href="#MalgunGothic-30" transform="translate(264.0625 0)"/>
       <use xlink:href="#MalgunGothic-30" transform="translate(319.140625 0)"/>
       <use xlink:href="#MalgunGothic-30" transform="translate(374.21875 0)"/>
      </g>
     </g>
    </g>
    <g id="ytick_6">
     <g id="line2d_33">
      <g>
       <use xlink:href="#m6fdc82f3cc" x="61.816563" y="98.060007" style="stroke: #000000; stroke-width: 0.8"/>
      </g>
     </g>
     <g id="text_33">
      <!-- 2,500,000 -->
      <g transform="translate(20.472813 101.096882) scale(0.08 -0.08)">
       <use xlink:href="#MalgunGothic-32"/>
       <use xlink:href="#MalgunGothic-2c" transform="translate(55.078125 0)"/>
       <use xlink:href="#MalgunGothic-35" transform="translate(76.953125 0)"/>
       <use xlink:href="#MalgunGothic-30" transform="translate(132.03125 0)"/>
       <use xlink:href="#MalgunGothic-30" transform="translate(187.109375 0)"/>
       <use xlink:href="#MalgunGothic-2c" transform="translate(242.1875 0)"/>
       <use xlink:href="#MalgunGothic-30" transform="translate(264.0625 0)"/>
       <use xlink:href="#MalgunGothic-30" transform="translate(319.140625 0)"/>
       <use xlink:href="#MalgunGothic-30" transform="translate(374.21875 0)"/>
      </g>
     </g>
    </g>
    <g id="ytick_7">
     <g id="line2d_34">
      <g>
       <use xlink:href="#m6fdc82f3cc" x="61.816563" y="69.539135" style="stroke: #000000; stroke-width: 0.8"/>
      </g>
     </g>
     <g id="text_34">
      <!-- 3,000,000 -->
      <g transform="translate(20.472813 72.57601) scale(0.08 -0.08)">
       <use xlink:href="#MalgunGothic-33"/>
       <use xlink:href="#MalgunGothic-2c" transform="translate(55.078125 0)"/>
       <use xlink:href="#MalgunGothic-30" transform="translate(76.953125 0)"/>
       <use xlink:href="#MalgunGothic-30" transform="translate(132.03125 0)"/>
       <use xlink:href="#MalgunGothic-30" transform="translate(187.109375 0)"/>
       <use xlink:href="#MalgunGothic-2c" transform="translate(242.1875 0)"/>
       <use xlink:href="#MalgunGothic-30" transform="translate(264.0625 0)"/>
       <use xlink:href="#MalgunGothic-30" transform="translate(319.140625 0)"/>
       <use xlink:href="#MalgunGothic-30" transform="translate(374.21875 0)"/>
      </g>
     </g>
    </g>
    <g id="ytick_8">
     <g id="line2d_35">
      <g>
       <use xlink:href="#m6fdc82f3cc" x="61.816563" y="41.018263" style="stroke: #000000; stroke-width: 0.8"/>
      </g>
     </g>
     <g id="text_35">
      <!-- 3,500,000 -->
      <g transform="translate(20.472813 44.055138) scale(0.08 -0.08)">
       <use xlink:href="#MalgunGothic-33"/>
       <use xlink:href="#MalgunGothic-2c" transform="translate(55.078125 0)"/>
       <use xlink:href="#MalgunGothic-35" transform="translate(76.953125 0)"/>
       <use xlink:href="#MalgunGothic-30" transform="translate(132.03125 0)"/>
       <use xlink:href="#MalgunGothic-30" transform="translate(187.109375 0)"/>
       <use xlink:href="#MalgunGothic-2c" transform="translate(242.1875 0)"/>
       <use xlink:href="#MalgunGothic-30" transform="translate(264.0625 0)"/>
       <use xlink:href="#MalgunGothic-30" transform="translate(319.140625 0)"/>
       <use xlink:href="#MalgunGothic-30" transform="translate(374.21875 0)"/>
      </g>
     </g>
    </g>
    <g id="text_36">
     <!-- 수출 (천$) -->
     <g transform="translate(14.345156 152.601403) rotate(-90) scale(0.09 -0.09)">
      <defs>
       <path id="MalgunGothic-c218" d="M 5491 2994 
Q 4750 3097 4078 3498 
Q 3406 3900 3200 4275 
Q 2975 3891 2309 3491 
Q 1644 3091 922 2956 
L 634 3347 
Q 1559 3450 2261 3942 
Q 2963 4434 2963 5013 
L 2963 5275 
L 3431 5275 
L 3431 5013 
Q 3431 4431 4118 3948 
Q 4806 3466 5766 3378 
L 5491 2994 
z
M 3431 1838 
L 3431 -563 
L 2963 -563 
L 2963 1838 
L 403 1838 
L 403 2253 
L 5997 2253 
L 5997 1838 
L 3431 1838 
z
" transform="scale(0.015625)"/>
       <path id="MalgunGothic-cd9c" d="M 5466 3334 
Q 4759 3400 4114 3664 
Q 3469 3928 3213 4225 
Q 2966 3931 2323 3670 
Q 1681 3409 966 3341 
L 709 3750 
Q 1328 3725 2017 3970 
Q 2706 4216 2906 4603 
L 1056 4603 
L 1056 5019 
L 2969 5019 
L 2969 5550 
L 3444 5550 
L 3444 5019 
L 5344 5019 
L 5344 4603 
L 3494 4603 
Q 3691 4241 4356 3995 
Q 5022 3750 5691 3750 
L 5466 3334 
z
M 1319 -416 
L 1319 947 
L 4616 947 
L 4616 1478 
L 1319 1478 
L 1319 1888 
L 2963 1888 
L 2963 2484 
L 403 2484 
L 403 2900 
L 5997 2900 
L 5997 2484 
L 3438 2484 
L 3438 1888 
L 5075 1888 
L 5075 544 
L 1778 544 
L 1778 0 
L 5234 0 
L 5234 -416 
L 1319 -416 
z
" transform="scale(0.015625)"/>
       <path id="MalgunGothic-20" transform="scale(0.015625)"/>
       <path id="MalgunGothic-28" d="M 1438 -1044 
Q 447 88 447 1753 
Q 447 3431 1438 4600 
L 1888 4600 
Q 878 3372 878 1759 
Q 878 153 1881 -1044 
L 1438 -1044 
z
" transform="scale(0.015625)"/>
       <path id="MalgunGothic-cc9c" d="M 4884 1056 
L 4884 3278 
L 3541 3278 
L 3541 3694 
L 4884 3694 
L 4884 5466 
L 5350 5466 
L 5350 1056 
L 4884 1056 
z
M 3756 1881 
Q 3306 2091 2892 2470 
Q 2478 2850 2297 3200 
Q 2109 2797 1686 2380 
Q 1263 1963 831 1747 
L 488 2106 
Q 1100 2319 1576 2876 
Q 2053 3434 2053 3916 
L 2053 4347 
L 678 4347 
L 678 4763 
L 2059 4763 
L 2059 5459 
L 2528 5459 
L 2528 4763 
L 3897 4763 
L 3897 4347 
L 2528 4347 
L 2528 3922 
Q 2528 3456 3006 2948 
Q 3484 2441 4072 2266 
L 3756 1881 
z
M 1638 -366 
L 1638 1581 
L 2113 1581 
L 2113 44 
L 5509 44 
L 5509 -366 
L 1638 -366 
z
" transform="scale(0.015625)"/>
       <path id="MalgunGothic-24" d="M 1963 -672 
L 1638 -672 
L 1638 0 
Q 953 0 534 272 
L 534 809 
Q 703 653 1039 537 
Q 1375 422 1638 428 
L 1638 2103 
Q 922 2453 725 2731 
Q 528 3009 528 3400 
Q 528 3841 842 4192 
Q 1156 4544 1638 4603 
L 1638 5181 
L 1963 5181 
L 1963 4616 
Q 2594 4597 2822 4441 
L 2822 3916 
Q 2509 4172 1963 4188 
L 1963 2466 
Q 2497 2200 2803 1912 
Q 3109 1625 3109 1181 
Q 3109 725 2804 420 
Q 2500 116 1963 28 
L 1963 -672 
z
M 1638 4172 
Q 1044 4031 1044 3469 
Q 1044 3222 1136 3056 
Q 1228 2891 1638 2644 
L 1638 4172 
z
M 1963 453 
Q 2591 594 2591 1134 
Q 2591 1588 1963 1934 
L 1963 453 
z
" transform="scale(0.015625)"/>
       <path id="MalgunGothic-29" d="M 81 -1044 
Q 1081 150 1081 1759 
Q 1081 3378 72 4600 
L 525 4600 
Q 1522 3431 1522 1753 
Q 1522 88 525 -1044 
L 81 -1044 
z
" transform="scale(0.015625)"/>
      </defs>
      <use xlink:href="#MalgunGothic-c218"/>
      <use xlink:href="#MalgunGothic-cd9c" transform="translate(100 0)"/>
      <use xlink:href="#MalgunGothic-20" transform="translate(200 0)"/>
      <use xlink:href="#MalgunGothic-28" transform="translate(235.15625 0)"/>
      <use xlink:href="#MalgunGothic-cc9c" transform="translate(265.625 0)"/>
      <use xlink:href="#MalgunGothic-24" transform="translate(365.625 0)"/>
      <use xlink:href="#MalgunGothic-29" transform="translate(420.703125 0)"/>
     </g>
    </g>
   </g>
   <g id="patch_30">
    <path d="M 61.816563 240.664368 
L 61.816563 23.932969 
" style="fill: none; stroke: #000000; stroke-width: 0.8; stroke-linejoin: miter; stroke-linecap: square"/>
   </g>
   <g id="patch_31">
    <path d="M 1112.256562 240.664368 
L 1112.256562 23.932969 
" style="fill: none; stroke: #000000; stroke-width: 0.8; stroke-linejoin: miter; stroke-linecap: square"/>
   </g>
   <g id="patch_32">
    <path d="M 61.816563 240.664368 
L 1112.256563 240.664368 
" style="fill: none; stroke: #000000; stroke-width: 0.8; stroke-linejoin: miter; stroke-linecap: square"/>
   </g>
   <g id="patch_33">
    <path d="M 61.816563 23.932969 
L 1112.256563 23.932969 
" style="fill: none; stroke: #000000; stroke-width: 0.8; stroke-linejoin: miter; stroke-linecap: square"/>
   </g>
   <g id="text_37">
    <!-- HS 271019 — 등유 [전국] 수출 -->
    <g transform="translate(510.226484 15.932969) scale(0.11 -0.11)">
     <defs>
      <path id="MalgunGothic-48" d="M 4028 0 
L 3525 0 
L 3525 2109 
L 1113 2109 
L 1113 0 
L 609 0 
L 609 4600 
L 1113 4600 
L 1113 2569 
L 3525 2569 
L 3525 4600 
L 4028 4600 
L 4028 0 
z
" transform="scale(0.015625)"/>
      <path id="MalgunGothic-53" d="M 394 797 
Q 606 613 964 500 
Q 1322 388 1625 388 
Q 2628 388 2628 1116 
Q 2628 1325 2523 1484 
Q 2419 1644 2250 1756 
Q 2081 1869 1547 2144 
Q 903 2475 651 2754 
Q 400 3034 400 3456 
Q 400 4019 858 4347 
Q 1316 4675 1988 4675 
Q 2669 4675 2963 4513 
L 2963 3928 
Q 2563 4206 1922 4206 
Q 1484 4206 1207 4018 
Q 931 3831 931 3500 
Q 931 3200 1126 3011 
Q 1322 2822 1938 2522 
Q 2656 2163 2906 1844 
Q 3156 1525 3156 1153 
Q 3156 556 2725 239 
Q 2294 -78 1531 -78 
Q 1291 -78 927 -1 
Q 563 75 394 188 
L 394 797 
z
" transform="scale(0.015625)"/>
      <path id="MalgunGothic-2014" d="M 6566 1634 
L 0 1634 
L 0 2031 
L 6566 2031 
L 6566 1634 
z
" transform="scale(0.015625)"/>
      <path id="MalgunGothic-b4f1" d="M 1344 3263 
L 1344 5294 
L 5063 5294 
L 5063 4878 
L 1813 4878 
L 1813 3681 
L 5125 3681 
L 5125 3263 
L 1344 3263 
z
M 403 2194 
L 403 2613 
L 5997 2613 
L 5997 2194 
L 403 2194 
z
M 3200 -513 
Q 2253 -513 1743 -219 
Q 1234 75 1234 588 
Q 1234 1100 1742 1395 
Q 2250 1691 3200 1691 
Q 4150 1691 4658 1395 
Q 5166 1100 5166 588 
Q 5166 75 4656 -219 
Q 4147 -513 3200 -513 
z
M 3200 1294 
Q 2466 1294 2097 1103 
Q 1728 913 1728 588 
Q 1728 263 2098 73 
Q 2469 -116 3200 -116 
Q 3931 -116 4301 73 
Q 4672 263 4672 588 
Q 4672 913 4303 1103 
Q 3934 1294 3200 1294 
z
" transform="scale(0.015625)"/>
      <path id="MalgunGothic-c720" d="M 3200 2784 
Q 2278 2784 1768 3131 
Q 1259 3478 1259 4078 
Q 1259 4669 1775 5025 
Q 2291 5381 3200 5381 
Q 4128 5381 4640 5025 
Q 5153 4669 5153 4078 
Q 5153 3484 4640 3134 
Q 4128 2784 3200 2784 
z
M 3200 4978 
Q 2513 4978 2130 4736 
Q 1747 4494 1747 4078 
Q 1747 3669 2130 3425 
Q 2513 3181 3200 3181 
Q 3888 3181 4270 3425 
Q 4653 3669 4653 4078 
Q 4653 4494 4270 4736 
Q 3888 4978 3200 4978 
z
M 1913 -556 
L 1913 1672 
L 403 1672 
L 403 2094 
L 5997 2094 
L 5997 1672 
L 4488 1672 
L 4488 -556 
L 4019 -556 
L 4019 1672 
L 2381 1672 
L 2381 -556 
L 1913 -556 
z
" transform="scale(0.015625)"/>
      <path id="MalgunGothic-5b" d="M 1797 -1044 
L 638 -1044 
L 638 4600 
L 1797 4600 
L 1797 4234 
L 1084 4234 
L 1084 -684 
L 1797 -684 
L 1797 -1044 
z
" transform="scale(0.015625)"/>
      <path id="MalgunGothic-c804" d="M 4878 1178 
L 4878 3525 
L 3469 3525 
L 3469 3944 
L 4878 3944 
L 4878 5466 
L 5344 5466 
L 5344 1178 
L 4878 1178 
z
M 3675 2069 
Q 3228 2344 2829 2776 
Q 2431 3209 2266 3566 
Q 2091 3150 1662 2648 
Q 1234 2147 819 1913 
L 481 2234 
Q 1125 2559 1573 3198 
Q 2022 3838 2022 4494 
L 2022 4716 
L 684 4716 
L 684 5141 
L 3788 5141 
L 3788 4716 
L 2478 4716 
L 2478 4494 
Q 2478 3894 2943 3286 
Q 3409 2678 3988 2406 
L 3675 2069 
z
M 1631 -366 
L 1631 1606 
L 2100 1606 
L 2100 44 
L 5503 44 
L 5503 -366 
L 1631 -366 
z
" transform="scale(0.015625)"/>
      <path id="MalgunGothic-ad6d" d="M 4603 -563 
L 4603 1259 
L 1241 1259 
L 1241 1678 
L 2913 1678 
L 2913 2803 
L 403 2803 
L 403 3219 
L 4581 3219 
Q 4634 3728 4634 4850 
L 1338 4850 
L 1338 5269 
L 5100 5269 
Q 5100 4225 5031 3219 
L 5997 3219 
L 5997 2803 
L 3378 2803 
L 3378 1678 
L 5069 1678 
L 5069 -563 
L 4603 -563 
z
" transform="scale(0.015625)"/>
      <path id="MalgunGothic-5d" d="M 1322 -1044 
L 166 -1044 
L 166 -684 
L 878 -684 
L 878 4234 
L 166 4234 
L 166 4600 
L 1322 4600 
L 1322 -1044 
z
" transform="scale(0.015625)"/>
     </defs>
     <use xlink:href="#MalgunGothic-48"/>
     <use xlink:href="#MalgunGothic-53" transform="translate(72.460938 0)"/>
     <use xlink:href="#MalgunGothic-20" transform="translate(126.757812 0)"/>
     <use xlink:href="#MalgunGothic-32" transform="translate(161.914062 0)"/>
     <use xlink:href="#MalgunGothic-37" transform="translate(216.992188 0)"/>
     <use xlink:href="#MalgunGothic-31" transform="translate(272.070312 0)"/>
     <use xlink:href="#MalgunGothic-30" transform="translate(327.148438 0)"/>
     <use xlink:href="#MalgunGothic-31" transform="translate(382.226562 0)"/>
     <use xlink:href="#MalgunGothic-39" transform="translate(437.304688 0)"/>
     <use xlink:href="#MalgunGothic-20" transform="translate(492.382812 0)"/>
     <use xlink:href="#MalgunGothic-2014" transform="translate(527.539062 0)"/>
     <use xlink:href="#MalgunGothic-20" transform="translate(630.126953 0)"/>
     <use xlink:href="#MalgunGothic-b4f1" transform="translate(665.283203 0)"/>
     <use xlink:href="#MalgunGothic-c720" transform="translate(765.283203 0)"/>
     <use xlink:href="#MalgunGothic-20" transform="translate(865.283203 0)"/>
     <use xlink:href="#MalgunGothic-5b" transform="translate(900.439453 0)"/>
     <use xlink:href="#MalgunGothic-c804" transform="translate(930.908203 0)"/>
     <use xlink:href="#MalgunGothic-ad6d" transform="translate(1030.908203 0)"/>
     <use xlink:href="#MalgunGothic-5d" transform="translate(1130.908203 0)"/>
     <use xlink:href="#MalgunGothic-20" transform="translate(1161.376953 0)"/>
     <use xlink:href="#MalgunGothic-c218" transform="translate(1196.533203 0)"/>
     <use xlink:href="#MalgunGothic-cd9c" transform="translate(1296.533203 0)"/>
    </g>
   </g>
   <g id="legend_1">
    <g id="patch_34">
     <path d="M 67.416562 54.817969 
L 156.762813 54.817969 
Q 158.362813 54.817969 158.362813 53.217969 
L 158.362813 29.532969 
Q 158.362813 27.932969 156.762813 27.932969 
L 67.416562 27.932969 
Q 65.816563 27.932969 65.816563 29.532969 
L 65.816563 53.217969 
Q 65.816563 54.817969 67.416562 54.817969 
z
" style="fill: #ffffff; opacity: 0.7; stroke: #cccccc; stroke-linejoin: miter"/>
    </g>
    <g id="patch_35">
     <path d="M 69.016563 37.484219 
L 85.016563 37.484219 
L 85.016563 31.884219 
L 69.016563 31.884219 
z
" style="fill: #4472c4; opacity: 0.85"/>
    </g>
    <g id="text_38">
     <!-- 수출(천$) -->
     <g transform="translate(91.416562 37.484219) scale(0.08 -0.08)">
      <use xlink:href="#MalgunGothic-c218"/>
      <use xlink:href="#MalgunGothic-cd9c" transform="translate(100 0)"/>
      <use xlink:href="#MalgunGothic-28" transform="translate(200 0)"/>
      <use xlink:href="#MalgunGothic-cc9c" transform="translate(230.46875 0)"/>
      <use xlink:href="#MalgunGothic-24" transform="translate(330.46875 0)"/>
      <use xlink:href="#MalgunGothic-29" transform="translate(385.546875 0)"/>
     </g>
    </g>
    <g id="line2d_36">
     <path d="M 69.016563 46.926719 
L 77.016563 46.926719 
L 85.016563 46.926719 
" style="fill: none; stroke: #1f4e79; stroke-width: 1.5; stroke-linecap: square"/>
     <defs>
      <path id="ma5394287dc" d="M 0 1.5 
C 0.397805 1.5 0.77937 1.341951 1.06066 1.06066 
C 1.341951 0.77937 1.5 0.397805 1.5 0 
C 1.5 -0.397805 1.341951 -0.77937 1.06066 -1.06066 
C 0.77937 -1.341951 0.397805 -1.5 0 -1.5 
C -0.397805 -1.5 -0.77937 -1.341951 -1.06066 -1.06066 
C -1.341951 -0.77937 -1.5 -0.397805 -1.5 0 
C -1.5 0.397805 -1.341951 0.77937 -1.06066 1.06066 
C -0.77937 1.341951 -0.397805 1.5 0 1.5 
z
" style="stroke: #1f4e79"/>
     </defs>
     <g>
      <use xlink:href="#ma5394287dc" x="77.016563" y="46.926719" style="fill: #1f4e79; stroke: #1f4e79"/>
     </g>
    </g>
    <g id="text_39">
     <!-- 수출단가(USD/톤) -->
     <g transform="translate(91.416562 49.726719) scale(0.08 -0.08)">
      <defs>
       <path id="MalgunGothic-b2e8" d="M 5125 3169 
L 5125 1063 
L 4659 1063 
L 4659 5466 
L 5125 5466 
L 5125 3584 
L 6034 3584 
L 6034 3169 
L 5125 3169 
z
M 3903 2363 
Q 3306 2291 850 2291 
L 850 5081 
L 3688 5081 
L 3688 4666 
L 1319 4666 
L 1319 2706 
Q 3244 2706 3872 2766 
L 3903 2363 
z
M 1459 -378 
L 1459 1581 
L 1925 1581 
L 1925 38 
L 5294 38 
L 5294 -378 
L 1459 -378 
z
" transform="scale(0.015625)"/>
       <path id="MalgunGothic-ac00" d="M 5094 2566 
L 5094 -563 
L 4628 -563 
L 4628 5466 
L 5094 5466 
L 5094 2981 
L 6175 2981 
L 6175 2566 
L 5094 2566 
z
M 3609 4928 
Q 3541 2363 897 863 
L 538 1241 
Q 1484 1631 2234 2506 
Q 2984 3381 3109 4513 
L 794 4513 
L 794 4928 
L 3609 4928 
z
" transform="scale(0.015625)"/>
       <path id="MalgunGothic-55" d="M 3947 1850 
Q 3947 -78 2209 -78 
Q 553 -78 553 1778 
L 553 4600 
L 1056 4600 
L 1056 1813 
Q 1056 381 2272 381 
Q 3441 381 3441 1763 
L 3441 4600 
L 3947 4600 
L 3947 1850 
z
" transform="scale(0.015625)"/>
       <path id="MalgunGothic-44" d="M 609 0 
L 609 4600 
L 1856 4600 
Q 4281 4600 4281 2356 
Q 4281 1288 3587 644 
Q 2894 0 1800 0 
L 609 0 
z
M 1113 4134 
L 1113 463 
L 1813 463 
Q 2734 463 3243 958 
Q 3753 1453 3753 2344 
Q 3753 4134 1844 4134 
L 1113 4134 
z
" transform="scale(0.015625)"/>
       <path id="MalgunGothic-2f" d="M 2584 4600 
L 378 -763 
L -84 -763 
L 2113 4600 
L 2584 4600 
z
" transform="scale(0.015625)"/>
       <path id="MalgunGothic-d1a4" d="M 403 1684 
L 403 2100 
L 2969 2100 
L 2969 2809 
L 1331 2809 
L 1331 5269 
L 5088 5269 
L 5088 4850 
L 1797 4850 
L 1797 4244 
L 4984 4244 
L 4984 3841 
L 1797 3841 
L 1797 3225 
L 5166 3225 
L 5166 2809 
L 3438 2809 
L 3438 2100 
L 5997 2100 
L 5997 1684 
L 403 1684 
z
M 1325 -422 
L 1325 1191 
L 1791 1191 
L 1791 0 
L 5203 0 
L 5203 -422 
L 1325 -422 
z
" transform="scale(0.015625)"/>
      </defs>
      <use xlink:href="#MalgunGothic-c218"/>
      <use xlink:href="#MalgunGothic-cd9c" transform="translate(100 0)"/>
      <use xlink:href="#MalgunGothic-b2e8" transform="translate(200 0)"/>
      <use xlink:href="#MalgunGothic-ac00" transform="translate(300 0)"/>
      <use xlink:href="#MalgunGothic-28" transform="translate(400 0)"/>
      <use xlink:href="#MalgunGothic-55" transform="translate(430.46875 0)"/>
      <use xlink:href="#MalgunGothic-53" transform="translate(500.732422 0)"/>
      <use xlink:href="#MalgunGothic-44" transform="translate(555.029297 0)"/>
      <use xlink:href="#MalgunGothic-2f" transform="translate(626.757812 0)"/>
      <use xlink:href="#MalgunGothic-d1a4" transform="translate(666.357422 0)"/>
      <use xlink:href="#MalgunGothic-29" transform="translate(766.357422 0)"/>
     </g>
    </g>
   </g>
  </g>
  <g id="axes_2">
   <g id="matplotlib.axis_3">
    <g id="ytick_9">
     <g id="line2d_37">
      <defs>
       <path id="m5bac64e785" d="M 0 0 
L 3.5 0 
" style="stroke: #000000; stroke-width: 0.8"/>
      </defs>
      <g>
       <use xlink:href="#m5bac64e785" x="1112.256562" y="232.087538" style="stroke: #000000; stroke-width: 0.8"/>
      </g>
     </g>
     <g id="text_40">
      <!-- 600 -->
      <g style="fill: #808080" transform="translate(1119.256562 235.124413) scale(0.08 -0.08)">
       <use xlink:href="#MalgunGothic-36"/>
       <use xlink:href="#MalgunGothic-30" transform="translate(55.078125 0)"/>
       <use xlink:href="#MalgunGothic-30" transform="translate(110.15625 0)"/>
      </g>
     </g>
    </g>
    <g id="ytick_10">
     <g id="line2d_38">
      <g>
       <use xlink:href="#m5bac64e785" x="1112.256562" y="198.412291" style="stroke: #000000; stroke-width: 0.8"/>
      </g>
     </g>
     <g id="text_41">
      <!-- 700 -->
      <g style="fill: #808080" transform="translate(1119.256562 201.449166) scale(0.08 -0.08)">
       <use xlink:href="#MalgunGothic-37"/>
       <use xlink:href="#MalgunGothic-30" transform="translate(55.078125 0)"/>
       <use xlink:href="#MalgunGothic-30" transform="translate(110.15625 0)"/>
      </g>
     </g>
    </g>
    <g id="ytick_11">
     <g id="line2d_39">
      <g>
       <use xlink:href="#m5bac64e785" x="1112.256562" y="164.737045" style="stroke: #000000; stroke-width: 0.8"/>
      </g>
     </g>
     <g id="text_42">
      <!-- 800 -->
      <g style="fill: #808080" transform="translate(1119.256562 167.77392) scale(0.08 -0.08)">
       <use xlink:href="#MalgunGothic-38"/>
       <use xlink:href="#MalgunGothic-30" transform="translate(55.078125 0)"/>
       <use xlink:href="#MalgunGothic-30" transform="translate(110.15625 0)"/>
      </g>
     </g>
    </g>
    <g id="ytick_12">
     <g id="line2d_40">
      <g>
       <use xlink:href="#m5bac64e785" x="1112.256562" y="131.061799" style="stroke: #000000; stroke-width: 0.8"/>
      </g>
     </g>
     <g id="text_43">
      <!-- 900 -->
      <g style="fill: #808080" transform="translate(1119.256562 134.098674) scale(0.08 -0.08)">
       <use xlink:href="#MalgunGothic-39"/>
       <use xlink:href="#MalgunGothic-30" transform="translate(55.078125 0)"/>
       <use xlink:href="#MalgunGothic-30" transform="translate(110.15625 0)"/>
      </g>
     </g>
    </g>
    <g id="ytick_13">
     <g id="line2d_41">
      <g>
       <use xlink:href="#m5bac64e785" x="1112.256562" y="97.386553" style="stroke: #000000; stroke-width: 0.8"/>
      </g>
     </g>
     <g id="text_44">
      <!-- 1,000 -->
      <g style="fill: #808080" transform="translate(1119.256562 100.423428) scale(0.08 -0.08)">
       <use xlink:href="#MalgunGothic-31"/>
       <use xlink:href="#MalgunGothic-2c" transform="translate(55.078125 0)"/>
       <use xlink:href="#MalgunGothic-30" transform="translate(76.953125 0)"/>
       <use xlink:href="#MalgunGothic-30" transform="translate(132.03125 0)"/>
       <use xlink:href="#MalgunGothic-30" transform="translate(187.109375 0)"/>
      </g>
     </g>
    </g>
    <g id="ytick_14">
     <g id="line2d_42">
      <g>
       <use xlink:href="#m5bac64e785" x="1112.256562" y="63.711307" style="stroke: #000000; stroke-width: 0.8"/>
      </g>
     </g>
     <g id="text_45">
      <!-- 1,100 -->
      <g style="fill: #808080" transform="translate(1119.256562 66.748182) scale(0.08 -0.08)">
       <use xlink:href="#MalgunGothic-31"/>
       <use xlink:href="#MalgunGothic-2c" transform="translate(55.078125 0)"/>
       <use xlink:href="#MalgunGothic-31" transform="translate(76.953125 0)"/>
       <use xlink:href="#MalgunGothic-30" transform="translate(132.03125 0)"/>
       <use xlink:href="#MalgunGothic-30" transform="translate(187.109375 0)"/>
      </g>
     </g>
    </g>
    <g id="ytick_15">
     <g id="line2d_43">
      <g>
       <use xlink:href="#m5bac64e785" x="1112.256562" y="30.036061" style="stroke: #000000; stroke-width: 0.8"/>
      </g>
     </g>
     <g id="text_46">
      <!-- 1,200 -->
      <g style="fill: #808080" transform="translate(1119.256562 33.072936) scale(0.08 -0.08)">
       <use xlink:href="#MalgunGothic-31"/>
       <use xlink:href="#MalgunGothic-2c" transform="translate(55.078125 0)"/>
       <use xlink:href="#MalgunGothic-32" transform="translate(76.953125 0)"/>
       <use xlink:href="#MalgunGothic-30" transform="translate(132.03125 0)"/>
       <use xlink:href="#MalgunGothic-30" transform="translate(187.109375 0)"/>
      </g>
     </g>
    </g>
    <g id="text_47">
     <!-- 단가 (USD/톤) -->
     <g style="fill: #808080" transform="translate(1149.658594 160.737965) rotate(-90) scale(0.09 -0.09)">
      <use xlink:href="#MalgunGothic-b2e8"/>
      <use xlink:href="#MalgunGothic-ac00" transform="translate(100 0)"/>
      <use xlink:href="#MalgunGothic-20" transform="translate(200 0)"/>
      <use xlink:href="#MalgunGothic-28" transform="translate(235.15625 0)"/>
      <use xlink:href="#MalgunGothic-55" transform="translate(265.625 0)"/>
      <use xlink:href="#MalgunGothic-53" transform="translate(335.888672 0)"/>
      <use xlink:href="#MalgunGothic-44" transform="translate(390.185547 0)"/>
      <use xlink:href="#MalgunGothic-2f" transform="translate(461.914062 0)"/>
      <use xlink:href="#MalgunGothic-d1a4" transform="translate(501.513672 0)"/>
      <use xlink:href="#MalgunGothic-29" transform="translate(601.513672 0)"/>
     </g>
    </g>
   </g>
   <g id="line2d_44">
    <path d="M 123.816752 173.656754 
L 159.449046 165.809939 
L 195.081339 173.066246 
L 230.713632 172.015065 
L 266.345925 186.605913 
L 301.978218 186.215286 
L 337.610511 184.627876 
L 373.242804 200.692366 
L 408.875097 214.568368 
L 444.50739 214.046263 
L 480.139683 207.982484 
L 515.771976 207.896206 
L 551.404269 194.496033 
L 587.036563 201.48654 
L 622.668856 214.480491 
L 658.301149 225.234683 
L 693.933442 230.812941 
L 729.565735 217.132676 
L 765.198028 208.225105 
L 800.830321 215.858206 
L 836.462614 211.441351 
L 872.094907 211.985136 
L 907.7272 203.730696 
L 943.359493 218.680933 
L 978.991786 223.088518 
L 1014.624079 208.731407 
L 1050.256373 33.784396 
" clip-path="url(#p98c485612f)" style="fill: none; stroke: #1f4e79; stroke-width: 1.5; stroke-linecap: square"/>
    <g clip-path="url(#p98c485612f)">
     <use xlink:href="#ma5394287dc" x="123.816752" y="173.656754" style="fill: #1f4e79; stroke: #1f4e79"/>
     <use xlink:href="#ma5394287dc" x="159.449046" y="165.809939" style="fill: #1f4e79; stroke: #1f4e79"/>
     <use xlink:href="#ma5394287dc" x="195.081339" y="173.066246" style="fill: #1f4e79; stroke: #1f4e79"/>
     <use xlink:href="#ma5394287dc" x="230.713632" y="172.015065" style="fill: #1f4e79; stroke: #1f4e79"/>
     <use xlink:href="#ma5394287dc" x="266.345925" y="186.605913" style="fill: #1f4e79; stroke: #1f4e79"/>
     <use xlink:href="#ma5394287dc" x="301.978218" y="186.215286" style="fill: #1f4e79; stroke: #1f4e79"/>
     <use xlink:href="#ma5394287dc" x="337.610511" y="184.627876" style="fill: #1f4e79; stroke: #1f4e79"/>
     <use xlink:href="#ma5394287dc" x="373.242804" y="200.692366" style="fill: #1f4e79; stroke: #1f4e79"/>
     <use xlink:href="#ma5394287dc" x="408.875097" y="214.568368" style="fill: #1f4e79; stroke: #1f4e79"/>
     <use xlink:href="#ma5394287dc" x="444.50739" y="214.046263" style="fill: #1f4e79; stroke: #1f4e79"/>
     <use xlink:href="#ma5394287dc" x="480.139683" y="207.982484" style="fill: #1f4e79; stroke: #1f4e79"/>
     <use xlink:href="#ma5394287dc" x="515.771976" y="207.896206" style="fill: #1f4e79; stroke: #1f4e79"/>
     <use xlink:href="#ma5394287dc" x="551.404269" y="194.496033" style="fill: #1f4e79; stroke: #1f4e79"/>
     <use xlink:href="#ma5394287dc" x="587.036563" y="201.48654" style="fill: #1f4e79; stroke: #1f4e79"/>
     <use xlink:href="#ma5394287dc" x="622.668856" y="214.480491" style="fill: #1f4e79; stroke: #1f4e79"/>
     <use xlink:href="#ma5394287dc" x="658.301149" y="225.234683" style="fill: #1f4e79; stroke: #1f4e79"/>
     <use xlink:href="#ma5394287dc" x="693.933442" y="230.812941" style="fill: #1f4e79; stroke: #1f4e79"/>
     <use xlink:href="#ma5394287dc" x="729.565735" y="217.132676" style="fill: #1f4e79; stroke: #1f4e79"/>
     <use xlink:href="#ma5394287dc" x="765.198028" y="208.225105" style="fill: #1f4e79; stroke: #1f4e79"/>
     <use xlink:href="#ma5394287dc" x="800.830321" y="215.858206" style="fill: #1f4e79; stroke: #1f4e79"/>
     <use xlink:href="#ma5394287dc" x="836.462614" y="211.441351" style="fill: #1f4e79; stroke: #1f4e79"/>
     <use xlink:href="#ma5394287dc" x="872.094907" y="211.985136" style="fill: #1f4e79; stroke: #1f4e79"/>
     <use xlink:href="#ma5394287dc" x="907.7272" y="203.730696" style="fill: #1f4e79; stroke: #1f4e79"/>
     <use xlink:href="#ma5394287dc" x="943.359493" y="218.680933" style="fill: #1f4e79; stroke: #1f4e79"/>
     <use xlink:href="#ma5394287dc" x="978.991786" y="223.088518" style="fill: #1f4e79; stroke: #1f4e79"/>
     <use xlink:href="#ma5394287dc" x="1014.624079" y="208.731407" style="fill: #1f4e79; stroke: #1f4e79"/>
     <use xlink:href="#ma5394287dc" x="1050.256373" y="33.784396" style="fill: #1f4e79; stroke: #1f4e79"/>
    </g>
   </g>
   <g id="patch_36">
    <path d="M 61.816563 240.664368 
L 61.816563 23.932969 
" style="fill: none; stroke: #000000; stroke-width: 0.8; stroke-linejoin: miter; stroke-linecap: square"/>
   </g>
   <g id="patch_37">
    <path d="M 1112.256562 240.664368 
L 1112.256562 23.932969 
" style="fill: none; stroke: #000000; stroke-width: 0.8; stroke-linejoin: miter; stroke-linecap: square"/>
   </g>
   <g id="patch_38">
    <path d="M 61.816563 240.664368 
L 1112.256563 240.664368 
" style="fill: none; stroke: #000000; stroke-width: 0.8; stroke-linejoin: miter; stroke-linecap: square"/>
   </g>
   <g id="patch_39">
    <path d="M 61.816563 23.932969 
L 1112.256563 23.932969 
" style="fill: none; stroke: #000000; stroke-width: 0.8; stroke-linejoin: miter; stroke-linecap: square"/>
   </g>
  </g>
 </g>
 <defs>
  <clipPath id="p98c485612f">
   <rect x="61.816563" y="23.932969" width="1050.44" height="216.731399"/>
  </clipPath>
 </defs>
</svg>
