<?xml version="1.0" encoding="utf-8" standalone="no"?>
<!DOCTYPE svg PUBLIC "-//W3C//DTD SVG 1.1//EN"
  "http://www.w3.org/Graphics/SVG/1.1/DTD/svg11.dtd">
<svg xmlns:xlink="http://www.w3.org/1999/xlink" width="1158.9825pt" height="316.046484pt" viewBox="0 0 1158.9825 316.046484" xmlns="http://www.w3.org/2000/svg" version="1.1">
 <metadata>
  <rdf:RDF xmlns:dc="http://purl.org/dc/elements/1.1/" xmlns:cc="http://creativecommons.org/ns#" xmlns:rdf="http://www.w3.org/1999/02/22-rdf-syntax-ns#">
   <cc:Work>
    <dc:type rdf:resource="http://purl.org/dc/dcmitype/StillImage"/>
    <dc:date>2026-04-24T10:52:53.133492</dc:date>
    <dc:format>image/svg+xml</dc:format>
    <dc:creator>
     <cc:Agent>
      <dc:title>Matplotlib v3.10.9, https://matplotlib.org/</dc:title>
     </cc:Agent>
    </dc:creator>
   </cc:Work>
  </rdf:RDF>
 </metadata>
 <defs>
  <style type="text/css">*{stroke-linejoin: round; stroke-linecap: butt}</style>
 </defs>
 <g id="figure_1">
  <g id="patch_1">
   <path d="M 0 316.046484 
L 1158.9825 316.046484 
L 1158.9825 0 
L 0 0 
z
" style="fill: #ffffff"/>
  </g>
  <g id="axes_1">
   <g id="patch_2">
    <path d="M 51.254063 276.282806 
L 1097.284062 276.282806 
L 1097.284062 23.551406 
L 51.254063 23.551406 
z
" style="fill: #ffffff"/>
   </g>
   <g id="patch_3">
    <path d="M 98.800881 276.282806 
L 111.266339 276.282806 
L 111.266339 273.060594 
L 98.800881 273.060594 
z
" clip-path="url(#p4d291ae674)" style="fill: #4472c4; opacity: 0.85"/>
   </g>
   <g id="patch_4">
    <path d="M 134.416475 276.282806 
L 146.881933 276.282806 
L 146.881933 274.737192 
L 134.416475 274.737192 
z
" clip-path="url(#p4d291ae674)" style="fill: #4472c4; opacity: 0.85"/>
   </g>
   <g id="patch_5">
    <path d="M 170.032069 276.282806 
L 182.497527 276.282806 
L 182.497527 272.423138 
L 170.032069 272.423138 
z
" clip-path="url(#p4d291ae674)" style="fill: #4472c4; opacity: 0.85"/>
   </g>
   <g id="patch_6">
    <path d="M 205.647663 276.282806 
L 218.113121 276.282806 
L 218.113121 272.711303 
L 205.647663 272.711303 
z
" clip-path="url(#p4d291ae674)" style="fill: #4472c4; opacity: 0.85"/>
   </g>
   <g id="patch_7">
    <path d="M 241.263257 276.282806 
L 253.728715 276.282806 
L 253.728715 274.483956 
L 241.263257 274.483956 
z
" clip-path="url(#p4d291ae674)" style="fill: #4472c4; opacity: 0.85"/>
   </g>
   <g id="patch_8">
    <path d="M 276.878851 276.282806 
L 289.344309 276.282806 
L 289.344309 274.335507 
L 276.878851 274.335507 
z
" clip-path="url(#p4d291ae674)" style="fill: #4472c4; opacity: 0.85"/>
   </g>
   <g id="patch_9">
    <path d="M 312.494446 276.282806 
L 324.959903 276.282806 
L 324.959903 222.142669 
L 312.494446 222.142669 
z
" clip-path="url(#p4d291ae674)" style="fill: #4472c4; opacity: 0.85"/>
   </g>
   <g id="patch_10">
    <path d="M 348.11004 276.282806 
L 360.575498 276.282806 
L 360.575498 80.016076 
L 348.11004 80.016076 
z
" clip-path="url(#p4d291ae674)" style="fill: #4472c4; opacity: 0.85"/>
   </g>
   <g id="patch_11">
    <path d="M 383.725634 276.282806 
L 396.191092 276.282806 
L 396.191092 93.158158 
L 383.725634 93.158158 
z
" clip-path="url(#p4d291ae674)" style="fill: #4472c4; opacity: 0.85"/>
   </g>
   <g id="patch_12">
    <path d="M 419.341228 276.282806 
L 431.806686 276.282806 
L 431.806686 35.586235 
L 419.341228 35.586235 
z
" clip-path="url(#p4d291ae674)" style="fill: #4472c4; opacity: 0.85"/>
   </g>
   <g id="patch_13">
    <path d="M 454.956822 276.282806 
L 467.42228 276.282806 
L 467.42228 270.388517 
L 454.956822 270.388517 
z
" clip-path="url(#p4d291ae674)" style="fill: #4472c4; opacity: 0.85"/>
   </g>
   <g id="patch_14">
    <path d="M 490.572416 276.282806 
L 503.037874 276.282806 
L 503.037874 267.297289 
L 490.572416 267.297289 
z
" clip-path="url(#p4d291ae674)" style="fill: #4472c4; opacity: 0.85"/>
   </g>
   <g id="patch_15">
    <path d="M 526.18801 276.282806 
L 538.653468 276.282806 
L 538.653468 273.593263 
L 526.18801 273.593263 
z
" clip-path="url(#p4d291ae674)" style="fill: #4472c4; opacity: 0.85"/>
   </g>
   <g id="patch_16">
    <path d="M 561.803605 276.282806 
L 574.269062 276.282806 
L 574.269062 270.755272 
L 561.803605 270.755272 
z
" clip-path="url(#p4d291ae674)" style="fill: #4472c4; opacity: 0.85"/>
   </g>
   <g id="patch_17">
    <path d="M 597.419199 276.282806 
L 609.884657 276.282806 
L 609.884657 269.384304 
L 597.419199 269.384304 
z
" clip-path="url(#p4d291ae674)" style="fill: #4472c4; opacity: 0.85"/>
   </g>
   <g id="patch_18">
    <path d="M 633.034793 276.282806 
L 645.500251 276.282806 
L 645.500251 269.611344 
L 633.034793 269.611344 
z
" clip-path="url(#p4d291ae674)" style="fill: #4472c4; opacity: 0.85"/>
   </g>
   <g id="patch_19">
    <path d="M 668.650387 276.282806 
L 681.115845 276.282806 
L 681.115845 266.738423 
L 668.650387 266.738423 
z
" clip-path="url(#p4d291ae674)" style="fill: #4472c4; opacity: 0.85"/>
   </g>
   <g id="patch_20">
    <path d="M 704.265981 276.282806 
L 716.731439 276.282806 
L 716.731439 271.078367 
L 704.265981 271.078367 
z
" clip-path="url(#p4d291ae674)" style="fill: #4472c4; opacity: 0.85"/>
   </g>
   <g id="patch_21">
    <path d="M 739.881575 276.282806 
L 752.347033 276.282806 
L 752.347033 272.056382 
L 739.881575 272.056382 
z
" clip-path="url(#p4d291ae674)" style="fill: #4472c4; opacity: 0.85"/>
   </g>
   <g id="patch_22">
    <path d="M 775.497169 276.282806 
L 787.962627 276.282806 
L 787.962627 268.572202 
L 775.497169 268.572202 
z
" clip-path="url(#p4d291ae674)" style="fill: #4472c4; opacity: 0.85"/>
   </g>
   <g id="patch_23">
    <path d="M 811.112764 276.282806 
L 823.578222 276.282806 
L 823.578222 239.519906 
L 811.112764 239.519906 
z
" clip-path="url(#p4d291ae674)" style="fill: #4472c4; opacity: 0.85"/>
   </g>
   <g id="patch_24">
    <path d="M 846.728358 276.282806 
L 859.193816 276.282806 
L 859.193816 268.030801 
L 846.728358 268.030801 
z
" clip-path="url(#p4d291ae674)" style="fill: #4472c4; opacity: 0.85"/>
   </g>
   <g id="patch_25">
    <path d="M 882.343952 276.282806 
L 894.80941 276.282806 
L 894.80941 271.82061 
L 882.343952 271.82061 
z
" clip-path="url(#p4d291ae674)" style="fill: #4472c4; opacity: 0.85"/>
   </g>
   <g id="patch_26">
    <path d="M 917.959546 276.282806 
L 930.425004 276.282806 
L 930.425004 270.274997 
L 917.959546 270.274997 
z
" clip-path="url(#p4d291ae674)" style="fill: #4472c4; opacity: 0.85"/>
   </g>
   <g id="patch_27">
    <path d="M 953.57514 276.282806 
L 966.040598 276.282806 
L 966.040598 274.352972 
L 953.57514 274.352972 
z
" clip-path="url(#p4d291ae674)" style="fill: #4472c4; opacity: 0.85"/>
   </g>
   <g id="patch_28">
    <path d="M 989.190734 276.282806 
L 1001.656192 276.282806 
L 1001.656192 268.650793 
L 989.190734 268.650793 
z
" clip-path="url(#p4d291ae674)" style="fill: #4472c4; opacity: 0.85"/>
   </g>
   <g id="patch_29">
    <path d="M 1024.806328 276.282806 
L 1037.271786 276.282806 
L 1037.271786 271.593571 
L 1024.806328 271.593571 
z
" clip-path="url(#p4d291ae674)" style="fill: #4472c4; opacity: 0.85"/>
   </g>
   <g id="patch_30">
    <path d="M 111.266339 276.282806 
L 123.731797 276.282806 
L 123.731797 272.065114 
L 111.266339 272.065114 
z
" clip-path="url(#p4d291ae674)" style="fill: #ed7d31; opacity: 0.85"/>
   </g>
   <g id="patch_31">
    <path d="M 146.881933 276.282806 
L 159.347391 276.282806 
L 159.347391 272.23976 
L 146.881933 272.23976 
z
" clip-path="url(#p4d291ae674)" style="fill: #ed7d31; opacity: 0.85"/>
   </g>
   <g id="patch_32">
    <path d="M 182.497527 276.282806 
L 194.962985 276.282806 
L 194.962985 271.724555 
L 182.497527 271.724555 
z
" clip-path="url(#p4d291ae674)" style="fill: #ed7d31; opacity: 0.85"/>
   </g>
   <g id="patch_33">
    <path d="M 218.113121 276.282806 
L 230.578579 276.282806 
L 230.578579 272.807358 
L 218.113121 272.807358 
z
" clip-path="url(#p4d291ae674)" style="fill: #ed7d31; opacity: 0.85"/>
   </g>
   <g id="patch_34">
    <path d="M 253.728715 276.282806 
L 266.194173 276.282806 
L 266.194173 272.379476 
L 253.728715 272.379476 
z
" clip-path="url(#p4d291ae674)" style="fill: #ed7d31; opacity: 0.85"/>
   </g>
   <g id="patch_35">
    <path d="M 289.344309 276.282806 
L 301.809767 276.282806 
L 301.809767 272.43187 
L 289.344309 272.43187 
z
" clip-path="url(#p4d291ae674)" style="fill: #ed7d31; opacity: 0.85"/>
   </g>
   <g id="patch_36">
    <path d="M 324.959903 276.282806 
L 337.425361 276.282806 
L 337.425361 273.471011 
L 324.959903 273.471011 
z
" clip-path="url(#p4d291ae674)" style="fill: #ed7d31; opacity: 0.85"/>
   </g>
   <g id="patch_37">
    <path d="M 360.575498 276.282806 
L 373.040956 276.282806 
L 373.040956 275.007893 
L 360.575498 275.007893 
z
" clip-path="url(#p4d291ae674)" style="fill: #ed7d31; opacity: 0.85"/>
   </g>
   <g id="patch_38">
    <path d="M 396.191092 276.282806 
L 408.65655 276.282806 
L 408.65655 274.632405 
L 396.191092 274.632405 
z
" clip-path="url(#p4d291ae674)" style="fill: #ed7d31; opacity: 0.85"/>
   </g>
   <g id="patch_39">
    <path d="M 431.806686 276.282806 
L 444.272144 276.282806 
L 444.272144 274.815783 
L 431.806686 274.815783 
z
" clip-path="url(#p4d291ae674)" style="fill: #ed7d31; opacity: 0.85"/>
   </g>
   <g id="patch_40">
    <path d="M 467.42228 276.282806 
L 479.887738 276.282806 
L 479.887738 274.80705 
L 467.42228 274.80705 
z
" clip-path="url(#p4d291ae674)" style="fill: #ed7d31; opacity: 0.85"/>
   </g>
   <g id="patch_41">
    <path d="M 503.037874 276.282806 
L 515.503332 276.282806 
L 515.503332 274.361704 
L 503.037874 274.361704 
z
" clip-path="url(#p4d291ae674)" style="fill: #ed7d31; opacity: 0.85"/>
   </g>
   <g id="patch_42">
    <path d="M 538.653468 276.282806 
L 551.118926 276.282806 
L 551.118926 273.916358 
L 538.653468 273.916358 
z
" clip-path="url(#p4d291ae674)" style="fill: #ed7d31; opacity: 0.85"/>
   </g>
   <g id="patch_43">
    <path d="M 574.269063 276.282806 
L 586.73452 276.282806 
L 586.73452 274.981696 
L 574.269063 274.981696 
z
" clip-path="url(#p4d291ae674)" style="fill: #ed7d31; opacity: 0.85"/>
   </g>
   <g id="patch_44">
    <path d="M 609.884657 276.282806 
L 622.350115 276.282806 
L 622.350115 274.990428 
L 609.884657 274.990428 
z
" clip-path="url(#p4d291ae674)" style="fill: #ed7d31; opacity: 0.85"/>
   </g>
   <g id="patch_45">
    <path d="M 645.500251 276.282806 
L 657.965709 276.282806 
L 657.965709 274.92057 
L 645.500251 274.92057 
z
" clip-path="url(#p4d291ae674)" style="fill: #ed7d31; opacity: 0.85"/>
   </g>
   <g id="patch_46">
    <path d="M 681.115845 276.282806 
L 693.581303 276.282806 
L 693.581303 275.392113 
L 681.115845 275.392113 
z
" clip-path="url(#p4d291ae674)" style="fill: #ed7d31; opacity: 0.85"/>
   </g>
   <g id="patch_47">
    <path d="M 716.731439 276.282806 
L 729.196897 276.282806 
L 729.196897 272.554122 
L 716.731439 272.554122 
z
" clip-path="url(#p4d291ae674)" style="fill: #ed7d31; opacity: 0.85"/>
   </g>
   <g id="patch_48">
    <path d="M 752.347033 276.282806 
L 764.812491 276.282806 
L 764.812491 275.261129 
L 752.347033 275.261129 
z
" clip-path="url(#p4d291ae674)" style="fill: #ed7d31; opacity: 0.85"/>
   </g>
   <g id="patch_49">
    <path d="M 787.962627 276.282806 
L 800.428085 276.282806 
L 800.428085 275.322255 
L 787.962627 275.322255 
z
" clip-path="url(#p4d291ae674)" style="fill: #ed7d31; opacity: 0.85"/>
   </g>
   <g id="patch_50">
    <path d="M 823.578222 276.282806 
L 836.043679 276.282806 
L 836.043679 275.53183 
L 823.578222 275.53183 
z
" clip-path="url(#p4d291ae674)" style="fill: #ed7d31; opacity: 0.85"/>
   </g>
   <g id="patch_51">
    <path d="M 859.193816 276.282806 
L 871.659274 276.282806 
L 871.659274 274.99916 
L 859.193816 274.99916 
z
" clip-path="url(#p4d291ae674)" style="fill: #ed7d31; opacity: 0.85"/>
   </g>
   <g id="patch_52">
    <path d="M 894.80941 276.282806 
L 907.274868 276.282806 
L 907.274868 272.501728 
L 894.80941 272.501728 
z
" clip-path="url(#p4d291ae674)" style="fill: #ed7d31; opacity: 0.85"/>
   </g>
   <g id="patch_53">
    <path d="M 930.425004 276.282806 
L 942.890462 276.282806 
L 942.890462 272.92961 
L 930.425004 272.92961 
z
" clip-path="url(#p4d291ae674)" style="fill: #ed7d31; opacity: 0.85"/>
   </g>
   <g id="patch_54">
    <path d="M 966.040598 276.282806 
L 978.506056 276.282806 
L 978.506056 274.693531 
L 966.040598 274.693531 
z
" clip-path="url(#p4d291ae674)" style="fill: #ed7d31; opacity: 0.85"/>
   </g>
   <g id="patch_55">
    <path d="M 1001.656192 276.282806 
L 1014.12165 276.282806 
L 1014.12165 274.029877 
L 1001.656192 274.029877 
z
" clip-path="url(#p4d291ae674)" style="fill: #ed7d31; opacity: 0.85"/>
   </g>
   <g id="patch_56">
    <path d="M 1037.271786 276.282806 
L 1049.737244 276.282806 
L 1049.737244 273.654389 
L 1037.271786 273.654389 
z
" clip-path="url(#p4d291ae674)" style="fill: #ed7d31; opacity: 0.85"/>
   </g>
   <g id="matplotlib.axis_1">
    <g id="xtick_1">
     <g id="line2d_1">
      <defs>
       <path id="m4de92ebf0b" d="M 0 0 
L 0 3.5 
" style="stroke: #000000; stroke-width: 0.8"/>
      </defs>
      <g>
       <use xlink:href="#m4de92ebf0b" x="111.266339" y="276.282806" style="stroke: #000000; stroke-width: 0.8"/>
      </g>
     </g>
     <g id="text_1">
      <!-- 2024.01 -->
      <g transform="translate(89.997451 307.509168) rotate(-45) scale(0.08 -0.08)">
       <defs>
        <path id="MalgunGothic-32" d="M 2519 3372 
Q 2519 3784 2275 4018 
Q 2031 4253 1628 4253 
Q 1341 4253 1053 4104 
Q 766 3956 534 3697 
L 534 4234 
Q 981 4675 1691 4675 
Q 2281 4675 2642 4334 
Q 3003 3994 3003 3416 
Q 3003 2919 2772 2545 
Q 2541 2172 1984 1775 
Q 1459 1406 1254 1215 
Q 1050 1025 967 854 
Q 884 684 884 450 
L 3116 450 
L 3116 0 
L 356 0 
L 356 225 
Q 356 603 461 870 
Q 566 1138 811 1392 
Q 1056 1647 1597 2022 
Q 2091 2363 2305 2670 
Q 2519 2978 2519 3372 
z
" transform="scale(0.015625)"/>
        <path id="MalgunGothic-30" d="M 278 2206 
Q 278 3425 675 4050 
Q 1072 4675 1819 4675 
Q 3253 4675 3253 2319 
Q 3253 1156 2854 539 
Q 2456 -78 1716 -78 
Q 1016 -78 647 520 
Q 278 1119 278 2206 
z
M 784 2231 
Q 784 344 1769 344 
Q 2747 344 2747 2259 
Q 2747 4250 1794 4250 
Q 784 4250 784 2231 
z
" transform="scale(0.015625)"/>
        <path id="MalgunGothic-34" d="M 2703 4600 
L 2703 1563 
L 3309 1563 
L 3309 1113 
L 2703 1113 
L 2703 0 
L 2213 0 
L 2213 1113 
L 50 1113 
L 50 1534 
Q 728 2297 1295 3109 
Q 1863 3922 2172 4600 
L 2703 4600 
z
M 625 1563 
L 2213 1563 
L 2213 3831 
Q 1613 2788 959 1981 
L 625 1563 
z
" transform="scale(0.015625)"/>
        <path id="MalgunGothic-2e" d="M 356 275 
Q 356 422 459 523 
Q 563 625 700 625 
Q 838 625 941 523 
Q 1044 422 1044 275 
Q 1044 138 942 33 
Q 841 -72 700 -72 
Q 559 -72 457 29 
Q 356 131 356 275 
z
" transform="scale(0.015625)"/>
        <path id="MalgunGothic-31" d="M 2231 0 
L 1734 0 
L 1734 3972 
Q 1591 3828 1266 3661 
Q 941 3494 672 3428 
L 672 3959 
Q 1016 4056 1409 4275 
Q 1803 4494 2031 4700 
L 2231 4700 
L 2231 0 
z
" transform="scale(0.015625)"/>
       </defs>
       <use xlink:href="#MalgunGothic-32"/>
       <use xlink:href="#MalgunGothic-30" transform="translate(55.078125 0)"/>
       <use xlink:href="#MalgunGothic-32" transform="translate(110.15625 0)"/>
       <use xlink:href="#MalgunGothic-34" transform="translate(165.234375 0)"/>
       <use xlink:href="#MalgunGothic-2e" transform="translate(220.3125 0)"/>
       <use xlink:href="#MalgunGothic-30" transform="translate(242.1875 0)"/>
       <use xlink:href="#MalgunGothic-31" transform="translate(297.265625 0)"/>
      </g>
     </g>
    </g>
    <g id="xtick_2">
     <g id="line2d_2">
      <g>
       <use xlink:href="#m4de92ebf0b" x="146.881933" y="276.282806" style="stroke: #000000; stroke-width: 0.8"/>
      </g>
     </g>
     <g id="text_2">
      <!-- 02 -->
      <g transform="translate(139.313239 293.808974) rotate(-45) scale(0.08 -0.08)">
       <use xlink:href="#MalgunGothic-30"/>
       <use xlink:href="#MalgunGothic-32" transform="translate(55.078125 0)"/>
      </g>
     </g>
    </g>
    <g id="xtick_3">
     <g id="line2d_3">
      <g>
       <use xlink:href="#m4de92ebf0b" x="182.497527" y="276.282806" style="stroke: #000000; stroke-width: 0.8"/>
      </g>
     </g>
     <g id="text_3">
      <!-- 03 -->
      <g transform="translate(174.928833 293.808974) rotate(-45) scale(0.08 -0.08)">
       <defs>
        <path id="MalgunGothic-33" d="M 416 719 
Q 891 344 1478 344 
Q 1959 344 2254 587 
Q 2550 831 2550 1247 
Q 2550 2169 1253 2169 
L 872 2169 
L 872 2591 
L 1234 2591 
Q 2388 2591 2388 3453 
Q 2388 4250 1509 4250 
Q 1022 4250 594 3916 
L 594 4413 
Q 1031 4675 1634 4675 
Q 2184 4675 2539 4372 
Q 2894 4069 2894 3581 
Q 2894 2678 1972 2409 
L 1972 2400 
Q 2469 2356 2764 2053 
Q 3059 1750 3059 1300 
Q 3059 672 2604 297 
Q 2150 -78 1450 -78 
Q 806 -78 416 169 
L 416 719 
z
" transform="scale(0.015625)"/>
       </defs>
       <use xlink:href="#MalgunGothic-30"/>
       <use xlink:href="#MalgunGothic-33" transform="translate(55.078125 0)"/>
      </g>
     </g>
    </g>
    <g id="xtick_4">
     <g id="line2d_4">
      <g>
       <use xlink:href="#m4de92ebf0b" x="218.113121" y="276.282806" style="stroke: #000000; stroke-width: 0.8"/>
      </g>
     </g>
     <g id="text_4">
      <!-- 04 -->
      <g transform="translate(210.544427 293.808974) rotate(-45) scale(0.08 -0.08)">
       <use xlink:href="#MalgunGothic-30"/>
       <use xlink:href="#MalgunGothic-34" transform="translate(55.078125 0)"/>
      </g>
     </g>
    </g>
    <g id="xtick_5">
     <g id="line2d_5">
      <g>
       <use xlink:href="#m4de92ebf0b" x="253.728715" y="276.282806" style="stroke: #000000; stroke-width: 0.8"/>
      </g>
     </g>
     <g id="text_5">
      <!-- 05 -->
      <g transform="translate(246.160021 293.808974) rotate(-45) scale(0.08 -0.08)">
       <defs>
        <path id="MalgunGothic-35" d="M 3072 1403 
Q 3072 722 2636 322 
Q 2200 -78 1469 -78 
Q 828 -78 516 113 
L 516 650 
Q 994 344 1475 344 
Q 1969 344 2270 630 
Q 2572 916 2572 1372 
Q 2572 1838 2265 2092 
Q 1959 2347 1381 2347 
Q 994 2347 603 2300 
L 759 4600 
L 2869 4600 
L 2869 4147 
L 1206 4147 
L 1106 2763 
Q 1347 2784 1547 2784 
Q 2263 2784 2667 2414 
Q 3072 2044 3072 1403 
z
" transform="scale(0.015625)"/>
       </defs>
       <use xlink:href="#MalgunGothic-30"/>
       <use xlink:href="#MalgunGothic-35" transform="translate(55.078125 0)"/>
      </g>
     </g>
    </g>
    <g id="xtick_6">
     <g id="line2d_6">
      <g>
       <use xlink:href="#m4de92ebf0b" x="289.344309" y="276.282806" style="stroke: #000000; stroke-width: 0.8"/>
      </g>
     </g>
     <g id="text_6">
      <!-- 06 -->
      <g transform="translate(281.775615 293.808974) rotate(-45) scale(0.08 -0.08)">
       <defs>
        <path id="MalgunGothic-36" d="M 2981 4069 
Q 2619 4250 2228 4250 
Q 1591 4250 1228 3689 
Q 866 3128 869 2213 
L 884 2213 
Q 1203 2872 1938 2872 
Q 2547 2872 2903 2478 
Q 3259 2084 3259 1450 
Q 3259 797 2857 359 
Q 2456 -78 1825 -78 
Q 1116 -78 736 478 
Q 356 1034 356 2019 
Q 356 3181 847 3928 
Q 1338 4675 2222 4675 
Q 2700 4675 2981 4544 
L 2981 4069 
z
M 906 1506 
Q 906 1022 1165 683 
Q 1425 344 1844 344 
Q 2247 344 2498 645 
Q 2750 947 2750 1388 
Q 2750 1888 2509 2167 
Q 2269 2447 1838 2447 
Q 1444 2447 1175 2173 
Q 906 1900 906 1506 
z
" transform="scale(0.015625)"/>
       </defs>
       <use xlink:href="#MalgunGothic-30"/>
       <use xlink:href="#MalgunGothic-36" transform="translate(55.078125 0)"/>
      </g>
     </g>
    </g>
    <g id="xtick_7">
     <g id="line2d_7">
      <g>
       <use xlink:href="#m4de92ebf0b" x="324.959903" y="276.282806" style="stroke: #000000; stroke-width: 0.8"/>
      </g>
     </g>
     <g id="text_7">
      <!-- 07 -->
      <g transform="translate(317.391209 293.808974) rotate(-45) scale(0.08 -0.08)">
       <defs>
        <path id="MalgunGothic-37" d="M 3213 4297 
Q 2478 3006 2064 1918 
Q 1650 831 1550 0 
L 1009 0 
Q 1084 531 1290 1176 
Q 1497 1822 1815 2537 
Q 2134 3253 2631 4147 
L 291 4147 
L 291 4600 
L 3213 4600 
L 3213 4297 
z
" transform="scale(0.015625)"/>
       </defs>
       <use xlink:href="#MalgunGothic-30"/>
       <use xlink:href="#MalgunGothic-37" transform="translate(55.078125 0)"/>
      </g>
     </g>
    </g>
    <g id="xtick_8">
     <g id="line2d_8">
      <g>
       <use xlink:href="#m4de92ebf0b" x="360.575498" y="276.282806" style="stroke: #000000; stroke-width: 0.8"/>
      </g>
     </g>
     <g id="text_8">
      <!-- 08 -->
      <g transform="translate(353.006803 293.808974) rotate(-45) scale(0.08 -0.08)">
       <defs>
        <path id="MalgunGothic-38" d="M 303 1281 
Q 303 1669 539 2011 
Q 775 2353 1153 2494 
Q 856 2647 675 2915 
Q 494 3184 494 3500 
Q 494 3828 659 4098 
Q 825 4369 1122 4522 
Q 1419 4675 1778 4675 
Q 2334 4675 2700 4342 
Q 3066 4009 3066 3500 
Q 3066 3181 2881 2914 
Q 2697 2647 2413 2494 
Q 2788 2350 3022 2009 
Q 3256 1669 3256 1281 
Q 3256 672 2843 297 
Q 2431 -78 1778 -78 
Q 1131 -78 717 301 
Q 303 681 303 1281 
z
M 809 1328 
Q 809 878 1081 611 
Q 1353 344 1781 344 
Q 2206 344 2482 619 
Q 2759 894 2759 1328 
Q 2759 1731 2482 2011 
Q 2206 2291 1781 2291 
Q 1372 2291 1090 2020 
Q 809 1750 809 1328 
z
M 1003 3459 
Q 1003 3125 1234 2900 
Q 1466 2675 1781 2675 
Q 2097 2675 2330 2900 
Q 2563 3125 2563 3459 
Q 2563 3803 2341 4026 
Q 2119 4250 1781 4250 
Q 1450 4250 1226 4029 
Q 1003 3809 1003 3459 
z
" transform="scale(0.015625)"/>
       </defs>
       <use xlink:href="#MalgunGothic-30"/>
       <use xlink:href="#MalgunGothic-38" transform="translate(55.078125 0)"/>
      </g>
     </g>
    </g>
    <g id="xtick_9">
     <g id="line2d_9">
      <g>
       <use xlink:href="#m4de92ebf0b" x="396.191092" y="276.282806" style="stroke: #000000; stroke-width: 0.8"/>
      </g>
     </g>
     <g id="text_9">
      <!-- 09 -->
      <g transform="translate(388.622398 293.808974) rotate(-45) scale(0.08 -0.08)">
       <defs>
        <path id="MalgunGothic-39" d="M 556 563 
Q 941 344 1366 344 
Q 1994 344 2347 855 
Q 2700 1366 2700 2313 
Q 2694 2306 2688 2313 
Q 2388 1713 1653 1713 
Q 1059 1713 682 2120 
Q 306 2528 306 3144 
Q 306 3806 711 4240 
Q 1116 4675 1772 4675 
Q 2466 4675 2833 4131 
Q 3200 3588 3200 2578 
Q 3200 1319 2717 620 
Q 2234 -78 1344 -78 
Q 881 -78 556 78 
L 556 563 
z
M 813 3219 
Q 813 2741 1063 2450 
Q 1313 2159 1759 2159 
Q 2147 2159 2406 2417 
Q 2666 2675 2666 3047 
Q 2666 3556 2411 3903 
Q 2156 4250 1725 4250 
Q 1322 4250 1067 3948 
Q 813 3647 813 3219 
z
" transform="scale(0.015625)"/>
       </defs>
       <use xlink:href="#MalgunGothic-30"/>
       <use xlink:href="#MalgunGothic-39" transform="translate(55.078125 0)"/>
      </g>
     </g>
    </g>
    <g id="xtick_10">
     <g id="line2d_10">
      <g>
       <use xlink:href="#m4de92ebf0b" x="431.806686" y="276.282806" style="stroke: #000000; stroke-width: 0.8"/>
      </g>
     </g>
     <g id="text_10">
      <!-- 10 -->
      <g transform="translate(424.237992 293.808974) rotate(-45) scale(0.08 -0.08)">
       <use xlink:href="#MalgunGothic-31"/>
       <use xlink:href="#MalgunGothic-30" transform="translate(55.078125 0)"/>
      </g>
     </g>
    </g>
    <g id="xtick_11">
     <g id="line2d_11">
      <g>
       <use xlink:href="#m4de92ebf0b" x="467.42228" y="276.282806" style="stroke: #000000; stroke-width: 0.8"/>
      </g>
     </g>
     <g id="text_11">
      <!-- 11 -->
      <g transform="translate(459.853586 293.808974) rotate(-45) scale(0.08 -0.08)">
       <use xlink:href="#MalgunGothic-31"/>
       <use xlink:href="#MalgunGothic-31" transform="translate(55.078125 0)"/>
      </g>
     </g>
    </g>
    <g id="xtick_12">
     <g id="line2d_12">
      <g>
       <use xlink:href="#m4de92ebf0b" x="503.037874" y="276.282806" style="stroke: #000000; stroke-width: 0.8"/>
      </g>
     </g>
     <g id="text_12">
      <!-- 12 -->
      <g transform="translate(495.46918 293.808974) rotate(-45) scale(0.08 -0.08)">
       <use xlink:href="#MalgunGothic-31"/>
       <use xlink:href="#MalgunGothic-32" transform="translate(55.078125 0)"/>
      </g>
     </g>
    </g>
    <g id="xtick_13">
     <g id="line2d_13">
      <g>
       <use xlink:href="#m4de92ebf0b" x="538.653468" y="276.282806" style="stroke: #000000; stroke-width: 0.8"/>
      </g>
     </g>
     <g id="text_13">
      <!-- 2025.01 -->
      <g transform="translate(517.38458 307.509168) rotate(-45) scale(0.08 -0.08)">
       <use xlink:href="#MalgunGothic-32"/>
       <use xlink:href="#MalgunGothic-30" transform="translate(55.078125 0)"/>
       <use xlink:href="#MalgunGothic-32" transform="translate(110.15625 0)"/>
       <use xlink:href="#MalgunGothic-35" transform="translate(165.234375 0)"/>
       <use xlink:href="#MalgunGothic-2e" transform="translate(220.3125 0)"/>
       <use xlink:href="#MalgunGothic-30" transform="translate(242.1875 0)"/>
       <use xlink:href="#MalgunGothic-31" transform="translate(297.265625 0)"/>
      </g>
     </g>
    </g>
    <g id="xtick_14">
     <g id="line2d_14">
      <g>
       <use xlink:href="#m4de92ebf0b" x="574.269063" y="276.282806" style="stroke: #000000; stroke-width: 0.8"/>
      </g>
     </g>
     <g id="text_14">
      <!-- 02 -->
      <g transform="translate(566.700368 293.808974) rotate(-45) scale(0.08 -0.08)">
       <use xlink:href="#MalgunGothic-30"/>
       <use xlink:href="#MalgunGothic-32" transform="translate(55.078125 0)"/>
      </g>
     </g>
    </g>
    <g id="xtick_15">
     <g id="line2d_15">
      <g>
       <use xlink:href="#m4de92ebf0b" x="609.884657" y="276.282806" style="stroke: #000000; stroke-width: 0.8"/>
      </g>
     </g>
     <g id="text_15">
      <!-- 03 -->
      <g transform="translate(602.315962 293.808974) rotate(-45) scale(0.08 -0.08)">
       <use xlink:href="#MalgunGothic-30"/>
       <use xlink:href="#MalgunGothic-33" transform="translate(55.078125 0)"/>
      </g>
     </g>
    </g>
    <g id="xtick_16">
     <g id="line2d_16">
      <g>
       <use xlink:href="#m4de92ebf0b" x="645.500251" y="276.282806" style="stroke: #000000; stroke-width: 0.8"/>
      </g>
     </g>
     <g id="text_16">
      <!-- 04 -->
      <g transform="translate(637.931557 293.808974) rotate(-45) scale(0.08 -0.08)">
       <use xlink:href="#MalgunGothic-30"/>
       <use xlink:href="#MalgunGothic-34" transform="translate(55.078125 0)"/>
      </g>
     </g>
    </g>
    <g id="xtick_17">
     <g id="line2d_17">
      <g>
       <use xlink:href="#m4de92ebf0b" x="681.115845" y="276.282806" style="stroke: #000000; stroke-width: 0.8"/>
      </g>
     </g>
     <g id="text_17">
      <!-- 05 -->
      <g transform="translate(673.547151 293.808974) rotate(-45) scale(0.08 -0.08)">
       <use xlink:href="#MalgunGothic-30"/>
       <use xlink:href="#MalgunGothic-35" transform="translate(55.078125 0)"/>
      </g>
     </g>
    </g>
    <g id="xtick_18">
     <g id="line2d_18">
      <g>
       <use xlink:href="#m4de92ebf0b" x="716.731439" y="276.282806" style="stroke: #000000; stroke-width: 0.8"/>
      </g>
     </g>
     <g id="text_18">
      <!-- 06 -->
      <g transform="translate(709.162745 293.808974) rotate(-45) scale(0.08 -0.08)">
       <use xlink:href="#MalgunGothic-30"/>
       <use xlink:href="#MalgunGothic-36" transform="translate(55.078125 0)"/>
      </g>
     </g>
    </g>
    <g id="xtick_19">
     <g id="line2d_19">
      <g>
       <use xlink:href="#m4de92ebf0b" x="752.347033" y="276.282806" style="stroke: #000000; stroke-width: 0.8"/>
      </g>
     </g>
     <g id="text_19">
      <!-- 07 -->
      <g transform="translate(744.778339 293.808974) rotate(-45) scale(0.08 -0.08)">
       <use xlink:href="#MalgunGothic-30"/>
       <use xlink:href="#MalgunGothic-37" transform="translate(55.078125 0)"/>
      </g>
     </g>
    </g>
    <g id="xtick_20">
     <g id="line2d_20">
      <g>
       <use xlink:href="#m4de92ebf0b" x="787.962627" y="276.282806" style="stroke: #000000; stroke-width: 0.8"/>
      </g>
     </g>
     <g id="text_20">
      <!-- 08 -->
      <g transform="translate(780.393933 293.808974) rotate(-45) scale(0.08 -0.08)">
       <use xlink:href="#MalgunGothic-30"/>
       <use xlink:href="#MalgunGothic-38" transform="translate(55.078125 0)"/>
      </g>
     </g>
    </g>
    <g id="xtick_21">
     <g id="line2d_21">
      <g>
       <use xlink:href="#m4de92ebf0b" x="823.578222" y="276.282806" style="stroke: #000000; stroke-width: 0.8"/>
      </g>
     </g>
     <g id="text_21">
      <!-- 09 -->
      <g transform="translate(816.009527 293.808974) rotate(-45) scale(0.08 -0.08)">
       <use xlink:href="#MalgunGothic-30"/>
       <use xlink:href="#MalgunGothic-39" transform="translate(55.078125 0)"/>
      </g>
     </g>
    </g>
    <g id="xtick_22">
     <g id="line2d_22">
      <g>
       <use xlink:href="#m4de92ebf0b" x="859.193816" y="276.282806" style="stroke: #000000; stroke-width: 0.8"/>
      </g>
     </g>
     <g id="text_22">
      <!-- 10 -->
      <g transform="translate(851.625121 293.808974) rotate(-45) scale(0.08 -0.08)">
       <use xlink:href="#MalgunGothic-31"/>
       <use xlink:href="#MalgunGothic-30" transform="translate(55.078125 0)"/>
      </g>
     </g>
    </g>
    <g id="xtick_23">
     <g id="line2d_23">
      <g>
       <use xlink:href="#m4de92ebf0b" x="894.80941" y="276.282806" style="stroke: #000000; stroke-width: 0.8"/>
      </g>
     </g>
     <g id="text_23">
      <!-- 11 -->
      <g transform="translate(887.240716 293.808974) rotate(-45) scale(0.08 -0.08)">
       <use xlink:href="#MalgunGothic-31"/>
       <use xlink:href="#MalgunGothic-31" transform="translate(55.078125 0)"/>
      </g>
     </g>
    </g>
    <g id="xtick_24">
     <g id="line2d_24">
      <g>
       <use xlink:href="#m4de92ebf0b" x="930.425004" y="276.282806" style="stroke: #000000; stroke-width: 0.8"/>
      </g>
     </g>
     <g id="text_24">
      <!-- 12 -->
      <g transform="translate(922.85631 293.808974) rotate(-45) scale(0.08 -0.08)">
       <use xlink:href="#MalgunGothic-31"/>
       <use xlink:href="#MalgunGothic-32" transform="translate(55.078125 0)"/>
      </g>
     </g>
    </g>
    <g id="xtick_25">
     <g id="line2d_25">
      <g>
       <use xlink:href="#m4de92ebf0b" x="966.040598" y="276.282806" style="stroke: #000000; stroke-width: 0.8"/>
      </g>
     </g>
     <g id="text_25">
      <!-- 2026.01 -->
      <g transform="translate(944.77171 307.509168) rotate(-45) scale(0.08 -0.08)">
       <use xlink:href="#MalgunGothic-32"/>
       <use xlink:href="#MalgunGothic-30" transform="translate(55.078125 0)"/>
       <use xlink:href="#MalgunGothic-32" transform="translate(110.15625 0)"/>
       <use xlink:href="#MalgunGothic-36" transform="translate(165.234375 0)"/>
       <use xlink:href="#MalgunGothic-2e" transform="translate(220.3125 0)"/>
       <use xlink:href="#MalgunGothic-30" transform="translate(242.1875 0)"/>
       <use xlink:href="#MalgunGothic-31" transform="translate(297.265625 0)"/>
      </g>
     </g>
    </g>
    <g id="xtick_26">
     <g id="line2d_26">
      <g>
       <use xlink:href="#m4de92ebf0b" x="1001.656192" y="276.282806" style="stroke: #000000; stroke-width: 0.8"/>
      </g>
     </g>
     <g id="text_26">
      <!-- 02 -->
      <g transform="translate(994.087498 293.808974) rotate(-45) scale(0.08 -0.08)">
       <use xlink:href="#MalgunGothic-30"/>
       <use xlink:href="#MalgunGothic-32" transform="translate(55.078125 0)"/>
      </g>
     </g>
    </g>
    <g id="xtick_27">
     <g id="line2d_27">
      <g>
       <use xlink:href="#m4de92ebf0b" x="1037.271786" y="276.282806" style="stroke: #000000; stroke-width: 0.8"/>
      </g>
     </g>
     <g id="text_27">
      <!-- 03 -->
      <g transform="translate(1029.703092 293.808974) rotate(-45) scale(0.08 -0.08)">
       <use xlink:href="#MalgunGothic-30"/>
       <use xlink:href="#MalgunGothic-33" transform="translate(55.078125 0)"/>
      </g>
     </g>
    </g>
   </g>
   <g id="matplotlib.axis_2">
    <g id="ytick_1">
     <g id="line2d_28">
      <defs>
       <path id="md8e04379ad" d="M 0 0 
L -3.5 0 
" style="stroke: #000000; stroke-width: 0.8"/>
      </defs>
      <g>
       <use xlink:href="#md8e04379ad" x="51.254063" y="276.282806" style="stroke: #000000; stroke-width: 0.8"/>
      </g>
     </g>
     <g id="text_28">
      <!-- 0 -->
      <g transform="translate(39.847813 279.319681) scale(0.08 -0.08)">
       <use xlink:href="#MalgunGothic-30"/>
      </g>
     </g>
    </g>
    <g id="ytick_2">
     <g id="line2d_29">
      <g>
       <use xlink:href="#md8e04379ad" x="51.254063" y="232.621405" style="stroke: #000000; stroke-width: 0.8"/>
      </g>
     </g>
     <g id="text_29">
      <!-- 5,000 -->
      <g transform="translate(24.879063 235.65828) scale(0.08 -0.08)">
       <defs>
        <path id="MalgunGothic-2c" d="M 988 725 
L 472 -850 
L 125 -850 
L 503 725 
L 988 725 
z
" transform="scale(0.015625)"/>
       </defs>
       <use xlink:href="#MalgunGothic-35"/>
       <use xlink:href="#MalgunGothic-2c" transform="translate(55.078125 0)"/>
       <use xlink:href="#MalgunGothic-30" transform="translate(76.953125 0)"/>
       <use xlink:href="#MalgunGothic-30" transform="translate(132.03125 0)"/>
       <use xlink:href="#MalgunGothic-30" transform="translate(187.109375 0)"/>
      </g>
     </g>
    </g>
    <g id="ytick_3">
     <g id="line2d_30">
      <g>
       <use xlink:href="#md8e04379ad" x="51.254063" y="188.960004" style="stroke: #000000; stroke-width: 0.8"/>
      </g>
     </g>
     <g id="text_30">
      <!-- 10,000 -->
      <g transform="translate(20.472813 191.996879) scale(0.08 -0.08)">
       <use xlink:href="#MalgunGothic-31"/>
       <use xlink:href="#MalgunGothic-30" transform="translate(55.078125 0)"/>
       <use xlink:href="#MalgunGothic-2c" transform="translate(110.15625 0)"/>
       <use xlink:href="#MalgunGothic-30" transform="translate(132.03125 0)"/>
       <use xlink:href="#MalgunGothic-30" transform="translate(187.109375 0)"/>
       <use xlink:href="#MalgunGothic-30" transform="translate(242.1875 0)"/>
      </g>
     </g>
    </g>
    <g id="ytick_4">
     <g id="line2d_31">
      <g>
       <use xlink:href="#md8e04379ad" x="51.254063" y="145.298603" style="stroke: #000000; stroke-width: 0.8"/>
      </g>
     </g>
     <g id="text_31">
      <!-- 15,000 -->
      <g transform="translate(20.472813 148.335478) scale(0.08 -0.08)">
       <use xlink:href="#MalgunGothic-31"/>
       <use xlink:href="#MalgunGothic-35" transform="translate(55.078125 0)"/>
       <use xlink:href="#MalgunGothic-2c" transform="translate(110.15625 0)"/>
       <use xlink:href="#MalgunGothic-30" transform="translate(132.03125 0)"/>
       <use xlink:href="#MalgunGothic-30" transform="translate(187.109375 0)"/>
       <use xlink:href="#MalgunGothic-30" transform="translate(242.1875 0)"/>
      </g>
     </g>
    </g>
    <g id="ytick_5">
     <g id="line2d_32">
      <g>
       <use xlink:href="#md8e04379ad" x="51.254063" y="101.637202" style="stroke: #000000; stroke-width: 0.8"/>
      </g>
     </g>
     <g id="text_32">
      <!-- 20,000 -->
      <g transform="translate(20.472813 104.674077) scale(0.08 -0.08)">
       <use xlink:href="#MalgunGothic-32"/>
       <use xlink:href="#MalgunGothic-30" transform="translate(55.078125 0)"/>
       <use xlink:href="#MalgunGothic-2c" transform="translate(110.15625 0)"/>
       <use xlink:href="#MalgunGothic-30" transform="translate(132.03125 0)"/>
       <use xlink:href="#MalgunGothic-30" transform="translate(187.109375 0)"/>
       <use xlink:href="#MalgunGothic-30" transform="translate(242.1875 0)"/>
      </g>
     </g>
    </g>
    <g id="ytick_6">
     <g id="line2d_33">
      <g>
       <use xlink:href="#md8e04379ad" x="51.254063" y="57.975801" style="stroke: #000000; stroke-width: 0.8"/>
      </g>
     </g>
     <g id="text_33">
      <!-- 25,000 -->
      <g transform="translate(20.472813 61.012676) scale(0.08 -0.08)">
       <use xlink:href="#MalgunGothic-32"/>
       <use xlink:href="#MalgunGothic-35" transform="translate(55.078125 0)"/>
       <use xlink:href="#MalgunGothic-2c" transform="translate(110.15625 0)"/>
       <use xlink:href="#MalgunGothic-30" transform="translate(132.03125 0)"/>
       <use xlink:href="#MalgunGothic-30" transform="translate(187.109375 0)"/>
       <use xlink:href="#MalgunGothic-30" transform="translate(242.1875 0)"/>
      </g>
     </g>
    </g>
    <g id="text_34">
     <!-- 수출입 (천$) -->
     <g transform="translate(14.345156 174.71984) rotate(-90) scale(0.09 -0.09)">
      <defs>
       <path id="MalgunGothic-c218" d="M 5491 2994 
Q 4750 3097 4078 3498 
Q 3406 3900 3200 4275 
Q 2975 3891 2309 3491 
Q 1644 3091 922 2956 
L 634 3347 
Q 1559 3450 2261 3942 
Q 2963 4434 2963 5013 
L 2963 5275 
L 3431 5275 
L 3431 5013 
Q 3431 4431 4118 3948 
Q 4806 3466 5766 3378 
L 5491 2994 
z
M 3431 1838 
L 3431 -563 
L 2963 -563 
L 2963 1838 
L 403 1838 
L 403 2253 
L 5997 2253 
L 5997 1838 
L 3431 1838 
z
" transform="scale(0.015625)"/>
       <path id="MalgunGothic-cd9c" d="M 5466 3334 
Q 4759 3400 4114 3664 
Q 3469 3928 3213 4225 
Q 2966 3931 2323 3670 
Q 1681 3409 966 3341 
L 709 3750 
Q 1328 3725 2017 3970 
Q 2706 4216 2906 4603 
L 1056 4603 
L 1056 5019 
L 2969 5019 
L 2969 5550 
L 3444 5550 
L 3444 5019 
L 5344 5019 
L 5344 4603 
L 3494 4603 
Q 3691 4241 4356 3995 
Q 5022 3750 5691 3750 
L 5466 3334 
z
M 1319 -416 
L 1319 947 
L 4616 947 
L 4616 1478 
L 1319 1478 
L 1319 1888 
L 2963 1888 
L 2963 2484 
L 403 2484 
L 403 2900 
L 5997 2900 
L 5997 2484 
L 3438 2484 
L 3438 1888 
L 5075 1888 
L 5075 544 
L 1778 544 
L 1778 0 
L 5234 0 
L 5234 -416 
L 1319 -416 
z
" transform="scale(0.015625)"/>
       <path id="MalgunGothic-c785" d="M 4947 2400 
L 4947 5466 
L 5416 5466 
L 5416 2400 
L 4947 2400 
z
M 2406 2559 
Q 1731 2559 1304 2959 
Q 878 3359 878 3969 
Q 878 4575 1303 4972 
Q 1728 5369 2406 5369 
Q 3081 5369 3509 4973 
Q 3938 4578 3938 3969 
Q 3938 3356 3508 2957 
Q 3078 2559 2406 2559 
z
M 2406 4966 
Q 1922 4966 1633 4689 
Q 1344 4413 1344 3969 
Q 1344 3522 1631 3242 
Q 1919 2963 2406 2963 
Q 2894 2963 3181 3242 
Q 3469 3522 3469 3969 
Q 3469 4413 3180 4689 
Q 2891 4966 2406 4966 
z
M 1709 -397 
L 1709 2069 
L 2169 2069 
L 2169 1203 
L 4953 1203 
L 4953 2069 
L 5416 2069 
L 5416 -397 
L 1709 -397 
z
M 4953 794 
L 2169 794 
L 2169 13 
L 4953 13 
L 4953 794 
z
" transform="scale(0.015625)"/>
       <path id="MalgunGothic-20" transform="scale(0.015625)"/>
       <path id="MalgunGothic-28" d="M 1438 -1044 
Q 447 88 447 1753 
Q 447 3431 1438 4600 
L 1888 4600 
Q 878 3372 878 1759 
Q 878 153 1881 -1044 
L 1438 -1044 
z
" transform="scale(0.015625)"/>
       <path id="MalgunGothic-cc9c" d="M 4884 1056 
L 4884 3278 
L 3541 3278 
L 3541 3694 
L 4884 3694 
L 4884 5466 
L 5350 5466 
L 5350 1056 
L 4884 1056 
z
M 3756 1881 
Q 3306 2091 2892 2470 
Q 2478 2850 2297 3200 
Q 2109 2797 1686 2380 
Q 1263 1963 831 1747 
L 488 2106 
Q 1100 2319 1576 2876 
Q 2053 3434 2053 3916 
L 2053 4347 
L 678 4347 
L 678 4763 
L 2059 4763 
L 2059 5459 
L 2528 5459 
L 2528 4763 
L 3897 4763 
L 3897 4347 
L 2528 4347 
L 2528 3922 
Q 2528 3456 3006 2948 
Q 3484 2441 4072 2266 
L 3756 1881 
z
M 1638 -366 
L 1638 1581 
L 2113 1581 
L 2113 44 
L 5509 44 
L 5509 -366 
L 1638 -366 
z
" transform="scale(0.015625)"/>
       <path id="MalgunGothic-24" d="M 1963 -672 
L 1638 -672 
L 1638 0 
Q 953 0 534 272 
L 534 809 
Q 703 653 1039 537 
Q 1375 422 1638 428 
L 1638 2103 
Q 922 2453 725 2731 
Q 528 3009 528 3400 
Q 528 3841 842 4192 
Q 1156 4544 1638 4603 
L 1638 5181 
L 1963 5181 
L 1963 4616 
Q 2594 4597 2822 4441 
L 2822 3916 
Q 2509 4172 1963 4188 
L 1963 2466 
Q 2497 2200 2803 1912 
Q 3109 1625 3109 1181 
Q 3109 725 2804 420 
Q 2500 116 1963 28 
L 1963 -672 
z
M 1638 4172 
Q 1044 4031 1044 3469 
Q 1044 3222 1136 3056 
Q 1228 2891 1638 2644 
L 1638 4172 
z
M 1963 453 
Q 2591 594 2591 1134 
Q 2591 1588 1963 1934 
L 1963 453 
z
" transform="scale(0.015625)"/>
       <path id="MalgunGothic-29" d="M 81 -1044 
Q 1081 150 1081 1759 
Q 1081 3378 72 4600 
L 525 4600 
Q 1522 3431 1522 1753 
Q 1522 88 525 -1044 
L 81 -1044 
z
" transform="scale(0.015625)"/>
      </defs>
      <use xlink:href="#MalgunGothic-c218"/>
      <use xlink:href="#MalgunGothic-cd9c" transform="translate(100 0)"/>
      <use xlink:href="#MalgunGothic-c785" transform="translate(200 0)"/>
      <use xlink:href="#MalgunGothic-20" transform="translate(300 0)"/>
      <use xlink:href="#MalgunGothic-28" transform="translate(335.15625 0)"/>
      <use xlink:href="#MalgunGothic-cc9c" transform="translate(365.625 0)"/>
      <use xlink:href="#MalgunGothic-24" transform="translate(465.625 0)"/>
      <use xlink:href="#MalgunGothic-29" transform="translate(520.703125 0)"/>
     </g>
    </g>
   </g>
   <g id="patch_57">
    <path d="M 51.254063 276.282806 
L 51.254063 23.551406 
" style="fill: none; stroke: #000000; stroke-width: 0.8; stroke-linejoin: miter; stroke-linecap: square"/>
   </g>
   <g id="patch_58">
    <path d="M 1097.284062 276.282806 
L 1097.284062 23.551406 
" style="fill: none; stroke: #000000; stroke-width: 0.8; stroke-linejoin: miter; stroke-linecap: square"/>
   </g>
   <g id="patch_59">
    <path d="M 51.254063 276.282806 
L 1097.284062 276.282806 
" style="fill: none; stroke: #000000; stroke-width: 0.8; stroke-linejoin: miter; stroke-linecap: square"/>
   </g>
   <g id="patch_60">
    <path d="M 51.254063 23.551406 
L 1097.284062 23.551406 
" style="fill: none; stroke: #000000; stroke-width: 0.8; stroke-linejoin: miter; stroke-linecap: square"/>
   </g>
   <g id="text_35">
    <!-- HS 847160 — 스캐너 -->
    <g transform="translate(521.177734 15.551406) scale(0.11 -0.11)">
     <defs>
      <path id="MalgunGothic-48" d="M 4028 0 
L 3525 0 
L 3525 2109 
L 1113 2109 
L 1113 0 
L 609 0 
L 609 4600 
L 1113 4600 
L 1113 2569 
L 3525 2569 
L 3525 4600 
L 4028 4600 
L 4028 0 
z
" transform="scale(0.015625)"/>
      <path id="MalgunGothic-53" d="M 394 797 
Q 606 613 964 500 
Q 1322 388 1625 388 
Q 2628 388 2628 1116 
Q 2628 1325 2523 1484 
Q 2419 1644 2250 1756 
Q 2081 1869 1547 2144 
Q 903 2475 651 2754 
Q 400 3034 400 3456 
Q 400 4019 858 4347 
Q 1316 4675 1988 4675 
Q 2669 4675 2963 4513 
L 2963 3928 
Q 2563 4206 1922 4206 
Q 1484 4206 1207 4018 
Q 931 3831 931 3500 
Q 931 3200 1126 3011 
Q 1322 2822 1938 2522 
Q 2656 2163 2906 1844 
Q 3156 1525 3156 1153 
Q 3156 556 2725 239 
Q 2294 -78 1531 -78 
Q 1291 -78 927 -1 
Q 563 75 394 188 
L 394 797 
z
" transform="scale(0.015625)"/>
      <path id="MalgunGothic-2014" d="M 6566 1634 
L 0 1634 
L 0 2031 
L 6566 2031 
L 6566 1634 
z
" transform="scale(0.015625)"/>
      <path id="MalgunGothic-c2a4" d="M 3194 3897 
Q 2969 3416 2328 2930 
Q 1688 2444 959 2247 
L 641 2619 
Q 1703 2841 2329 3472 
Q 2956 4103 2956 4659 
L 2956 4978 
L 3438 4978 
L 3438 4659 
Q 3438 4094 4073 3476 
Q 4709 2859 5759 2625 
L 5428 2253 
Q 4694 2481 4058 2956 
Q 3422 3431 3194 3897 
z
M 5997 447 
L 403 447 
L 403 863 
L 5997 863 
L 5997 447 
z
" transform="scale(0.015625)"/>
      <path id="MalgunGothic-ce90" d="M 5038 -563 
L 5038 2431 
L 4288 2431 
L 4288 -375 
L 3828 -375 
L 3828 5344 
L 4288 5344 
L 4288 2847 
L 5038 2847 
L 5038 5466 
L 5503 5466 
L 5503 -563 
L 5038 -563 
z
M 3078 4941 
Q 2978 2403 813 872 
L 441 1197 
Q 1047 1528 1536 2101 
Q 2025 2675 2253 3238 
L 722 3041 
L 556 3481 
L 2406 3622 
Q 2556 4056 2584 4531 
L 800 4531 
L 800 4941 
L 3078 4941 
z
" transform="scale(0.015625)"/>
      <path id="MalgunGothic-b108" d="M 4897 -563 
L 4897 3116 
L 2956 3116 
L 2956 3534 
L 4897 3534 
L 4897 5466 
L 5363 5466 
L 5363 -563 
L 4897 -563 
z
M 4269 1300 
Q 3969 1222 3333 1190 
Q 2697 1159 903 1159 
L 903 5013 
L 1369 5013 
L 1369 1575 
L 1778 1575 
Q 3659 1575 4219 1691 
L 4269 1300 
z
" transform="scale(0.015625)"/>
     </defs>
     <use xlink:href="#MalgunGothic-48"/>
     <use xlink:href="#MalgunGothic-53" transform="translate(72.460938 0)"/>
     <use xlink:href="#MalgunGothic-20" transform="translate(126.757812 0)"/>
     <use xlink:href="#MalgunGothic-38" transform="translate(161.914062 0)"/>
     <use xlink:href="#MalgunGothic-34" transform="translate(216.992188 0)"/>
     <use xlink:href="#MalgunGothic-37" transform="translate(272.070312 0)"/>
     <use xlink:href="#MalgunGothic-31" transform="translate(327.148438 0)"/>
     <use xlink:href="#MalgunGothic-36" transform="translate(382.226562 0)"/>
     <use xlink:href="#MalgunGothic-30" transform="translate(437.304688 0)"/>
     <use xlink:href="#MalgunGothic-20" transform="translate(492.382812 0)"/>
     <use xlink:href="#MalgunGothic-2014" transform="translate(527.539062 0)"/>
     <use xlink:href="#MalgunGothic-20" transform="translate(630.126953 0)"/>
     <use xlink:href="#MalgunGothic-c2a4" transform="translate(665.283203 0)"/>
     <use xlink:href="#MalgunGothic-ce90" transform="translate(765.283203 0)"/>
     <use xlink:href="#MalgunGothic-b108" transform="translate(865.283203 0)"/>
    </g>
   </g>
   <g id="legend_1">
    <g id="patch_61">
     <path d="M 56.854063 78.711406 
L 146.200313 78.711406 
Q 147.800313 78.711406 147.800313 77.111406 
L 147.800313 29.151406 
Q 147.800313 27.551406 146.200313 27.551406 
L 56.854063 27.551406 
Q 55.254063 27.551406 55.254063 29.151406 
L 55.254063 77.111406 
Q 55.254063 78.711406 56.854063 78.711406 
z
" style="fill: #ffffff; opacity: 0.7; stroke: #cccccc; stroke-linejoin: miter"/>
    </g>
    <g id="patch_62">
     <path d="M 58.454063 37.102656 
L 74.454063 37.102656 
L 74.454063 31.502656 
L 58.454063 31.502656 
z
" style="fill: #4472c4; opacity: 0.85"/>
    </g>
    <g id="text_36">
     <!-- 수출(천$) -->
     <g transform="translate(80.854062 37.102656) scale(0.08 -0.08)">
      <use xlink:href="#MalgunGothic-c218"/>
      <use xlink:href="#MalgunGothic-cd9c" transform="translate(100 0)"/>
      <use xlink:href="#MalgunGothic-28" transform="translate(200 0)"/>
      <use xlink:href="#MalgunGothic-cc9c" transform="translate(230.46875 0)"/>
      <use xlink:href="#MalgunGothic-24" transform="translate(330.46875 0)"/>
      <use xlink:href="#MalgunGothic-29" transform="translate(385.546875 0)"/>
     </g>
    </g>
    <g id="patch_63">
     <path d="M 58.454063 49.240156 
L 74.454063 49.240156 
L 74.454063 43.640156 
L 58.454063 43.640156 
z
" style="fill: #ed7d31; opacity: 0.85"/>
    </g>
    <g id="text_37">
     <!-- 수입(천$) -->
     <g transform="translate(80.854062 49.240156) scale(0.08 -0.08)">
      <use xlink:href="#MalgunGothic-c218"/>
      <use xlink:href="#MalgunGothic-c785" transform="translate(100 0)"/>
      <use xlink:href="#MalgunGothic-28" transform="translate(200 0)"/>
      <use xlink:href="#MalgunGothic-cc9c" transform="translate(230.46875 0)"/>
      <use xlink:href="#MalgunGothic-24" transform="translate(330.46875 0)"/>
      <use xlink:href="#MalgunGothic-29" transform="translate(385.546875 0)"/>
     </g>
    </g>
    <g id="line2d_34">
     <path d="M 58.454063 58.682656 
L 66.454063 58.682656 
L 74.454063 58.682656 
" style="fill: none; stroke: #1f4e79; stroke-width: 1.5; stroke-linecap: square"/>
     <defs>
      <path id="m685a269eaf" d="M 0 1.5 
C 0.397805 1.5 0.77937 1.341951 1.06066 1.06066 
C 1.341951 0.77937 1.5 0.397805 1.5 0 
C 1.5 -0.397805 1.341951 -0.77937 1.06066 -1.06066 
C 0.77937 -1.341951 0.397805 -1.5 0 -1.5 
C -0.397805 -1.5 -0.77937 -1.341951 -1.06066 -1.06066 
C -1.341951 -0.77937 -1.5 -0.397805 -1.5 0 
C -1.5 0.397805 -1.341951 0.77937 -1.06066 1.06066 
C -0.77937 1.341951 -0.397805 1.5 0 1.5 
z
" style="stroke: #1f4e79"/>
     </defs>
     <g>
      <use xlink:href="#m685a269eaf" x="66.454063" y="58.682656" style="fill: #1f4e79; stroke: #1f4e79"/>
     </g>
    </g>
    <g id="text_38">
     <!-- 수출단가(USD/톤) -->
     <g transform="translate(80.854062 61.482656) scale(0.08 -0.08)">
      <defs>
       <path id="MalgunGothic-b2e8" d="M 5125 3169 
L 5125 1063 
L 4659 1063 
L 4659 5466 
L 5125 5466 
L 5125 3584 
L 6034 3584 
L 6034 3169 
L 5125 3169 
z
M 3903 2363 
Q 3306 2291 850 2291 
L 850 5081 
L 3688 5081 
L 3688 4666 
L 1319 4666 
L 1319 2706 
Q 3244 2706 3872 2766 
L 3903 2363 
z
M 1459 -378 
L 1459 1581 
L 1925 1581 
L 1925 38 
L 5294 38 
L 5294 -378 
L 1459 -378 
z
" transform="scale(0.015625)"/>
       <path id="MalgunGothic-ac00" d="M 5094 2566 
L 5094 -563 
L 4628 -563 
L 4628 5466 
L 5094 5466 
L 5094 2981 
L 6175 2981 
L 6175 2566 
L 5094 2566 
z
M 3609 4928 
Q 3541 2363 897 863 
L 538 1241 
Q 1484 1631 2234 2506 
Q 2984 3381 3109 4513 
L 794 4513 
L 794 4928 
L 3609 4928 
z
" transform="scale(0.015625)"/>
       <path id="MalgunGothic-55" d="M 3947 1850 
Q 3947 -78 2209 -78 
Q 553 -78 553 1778 
L 553 4600 
L 1056 4600 
L 1056 1813 
Q 1056 381 2272 381 
Q 3441 381 3441 1763 
L 3441 4600 
L 3947 4600 
L 3947 1850 
z
" transform="scale(0.015625)"/>
       <path id="MalgunGothic-44" d="M 609 0 
L 609 4600 
L 1856 4600 
Q 4281 4600 4281 2356 
Q 4281 1288 3587 644 
Q 2894 0 1800 0 
L 609 0 
z
M 1113 4134 
L 1113 463 
L 1813 463 
Q 2734 463 3243 958 
Q 3753 1453 3753 2344 
Q 3753 4134 1844 4134 
L 1113 4134 
z
" transform="scale(0.015625)"/>
       <path id="MalgunGothic-2f" d="M 2584 4600 
L 378 -763 
L -84 -763 
L 2113 4600 
L 2584 4600 
z
" transform="scale(0.015625)"/>
       <path id="MalgunGothic-d1a4" d="M 403 1684 
L 403 2100 
L 2969 2100 
L 2969 2809 
L 1331 2809 
L 1331 5269 
L 5088 5269 
L 5088 4850 
L 1797 4850 
L 1797 4244 
L 4984 4244 
L 4984 3841 
L 1797 3841 
L 1797 3225 
L 5166 3225 
L 5166 2809 
L 3438 2809 
L 3438 2100 
L 5997 2100 
L 5997 1684 
L 403 1684 
z
M 1325 -422 
L 1325 1191 
L 1791 1191 
L 1791 0 
L 5203 0 
L 5203 -422 
L 1325 -422 
z
" transform="scale(0.015625)"/>
      </defs>
      <use xlink:href="#MalgunGothic-c218"/>
      <use xlink:href="#MalgunGothic-cd9c" transform="translate(100 0)"/>
      <use xlink:href="#MalgunGothic-b2e8" transform="translate(200 0)"/>
      <use xlink:href="#MalgunGothic-ac00" transform="translate(300 0)"/>
      <use xlink:href="#MalgunGothic-28" transform="translate(400 0)"/>
      <use xlink:href="#MalgunGothic-55" transform="translate(430.46875 0)"/>
      <use xlink:href="#MalgunGothic-53" transform="translate(500.732422 0)"/>
      <use xlink:href="#MalgunGothic-44" transform="translate(555.029297 0)"/>
      <use xlink:href="#MalgunGothic-2f" transform="translate(626.757812 0)"/>
      <use xlink:href="#MalgunGothic-d1a4" transform="translate(666.357422 0)"/>
      <use xlink:href="#MalgunGothic-29" transform="translate(766.357422 0)"/>
     </g>
    </g>
    <g id="line2d_35">
     <path d="M 58.454063 70.820156 
L 66.454063 70.820156 
L 74.454063 70.820156 
" style="fill: none; stroke: #833c00; stroke-width: 1.5; stroke-linecap: square"/>
     <defs>
      <path id="m9f5252d94c" d="M -1.5 1.5 
L 1.5 1.5 
L 1.5 -1.5 
L -1.5 -1.5 
z
" style="stroke: #833c00; stroke-linejoin: miter"/>
     </defs>
     <g>
      <use xlink:href="#m9f5252d94c" x="66.454063" y="70.820156" style="fill: #833c00; stroke: #833c00; stroke-linejoin: miter"/>
     </g>
    </g>
    <g id="text_39">
     <!-- 수입단가(USD/톤) -->
     <g transform="translate(80.854062 73.620156) scale(0.08 -0.08)">
      <use xlink:href="#MalgunGothic-c218"/>
      <use xlink:href="#MalgunGothic-c785" transform="translate(100 0)"/>
      <use xlink:href="#MalgunGothic-b2e8" transform="translate(200 0)"/>
      <use xlink:href="#MalgunGothic-ac00" transform="translate(300 0)"/>
      <use xlink:href="#MalgunGothic-28" transform="translate(400 0)"/>
      <use xlink:href="#MalgunGothic-55" transform="translate(430.46875 0)"/>
      <use xlink:href="#MalgunGothic-53" transform="translate(500.732422 0)"/>
      <use xlink:href="#MalgunGothic-44" transform="translate(555.029297 0)"/>
      <use xlink:href="#MalgunGothic-2f" transform="translate(626.757812 0)"/>
      <use xlink:href="#MalgunGothic-d1a4" transform="translate(666.357422 0)"/>
      <use xlink:href="#MalgunGothic-29" transform="translate(766.357422 0)"/>
     </g>
    </g>
   </g>
  </g>
  <g id="axes_2">
   <g id="matplotlib.axis_3">
    <g id="ytick_7">
     <g id="line2d_36">
      <defs>
       <path id="m098f827f4c" d="M 0 0 
L 3.5 0 
" style="stroke: #000000; stroke-width: 0.8"/>
      </defs>
      <g>
       <use xlink:href="#m098f827f4c" x="1097.284062" y="274.30054" style="stroke: #000000; stroke-width: 0.8"/>
      </g>
     </g>
     <g id="text_40">
      <!-- 0 -->
      <g style="fill: #808080" transform="translate(1104.284062 277.337415) scale(0.08 -0.08)">
       <use xlink:href="#MalgunGothic-30"/>
      </g>
     </g>
    </g>
    <g id="ytick_8">
     <g id="line2d_37">
      <g>
       <use xlink:href="#m098f827f4c" x="1097.284062" y="229.10372" style="stroke: #000000; stroke-width: 0.8"/>
      </g>
     </g>
     <g id="text_41">
      <!-- 200,000 -->
      <g style="fill: #808080" transform="translate(1104.284062 232.140595) scale(0.08 -0.08)">
       <use xlink:href="#MalgunGothic-32"/>
       <use xlink:href="#MalgunGothic-30" transform="translate(55.078125 0)"/>
       <use xlink:href="#MalgunGothic-30" transform="translate(110.15625 0)"/>
       <use xlink:href="#MalgunGothic-2c" transform="translate(165.234375 0)"/>
       <use xlink:href="#MalgunGothic-30" transform="translate(187.109375 0)"/>
       <use xlink:href="#MalgunGothic-30" transform="translate(242.1875 0)"/>
       <use xlink:href="#MalgunGothic-30" transform="translate(297.265625 0)"/>
      </g>
     </g>
    </g>
    <g id="ytick_9">
     <g id="line2d_38">
      <g>
       <use xlink:href="#m098f827f4c" x="1097.284062" y="183.9069" style="stroke: #000000; stroke-width: 0.8"/>
      </g>
     </g>
     <g id="text_42">
      <!-- 400,000 -->
      <g style="fill: #808080" transform="translate(1104.284062 186.943775) scale(0.08 -0.08)">
       <use xlink:href="#MalgunGothic-34"/>
       <use xlink:href="#MalgunGothic-30" transform="translate(55.078125 0)"/>
       <use xlink:href="#MalgunGothic-30" transform="translate(110.15625 0)"/>
       <use xlink:href="#MalgunGothic-2c" transform="translate(165.234375 0)"/>
       <use xlink:href="#MalgunGothic-30" transform="translate(187.109375 0)"/>
       <use xlink:href="#MalgunGothic-30" transform="translate(242.1875 0)"/>
       <use xlink:href="#MalgunGothic-30" transform="translate(297.265625 0)"/>
      </g>
     </g>
    </g>
    <g id="ytick_10">
     <g id="line2d_39">
      <g>
       <use xlink:href="#m098f827f4c" x="1097.284062" y="138.71008" style="stroke: #000000; stroke-width: 0.8"/>
      </g>
     </g>
     <g id="text_43">
      <!-- 600,000 -->
      <g style="fill: #808080" transform="translate(1104.284062 141.746955) scale(0.08 -0.08)">
       <use xlink:href="#MalgunGothic-36"/>
       <use xlink:href="#MalgunGothic-30" transform="translate(55.078125 0)"/>
       <use xlink:href="#MalgunGothic-30" transform="translate(110.15625 0)"/>
       <use xlink:href="#MalgunGothic-2c" transform="translate(165.234375 0)"/>
       <use xlink:href="#MalgunGothic-30" transform="translate(187.109375 0)"/>
       <use xlink:href="#MalgunGothic-30" transform="translate(242.1875 0)"/>
       <use xlink:href="#MalgunGothic-30" transform="translate(297.265625 0)"/>
      </g>
     </g>
    </g>
    <g id="ytick_11">
     <g id="line2d_40">
      <g>
       <use xlink:href="#m098f827f4c" x="1097.284062" y="93.51326" style="stroke: #000000; stroke-width: 0.8"/>
      </g>
     </g>
     <g id="text_44">
      <!-- 800,000 -->
      <g style="fill: #808080" transform="translate(1104.284062 96.550135) scale(0.08 -0.08)">
       <use xlink:href="#MalgunGothic-38"/>
       <use xlink:href="#MalgunGothic-30" transform="translate(55.078125 0)"/>
       <use xlink:href="#MalgunGothic-30" transform="translate(110.15625 0)"/>
       <use xlink:href="#MalgunGothic-2c" transform="translate(165.234375 0)"/>
       <use xlink:href="#MalgunGothic-30" transform="translate(187.109375 0)"/>
       <use xlink:href="#MalgunGothic-30" transform="translate(242.1875 0)"/>
       <use xlink:href="#MalgunGothic-30" transform="translate(297.265625 0)"/>
      </g>
     </g>
    </g>
    <g id="ytick_12">
     <g id="line2d_41">
      <g>
       <use xlink:href="#m098f827f4c" x="1097.284062" y="48.31644" style="stroke: #000000; stroke-width: 0.8"/>
      </g>
     </g>
     <g id="text_45">
      <!-- 1,000,000 -->
      <g style="fill: #808080" transform="translate(1104.284062 51.353315) scale(0.08 -0.08)">
       <use xlink:href="#MalgunGothic-31"/>
       <use xlink:href="#MalgunGothic-2c" transform="translate(55.078125 0)"/>
       <use xlink:href="#MalgunGothic-30" transform="translate(76.953125 0)"/>
       <use xlink:href="#MalgunGothic-30" transform="translate(132.03125 0)"/>
       <use xlink:href="#MalgunGothic-30" transform="translate(187.109375 0)"/>
       <use xlink:href="#MalgunGothic-2c" transform="translate(242.1875 0)"/>
       <use xlink:href="#MalgunGothic-30" transform="translate(264.0625 0)"/>
       <use xlink:href="#MalgunGothic-30" transform="translate(319.140625 0)"/>
       <use xlink:href="#MalgunGothic-30" transform="translate(374.21875 0)"/>
      </g>
     </g>
    </g>
    <g id="text_46">
     <!-- 단가 (USD/톤) -->
     <g style="fill: #808080" transform="translate(1149.654844 178.356403) rotate(-90) scale(0.09 -0.09)">
      <use xlink:href="#MalgunGothic-b2e8"/>
      <use xlink:href="#MalgunGothic-ac00" transform="translate(100 0)"/>
      <use xlink:href="#MalgunGothic-20" transform="translate(200 0)"/>
      <use xlink:href="#MalgunGothic-28" transform="translate(235.15625 0)"/>
      <use xlink:href="#MalgunGothic-55" transform="translate(265.625 0)"/>
      <use xlink:href="#MalgunGothic-53" transform="translate(335.888672 0)"/>
      <use xlink:href="#MalgunGothic-44" transform="translate(390.185547 0)"/>
      <use xlink:href="#MalgunGothic-2f" transform="translate(461.914062 0)"/>
      <use xlink:href="#MalgunGothic-d1a4" transform="translate(501.513672 0)"/>
      <use xlink:href="#MalgunGothic-29" transform="translate(601.513672 0)"/>
     </g>
    </g>
   </g>
   <g id="line2d_42">
    <path d="M 111.266339 212.577274 
L 146.881933 221.321486 
L 182.497527 105.575925 
L 218.113121 251.030778 
L 253.728715 207.606092 
L 289.344309 197.362442 
L 324.959903 248.796755 
L 360.575498 249.790722 
L 396.191092 249.271426 
L 431.806686 249.493193 
L 467.42228 221.91755 
L 503.037874 111.686807 
L 538.653468 264.621344 
L 574.269063 152.867658 
L 609.884657 122.232875 
L 645.500251 149.642163 
L 681.115845 106.501205 
L 716.731439 173.33613 
L 752.347033 173.39989 
L 787.962627 35.039197 
L 823.578222 137.606135 
L 859.193816 167.895471 
L 894.80941 135.17057 
L 930.425004 135.729185 
L 966.040598 187.140879 
L 1001.656192 121.073152 
L 1037.271786 147.361773 
" clip-path="url(#p4d291ae674)" style="fill: none; stroke: #1f4e79; stroke-width: 1.5; stroke-linecap: square"/>
    <g clip-path="url(#p4d291ae674)">
     <use xlink:href="#m685a269eaf" x="111.266339" y="212.577274" style="fill: #1f4e79; stroke: #1f4e79"/>
     <use xlink:href="#m685a269eaf" x="146.881933" y="221.321486" style="fill: #1f4e79; stroke: #1f4e79"/>
     <use xlink:href="#m685a269eaf" x="182.497527" y="105.575925" style="fill: #1f4e79; stroke: #1f4e79"/>
     <use xlink:href="#m685a269eaf" x="218.113121" y="251.030778" style="fill: #1f4e79; stroke: #1f4e79"/>
     <use xlink:href="#m685a269eaf" x="253.728715" y="207.606092" style="fill: #1f4e79; stroke: #1f4e79"/>
     <use xlink:href="#m685a269eaf" x="289.344309" y="197.362442" style="fill: #1f4e79; stroke: #1f4e79"/>
     <use xlink:href="#m685a269eaf" x="324.959903" y="248.796755" style="fill: #1f4e79; stroke: #1f4e79"/>
     <use xlink:href="#m685a269eaf" x="360.575498" y="249.790722" style="fill: #1f4e79; stroke: #1f4e79"/>
     <use xlink:href="#m685a269eaf" x="396.191092" y="249.271426" style="fill: #1f4e79; stroke: #1f4e79"/>
     <use xlink:href="#m685a269eaf" x="431.806686" y="249.493193" style="fill: #1f4e79; stroke: #1f4e79"/>
     <use xlink:href="#m685a269eaf" x="467.42228" y="221.91755" style="fill: #1f4e79; stroke: #1f4e79"/>
     <use xlink:href="#m685a269eaf" x="503.037874" y="111.686807" style="fill: #1f4e79; stroke: #1f4e79"/>
     <use xlink:href="#m685a269eaf" x="538.653468" y="264.621344" style="fill: #1f4e79; stroke: #1f4e79"/>
     <use xlink:href="#m685a269eaf" x="574.269063" y="152.867658" style="fill: #1f4e79; stroke: #1f4e79"/>
     <use xlink:href="#m685a269eaf" x="609.884657" y="122.232875" style="fill: #1f4e79; stroke: #1f4e79"/>
     <use xlink:href="#m685a269eaf" x="645.500251" y="149.642163" style="fill: #1f4e79; stroke: #1f4e79"/>
     <use xlink:href="#m685a269eaf" x="681.115845" y="106.501205" style="fill: #1f4e79; stroke: #1f4e79"/>
     <use xlink:href="#m685a269eaf" x="716.731439" y="173.33613" style="fill: #1f4e79; stroke: #1f4e79"/>
     <use xlink:href="#m685a269eaf" x="752.347033" y="173.39989" style="fill: #1f4e79; stroke: #1f4e79"/>
     <use xlink:href="#m685a269eaf" x="787.962627" y="35.039197" style="fill: #1f4e79; stroke: #1f4e79"/>
     <use xlink:href="#m685a269eaf" x="823.578222" y="137.606135" style="fill: #1f4e79; stroke: #1f4e79"/>
     <use xlink:href="#m685a269eaf" x="859.193816" y="167.895471" style="fill: #1f4e79; stroke: #1f4e79"/>
     <use xlink:href="#m685a269eaf" x="894.80941" y="135.17057" style="fill: #1f4e79; stroke: #1f4e79"/>
     <use xlink:href="#m685a269eaf" x="930.425004" y="135.729185" style="fill: #1f4e79; stroke: #1f4e79"/>
     <use xlink:href="#m685a269eaf" x="966.040598" y="187.140879" style="fill: #1f4e79; stroke: #1f4e79"/>
     <use xlink:href="#m685a269eaf" x="1001.656192" y="121.073152" style="fill: #1f4e79; stroke: #1f4e79"/>
     <use xlink:href="#m685a269eaf" x="1037.271786" y="147.361773" style="fill: #1f4e79; stroke: #1f4e79"/>
    </g>
   </g>
   <g id="line2d_43">
    <path d="M 111.266339 252.32544 
L 146.881933 224.923174 
L 182.497527 249.601273 
L 218.113121 251.173342 
L 253.728715 256.116041 
L 289.344309 214.445292 
L 324.959903 252.942489 
L 360.575498 264.795015 
L 396.191092 208.49007 
L 431.806686 251.809232 
L 467.42228 209.679029 
L 503.037874 252.962986 
L 538.653468 202.336156 
L 574.269063 250.16317 
L 609.884657 221.7956 
L 645.500251 234.102684 
L 681.115845 247.309465 
L 716.731439 248.900379 
L 752.347033 201.26148 
L 787.962627 245.793372 
L 823.578222 262.493351 
L 859.193816 253.114531 
L 894.80941 237.748013 
L 930.425004 226.036973 
L 966.040598 250.703807 
L 1001.656192 246.837564 
L 1037.271786 244.255834 
" clip-path="url(#p4d291ae674)" style="fill: none; stroke: #833c00; stroke-width: 1.5; stroke-linecap: square"/>
    <g clip-path="url(#p4d291ae674)">
     <use xlink:href="#m9f5252d94c" x="111.266339" y="252.32544" style="fill: #833c00; stroke: #833c00; stroke-linejoin: miter"/>
     <use xlink:href="#m9f5252d94c" x="146.881933" y="224.923174" style="fill: #833c00; stroke: #833c00; stroke-linejoin: miter"/>
     <use xlink:href="#m9f5252d94c" x="182.497527" y="249.601273" style="fill: #833c00; stroke: #833c00; stroke-linejoin: miter"/>
     <use xlink:href="#m9f5252d94c" x="218.113121" y="251.173342" style="fill: #833c00; stroke: #833c00; stroke-linejoin: miter"/>
     <use xlink:href="#m9f5252d94c" x="253.728715" y="256.116041" style="fill: #833c00; stroke: #833c00; stroke-linejoin: miter"/>
     <use xlink:href="#m9f5252d94c" x="289.344309" y="214.445292" style="fill: #833c00; stroke: #833c00; stroke-linejoin: miter"/>
     <use xlink:href="#m9f5252d94c" x="324.959903" y="252.942489" style="fill: #833c00; stroke: #833c00; stroke-linejoin: miter"/>
     <use xlink:href="#m9f5252d94c" x="360.575498" y="264.795015" style="fill: #833c00; stroke: #833c00; stroke-linejoin: miter"/>
     <use xlink:href="#m9f5252d94c" x="396.191092" y="208.49007" style="fill: #833c00; stroke: #833c00; stroke-linejoin: miter"/>
     <use xlink:href="#m9f5252d94c" x="431.806686" y="251.809232" style="fill: #833c00; stroke: #833c00; stroke-linejoin: miter"/>
     <use xlink:href="#m9f5252d94c" x="467.42228" y="209.679029" style="fill: #833c00; stroke: #833c00; stroke-linejoin: miter"/>
     <use xlink:href="#m9f5252d94c" x="503.037874" y="252.962986" style="fill: #833c00; stroke: #833c00; stroke-linejoin: miter"/>
     <use xlink:href="#m9f5252d94c" x="538.653468" y="202.336156" style="fill: #833c00; stroke: #833c00; stroke-linejoin: miter"/>
     <use xlink:href="#m9f5252d94c" x="574.269063" y="250.16317" style="fill: #833c00; stroke: #833c00; stroke-linejoin: miter"/>
     <use xlink:href="#m9f5252d94c" x="609.884657" y="221.7956" style="fill: #833c00; stroke: #833c00; stroke-linejoin: miter"/>
     <use xlink:href="#m9f5252d94c" x="645.500251" y="234.102684" style="fill: #833c00; stroke: #833c00; stroke-linejoin: miter"/>
     <use xlink:href="#m9f5252d94c" x="681.115845" y="247.309465" style="fill: #833c00; stroke: #833c00; stroke-linejoin: miter"/>
     <use xlink:href="#m9f5252d94c" x="716.731439" y="248.900379" style="fill: #833c00; stroke: #833c00; stroke-linejoin: miter"/>
     <use xlink:href="#m9f5252d94c" x="752.347033" y="201.26148" style="fill: #833c00; stroke: #833c00; stroke-linejoin: miter"/>
     <use xlink:href="#m9f5252d94c" x="787.962627" y="245.793372" style="fill: #833c00; stroke: #833c00; stroke-linejoin: miter"/>
     <use xlink:href="#m9f5252d94c" x="823.578222" y="262.493351" style="fill: #833c00; stroke: #833c00; stroke-linejoin: miter"/>
     <use xlink:href="#m9f5252d94c" x="859.193816" y="253.114531" style="fill: #833c00; stroke: #833c00; stroke-linejoin: miter"/>
     <use xlink:href="#m9f5252d94c" x="894.80941" y="237.748013" style="fill: #833c00; stroke: #833c00; stroke-linejoin: miter"/>
     <use xlink:href="#m9f5252d94c" x="930.425004" y="226.036973" style="fill: #833c00; stroke: #833c00; stroke-linejoin: miter"/>
     <use xlink:href="#m9f5252d94c" x="966.040598" y="250.703807" style="fill: #833c00; stroke: #833c00; stroke-linejoin: miter"/>
     <use xlink:href="#m9f5252d94c" x="1001.656192" y="246.837564" style="fill: #833c00; stroke: #833c00; stroke-linejoin: miter"/>
     <use xlink:href="#m9f5252d94c" x="1037.271786" y="244.255834" style="fill: #833c00; stroke: #833c00; stroke-linejoin: miter"/>
    </g>
   </g>
   <g id="patch_64">
    <path d="M 51.254063 276.282806 
L 51.254063 23.551406 
" style="fill: none; stroke: #000000; stroke-width: 0.8; stroke-linejoin: miter; stroke-linecap: square"/>
   </g>
   <g id="patch_65">
    <path d="M 1097.284062 276.282806 
L 1097.284062 23.551406 
" style="fill: none; stroke: #000000; stroke-width: 0.8; stroke-linejoin: miter; stroke-linecap: square"/>
   </g>
   <g id="patch_66">
    <path d="M 51.254063 276.282806 
L 1097.284062 276.282806 
" style="fill: none; stroke: #000000; stroke-width: 0.8; stroke-linejoin: miter; stroke-linecap: square"/>
   </g>
   <g id="patch_67">
    <path d="M 51.254063 23.551406 
L 1097.284062 23.551406 
" style="fill: none; stroke: #000000; stroke-width: 0.8; stroke-linejoin: miter; stroke-linecap: square"/>
   </g>
  </g>
 </g>
 <defs>
  <clipPath id="p4d291ae674">
   <rect x="51.254063" y="23.551406" width="1046.03" height="252.731399"/>
  </clipPath>
 </defs>
</svg>
