<?xml version="1.0" encoding="utf-8" standalone="no"?>
<!DOCTYPE svg PUBLIC "-//W3C//DTD SVG 1.1//EN"
  "http://www.w3.org/Graphics/SVG/1.1/DTD/svg11.dtd">
<svg xmlns:xlink="http://www.w3.org/1999/xlink" width="712.55pt" height="316.283671pt" viewBox="0 0 712.55 316.283671" xmlns="http://www.w3.org/2000/svg" version="1.1">
 <metadata>
  <rdf:RDF xmlns:dc="http://purl.org/dc/elements/1.1/" xmlns:cc="http://creativecommons.org/ns#" xmlns:rdf="http://www.w3.org/1999/02/22-rdf-syntax-ns#">
   <cc:Work>
    <dc:type rdf:resource="http://purl.org/dc/dcmitype/StillImage"/>
    <dc:date>2026-04-24T10:22:24.543899</dc:date>
    <dc:format>image/svg+xml</dc:format>
    <dc:creator>
     <cc:Agent>
      <dc:title>Matplotlib v3.10.9, https://matplotlib.org/</dc:title>
     </cc:Agent>
    </dc:creator>
   </cc:Work>
  </rdf:RDF>
 </metadata>
 <defs>
  <style type="text/css">*{stroke-linejoin: round; stroke-linecap: butt}</style>
 </defs>
 <g id="figure_1">
  <g id="patch_1">
   <path d="M 0 316.283671 
L 712.55 316.283671 
L 712.55 0 
L 0 0 
z
" style="fill: #ffffff"/>
  </g>
  <g id="axes_1">
   <g id="patch_2">
    <path d="M 51.254063 276.519993 
L 661.414062 276.519993 
L 661.414062 23.788594 
L 51.254063 23.788594 
z
" style="fill: #ffffff"/>
   </g>
   <g id="patch_3">
    <path d="M 78.988608 276.519993 
L 95.581926 276.519993 
L 95.581926 206.683913 
L 78.988608 206.683913 
z
" clip-path="url(#pa258831426)" style="fill: #4472c4; opacity: 0.85"/>
   </g>
   <g id="patch_4">
    <path d="M 126.398087 276.519993 
L 142.991405 276.519993 
L 142.991405 263.177611 
L 126.398087 263.177611 
z
" clip-path="url(#pa258831426)" style="fill: #4472c4; opacity: 0.85"/>
   </g>
   <g id="patch_5">
    <path d="M 173.807567 276.519993 
L 190.400885 276.519993 
L 190.400885 199.98809 
L 173.807567 199.98809 
z
" clip-path="url(#pa258831426)" style="fill: #4472c4; opacity: 0.85"/>
   </g>
   <g id="patch_6">
    <path d="M 221.217046 276.519993 
L 237.810364 276.519993 
L 237.810364 212.492981 
L 221.217046 212.492981 
z
" clip-path="url(#pa258831426)" style="fill: #4472c4; opacity: 0.85"/>
   </g>
   <g id="patch_7">
    <path d="M 268.626526 276.519993 
L 285.219843 276.519993 
L 285.219843 250.036391 
L 268.626526 250.036391 
z
" clip-path="url(#pa258831426)" style="fill: #4472c4; opacity: 0.85"/>
   </g>
   <g id="patch_8">
    <path d="M 316.036005 276.519993 
L 332.629323 276.519993 
L 332.629323 247.060014 
L 316.036005 247.060014 
z
" clip-path="url(#pa258831426)" style="fill: #4472c4; opacity: 0.85"/>
   </g>
   <g id="patch_9">
    <path d="M 363.445484 276.519993 
L 380.038802 276.519993 
L 380.038802 268.05887 
L 363.445484 268.05887 
z
" clip-path="url(#pa258831426)" style="fill: #4472c4; opacity: 0.85"/>
   </g>
   <g id="patch_10">
    <path d="M 410.854964 276.519993 
L 427.448282 276.519993 
L 427.448282 255.44724 
L 410.854964 255.44724 
z
" clip-path="url(#pa258831426)" style="fill: #4472c4; opacity: 0.85"/>
   </g>
   <g id="patch_11">
    <path d="M 458.264443 276.519993 
L 474.857761 276.519993 
L 474.857761 246.144521 
L 458.264443 246.144521 
z
" clip-path="url(#pa258831426)" style="fill: #4472c4; opacity: 0.85"/>
   </g>
   <g id="patch_12">
    <path d="M 505.673923 276.519993 
L 522.26724 276.519993 
L 522.26724 234.899972 
L 505.673923 234.899972 
z
" clip-path="url(#pa258831426)" style="fill: #4472c4; opacity: 0.85"/>
   </g>
   <g id="patch_13">
    <path d="M 553.083402 276.519993 
L 569.67672 276.519993 
L 569.67672 135.977499 
L 553.083402 135.977499 
z
" clip-path="url(#pa258831426)" style="fill: #4472c4; opacity: 0.85"/>
   </g>
   <g id="patch_14">
    <path d="M 600.492881 276.519993 
L 617.086199 276.519993 
L 617.086199 35.823422 
L 600.492881 35.823422 
z
" clip-path="url(#pa258831426)" style="fill: #4472c4; opacity: 0.85"/>
   </g>
   <g id="patch_15">
    <path d="M 95.581926 276.519993 
L 112.175244 276.519993 
L 112.175244 265.242601 
L 95.581926 265.242601 
z
" clip-path="url(#pa258831426)" style="fill: #ed7d31; opacity: 0.85"/>
   </g>
   <g id="patch_16">
    <path d="M 142.991405 276.519993 
L 159.584723 276.519993 
L 159.584723 268.026028 
L 142.991405 268.026028 
z
" clip-path="url(#pa258831426)" style="fill: #ed7d31; opacity: 0.85"/>
   </g>
   <g id="patch_17">
    <path d="M 190.400885 276.519993 
L 206.994202 276.519993 
L 206.994202 264.745854 
L 190.400885 264.745854 
z
" clip-path="url(#pa258831426)" style="fill: #ed7d31; opacity: 0.85"/>
   </g>
   <g id="patch_18">
    <path d="M 237.810364 276.519993 
L 254.403682 276.519993 
L 254.403682 265.591556 
L 237.810364 265.591556 
z
" clip-path="url(#pa258831426)" style="fill: #ed7d31; opacity: 0.85"/>
   </g>
   <g id="patch_19">
    <path d="M 285.219843 276.519993 
L 301.813161 276.519993 
L 301.813161 261.929585 
L 285.219843 261.929585 
z
" clip-path="url(#pa258831426)" style="fill: #ed7d31; opacity: 0.85"/>
   </g>
   <g id="patch_20">
    <path d="M 332.629323 276.519993 
L 349.222641 276.519993 
L 349.222641 269.220684 
L 332.629323 269.220684 
z
" clip-path="url(#pa258831426)" style="fill: #ed7d31; opacity: 0.85"/>
   </g>
   <g id="patch_21">
    <path d="M 380.038802 276.519993 
L 396.63212 276.519993 
L 396.63212 260.406501 
L 380.038802 260.406501 
z
" clip-path="url(#pa258831426)" style="fill: #ed7d31; opacity: 0.85"/>
   </g>
   <g id="patch_22">
    <path d="M 427.448282 276.519993 
L 444.041599 276.519993 
L 444.041599 262.906658 
L 427.448282 262.906658 
z
" clip-path="url(#pa258831426)" style="fill: #ed7d31; opacity: 0.85"/>
   </g>
   <g id="patch_23">
    <path d="M 474.857761 276.519993 
L 491.451079 276.519993 
L 491.451079 269.076997 
L 474.857761 269.076997 
z
" clip-path="url(#pa258831426)" style="fill: #ed7d31; opacity: 0.85"/>
   </g>
   <g id="patch_24">
    <path d="M 522.26724 276.519993 
L 538.860558 276.519993 
L 538.860558 270.472815 
L 522.26724 270.472815 
z
" clip-path="url(#pa258831426)" style="fill: #ed7d31; opacity: 0.85"/>
   </g>
   <g id="patch_25">
    <path d="M 569.67672 276.519993 
L 586.270038 276.519993 
L 586.270038 269.302791 
L 569.67672 269.302791 
z
" clip-path="url(#pa258831426)" style="fill: #ed7d31; opacity: 0.85"/>
   </g>
   <g id="patch_26">
    <path d="M 617.086199 276.519993 
L 633.679517 276.519993 
L 633.679517 270.456394 
L 617.086199 270.456394 
z
" clip-path="url(#pa258831426)" style="fill: #ed7d31; opacity: 0.85"/>
   </g>
   <g id="matplotlib.axis_1">
    <g id="xtick_1">
     <g id="line2d_1">
      <defs>
       <path id="m982359c859" d="M 0 0 
L 0 3.5 
" style="stroke: #000000; stroke-width: 0.8"/>
      </defs>
      <g>
       <use xlink:href="#m982359c859" x="95.581926" y="276.519993" style="stroke: #000000; stroke-width: 0.8"/>
      </g>
     </g>
     <g id="text_1">
      <!-- 2024.01 -->
      <g transform="translate(74.313038 307.746355) rotate(-45) scale(0.08 -0.08)">
       <defs>
        <path id="MalgunGothic-32" d="M 2519 3372 
Q 2519 3784 2275 4018 
Q 2031 4253 1628 4253 
Q 1341 4253 1053 4104 
Q 766 3956 534 3697 
L 534 4234 
Q 981 4675 1691 4675 
Q 2281 4675 2642 4334 
Q 3003 3994 3003 3416 
Q 3003 2919 2772 2545 
Q 2541 2172 1984 1775 
Q 1459 1406 1254 1215 
Q 1050 1025 967 854 
Q 884 684 884 450 
L 3116 450 
L 3116 0 
L 356 0 
L 356 225 
Q 356 603 461 870 
Q 566 1138 811 1392 
Q 1056 1647 1597 2022 
Q 2091 2363 2305 2670 
Q 2519 2978 2519 3372 
z
" transform="scale(0.015625)"/>
        <path id="MalgunGothic-30" d="M 278 2206 
Q 278 3425 675 4050 
Q 1072 4675 1819 4675 
Q 3253 4675 3253 2319 
Q 3253 1156 2854 539 
Q 2456 -78 1716 -78 
Q 1016 -78 647 520 
Q 278 1119 278 2206 
z
M 784 2231 
Q 784 344 1769 344 
Q 2747 344 2747 2259 
Q 2747 4250 1794 4250 
Q 784 4250 784 2231 
z
" transform="scale(0.015625)"/>
        <path id="MalgunGothic-34" d="M 2703 4600 
L 2703 1563 
L 3309 1563 
L 3309 1113 
L 2703 1113 
L 2703 0 
L 2213 0 
L 2213 1113 
L 50 1113 
L 50 1534 
Q 728 2297 1295 3109 
Q 1863 3922 2172 4600 
L 2703 4600 
z
M 625 1563 
L 2213 1563 
L 2213 3831 
Q 1613 2788 959 1981 
L 625 1563 
z
" transform="scale(0.015625)"/>
        <path id="MalgunGothic-2e" d="M 356 275 
Q 356 422 459 523 
Q 563 625 700 625 
Q 838 625 941 523 
Q 1044 422 1044 275 
Q 1044 138 942 33 
Q 841 -72 700 -72 
Q 559 -72 457 29 
Q 356 131 356 275 
z
" transform="scale(0.015625)"/>
        <path id="MalgunGothic-31" d="M 2231 0 
L 1734 0 
L 1734 3972 
Q 1591 3828 1266 3661 
Q 941 3494 672 3428 
L 672 3959 
Q 1016 4056 1409 4275 
Q 1803 4494 2031 4700 
L 2231 4700 
L 2231 0 
z
" transform="scale(0.015625)"/>
       </defs>
       <use xlink:href="#MalgunGothic-32"/>
       <use xlink:href="#MalgunGothic-30" transform="translate(55.078125 0)"/>
       <use xlink:href="#MalgunGothic-32" transform="translate(110.15625 0)"/>
       <use xlink:href="#MalgunGothic-34" transform="translate(165.234375 0)"/>
       <use xlink:href="#MalgunGothic-2e" transform="translate(220.3125 0)"/>
       <use xlink:href="#MalgunGothic-30" transform="translate(242.1875 0)"/>
       <use xlink:href="#MalgunGothic-31" transform="translate(297.265625 0)"/>
      </g>
     </g>
    </g>
    <g id="xtick_2">
     <g id="line2d_2">
      <g>
       <use xlink:href="#m982359c859" x="142.991405" y="276.519993" style="stroke: #000000; stroke-width: 0.8"/>
      </g>
     </g>
     <g id="text_2">
      <!-- 02 -->
      <g transform="translate(135.422711 294.046161) rotate(-45) scale(0.08 -0.08)">
       <use xlink:href="#MalgunGothic-30"/>
       <use xlink:href="#MalgunGothic-32" transform="translate(55.078125 0)"/>
      </g>
     </g>
    </g>
    <g id="xtick_3">
     <g id="line2d_3">
      <g>
       <use xlink:href="#m982359c859" x="190.400885" y="276.519993" style="stroke: #000000; stroke-width: 0.8"/>
      </g>
     </g>
     <g id="text_3">
      <!-- 03 -->
      <g transform="translate(182.83219 294.046161) rotate(-45) scale(0.08 -0.08)">
       <defs>
        <path id="MalgunGothic-33" d="M 416 719 
Q 891 344 1478 344 
Q 1959 344 2254 587 
Q 2550 831 2550 1247 
Q 2550 2169 1253 2169 
L 872 2169 
L 872 2591 
L 1234 2591 
Q 2388 2591 2388 3453 
Q 2388 4250 1509 4250 
Q 1022 4250 594 3916 
L 594 4413 
Q 1031 4675 1634 4675 
Q 2184 4675 2539 4372 
Q 2894 4069 2894 3581 
Q 2894 2678 1972 2409 
L 1972 2400 
Q 2469 2356 2764 2053 
Q 3059 1750 3059 1300 
Q 3059 672 2604 297 
Q 2150 -78 1450 -78 
Q 806 -78 416 169 
L 416 719 
z
" transform="scale(0.015625)"/>
       </defs>
       <use xlink:href="#MalgunGothic-30"/>
       <use xlink:href="#MalgunGothic-33" transform="translate(55.078125 0)"/>
      </g>
     </g>
    </g>
    <g id="xtick_4">
     <g id="line2d_4">
      <g>
       <use xlink:href="#m982359c859" x="237.810364" y="276.519993" style="stroke: #000000; stroke-width: 0.8"/>
      </g>
     </g>
     <g id="text_4">
      <!-- 04 -->
      <g transform="translate(230.24167 294.046161) rotate(-45) scale(0.08 -0.08)">
       <use xlink:href="#MalgunGothic-30"/>
       <use xlink:href="#MalgunGothic-34" transform="translate(55.078125 0)"/>
      </g>
     </g>
    </g>
    <g id="xtick_5">
     <g id="line2d_5">
      <g>
       <use xlink:href="#m982359c859" x="285.219843" y="276.519993" style="stroke: #000000; stroke-width: 0.8"/>
      </g>
     </g>
     <g id="text_5">
      <!-- 05 -->
      <g transform="translate(277.651149 294.046161) rotate(-45) scale(0.08 -0.08)">
       <defs>
        <path id="MalgunGothic-35" d="M 3072 1403 
Q 3072 722 2636 322 
Q 2200 -78 1469 -78 
Q 828 -78 516 113 
L 516 650 
Q 994 344 1475 344 
Q 1969 344 2270 630 
Q 2572 916 2572 1372 
Q 2572 1838 2265 2092 
Q 1959 2347 1381 2347 
Q 994 2347 603 2300 
L 759 4600 
L 2869 4600 
L 2869 4147 
L 1206 4147 
L 1106 2763 
Q 1347 2784 1547 2784 
Q 2263 2784 2667 2414 
Q 3072 2044 3072 1403 
z
" transform="scale(0.015625)"/>
       </defs>
       <use xlink:href="#MalgunGothic-30"/>
       <use xlink:href="#MalgunGothic-35" transform="translate(55.078125 0)"/>
      </g>
     </g>
    </g>
    <g id="xtick_6">
     <g id="line2d_6">
      <g>
       <use xlink:href="#m982359c859" x="332.629323" y="276.519993" style="stroke: #000000; stroke-width: 0.8"/>
      </g>
     </g>
     <g id="text_6">
      <!-- 06 -->
      <g transform="translate(325.060629 294.046161) rotate(-45) scale(0.08 -0.08)">
       <defs>
        <path id="MalgunGothic-36" d="M 2981 4069 
Q 2619 4250 2228 4250 
Q 1591 4250 1228 3689 
Q 866 3128 869 2213 
L 884 2213 
Q 1203 2872 1938 2872 
Q 2547 2872 2903 2478 
Q 3259 2084 3259 1450 
Q 3259 797 2857 359 
Q 2456 -78 1825 -78 
Q 1116 -78 736 478 
Q 356 1034 356 2019 
Q 356 3181 847 3928 
Q 1338 4675 2222 4675 
Q 2700 4675 2981 4544 
L 2981 4069 
z
M 906 1506 
Q 906 1022 1165 683 
Q 1425 344 1844 344 
Q 2247 344 2498 645 
Q 2750 947 2750 1388 
Q 2750 1888 2509 2167 
Q 2269 2447 1838 2447 
Q 1444 2447 1175 2173 
Q 906 1900 906 1506 
z
" transform="scale(0.015625)"/>
       </defs>
       <use xlink:href="#MalgunGothic-30"/>
       <use xlink:href="#MalgunGothic-36" transform="translate(55.078125 0)"/>
      </g>
     </g>
    </g>
    <g id="xtick_7">
     <g id="line2d_7">
      <g>
       <use xlink:href="#m982359c859" x="380.038802" y="276.519993" style="stroke: #000000; stroke-width: 0.8"/>
      </g>
     </g>
     <g id="text_7">
      <!-- 07 -->
      <g transform="translate(372.470108 294.046161) rotate(-45) scale(0.08 -0.08)">
       <defs>
        <path id="MalgunGothic-37" d="M 3213 4297 
Q 2478 3006 2064 1918 
Q 1650 831 1550 0 
L 1009 0 
Q 1084 531 1290 1176 
Q 1497 1822 1815 2537 
Q 2134 3253 2631 4147 
L 291 4147 
L 291 4600 
L 3213 4600 
L 3213 4297 
z
" transform="scale(0.015625)"/>
       </defs>
       <use xlink:href="#MalgunGothic-30"/>
       <use xlink:href="#MalgunGothic-37" transform="translate(55.078125 0)"/>
      </g>
     </g>
    </g>
    <g id="xtick_8">
     <g id="line2d_8">
      <g>
       <use xlink:href="#m982359c859" x="427.448282" y="276.519993" style="stroke: #000000; stroke-width: 0.8"/>
      </g>
     </g>
     <g id="text_8">
      <!-- 08 -->
      <g transform="translate(419.879587 294.046161) rotate(-45) scale(0.08 -0.08)">
       <defs>
        <path id="MalgunGothic-38" d="M 303 1281 
Q 303 1669 539 2011 
Q 775 2353 1153 2494 
Q 856 2647 675 2915 
Q 494 3184 494 3500 
Q 494 3828 659 4098 
Q 825 4369 1122 4522 
Q 1419 4675 1778 4675 
Q 2334 4675 2700 4342 
Q 3066 4009 3066 3500 
Q 3066 3181 2881 2914 
Q 2697 2647 2413 2494 
Q 2788 2350 3022 2009 
Q 3256 1669 3256 1281 
Q 3256 672 2843 297 
Q 2431 -78 1778 -78 
Q 1131 -78 717 301 
Q 303 681 303 1281 
z
M 809 1328 
Q 809 878 1081 611 
Q 1353 344 1781 344 
Q 2206 344 2482 619 
Q 2759 894 2759 1328 
Q 2759 1731 2482 2011 
Q 2206 2291 1781 2291 
Q 1372 2291 1090 2020 
Q 809 1750 809 1328 
z
M 1003 3459 
Q 1003 3125 1234 2900 
Q 1466 2675 1781 2675 
Q 2097 2675 2330 2900 
Q 2563 3125 2563 3459 
Q 2563 3803 2341 4026 
Q 2119 4250 1781 4250 
Q 1450 4250 1226 4029 
Q 1003 3809 1003 3459 
z
" transform="scale(0.015625)"/>
       </defs>
       <use xlink:href="#MalgunGothic-30"/>
       <use xlink:href="#MalgunGothic-38" transform="translate(55.078125 0)"/>
      </g>
     </g>
    </g>
    <g id="xtick_9">
     <g id="line2d_9">
      <g>
       <use xlink:href="#m982359c859" x="474.857761" y="276.519993" style="stroke: #000000; stroke-width: 0.8"/>
      </g>
     </g>
     <g id="text_9">
      <!-- 09 -->
      <g transform="translate(467.289067 294.046161) rotate(-45) scale(0.08 -0.08)">
       <defs>
        <path id="MalgunGothic-39" d="M 556 563 
Q 941 344 1366 344 
Q 1994 344 2347 855 
Q 2700 1366 2700 2313 
Q 2694 2306 2688 2313 
Q 2388 1713 1653 1713 
Q 1059 1713 682 2120 
Q 306 2528 306 3144 
Q 306 3806 711 4240 
Q 1116 4675 1772 4675 
Q 2466 4675 2833 4131 
Q 3200 3588 3200 2578 
Q 3200 1319 2717 620 
Q 2234 -78 1344 -78 
Q 881 -78 556 78 
L 556 563 
z
M 813 3219 
Q 813 2741 1063 2450 
Q 1313 2159 1759 2159 
Q 2147 2159 2406 2417 
Q 2666 2675 2666 3047 
Q 2666 3556 2411 3903 
Q 2156 4250 1725 4250 
Q 1322 4250 1067 3948 
Q 813 3647 813 3219 
z
" transform="scale(0.015625)"/>
       </defs>
       <use xlink:href="#MalgunGothic-30"/>
       <use xlink:href="#MalgunGothic-39" transform="translate(55.078125 0)"/>
      </g>
     </g>
    </g>
    <g id="xtick_10">
     <g id="line2d_10">
      <g>
       <use xlink:href="#m982359c859" x="522.26724" y="276.519993" style="stroke: #000000; stroke-width: 0.8"/>
      </g>
     </g>
     <g id="text_10">
      <!-- 10 -->
      <g transform="translate(514.698546 294.046161) rotate(-45) scale(0.08 -0.08)">
       <use xlink:href="#MalgunGothic-31"/>
       <use xlink:href="#MalgunGothic-30" transform="translate(55.078125 0)"/>
      </g>
     </g>
    </g>
    <g id="xtick_11">
     <g id="line2d_11">
      <g>
       <use xlink:href="#m982359c859" x="569.67672" y="276.519993" style="stroke: #000000; stroke-width: 0.8"/>
      </g>
     </g>
     <g id="text_11">
      <!-- 11 -->
      <g transform="translate(562.108026 294.046161) rotate(-45) scale(0.08 -0.08)">
       <use xlink:href="#MalgunGothic-31"/>
       <use xlink:href="#MalgunGothic-31" transform="translate(55.078125 0)"/>
      </g>
     </g>
    </g>
    <g id="xtick_12">
     <g id="line2d_12">
      <g>
       <use xlink:href="#m982359c859" x="617.086199" y="276.519993" style="stroke: #000000; stroke-width: 0.8"/>
      </g>
     </g>
     <g id="text_12">
      <!-- 12 -->
      <g transform="translate(609.517505 294.046161) rotate(-45) scale(0.08 -0.08)">
       <use xlink:href="#MalgunGothic-31"/>
       <use xlink:href="#MalgunGothic-32" transform="translate(55.078125 0)"/>
      </g>
     </g>
    </g>
   </g>
   <g id="matplotlib.axis_2">
    <g id="ytick_1">
     <g id="line2d_13">
      <defs>
       <path id="mfd4f68c462" d="M 0 0 
L -3.5 0 
" style="stroke: #000000; stroke-width: 0.8"/>
      </defs>
      <g>
       <use xlink:href="#mfd4f68c462" x="51.254063" y="276.519993" style="stroke: #000000; stroke-width: 0.8"/>
      </g>
     </g>
     <g id="text_13">
      <!-- 0 -->
      <g transform="translate(39.847813 279.556868) scale(0.08 -0.08)">
       <use xlink:href="#MalgunGothic-30"/>
      </g>
     </g>
    </g>
    <g id="ytick_2">
     <g id="line2d_14">
      <g>
       <use xlink:href="#mfd4f68c462" x="51.254063" y="235.46651" style="stroke: #000000; stroke-width: 0.8"/>
      </g>
     </g>
     <g id="text_14">
      <!-- 10,000 -->
      <g transform="translate(20.472813 238.503385) scale(0.08 -0.08)">
       <defs>
        <path id="MalgunGothic-2c" d="M 988 725 
L 472 -850 
L 125 -850 
L 503 725 
L 988 725 
z
" transform="scale(0.015625)"/>
       </defs>
       <use xlink:href="#MalgunGothic-31"/>
       <use xlink:href="#MalgunGothic-30" transform="translate(55.078125 0)"/>
       <use xlink:href="#MalgunGothic-2c" transform="translate(110.15625 0)"/>
       <use xlink:href="#MalgunGothic-30" transform="translate(132.03125 0)"/>
       <use xlink:href="#MalgunGothic-30" transform="translate(187.109375 0)"/>
       <use xlink:href="#MalgunGothic-30" transform="translate(242.1875 0)"/>
      </g>
     </g>
    </g>
    <g id="ytick_3">
     <g id="line2d_15">
      <g>
       <use xlink:href="#mfd4f68c462" x="51.254063" y="194.413027" style="stroke: #000000; stroke-width: 0.8"/>
      </g>
     </g>
     <g id="text_15">
      <!-- 20,000 -->
      <g transform="translate(20.472813 197.449902) scale(0.08 -0.08)">
       <use xlink:href="#MalgunGothic-32"/>
       <use xlink:href="#MalgunGothic-30" transform="translate(55.078125 0)"/>
       <use xlink:href="#MalgunGothic-2c" transform="translate(110.15625 0)"/>
       <use xlink:href="#MalgunGothic-30" transform="translate(132.03125 0)"/>
       <use xlink:href="#MalgunGothic-30" transform="translate(187.109375 0)"/>
       <use xlink:href="#MalgunGothic-30" transform="translate(242.1875 0)"/>
      </g>
     </g>
    </g>
    <g id="ytick_4">
     <g id="line2d_16">
      <g>
       <use xlink:href="#mfd4f68c462" x="51.254063" y="153.359544" style="stroke: #000000; stroke-width: 0.8"/>
      </g>
     </g>
     <g id="text_16">
      <!-- 30,000 -->
      <g transform="translate(20.472813 156.396419) scale(0.08 -0.08)">
       <use xlink:href="#MalgunGothic-33"/>
       <use xlink:href="#MalgunGothic-30" transform="translate(55.078125 0)"/>
       <use xlink:href="#MalgunGothic-2c" transform="translate(110.15625 0)"/>
       <use xlink:href="#MalgunGothic-30" transform="translate(132.03125 0)"/>
       <use xlink:href="#MalgunGothic-30" transform="translate(187.109375 0)"/>
       <use xlink:href="#MalgunGothic-30" transform="translate(242.1875 0)"/>
      </g>
     </g>
    </g>
    <g id="ytick_5">
     <g id="line2d_17">
      <g>
       <use xlink:href="#mfd4f68c462" x="51.254063" y="112.306061" style="stroke: #000000; stroke-width: 0.8"/>
      </g>
     </g>
     <g id="text_17">
      <!-- 40,000 -->
      <g transform="translate(20.472813 115.342936) scale(0.08 -0.08)">
       <use xlink:href="#MalgunGothic-34"/>
       <use xlink:href="#MalgunGothic-30" transform="translate(55.078125 0)"/>
       <use xlink:href="#MalgunGothic-2c" transform="translate(110.15625 0)"/>
       <use xlink:href="#MalgunGothic-30" transform="translate(132.03125 0)"/>
       <use xlink:href="#MalgunGothic-30" transform="translate(187.109375 0)"/>
       <use xlink:href="#MalgunGothic-30" transform="translate(242.1875 0)"/>
      </g>
     </g>
    </g>
    <g id="ytick_6">
     <g id="line2d_18">
      <g>
       <use xlink:href="#mfd4f68c462" x="51.254063" y="71.252578" style="stroke: #000000; stroke-width: 0.8"/>
      </g>
     </g>
     <g id="text_18">
      <!-- 50,000 -->
      <g transform="translate(20.472813 74.289453) scale(0.08 -0.08)">
       <use xlink:href="#MalgunGothic-35"/>
       <use xlink:href="#MalgunGothic-30" transform="translate(55.078125 0)"/>
       <use xlink:href="#MalgunGothic-2c" transform="translate(110.15625 0)"/>
       <use xlink:href="#MalgunGothic-30" transform="translate(132.03125 0)"/>
       <use xlink:href="#MalgunGothic-30" transform="translate(187.109375 0)"/>
       <use xlink:href="#MalgunGothic-30" transform="translate(242.1875 0)"/>
      </g>
     </g>
    </g>
    <g id="ytick_7">
     <g id="line2d_19">
      <g>
       <use xlink:href="#mfd4f68c462" x="51.254063" y="30.199095" style="stroke: #000000; stroke-width: 0.8"/>
      </g>
     </g>
     <g id="text_19">
      <!-- 60,000 -->
      <g transform="translate(20.472813 33.23597) scale(0.08 -0.08)">
       <use xlink:href="#MalgunGothic-36"/>
       <use xlink:href="#MalgunGothic-30" transform="translate(55.078125 0)"/>
       <use xlink:href="#MalgunGothic-2c" transform="translate(110.15625 0)"/>
       <use xlink:href="#MalgunGothic-30" transform="translate(132.03125 0)"/>
       <use xlink:href="#MalgunGothic-30" transform="translate(187.109375 0)"/>
       <use xlink:href="#MalgunGothic-30" transform="translate(242.1875 0)"/>
      </g>
     </g>
    </g>
    <g id="text_20">
     <!-- 수출입 (천$) -->
     <g transform="translate(14.345156 174.957028) rotate(-90) scale(0.09 -0.09)">
      <defs>
       <path id="MalgunGothic-c218" d="M 5491 2994 
Q 4750 3097 4078 3498 
Q 3406 3900 3200 4275 
Q 2975 3891 2309 3491 
Q 1644 3091 922 2956 
L 634 3347 
Q 1559 3450 2261 3942 
Q 2963 4434 2963 5013 
L 2963 5275 
L 3431 5275 
L 3431 5013 
Q 3431 4431 4118 3948 
Q 4806 3466 5766 3378 
L 5491 2994 
z
M 3431 1838 
L 3431 -563 
L 2963 -563 
L 2963 1838 
L 403 1838 
L 403 2253 
L 5997 2253 
L 5997 1838 
L 3431 1838 
z
" transform="scale(0.015625)"/>
       <path id="MalgunGothic-cd9c" d="M 5466 3334 
Q 4759 3400 4114 3664 
Q 3469 3928 3213 4225 
Q 2966 3931 2323 3670 
Q 1681 3409 966 3341 
L 709 3750 
Q 1328 3725 2017 3970 
Q 2706 4216 2906 4603 
L 1056 4603 
L 1056 5019 
L 2969 5019 
L 2969 5550 
L 3444 5550 
L 3444 5019 
L 5344 5019 
L 5344 4603 
L 3494 4603 
Q 3691 4241 4356 3995 
Q 5022 3750 5691 3750 
L 5466 3334 
z
M 1319 -416 
L 1319 947 
L 4616 947 
L 4616 1478 
L 1319 1478 
L 1319 1888 
L 2963 1888 
L 2963 2484 
L 403 2484 
L 403 2900 
L 5997 2900 
L 5997 2484 
L 3438 2484 
L 3438 1888 
L 5075 1888 
L 5075 544 
L 1778 544 
L 1778 0 
L 5234 0 
L 5234 -416 
L 1319 -416 
z
" transform="scale(0.015625)"/>
       <path id="MalgunGothic-c785" d="M 4947 2400 
L 4947 5466 
L 5416 5466 
L 5416 2400 
L 4947 2400 
z
M 2406 2559 
Q 1731 2559 1304 2959 
Q 878 3359 878 3969 
Q 878 4575 1303 4972 
Q 1728 5369 2406 5369 
Q 3081 5369 3509 4973 
Q 3938 4578 3938 3969 
Q 3938 3356 3508 2957 
Q 3078 2559 2406 2559 
z
M 2406 4966 
Q 1922 4966 1633 4689 
Q 1344 4413 1344 3969 
Q 1344 3522 1631 3242 
Q 1919 2963 2406 2963 
Q 2894 2963 3181 3242 
Q 3469 3522 3469 3969 
Q 3469 4413 3180 4689 
Q 2891 4966 2406 4966 
z
M 1709 -397 
L 1709 2069 
L 2169 2069 
L 2169 1203 
L 4953 1203 
L 4953 2069 
L 5416 2069 
L 5416 -397 
L 1709 -397 
z
M 4953 794 
L 2169 794 
L 2169 13 
L 4953 13 
L 4953 794 
z
" transform="scale(0.015625)"/>
       <path id="MalgunGothic-20" transform="scale(0.015625)"/>
       <path id="MalgunGothic-28" d="M 1438 -1044 
Q 447 88 447 1753 
Q 447 3431 1438 4600 
L 1888 4600 
Q 878 3372 878 1759 
Q 878 153 1881 -1044 
L 1438 -1044 
z
" transform="scale(0.015625)"/>
       <path id="MalgunGothic-cc9c" d="M 4884 1056 
L 4884 3278 
L 3541 3278 
L 3541 3694 
L 4884 3694 
L 4884 5466 
L 5350 5466 
L 5350 1056 
L 4884 1056 
z
M 3756 1881 
Q 3306 2091 2892 2470 
Q 2478 2850 2297 3200 
Q 2109 2797 1686 2380 
Q 1263 1963 831 1747 
L 488 2106 
Q 1100 2319 1576 2876 
Q 2053 3434 2053 3916 
L 2053 4347 
L 678 4347 
L 678 4763 
L 2059 4763 
L 2059 5459 
L 2528 5459 
L 2528 4763 
L 3897 4763 
L 3897 4347 
L 2528 4347 
L 2528 3922 
Q 2528 3456 3006 2948 
Q 3484 2441 4072 2266 
L 3756 1881 
z
M 1638 -366 
L 1638 1581 
L 2113 1581 
L 2113 44 
L 5509 44 
L 5509 -366 
L 1638 -366 
z
" transform="scale(0.015625)"/>
       <path id="MalgunGothic-24" d="M 1963 -672 
L 1638 -672 
L 1638 0 
Q 953 0 534 272 
L 534 809 
Q 703 653 1039 537 
Q 1375 422 1638 428 
L 1638 2103 
Q 922 2453 725 2731 
Q 528 3009 528 3400 
Q 528 3841 842 4192 
Q 1156 4544 1638 4603 
L 1638 5181 
L 1963 5181 
L 1963 4616 
Q 2594 4597 2822 4441 
L 2822 3916 
Q 2509 4172 1963 4188 
L 1963 2466 
Q 2497 2200 2803 1912 
Q 3109 1625 3109 1181 
Q 3109 725 2804 420 
Q 2500 116 1963 28 
L 1963 -672 
z
M 1638 4172 
Q 1044 4031 1044 3469 
Q 1044 3222 1136 3056 
Q 1228 2891 1638 2644 
L 1638 4172 
z
M 1963 453 
Q 2591 594 2591 1134 
Q 2591 1588 1963 1934 
L 1963 453 
z
" transform="scale(0.015625)"/>
       <path id="MalgunGothic-29" d="M 81 -1044 
Q 1081 150 1081 1759 
Q 1081 3378 72 4600 
L 525 4600 
Q 1522 3431 1522 1753 
Q 1522 88 525 -1044 
L 81 -1044 
z
" transform="scale(0.015625)"/>
      </defs>
      <use xlink:href="#MalgunGothic-c218"/>
      <use xlink:href="#MalgunGothic-cd9c" transform="translate(100 0)"/>
      <use xlink:href="#MalgunGothic-c785" transform="translate(200 0)"/>
      <use xlink:href="#MalgunGothic-20" transform="translate(300 0)"/>
      <use xlink:href="#MalgunGothic-28" transform="translate(335.15625 0)"/>
      <use xlink:href="#MalgunGothic-cc9c" transform="translate(365.625 0)"/>
      <use xlink:href="#MalgunGothic-24" transform="translate(465.625 0)"/>
      <use xlink:href="#MalgunGothic-29" transform="translate(520.703125 0)"/>
     </g>
    </g>
   </g>
   <g id="patch_27">
    <path d="M 51.254063 276.519993 
L 51.254063 23.788594 
" style="fill: none; stroke: #000000; stroke-width: 0.8; stroke-linejoin: miter; stroke-linecap: square"/>
   </g>
   <g id="patch_28">
    <path d="M 661.414062 276.519993 
L 661.414062 23.788594 
" style="fill: none; stroke: #000000; stroke-width: 0.8; stroke-linejoin: miter; stroke-linecap: square"/>
   </g>
   <g id="patch_29">
    <path d="M 51.254063 276.519993 
L 661.414062 276.519993 
" style="fill: none; stroke: #000000; stroke-width: 0.8; stroke-linejoin: miter; stroke-linecap: square"/>
   </g>
   <g id="patch_30">
    <path d="M 51.254063 23.788594 
L 661.414062 23.788594 
" style="fill: none; stroke: #000000; stroke-width: 0.8; stroke-linejoin: miter; stroke-linecap: square"/>
   </g>
   <g id="text_21">
    <!-- HS 841950 — 열교환기 [전북 군산시] -->
    <g transform="translate(263.023984 15.788594) scale(0.11 -0.11)">
     <defs>
      <path id="MalgunGothic-48" d="M 4028 0 
L 3525 0 
L 3525 2109 
L 1113 2109 
L 1113 0 
L 609 0 
L 609 4600 
L 1113 4600 
L 1113 2569 
L 3525 2569 
L 3525 4600 
L 4028 4600 
L 4028 0 
z
" transform="scale(0.015625)"/>
      <path id="MalgunGothic-53" d="M 394 797 
Q 606 613 964 500 
Q 1322 388 1625 388 
Q 2628 388 2628 1116 
Q 2628 1325 2523 1484 
Q 2419 1644 2250 1756 
Q 2081 1869 1547 2144 
Q 903 2475 651 2754 
Q 400 3034 400 3456 
Q 400 4019 858 4347 
Q 1316 4675 1988 4675 
Q 2669 4675 2963 4513 
L 2963 3928 
Q 2563 4206 1922 4206 
Q 1484 4206 1207 4018 
Q 931 3831 931 3500 
Q 931 3200 1126 3011 
Q 1322 2822 1938 2522 
Q 2656 2163 2906 1844 
Q 3156 1525 3156 1153 
Q 3156 556 2725 239 
Q 2294 -78 1531 -78 
Q 1291 -78 927 -1 
Q 563 75 394 188 
L 394 797 
z
" transform="scale(0.015625)"/>
      <path id="MalgunGothic-2014" d="M 6566 1634 
L 0 1634 
L 0 2031 
L 6566 2031 
L 6566 1634 
z
" transform="scale(0.015625)"/>
      <path id="MalgunGothic-c5f4" d="M 3647 3047 
Q 3184 2463 2400 2463 
Q 1738 2463 1305 2889 
Q 872 3316 872 3938 
Q 872 4556 1305 4982 
Q 1738 5409 2400 5409 
Q 3216 5409 3675 4794 
L 4947 4794 
L 4947 5466 
L 5416 5466 
L 5416 2272 
L 4947 2272 
L 4947 3047 
L 3647 3047 
z
M 2400 5006 
Q 1922 5006 1626 4698 
Q 1331 4391 1331 3938 
Q 1331 3481 1628 3170 
Q 1925 2859 2400 2859 
Q 2875 2859 3175 3168 
Q 3475 3478 3475 3938 
Q 3475 4394 3176 4700 
Q 2878 5006 2400 5006 
z
M 3866 3450 
L 4947 3450 
L 4947 4391 
L 3878 4391 
Q 3950 4163 3950 3938 
Q 3950 3709 3866 3450 
z
M 1728 -422 
L 1728 991 
L 4953 991 
L 4953 1528 
L 1728 1528 
L 1728 1941 
L 5416 1941 
L 5416 581 
L 2188 581 
L 2188 -6 
L 5581 -6 
L 5581 -422 
L 1728 -422 
z
" transform="scale(0.015625)"/>
      <path id="MalgunGothic-ad50" d="M 5088 1631 
L 4628 1684 
Q 4716 2581 4716 3597 
L 4716 4475 
L 1131 4475 
L 1131 4897 
L 5197 4897 
L 5197 3597 
Q 5197 2713 5088 1631 
z
M 403 459 
L 403 884 
L 1850 884 
L 1850 2931 
L 2309 2931 
L 2309 884 
L 3378 884 
L 3378 2931 
L 3841 2931 
L 3841 884 
L 5997 884 
L 5997 459 
L 403 459 
z
" transform="scale(0.015625)"/>
      <path id="MalgunGothic-d658" d="M 5216 2663 
L 5216 838 
L 4750 838 
L 4750 5466 
L 5216 5466 
L 5216 3078 
L 6119 3078 
L 6119 2663 
L 5216 2663 
z
M 609 4378 
L 609 4788 
L 2156 4788 
L 2156 5453 
L 2619 5453 
L 2619 4788 
L 4159 4788 
L 4159 4378 
L 609 4378 
z
M 4347 1491 
Q 2450 1381 469 1381 
L 422 1791 
Q 1059 1791 2150 1819 
L 2150 2272 
Q 1544 2316 1214 2570 
Q 884 2825 884 3200 
Q 884 3625 1284 3883 
Q 1684 4141 2381 4141 
Q 3069 4141 3473 3870 
Q 3878 3600 3878 3200 
Q 3878 2825 3550 2570 
Q 3222 2316 2613 2272 
L 2613 1825 
Q 3663 1850 4319 1894 
L 4347 1491 
z
M 2381 3763 
Q 1897 3763 1620 3603 
Q 1344 3444 1344 3200 
Q 1344 2956 1623 2800 
Q 1903 2644 2381 2644 
Q 2859 2644 3139 2800 
Q 3419 2956 3419 3200 
Q 3419 3444 3142 3603 
Q 2866 3763 2381 3763 
z
M 1409 -488 
L 1409 1056 
L 1869 1056 
L 1869 -78 
L 5356 -78 
L 5356 -488 
L 1409 -488 
z
" transform="scale(0.015625)"/>
      <path id="MalgunGothic-ae30" d="M 4884 -563 
L 4884 5466 
L 5350 5466 
L 5350 -563 
L 4884 -563 
z
M 3675 4909 
Q 3653 3656 2956 2611 
Q 2259 1566 959 844 
L 603 1222 
Q 1559 1619 2293 2478 
Q 3028 3338 3175 4494 
L 850 4494 
L 850 4909 
L 3675 4909 
z
" transform="scale(0.015625)"/>
      <path id="MalgunGothic-5b" d="M 1797 -1044 
L 638 -1044 
L 638 4600 
L 1797 4600 
L 1797 4234 
L 1084 4234 
L 1084 -684 
L 1797 -684 
L 1797 -1044 
z
" transform="scale(0.015625)"/>
      <path id="MalgunGothic-c804" d="M 4878 1178 
L 4878 3525 
L 3469 3525 
L 3469 3944 
L 4878 3944 
L 4878 5466 
L 5344 5466 
L 5344 1178 
L 4878 1178 
z
M 3675 2069 
Q 3228 2344 2829 2776 
Q 2431 3209 2266 3566 
Q 2091 3150 1662 2648 
Q 1234 2147 819 1913 
L 481 2234 
Q 1125 2559 1573 3198 
Q 2022 3838 2022 4494 
L 2022 4716 
L 684 4716 
L 684 5141 
L 3788 5141 
L 3788 4716 
L 2478 4716 
L 2478 4494 
Q 2478 3894 2943 3286 
Q 3409 2678 3988 2406 
L 3675 2069 
z
M 1631 -366 
L 1631 1606 
L 2100 1606 
L 2100 44 
L 5503 44 
L 5503 -366 
L 1631 -366 
z
" transform="scale(0.015625)"/>
      <path id="MalgunGothic-bd81" d="M 1338 3175 
L 1338 5369 
L 1806 5369 
L 1806 4641 
L 4594 4641 
L 4594 5369 
L 5056 5369 
L 5056 3175 
L 1338 3175 
z
M 4594 4225 
L 1806 4225 
L 1806 3584 
L 4594 3584 
L 4594 4225 
z
M 4622 -563 
L 4622 1013 
L 1209 1013 
L 1209 1428 
L 2963 1428 
L 2963 2150 
L 403 2150 
L 403 2572 
L 5997 2572 
L 5997 2150 
L 3438 2150 
L 3438 1428 
L 5088 1428 
L 5088 -563 
L 4622 -563 
z
" transform="scale(0.015625)"/>
      <path id="MalgunGothic-ad70" d="M 3003 703 
L 3003 2497 
L 403 2497 
L 403 2919 
L 4581 2919 
Q 4634 3438 4634 4788 
L 1338 4788 
L 1338 5203 
L 5100 5203 
Q 5100 3819 5038 2919 
L 5997 2919 
L 5997 2497 
L 3469 2497 
L 3469 703 
L 3003 703 
z
M 1338 -300 
L 1338 1638 
L 1806 1638 
L 1806 122 
L 5216 122 
L 5216 -300 
L 1338 -300 
z
" transform="scale(0.015625)"/>
      <path id="MalgunGothic-c0b0" d="M 5125 3169 
L 5125 1081 
L 4659 1081 
L 4659 5466 
L 5125 5466 
L 5125 3584 
L 6034 3584 
L 6034 3169 
L 5125 3169 
z
M 3597 2081 
Q 3206 2294 2778 2731 
Q 2350 3169 2188 3525 
Q 2038 3125 1603 2642 
Q 1169 2159 750 1925 
L 409 2247 
Q 1041 2553 1492 3173 
Q 1944 3794 1953 4453 
L 1953 5228 
L 2400 5228 
L 2400 4453 
Q 2400 3841 2853 3259 
Q 3306 2678 3909 2419 
L 3597 2081 
z
M 1478 -353 
L 1478 1528 
L 1953 1528 
L 1953 72 
L 5325 72 
L 5325 -353 
L 1478 -353 
z
" transform="scale(0.015625)"/>
      <path id="MalgunGothic-c2dc" d="M 4947 -563 
L 4947 5466 
L 5416 5466 
L 5416 -563 
L 4947 -563 
z
M 3769 966 
Q 3263 1353 2820 1939 
Q 2378 2525 2259 2950 
Q 2116 2463 1687 1872 
Q 1259 1281 756 891 
L 397 1203 
Q 1141 1703 1581 2479 
Q 2022 3256 2022 4063 
L 2022 5050 
L 2484 5050 
L 2484 4084 
Q 2484 3303 2920 2556 
Q 3356 1809 4097 1331 
L 3769 966 
z
" transform="scale(0.015625)"/>
      <path id="MalgunGothic-5d" d="M 1322 -1044 
L 166 -1044 
L 166 -684 
L 878 -684 
L 878 4234 
L 166 4234 
L 166 4600 
L 1322 4600 
L 1322 -1044 
z
" transform="scale(0.015625)"/>
     </defs>
     <use xlink:href="#MalgunGothic-48"/>
     <use xlink:href="#MalgunGothic-53" transform="translate(72.460938 0)"/>
     <use xlink:href="#MalgunGothic-20" transform="translate(126.757812 0)"/>
     <use xlink:href="#MalgunGothic-38" transform="translate(161.914062 0)"/>
     <use xlink:href="#MalgunGothic-34" transform="translate(216.992188 0)"/>
     <use xlink:href="#MalgunGothic-31" transform="translate(272.070312 0)"/>
     <use xlink:href="#MalgunGothic-39" transform="translate(327.148438 0)"/>
     <use xlink:href="#MalgunGothic-35" transform="translate(382.226562 0)"/>
     <use xlink:href="#MalgunGothic-30" transform="translate(437.304688 0)"/>
     <use xlink:href="#MalgunGothic-20" transform="translate(492.382812 0)"/>
     <use xlink:href="#MalgunGothic-2014" transform="translate(527.539062 0)"/>
     <use xlink:href="#MalgunGothic-20" transform="translate(630.126953 0)"/>
     <use xlink:href="#MalgunGothic-c5f4" transform="translate(665.283203 0)"/>
     <use xlink:href="#MalgunGothic-ad50" transform="translate(765.283203 0)"/>
     <use xlink:href="#MalgunGothic-d658" transform="translate(865.283203 0)"/>
     <use xlink:href="#MalgunGothic-ae30" transform="translate(965.283203 0)"/>
     <use xlink:href="#MalgunGothic-20" transform="translate(1065.283203 0)"/>
     <use xlink:href="#MalgunGothic-5b" transform="translate(1100.439453 0)"/>
     <use xlink:href="#MalgunGothic-c804" transform="translate(1130.908203 0)"/>
     <use xlink:href="#MalgunGothic-bd81" transform="translate(1230.908203 0)"/>
     <use xlink:href="#MalgunGothic-20" transform="translate(1330.908203 0)"/>
     <use xlink:href="#MalgunGothic-ad70" transform="translate(1366.064453 0)"/>
     <use xlink:href="#MalgunGothic-c0b0" transform="translate(1466.064453 0)"/>
     <use xlink:href="#MalgunGothic-c2dc" transform="translate(1566.064453 0)"/>
     <use xlink:href="#MalgunGothic-5d" transform="translate(1666.064453 0)"/>
    </g>
   </g>
   <g id="legend_1">
    <g id="patch_31">
     <path d="M 56.854063 78.948594 
L 146.200313 78.948594 
Q 147.800313 78.948594 147.800313 77.348594 
L 147.800313 29.388594 
Q 147.800313 27.788594 146.200313 27.788594 
L 56.854063 27.788594 
Q 55.254063 27.788594 55.254063 29.388594 
L 55.254063 77.348594 
Q 55.254063 78.948594 56.854063 78.948594 
z
" style="fill: #ffffff; opacity: 0.7; stroke: #cccccc; stroke-linejoin: miter"/>
    </g>
    <g id="patch_32">
     <path d="M 58.454063 37.339844 
L 74.454063 37.339844 
L 74.454063 31.739844 
L 58.454063 31.739844 
z
" style="fill: #4472c4; opacity: 0.85"/>
    </g>
    <g id="text_22">
     <!-- 수출(천$) -->
     <g transform="translate(80.854062 37.339844) scale(0.08 -0.08)">
      <use xlink:href="#MalgunGothic-c218"/>
      <use xlink:href="#MalgunGothic-cd9c" transform="translate(100 0)"/>
      <use xlink:href="#MalgunGothic-28" transform="translate(200 0)"/>
      <use xlink:href="#MalgunGothic-cc9c" transform="translate(230.46875 0)"/>
      <use xlink:href="#MalgunGothic-24" transform="translate(330.46875 0)"/>
      <use xlink:href="#MalgunGothic-29" transform="translate(385.546875 0)"/>
     </g>
    </g>
    <g id="patch_33">
     <path d="M 58.454063 49.477344 
L 74.454063 49.477344 
L 74.454063 43.877344 
L 58.454063 43.877344 
z
" style="fill: #ed7d31; opacity: 0.85"/>
    </g>
    <g id="text_23">
     <!-- 수입(천$) -->
     <g transform="translate(80.854062 49.477344) scale(0.08 -0.08)">
      <use xlink:href="#MalgunGothic-c218"/>
      <use xlink:href="#MalgunGothic-c785" transform="translate(100 0)"/>
      <use xlink:href="#MalgunGothic-28" transform="translate(200 0)"/>
      <use xlink:href="#MalgunGothic-cc9c" transform="translate(230.46875 0)"/>
      <use xlink:href="#MalgunGothic-24" transform="translate(330.46875 0)"/>
      <use xlink:href="#MalgunGothic-29" transform="translate(385.546875 0)"/>
     </g>
    </g>
    <g id="line2d_20">
     <path d="M 58.454063 58.919844 
L 66.454063 58.919844 
L 74.454063 58.919844 
" style="fill: none; stroke: #1f4e79; stroke-width: 1.5; stroke-linecap: square"/>
     <defs>
      <path id="m5e6750697b" d="M 0 1.5 
C 0.397805 1.5 0.77937 1.341951 1.06066 1.06066 
C 1.341951 0.77937 1.5 0.397805 1.5 0 
C 1.5 -0.397805 1.341951 -0.77937 1.06066 -1.06066 
C 0.77937 -1.341951 0.397805 -1.5 0 -1.5 
C -0.397805 -1.5 -0.77937 -1.341951 -1.06066 -1.06066 
C -1.341951 -0.77937 -1.5 -0.397805 -1.5 0 
C -1.5 0.397805 -1.341951 0.77937 -1.06066 1.06066 
C -0.77937 1.341951 -0.397805 1.5 0 1.5 
z
" style="stroke: #1f4e79"/>
     </defs>
     <g>
      <use xlink:href="#m5e6750697b" x="66.454063" y="58.919844" style="fill: #1f4e79; stroke: #1f4e79"/>
     </g>
    </g>
    <g id="text_24">
     <!-- 수출단가(USD/톤) -->
     <g transform="translate(80.854062 61.719844) scale(0.08 -0.08)">
      <defs>
       <path id="MalgunGothic-b2e8" d="M 5125 3169 
L 5125 1063 
L 4659 1063 
L 4659 5466 
L 5125 5466 
L 5125 3584 
L 6034 3584 
L 6034 3169 
L 5125 3169 
z
M 3903 2363 
Q 3306 2291 850 2291 
L 850 5081 
L 3688 5081 
L 3688 4666 
L 1319 4666 
L 1319 2706 
Q 3244 2706 3872 2766 
L 3903 2363 
z
M 1459 -378 
L 1459 1581 
L 1925 1581 
L 1925 38 
L 5294 38 
L 5294 -378 
L 1459 -378 
z
" transform="scale(0.015625)"/>
       <path id="MalgunGothic-ac00" d="M 5094 2566 
L 5094 -563 
L 4628 -563 
L 4628 5466 
L 5094 5466 
L 5094 2981 
L 6175 2981 
L 6175 2566 
L 5094 2566 
z
M 3609 4928 
Q 3541 2363 897 863 
L 538 1241 
Q 1484 1631 2234 2506 
Q 2984 3381 3109 4513 
L 794 4513 
L 794 4928 
L 3609 4928 
z
" transform="scale(0.015625)"/>
       <path id="MalgunGothic-55" d="M 3947 1850 
Q 3947 -78 2209 -78 
Q 553 -78 553 1778 
L 553 4600 
L 1056 4600 
L 1056 1813 
Q 1056 381 2272 381 
Q 3441 381 3441 1763 
L 3441 4600 
L 3947 4600 
L 3947 1850 
z
" transform="scale(0.015625)"/>
       <path id="MalgunGothic-44" d="M 609 0 
L 609 4600 
L 1856 4600 
Q 4281 4600 4281 2356 
Q 4281 1288 3587 644 
Q 2894 0 1800 0 
L 609 0 
z
M 1113 4134 
L 1113 463 
L 1813 463 
Q 2734 463 3243 958 
Q 3753 1453 3753 2344 
Q 3753 4134 1844 4134 
L 1113 4134 
z
" transform="scale(0.015625)"/>
       <path id="MalgunGothic-2f" d="M 2584 4600 
L 378 -763 
L -84 -763 
L 2113 4600 
L 2584 4600 
z
" transform="scale(0.015625)"/>
       <path id="MalgunGothic-d1a4" d="M 403 1684 
L 403 2100 
L 2969 2100 
L 2969 2809 
L 1331 2809 
L 1331 5269 
L 5088 5269 
L 5088 4850 
L 1797 4850 
L 1797 4244 
L 4984 4244 
L 4984 3841 
L 1797 3841 
L 1797 3225 
L 5166 3225 
L 5166 2809 
L 3438 2809 
L 3438 2100 
L 5997 2100 
L 5997 1684 
L 403 1684 
z
M 1325 -422 
L 1325 1191 
L 1791 1191 
L 1791 0 
L 5203 0 
L 5203 -422 
L 1325 -422 
z
" transform="scale(0.015625)"/>
      </defs>
      <use xlink:href="#MalgunGothic-c218"/>
      <use xlink:href="#MalgunGothic-cd9c" transform="translate(100 0)"/>
      <use xlink:href="#MalgunGothic-b2e8" transform="translate(200 0)"/>
      <use xlink:href="#MalgunGothic-ac00" transform="translate(300 0)"/>
      <use xlink:href="#MalgunGothic-28" transform="translate(400 0)"/>
      <use xlink:href="#MalgunGothic-55" transform="translate(430.46875 0)"/>
      <use xlink:href="#MalgunGothic-53" transform="translate(500.732422 0)"/>
      <use xlink:href="#MalgunGothic-44" transform="translate(555.029297 0)"/>
      <use xlink:href="#MalgunGothic-2f" transform="translate(626.757812 0)"/>
      <use xlink:href="#MalgunGothic-d1a4" transform="translate(666.357422 0)"/>
      <use xlink:href="#MalgunGothic-29" transform="translate(766.357422 0)"/>
     </g>
    </g>
    <g id="line2d_21">
     <path d="M 58.454063 71.057344 
L 66.454063 71.057344 
L 74.454063 71.057344 
" style="fill: none; stroke: #833c00; stroke-width: 1.5; stroke-linecap: square"/>
     <defs>
      <path id="mb2e59b7ce5" d="M -1.5 1.5 
L 1.5 1.5 
L 1.5 -1.5 
L -1.5 -1.5 
z
" style="stroke: #833c00; stroke-linejoin: miter"/>
     </defs>
     <g>
      <use xlink:href="#mb2e59b7ce5" x="66.454063" y="71.057344" style="fill: #833c00; stroke: #833c00; stroke-linejoin: miter"/>
     </g>
    </g>
    <g id="text_25">
     <!-- 수입단가(USD/톤) -->
     <g transform="translate(80.854062 73.857344) scale(0.08 -0.08)">
      <use xlink:href="#MalgunGothic-c218"/>
      <use xlink:href="#MalgunGothic-c785" transform="translate(100 0)"/>
      <use xlink:href="#MalgunGothic-b2e8" transform="translate(200 0)"/>
      <use xlink:href="#MalgunGothic-ac00" transform="translate(300 0)"/>
      <use xlink:href="#MalgunGothic-28" transform="translate(400 0)"/>
      <use xlink:href="#MalgunGothic-55" transform="translate(430.46875 0)"/>
      <use xlink:href="#MalgunGothic-53" transform="translate(500.732422 0)"/>
      <use xlink:href="#MalgunGothic-44" transform="translate(555.029297 0)"/>
      <use xlink:href="#MalgunGothic-2f" transform="translate(626.757812 0)"/>
      <use xlink:href="#MalgunGothic-d1a4" transform="translate(666.357422 0)"/>
      <use xlink:href="#MalgunGothic-29" transform="translate(766.357422 0)"/>
     </g>
    </g>
   </g>
  </g>
  <g id="axes_2">
   <g id="matplotlib.axis_3">
    <g id="ytick_8">
     <g id="line2d_22">
      <defs>
       <path id="m8324507b75" d="M 0 0 
L 3.5 0 
" style="stroke: #000000; stroke-width: 0.8"/>
      </defs>
      <g>
       <use xlink:href="#m8324507b75" x="661.414062" y="258.683452" style="stroke: #000000; stroke-width: 0.8"/>
      </g>
     </g>
     <g id="text_26">
      <!-- 5,000 -->
      <g style="fill: #808080" transform="translate(668.414062 261.720327) scale(0.08 -0.08)">
       <use xlink:href="#MalgunGothic-35"/>
       <use xlink:href="#MalgunGothic-2c" transform="translate(55.078125 0)"/>
       <use xlink:href="#MalgunGothic-30" transform="translate(76.953125 0)"/>
       <use xlink:href="#MalgunGothic-30" transform="translate(132.03125 0)"/>
       <use xlink:href="#MalgunGothic-30" transform="translate(187.109375 0)"/>
      </g>
     </g>
    </g>
    <g id="ytick_9">
     <g id="line2d_23">
      <g>
       <use xlink:href="#m8324507b75" x="661.414062" y="216.064674" style="stroke: #000000; stroke-width: 0.8"/>
      </g>
     </g>
     <g id="text_27">
      <!-- 10,000 -->
      <g style="fill: #808080" transform="translate(668.414062 219.101549) scale(0.08 -0.08)">
       <use xlink:href="#MalgunGothic-31"/>
       <use xlink:href="#MalgunGothic-30" transform="translate(55.078125 0)"/>
       <use xlink:href="#MalgunGothic-2c" transform="translate(110.15625 0)"/>
       <use xlink:href="#MalgunGothic-30" transform="translate(132.03125 0)"/>
       <use xlink:href="#MalgunGothic-30" transform="translate(187.109375 0)"/>
       <use xlink:href="#MalgunGothic-30" transform="translate(242.1875 0)"/>
      </g>
     </g>
    </g>
    <g id="ytick_10">
     <g id="line2d_24">
      <g>
       <use xlink:href="#m8324507b75" x="661.414062" y="173.445897" style="stroke: #000000; stroke-width: 0.8"/>
      </g>
     </g>
     <g id="text_28">
      <!-- 15,000 -->
      <g style="fill: #808080" transform="translate(668.414062 176.482772) scale(0.08 -0.08)">
       <use xlink:href="#MalgunGothic-31"/>
       <use xlink:href="#MalgunGothic-35" transform="translate(55.078125 0)"/>
       <use xlink:href="#MalgunGothic-2c" transform="translate(110.15625 0)"/>
       <use xlink:href="#MalgunGothic-30" transform="translate(132.03125 0)"/>
       <use xlink:href="#MalgunGothic-30" transform="translate(187.109375 0)"/>
       <use xlink:href="#MalgunGothic-30" transform="translate(242.1875 0)"/>
      </g>
     </g>
    </g>
    <g id="ytick_11">
     <g id="line2d_25">
      <g>
       <use xlink:href="#m8324507b75" x="661.414062" y="130.827119" style="stroke: #000000; stroke-width: 0.8"/>
      </g>
     </g>
     <g id="text_29">
      <!-- 20,000 -->
      <g style="fill: #808080" transform="translate(668.414062 133.863994) scale(0.08 -0.08)">
       <use xlink:href="#MalgunGothic-32"/>
       <use xlink:href="#MalgunGothic-30" transform="translate(55.078125 0)"/>
       <use xlink:href="#MalgunGothic-2c" transform="translate(110.15625 0)"/>
       <use xlink:href="#MalgunGothic-30" transform="translate(132.03125 0)"/>
       <use xlink:href="#MalgunGothic-30" transform="translate(187.109375 0)"/>
       <use xlink:href="#MalgunGothic-30" transform="translate(242.1875 0)"/>
      </g>
     </g>
    </g>
    <g id="ytick_12">
     <g id="line2d_26">
      <g>
       <use xlink:href="#m8324507b75" x="661.414062" y="88.208342" style="stroke: #000000; stroke-width: 0.8"/>
      </g>
     </g>
     <g id="text_30">
      <!-- 25,000 -->
      <g style="fill: #808080" transform="translate(668.414062 91.245217) scale(0.08 -0.08)">
       <use xlink:href="#MalgunGothic-32"/>
       <use xlink:href="#MalgunGothic-35" transform="translate(55.078125 0)"/>
       <use xlink:href="#MalgunGothic-2c" transform="translate(110.15625 0)"/>
       <use xlink:href="#MalgunGothic-30" transform="translate(132.03125 0)"/>
       <use xlink:href="#MalgunGothic-30" transform="translate(187.109375 0)"/>
       <use xlink:href="#MalgunGothic-30" transform="translate(242.1875 0)"/>
      </g>
     </g>
    </g>
    <g id="ytick_13">
     <g id="line2d_27">
      <g>
       <use xlink:href="#m8324507b75" x="661.414062" y="45.589564" style="stroke: #000000; stroke-width: 0.8"/>
      </g>
     </g>
     <g id="text_31">
      <!-- 30,000 -->
      <g style="fill: #808080" transform="translate(668.414062 48.626439) scale(0.08 -0.08)">
       <use xlink:href="#MalgunGothic-33"/>
       <use xlink:href="#MalgunGothic-30" transform="translate(55.078125 0)"/>
       <use xlink:href="#MalgunGothic-2c" transform="translate(110.15625 0)"/>
       <use xlink:href="#MalgunGothic-30" transform="translate(132.03125 0)"/>
       <use xlink:href="#MalgunGothic-30" transform="translate(187.109375 0)"/>
       <use xlink:href="#MalgunGothic-30" transform="translate(242.1875 0)"/>
      </g>
     </g>
    </g>
    <g id="text_32">
     <!-- 단가 (USD/톤) -->
     <g style="fill: #808080" transform="translate(703.222344 178.59359) rotate(-90) scale(0.09 -0.09)">
      <use xlink:href="#MalgunGothic-b2e8"/>
      <use xlink:href="#MalgunGothic-ac00" transform="translate(100 0)"/>
      <use xlink:href="#MalgunGothic-20" transform="translate(200 0)"/>
      <use xlink:href="#MalgunGothic-28" transform="translate(235.15625 0)"/>
      <use xlink:href="#MalgunGothic-55" transform="translate(265.625 0)"/>
      <use xlink:href="#MalgunGothic-53" transform="translate(335.888672 0)"/>
      <use xlink:href="#MalgunGothic-44" transform="translate(390.185547 0)"/>
      <use xlink:href="#MalgunGothic-2f" transform="translate(461.914062 0)"/>
      <use xlink:href="#MalgunGothic-d1a4" transform="translate(501.513672 0)"/>
      <use xlink:href="#MalgunGothic-29" transform="translate(601.513672 0)"/>
     </g>
    </g>
   </g>
   <g id="line2d_28">
    <path d="M 95.581926 202.747269 
L 142.991405 207.963127 
L 190.400885 207.177284 
L 237.810364 230.415962 
L 285.219843 197.701623 
L 332.629323 231.02155 
L 380.038802 265.032202 
L 427.448282 235.220018 
L 474.857761 256.304675 
L 522.26724 114.570923 
L 569.67672 174.956681 
L 617.086199 183.252538 
" clip-path="url(#pa258831426)" style="fill: none; stroke: #1f4e79; stroke-width: 1.5; stroke-linecap: square"/>
    <g clip-path="url(#pa258831426)">
     <use xlink:href="#m5e6750697b" x="95.581926" y="202.747269" style="fill: #1f4e79; stroke: #1f4e79"/>
     <use xlink:href="#m5e6750697b" x="142.991405" y="207.963127" style="fill: #1f4e79; stroke: #1f4e79"/>
     <use xlink:href="#m5e6750697b" x="190.400885" y="207.177284" style="fill: #1f4e79; stroke: #1f4e79"/>
     <use xlink:href="#m5e6750697b" x="237.810364" y="230.415962" style="fill: #1f4e79; stroke: #1f4e79"/>
     <use xlink:href="#m5e6750697b" x="285.219843" y="197.701623" style="fill: #1f4e79; stroke: #1f4e79"/>
     <use xlink:href="#m5e6750697b" x="332.629323" y="231.02155" style="fill: #1f4e79; stroke: #1f4e79"/>
     <use xlink:href="#m5e6750697b" x="380.038802" y="265.032202" style="fill: #1f4e79; stroke: #1f4e79"/>
     <use xlink:href="#m5e6750697b" x="427.448282" y="235.220018" style="fill: #1f4e79; stroke: #1f4e79"/>
     <use xlink:href="#m5e6750697b" x="474.857761" y="256.304675" style="fill: #1f4e79; stroke: #1f4e79"/>
     <use xlink:href="#m5e6750697b" x="522.26724" y="114.570923" style="fill: #1f4e79; stroke: #1f4e79"/>
     <use xlink:href="#m5e6750697b" x="569.67672" y="174.956681" style="fill: #1f4e79; stroke: #1f4e79"/>
     <use xlink:href="#m5e6750697b" x="617.086199" y="183.252538" style="fill: #1f4e79; stroke: #1f4e79"/>
    </g>
   </g>
   <g id="line2d_29">
    <path d="M 95.581926 113.113996 
L 142.991405 126.821397 
L 190.400885 80.244322 
L 237.810364 69.115283 
L 285.219843 35.276385 
L 332.629323 165.598675 
L 380.038802 114.69264 
L 427.448282 117.784999 
L 474.857761 46.742315 
L 522.26724 82.839467 
L 569.67672 116.674421 
L 617.086199 164.17271 
" clip-path="url(#pa258831426)" style="fill: none; stroke: #833c00; stroke-width: 1.5; stroke-linecap: square"/>
    <g clip-path="url(#pa258831426)">
     <use xlink:href="#mb2e59b7ce5" x="95.581926" y="113.113996" style="fill: #833c00; stroke: #833c00; stroke-linejoin: miter"/>
     <use xlink:href="#mb2e59b7ce5" x="142.991405" y="126.821397" style="fill: #833c00; stroke: #833c00; stroke-linejoin: miter"/>
     <use xlink:href="#mb2e59b7ce5" x="190.400885" y="80.244322" style="fill: #833c00; stroke: #833c00; stroke-linejoin: miter"/>
     <use xlink:href="#mb2e59b7ce5" x="237.810364" y="69.115283" style="fill: #833c00; stroke: #833c00; stroke-linejoin: miter"/>
     <use xlink:href="#mb2e59b7ce5" x="285.219843" y="35.276385" style="fill: #833c00; stroke: #833c00; stroke-linejoin: miter"/>
     <use xlink:href="#mb2e59b7ce5" x="332.629323" y="165.598675" style="fill: #833c00; stroke: #833c00; stroke-linejoin: miter"/>
     <use xlink:href="#mb2e59b7ce5" x="380.038802" y="114.69264" style="fill: #833c00; stroke: #833c00; stroke-linejoin: miter"/>
     <use xlink:href="#mb2e59b7ce5" x="427.448282" y="117.784999" style="fill: #833c00; stroke: #833c00; stroke-linejoin: miter"/>
     <use xlink:href="#mb2e59b7ce5" x="474.857761" y="46.742315" style="fill: #833c00; stroke: #833c00; stroke-linejoin: miter"/>
     <use xlink:href="#mb2e59b7ce5" x="522.26724" y="82.839467" style="fill: #833c00; stroke: #833c00; stroke-linejoin: miter"/>
     <use xlink:href="#mb2e59b7ce5" x="569.67672" y="116.674421" style="fill: #833c00; stroke: #833c00; stroke-linejoin: miter"/>
     <use xlink:href="#mb2e59b7ce5" x="617.086199" y="164.17271" style="fill: #833c00; stroke: #833c00; stroke-linejoin: miter"/>
    </g>
   </g>
   <g id="patch_34">
    <path d="M 51.254063 276.519993 
L 51.254063 23.788594 
" style="fill: none; stroke: #000000; stroke-width: 0.8; stroke-linejoin: miter; stroke-linecap: square"/>
   </g>
   <g id="patch_35">
    <path d="M 661.414062 276.519993 
L 661.414062 23.788594 
" style="fill: none; stroke: #000000; stroke-width: 0.8; stroke-linejoin: miter; stroke-linecap: square"/>
   </g>
   <g id="patch_36">
    <path d="M 51.254063 276.519993 
L 661.414062 276.519993 
" style="fill: none; stroke: #000000; stroke-width: 0.8; stroke-linejoin: miter; stroke-linecap: square"/>
   </g>
   <g id="patch_37">
    <path d="M 51.254063 23.788594 
L 661.414062 23.788594 
" style="fill: none; stroke: #000000; stroke-width: 0.8; stroke-linejoin: miter; stroke-linecap: square"/>
   </g>
  </g>
 </g>
 <defs>
  <clipPath id="pa258831426">
   <rect x="51.254063" y="23.788594" width="610.16" height="252.731399"/>
  </clipPath>
 </defs>
</svg>
