<?xml version="1.0" encoding="utf-8" standalone="no"?>
<!DOCTYPE svg PUBLIC "-//W3C//DTD SVG 1.1//EN"
  "http://www.w3.org/Graphics/SVG/1.1/DTD/svg11.dtd">
<svg xmlns:xlink="http://www.w3.org/1999/xlink" width="1374.841094pt" height="280.428046pt" viewBox="0 0 1374.841094 280.428046" xmlns="http://www.w3.org/2000/svg" version="1.1">
 <metadata>
  <rdf:RDF xmlns:dc="http://purl.org/dc/elements/1.1/" xmlns:cc="http://creativecommons.org/ns#" xmlns:rdf="http://www.w3.org/1999/02/22-rdf-syntax-ns#">
   <cc:Work>
    <dc:type rdf:resource="http://purl.org/dc/dcmitype/StillImage"/>
    <dc:date>2026-10-01T11:36:24.764439</dc:date>
    <dc:format>image/svg+xml</dc:format>
    <dc:creator>
     <cc:Agent>
      <dc:title>Matplotlib v3.10.9, https://matplotlib.org/</dc:title>
     </cc:Agent>
    </dc:creator>
   </cc:Work>
  </rdf:RDF>
 </metadata>
 <defs>
  <style type="text/css">*{stroke-linejoin: round; stroke-linecap: butt}</style>
 </defs>
 <g id="figure_1">
  <g id="patch_1">
   <path d="M 0 280.428046 
L 1374.841094 280.428046 
L 1374.841094 0 
L 0 0 
z
" style="fill: #ffffff"/>
  </g>
  <g id="axes_1">
   <g id="patch_2">
    <path d="M 31.879063 240.664368 
L 1331.810312 240.664368 
L 1331.810312 23.932969 
L 31.879063 23.932969 
z
" style="fill: #ffffff"/>
   </g>
   <g id="patch_3">
    <path d="M 90.966847 240.664368 
L 120.696549 240.664368 
L 120.696549 240.664368 
L 90.966847 240.664368 
z
" clip-path="url(#pf49c1e83c6)" style="fill: #4472c4; opacity: 0.85"/>
   </g>
   <g id="patch_4">
    <path d="M 128.128975 240.664368 
L 157.858678 240.664368 
L 157.858678 240.664368 
L 128.128975 240.664368 
z
" clip-path="url(#pf49c1e83c6)" style="fill: #4472c4; opacity: 0.85"/>
   </g>
   <g id="patch_5">
    <path d="M 165.291103 240.664368 
L 195.020806 240.664368 
L 195.020806 170.118886 
L 165.291103 170.118886 
z
" clip-path="url(#pf49c1e83c6)" style="fill: #4472c4; opacity: 0.85"/>
   </g>
   <g id="patch_6">
    <path d="M 202.453232 240.664368 
L 232.182934 240.664368 
L 232.182934 240.664368 
L 202.453232 240.664368 
z
" clip-path="url(#pf49c1e83c6)" style="fill: #4472c4; opacity: 0.85"/>
   </g>
   <g id="patch_7">
    <path d="M 239.61536 240.664368 
L 269.345063 240.664368 
L 269.345063 240.664368 
L 239.61536 240.664368 
z
" clip-path="url(#pf49c1e83c6)" style="fill: #4472c4; opacity: 0.85"/>
   </g>
   <g id="patch_8">
    <path d="M 276.777488 240.664368 
L 306.507191 240.664368 
L 306.507191 240.664368 
L 276.777488 240.664368 
z
" clip-path="url(#pf49c1e83c6)" style="fill: #4472c4; opacity: 0.85"/>
   </g>
   <g id="patch_9">
    <path d="M 313.939617 240.664368 
L 343.669319 240.664368 
L 343.669319 207.568957 
L 313.939617 207.568957 
z
" clip-path="url(#pf49c1e83c6)" style="fill: #4472c4; opacity: 0.85"/>
   </g>
   <g id="patch_10">
    <path d="M 351.101745 240.664368 
L 380.831448 240.664368 
L 380.831448 240.664368 
L 351.101745 240.664368 
z
" clip-path="url(#pf49c1e83c6)" style="fill: #4472c4; opacity: 0.85"/>
   </g>
   <g id="patch_11">
    <path d="M 388.263873 240.664368 
L 417.993576 240.664368 
L 417.993576 240.664368 
L 388.263873 240.664368 
z
" clip-path="url(#pf49c1e83c6)" style="fill: #4472c4; opacity: 0.85"/>
   </g>
   <g id="patch_12">
    <path d="M 425.426002 240.664368 
L 455.155705 240.664368 
L 455.155705 204.085229 
L 425.426002 204.085229 
z
" clip-path="url(#pf49c1e83c6)" style="fill: #4472c4; opacity: 0.85"/>
   </g>
   <g id="patch_13">
    <path d="M 462.58813 240.664368 
L 492.317833 240.664368 
L 492.317833 206.698025 
L 462.58813 206.698025 
z
" clip-path="url(#pf49c1e83c6)" style="fill: #4472c4; opacity: 0.85"/>
   </g>
   <g id="patch_14">
    <path d="M 499.750259 240.664368 
L 529.479961 240.664368 
L 529.479961 205.827093 
L 499.750259 205.827093 
z
" clip-path="url(#pf49c1e83c6)" style="fill: #4472c4; opacity: 0.85"/>
   </g>
   <g id="patch_15">
    <path d="M 536.912387 240.664368 
L 566.64209 240.664368 
L 566.64209 240.664368 
L 536.912387 240.664368 
z
" clip-path="url(#pf49c1e83c6)" style="fill: #4472c4; opacity: 0.85"/>
   </g>
   <g id="patch_16">
    <path d="M 574.074515 240.664368 
L 603.804218 240.664368 
L 603.804218 240.664368 
L 574.074515 240.664368 
z
" clip-path="url(#pf49c1e83c6)" style="fill: #4472c4; opacity: 0.85"/>
   </g>
   <g id="patch_17">
    <path d="M 611.236644 240.664368 
L 640.966346 240.664368 
L 640.966346 34.253512 
L 611.236644 34.253512 
z
" clip-path="url(#pf49c1e83c6)" style="fill: #4472c4; opacity: 0.85"/>
   </g>
   <g id="patch_18">
    <path d="M 648.398772 240.664368 
L 678.128475 240.664368 
L 678.128475 240.664368 
L 648.398772 240.664368 
z
" clip-path="url(#pf49c1e83c6)" style="fill: #4472c4; opacity: 0.85"/>
   </g>
   <g id="patch_19">
    <path d="M 685.5609 240.664368 
L 715.290603 240.664368 
L 715.290603 240.664368 
L 685.5609 240.664368 
z
" clip-path="url(#pf49c1e83c6)" style="fill: #4472c4; opacity: 0.85"/>
   </g>
   <g id="patch_20">
    <path d="M 722.723029 240.664368 
L 752.452731 240.664368 
L 752.452731 204.085229 
L 722.723029 204.085229 
z
" clip-path="url(#pf49c1e83c6)" style="fill: #4472c4; opacity: 0.85"/>
   </g>
   <g id="patch_21">
    <path d="M 759.885157 240.664368 
L 789.61486 240.664368 
L 789.61486 204.085229 
L 759.885157 204.085229 
z
" clip-path="url(#pf49c1e83c6)" style="fill: #4472c4; opacity: 0.85"/>
   </g>
   <g id="patch_22">
    <path d="M 797.047285 240.664368 
L 826.776988 240.664368 
L 826.776988 204.956161 
L 797.047285 204.956161 
z
" clip-path="url(#pf49c1e83c6)" style="fill: #4472c4; opacity: 0.85"/>
   </g>
   <g id="patch_23">
    <path d="M 834.209414 240.664368 
L 863.939116 240.664368 
L 863.939116 240.664368 
L 834.209414 240.664368 
z
" clip-path="url(#pf49c1e83c6)" style="fill: #4472c4; opacity: 0.85"/>
   </g>
   <g id="patch_24">
    <path d="M 871.371542 240.664368 
L 901.101245 240.664368 
L 901.101245 240.664368 
L 871.371542 240.664368 
z
" clip-path="url(#pf49c1e83c6)" style="fill: #4472c4; opacity: 0.85"/>
   </g>
   <g id="patch_25">
    <path d="M 908.53367 240.664368 
L 938.263373 240.664368 
L 938.263373 240.664368 
L 908.53367 240.664368 
z
" clip-path="url(#pf49c1e83c6)" style="fill: #4472c4; opacity: 0.85"/>
   </g>
   <g id="patch_26">
    <path d="M 945.695799 240.664368 
L 975.425502 240.664368 
L 975.425502 240.664368 
L 945.695799 240.664368 
z
" clip-path="url(#pf49c1e83c6)" style="fill: #4472c4; opacity: 0.85"/>
   </g>
   <g id="patch_27">
    <path d="M 982.857927 240.664368 
L 1012.58763 240.664368 
L 1012.58763 240.664368 
L 982.857927 240.664368 
z
" clip-path="url(#pf49c1e83c6)" style="fill: #4472c4; opacity: 0.85"/>
   </g>
   <g id="patch_28">
    <path d="M 1020.020056 240.664368 
L 1049.749758 240.664368 
L 1049.749758 240.664368 
L 1020.020056 240.664368 
z
" clip-path="url(#pf49c1e83c6)" style="fill: #4472c4; opacity: 0.85"/>
   </g>
   <g id="patch_29">
    <path d="M 1057.182184 240.664368 
L 1086.911887 240.664368 
L 1086.911887 240.664368 
L 1057.182184 240.664368 
z
" clip-path="url(#pf49c1e83c6)" style="fill: #4472c4; opacity: 0.85"/>
   </g>
   <g id="patch_30">
    <path d="M 1094.344312 240.664368 
L 1124.074015 240.664368 
L 1124.074015 240.664368 
L 1094.344312 240.664368 
z
" clip-path="url(#pf49c1e83c6)" style="fill: #4472c4; opacity: 0.85"/>
   </g>
   <g id="patch_31">
    <path d="M 1131.506441 240.664368 
L 1161.236143 240.664368 
L 1161.236143 240.664368 
L 1131.506441 240.664368 
z
" clip-path="url(#pf49c1e83c6)" style="fill: #4472c4; opacity: 0.85"/>
   </g>
   <g id="patch_32">
    <path d="M 1168.668569 240.664368 
L 1198.398272 240.664368 
L 1198.398272 240.664368 
L 1168.668569 240.664368 
z
" clip-path="url(#pf49c1e83c6)" style="fill: #4472c4; opacity: 0.85"/>
   </g>
   <g id="patch_33">
    <path d="M 1205.830697 240.664368 
L 1235.5604 240.664368 
L 1235.5604 240.664368 
L 1205.830697 240.664368 
z
" clip-path="url(#pf49c1e83c6)" style="fill: #4472c4; opacity: 0.85"/>
   </g>
   <g id="patch_34">
    <path d="M 1242.992826 240.664368 
L 1272.722528 240.664368 
L 1272.722528 240.664368 
L 1242.992826 240.664368 
z
" clip-path="url(#pf49c1e83c6)" style="fill: #4472c4; opacity: 0.85"/>
   </g>
   <g id="matplotlib.axis_1">
    <g id="xtick_1">
     <g id="line2d_1">
      <defs>
       <path id="me409df56a9" d="M 0 0 
L 0 3.5 
" style="stroke: #000000; stroke-width: 0.8"/>
      </defs>
      <g>
       <use xlink:href="#me409df56a9" x="105.831698" y="240.664368" style="stroke: #000000; stroke-width: 0.8"/>
      </g>
     </g>
     <g id="text_1">
      <!-- 2024.01 -->
      <g transform="translate(84.56281 271.89073) rotate(-45) scale(0.08 -0.08)">
       <defs>
        <path id="MalgunGothic-32" d="M 2519 3372 
Q 2519 3784 2275 4018 
Q 2031 4253 1628 4253 
Q 1341 4253 1053 4104 
Q 766 3956 534 3697 
L 534 4234 
Q 981 4675 1691 4675 
Q 2281 4675 2642 4334 
Q 3003 3994 3003 3416 
Q 3003 2919 2772 2545 
Q 2541 2172 1984 1775 
Q 1459 1406 1254 1215 
Q 1050 1025 967 854 
Q 884 684 884 450 
L 3116 450 
L 3116 0 
L 356 0 
L 356 225 
Q 356 603 461 870 
Q 566 1138 811 1392 
Q 1056 1647 1597 2022 
Q 2091 2363 2305 2670 
Q 2519 2978 2519 3372 
z
" transform="scale(0.015625)"/>
        <path id="MalgunGothic-30" d="M 278 2206 
Q 278 3425 675 4050 
Q 1072 4675 1819 4675 
Q 3253 4675 3253 2319 
Q 3253 1156 2854 539 
Q 2456 -78 1716 -78 
Q 1016 -78 647 520 
Q 278 1119 278 2206 
z
M 784 2231 
Q 784 344 1769 344 
Q 2747 344 2747 2259 
Q 2747 4250 1794 4250 
Q 784 4250 784 2231 
z
" transform="scale(0.015625)"/>
        <path id="MalgunGothic-34" d="M 2703 4600 
L 2703 1563 
L 3309 1563 
L 3309 1113 
L 2703 1113 
L 2703 0 
L 2213 0 
L 2213 1113 
L 50 1113 
L 50 1534 
Q 728 2297 1295 3109 
Q 1863 3922 2172 4600 
L 2703 4600 
z
M 625 1563 
L 2213 1563 
L 2213 3831 
Q 1613 2788 959 1981 
L 625 1563 
z
" transform="scale(0.015625)"/>
        <path id="MalgunGothic-2e" d="M 356 275 
Q 356 422 459 523 
Q 563 625 700 625 
Q 838 625 941 523 
Q 1044 422 1044 275 
Q 1044 138 942 33 
Q 841 -72 700 -72 
Q 559 -72 457 29 
Q 356 131 356 275 
z
" transform="scale(0.015625)"/>
        <path id="MalgunGothic-31" d="M 2231 0 
L 1734 0 
L 1734 3972 
Q 1591 3828 1266 3661 
Q 941 3494 672 3428 
L 672 3959 
Q 1016 4056 1409 4275 
Q 1803 4494 2031 4700 
L 2231 4700 
L 2231 0 
z
" transform="scale(0.015625)"/>
       </defs>
       <use xlink:href="#MalgunGothic-32"/>
       <use xlink:href="#MalgunGothic-30" transform="translate(55.078125 0)"/>
       <use xlink:href="#MalgunGothic-32" transform="translate(110.15625 0)"/>
       <use xlink:href="#MalgunGothic-34" transform="translate(165.234375 0)"/>
       <use xlink:href="#MalgunGothic-2e" transform="translate(220.3125 0)"/>
       <use xlink:href="#MalgunGothic-30" transform="translate(242.1875 0)"/>
       <use xlink:href="#MalgunGothic-31" transform="translate(297.265625 0)"/>
      </g>
     </g>
    </g>
    <g id="xtick_2">
     <g id="line2d_2">
      <g>
       <use xlink:href="#me409df56a9" x="142.993826" y="240.664368" style="stroke: #000000; stroke-width: 0.8"/>
      </g>
     </g>
     <g id="text_2">
      <!-- 02 -->
      <g transform="translate(135.425132 258.190536) rotate(-45) scale(0.08 -0.08)">
       <use xlink:href="#MalgunGothic-30"/>
       <use xlink:href="#MalgunGothic-32" transform="translate(55.078125 0)"/>
      </g>
     </g>
    </g>
    <g id="xtick_3">
     <g id="line2d_3">
      <g>
       <use xlink:href="#me409df56a9" x="180.155955" y="240.664368" style="stroke: #000000; stroke-width: 0.8"/>
      </g>
     </g>
     <g id="text_3">
      <!-- 03 -->
      <g transform="translate(172.58726 258.190536) rotate(-45) scale(0.08 -0.08)">
       <defs>
        <path id="MalgunGothic-33" d="M 416 719 
Q 891 344 1478 344 
Q 1959 344 2254 587 
Q 2550 831 2550 1247 
Q 2550 2169 1253 2169 
L 872 2169 
L 872 2591 
L 1234 2591 
Q 2388 2591 2388 3453 
Q 2388 4250 1509 4250 
Q 1022 4250 594 3916 
L 594 4413 
Q 1031 4675 1634 4675 
Q 2184 4675 2539 4372 
Q 2894 4069 2894 3581 
Q 2894 2678 1972 2409 
L 1972 2400 
Q 2469 2356 2764 2053 
Q 3059 1750 3059 1300 
Q 3059 672 2604 297 
Q 2150 -78 1450 -78 
Q 806 -78 416 169 
L 416 719 
z
" transform="scale(0.015625)"/>
       </defs>
       <use xlink:href="#MalgunGothic-30"/>
       <use xlink:href="#MalgunGothic-33" transform="translate(55.078125 0)"/>
      </g>
     </g>
    </g>
    <g id="xtick_4">
     <g id="line2d_4">
      <g>
       <use xlink:href="#me409df56a9" x="217.318083" y="240.664368" style="stroke: #000000; stroke-width: 0.8"/>
      </g>
     </g>
     <g id="text_4">
      <!-- 04 -->
      <g transform="translate(209.749389 258.190536) rotate(-45) scale(0.08 -0.08)">
       <use xlink:href="#MalgunGothic-30"/>
       <use xlink:href="#MalgunGothic-34" transform="translate(55.078125 0)"/>
      </g>
     </g>
    </g>
    <g id="xtick_5">
     <g id="line2d_5">
      <g>
       <use xlink:href="#me409df56a9" x="254.480211" y="240.664368" style="stroke: #000000; stroke-width: 0.8"/>
      </g>
     </g>
     <g id="text_5">
      <!-- 05 -->
      <g transform="translate(246.911517 258.190536) rotate(-45) scale(0.08 -0.08)">
       <defs>
        <path id="MalgunGothic-35" d="M 3072 1403 
Q 3072 722 2636 322 
Q 2200 -78 1469 -78 
Q 828 -78 516 113 
L 516 650 
Q 994 344 1475 344 
Q 1969 344 2270 630 
Q 2572 916 2572 1372 
Q 2572 1838 2265 2092 
Q 1959 2347 1381 2347 
Q 994 2347 603 2300 
L 759 4600 
L 2869 4600 
L 2869 4147 
L 1206 4147 
L 1106 2763 
Q 1347 2784 1547 2784 
Q 2263 2784 2667 2414 
Q 3072 2044 3072 1403 
z
" transform="scale(0.015625)"/>
       </defs>
       <use xlink:href="#MalgunGothic-30"/>
       <use xlink:href="#MalgunGothic-35" transform="translate(55.078125 0)"/>
      </g>
     </g>
    </g>
    <g id="xtick_6">
     <g id="line2d_6">
      <g>
       <use xlink:href="#me409df56a9" x="291.64234" y="240.664368" style="stroke: #000000; stroke-width: 0.8"/>
      </g>
     </g>
     <g id="text_6">
      <!-- 06 -->
      <g transform="translate(284.073646 258.190536) rotate(-45) scale(0.08 -0.08)">
       <defs>
        <path id="MalgunGothic-36" d="M 2981 4069 
Q 2619 4250 2228 4250 
Q 1591 4250 1228 3689 
Q 866 3128 869 2213 
L 884 2213 
Q 1203 2872 1938 2872 
Q 2547 2872 2903 2478 
Q 3259 2084 3259 1450 
Q 3259 797 2857 359 
Q 2456 -78 1825 -78 
Q 1116 -78 736 478 
Q 356 1034 356 2019 
Q 356 3181 847 3928 
Q 1338 4675 2222 4675 
Q 2700 4675 2981 4544 
L 2981 4069 
z
M 906 1506 
Q 906 1022 1165 683 
Q 1425 344 1844 344 
Q 2247 344 2498 645 
Q 2750 947 2750 1388 
Q 2750 1888 2509 2167 
Q 2269 2447 1838 2447 
Q 1444 2447 1175 2173 
Q 906 1900 906 1506 
z
" transform="scale(0.015625)"/>
       </defs>
       <use xlink:href="#MalgunGothic-30"/>
       <use xlink:href="#MalgunGothic-36" transform="translate(55.078125 0)"/>
      </g>
     </g>
    </g>
    <g id="xtick_7">
     <g id="line2d_7">
      <g>
       <use xlink:href="#me409df56a9" x="328.804468" y="240.664368" style="stroke: #000000; stroke-width: 0.8"/>
      </g>
     </g>
     <g id="text_7">
      <!-- 07 -->
      <g transform="translate(321.235774 258.190536) rotate(-45) scale(0.08 -0.08)">
       <defs>
        <path id="MalgunGothic-37" d="M 3213 4297 
Q 2478 3006 2064 1918 
Q 1650 831 1550 0 
L 1009 0 
Q 1084 531 1290 1176 
Q 1497 1822 1815 2537 
Q 2134 3253 2631 4147 
L 291 4147 
L 291 4600 
L 3213 4600 
L 3213 4297 
z
" transform="scale(0.015625)"/>
       </defs>
       <use xlink:href="#MalgunGothic-30"/>
       <use xlink:href="#MalgunGothic-37" transform="translate(55.078125 0)"/>
      </g>
     </g>
    </g>
    <g id="xtick_8">
     <g id="line2d_8">
      <g>
       <use xlink:href="#me409df56a9" x="365.966596" y="240.664368" style="stroke: #000000; stroke-width: 0.8"/>
      </g>
     </g>
     <g id="text_8">
      <!-- 08 -->
      <g transform="translate(358.397902 258.190536) rotate(-45) scale(0.08 -0.08)">
       <defs>
        <path id="MalgunGothic-38" d="M 303 1281 
Q 303 1669 539 2011 
Q 775 2353 1153 2494 
Q 856 2647 675 2915 
Q 494 3184 494 3500 
Q 494 3828 659 4098 
Q 825 4369 1122 4522 
Q 1419 4675 1778 4675 
Q 2334 4675 2700 4342 
Q 3066 4009 3066 3500 
Q 3066 3181 2881 2914 
Q 2697 2647 2413 2494 
Q 2788 2350 3022 2009 
Q 3256 1669 3256 1281 
Q 3256 672 2843 297 
Q 2431 -78 1778 -78 
Q 1131 -78 717 301 
Q 303 681 303 1281 
z
M 809 1328 
Q 809 878 1081 611 
Q 1353 344 1781 344 
Q 2206 344 2482 619 
Q 2759 894 2759 1328 
Q 2759 1731 2482 2011 
Q 2206 2291 1781 2291 
Q 1372 2291 1090 2020 
Q 809 1750 809 1328 
z
M 1003 3459 
Q 1003 3125 1234 2900 
Q 1466 2675 1781 2675 
Q 2097 2675 2330 2900 
Q 2563 3125 2563 3459 
Q 2563 3803 2341 4026 
Q 2119 4250 1781 4250 
Q 1450 4250 1226 4029 
Q 1003 3809 1003 3459 
z
" transform="scale(0.015625)"/>
       </defs>
       <use xlink:href="#MalgunGothic-30"/>
       <use xlink:href="#MalgunGothic-38" transform="translate(55.078125 0)"/>
      </g>
     </g>
    </g>
    <g id="xtick_9">
     <g id="line2d_9">
      <g>
       <use xlink:href="#me409df56a9" x="403.128725" y="240.664368" style="stroke: #000000; stroke-width: 0.8"/>
      </g>
     </g>
     <g id="text_9">
      <!-- 09 -->
      <g transform="translate(395.560031 258.190536) rotate(-45) scale(0.08 -0.08)">
       <defs>
        <path id="MalgunGothic-39" d="M 556 563 
Q 941 344 1366 344 
Q 1994 344 2347 855 
Q 2700 1366 2700 2313 
Q 2694 2306 2688 2313 
Q 2388 1713 1653 1713 
Q 1059 1713 682 2120 
Q 306 2528 306 3144 
Q 306 3806 711 4240 
Q 1116 4675 1772 4675 
Q 2466 4675 2833 4131 
Q 3200 3588 3200 2578 
Q 3200 1319 2717 620 
Q 2234 -78 1344 -78 
Q 881 -78 556 78 
L 556 563 
z
M 813 3219 
Q 813 2741 1063 2450 
Q 1313 2159 1759 2159 
Q 2147 2159 2406 2417 
Q 2666 2675 2666 3047 
Q 2666 3556 2411 3903 
Q 2156 4250 1725 4250 
Q 1322 4250 1067 3948 
Q 813 3647 813 3219 
z
" transform="scale(0.015625)"/>
       </defs>
       <use xlink:href="#MalgunGothic-30"/>
       <use xlink:href="#MalgunGothic-39" transform="translate(55.078125 0)"/>
      </g>
     </g>
    </g>
    <g id="xtick_10">
     <g id="line2d_10">
      <g>
       <use xlink:href="#me409df56a9" x="440.290853" y="240.664368" style="stroke: #000000; stroke-width: 0.8"/>
      </g>
     </g>
     <g id="text_10">
      <!-- 10 -->
      <g transform="translate(432.722159 258.190536) rotate(-45) scale(0.08 -0.08)">
       <use xlink:href="#MalgunGothic-31"/>
       <use xlink:href="#MalgunGothic-30" transform="translate(55.078125 0)"/>
      </g>
     </g>
    </g>
    <g id="xtick_11">
     <g id="line2d_11">
      <g>
       <use xlink:href="#me409df56a9" x="477.452982" y="240.664368" style="stroke: #000000; stroke-width: 0.8"/>
      </g>
     </g>
     <g id="text_11">
      <!-- 11 -->
      <g transform="translate(469.884287 258.190536) rotate(-45) scale(0.08 -0.08)">
       <use xlink:href="#MalgunGothic-31"/>
       <use xlink:href="#MalgunGothic-31" transform="translate(55.078125 0)"/>
      </g>
     </g>
    </g>
    <g id="xtick_12">
     <g id="line2d_12">
      <g>
       <use xlink:href="#me409df56a9" x="514.61511" y="240.664368" style="stroke: #000000; stroke-width: 0.8"/>
      </g>
     </g>
     <g id="text_12">
      <!-- 12 -->
      <g transform="translate(507.046416 258.190536) rotate(-45) scale(0.08 -0.08)">
       <use xlink:href="#MalgunGothic-31"/>
       <use xlink:href="#MalgunGothic-32" transform="translate(55.078125 0)"/>
      </g>
     </g>
    </g>
    <g id="xtick_13">
     <g id="line2d_13">
      <g>
       <use xlink:href="#me409df56a9" x="551.777238" y="240.664368" style="stroke: #000000; stroke-width: 0.8"/>
      </g>
     </g>
     <g id="text_13">
      <!-- 2025.01 -->
      <g transform="translate(530.50835 271.89073) rotate(-45) scale(0.08 -0.08)">
       <use xlink:href="#MalgunGothic-32"/>
       <use xlink:href="#MalgunGothic-30" transform="translate(55.078125 0)"/>
       <use xlink:href="#MalgunGothic-32" transform="translate(110.15625 0)"/>
       <use xlink:href="#MalgunGothic-35" transform="translate(165.234375 0)"/>
       <use xlink:href="#MalgunGothic-2e" transform="translate(220.3125 0)"/>
       <use xlink:href="#MalgunGothic-30" transform="translate(242.1875 0)"/>
       <use xlink:href="#MalgunGothic-31" transform="translate(297.265625 0)"/>
      </g>
     </g>
    </g>
    <g id="xtick_14">
     <g id="line2d_14">
      <g>
       <use xlink:href="#me409df56a9" x="588.939367" y="240.664368" style="stroke: #000000; stroke-width: 0.8"/>
      </g>
     </g>
     <g id="text_14">
      <!-- 02 -->
      <g transform="translate(581.370672 258.190536) rotate(-45) scale(0.08 -0.08)">
       <use xlink:href="#MalgunGothic-30"/>
       <use xlink:href="#MalgunGothic-32" transform="translate(55.078125 0)"/>
      </g>
     </g>
    </g>
    <g id="xtick_15">
     <g id="line2d_15">
      <g>
       <use xlink:href="#me409df56a9" x="626.101495" y="240.664368" style="stroke: #000000; stroke-width: 0.8"/>
      </g>
     </g>
     <g id="text_15">
      <!-- 03 -->
      <g transform="translate(618.532801 258.190536) rotate(-45) scale(0.08 -0.08)">
       <use xlink:href="#MalgunGothic-30"/>
       <use xlink:href="#MalgunGothic-33" transform="translate(55.078125 0)"/>
      </g>
     </g>
    </g>
    <g id="xtick_16">
     <g id="line2d_16">
      <g>
       <use xlink:href="#me409df56a9" x="663.263623" y="240.664368" style="stroke: #000000; stroke-width: 0.8"/>
      </g>
     </g>
     <g id="text_16">
      <!-- 04 -->
      <g transform="translate(655.694929 258.190536) rotate(-45) scale(0.08 -0.08)">
       <use xlink:href="#MalgunGothic-30"/>
       <use xlink:href="#MalgunGothic-34" transform="translate(55.078125 0)"/>
      </g>
     </g>
    </g>
    <g id="xtick_17">
     <g id="line2d_17">
      <g>
       <use xlink:href="#me409df56a9" x="700.425752" y="240.664368" style="stroke: #000000; stroke-width: 0.8"/>
      </g>
     </g>
     <g id="text_17">
      <!-- 05 -->
      <g transform="translate(692.857057 258.190536) rotate(-45) scale(0.08 -0.08)">
       <use xlink:href="#MalgunGothic-30"/>
       <use xlink:href="#MalgunGothic-35" transform="translate(55.078125 0)"/>
      </g>
     </g>
    </g>
    <g id="xtick_18">
     <g id="line2d_18">
      <g>
       <use xlink:href="#me409df56a9" x="737.58788" y="240.664368" style="stroke: #000000; stroke-width: 0.8"/>
      </g>
     </g>
     <g id="text_18">
      <!-- 06 -->
      <g transform="translate(730.019186 258.190536) rotate(-45) scale(0.08 -0.08)">
       <use xlink:href="#MalgunGothic-30"/>
       <use xlink:href="#MalgunGothic-36" transform="translate(55.078125 0)"/>
      </g>
     </g>
    </g>
    <g id="xtick_19">
     <g id="line2d_19">
      <g>
       <use xlink:href="#me409df56a9" x="774.750008" y="240.664368" style="stroke: #000000; stroke-width: 0.8"/>
      </g>
     </g>
     <g id="text_19">
      <!-- 07 -->
      <g transform="translate(767.181314 258.190536) rotate(-45) scale(0.08 -0.08)">
       <use xlink:href="#MalgunGothic-30"/>
       <use xlink:href="#MalgunGothic-37" transform="translate(55.078125 0)"/>
      </g>
     </g>
    </g>
    <g id="xtick_20">
     <g id="line2d_20">
      <g>
       <use xlink:href="#me409df56a9" x="811.912137" y="240.664368" style="stroke: #000000; stroke-width: 0.8"/>
      </g>
     </g>
     <g id="text_20">
      <!-- 08 -->
      <g transform="translate(804.343443 258.190536) rotate(-45) scale(0.08 -0.08)">
       <use xlink:href="#MalgunGothic-30"/>
       <use xlink:href="#MalgunGothic-38" transform="translate(55.078125 0)"/>
      </g>
     </g>
    </g>
    <g id="xtick_21">
     <g id="line2d_21">
      <g>
       <use xlink:href="#me409df56a9" x="849.074265" y="240.664368" style="stroke: #000000; stroke-width: 0.8"/>
      </g>
     </g>
     <g id="text_21">
      <!-- 09 -->
      <g transform="translate(841.505571 258.190536) rotate(-45) scale(0.08 -0.08)">
       <use xlink:href="#MalgunGothic-30"/>
       <use xlink:href="#MalgunGothic-39" transform="translate(55.078125 0)"/>
      </g>
     </g>
    </g>
    <g id="xtick_22">
     <g id="line2d_22">
      <g>
       <use xlink:href="#me409df56a9" x="886.236393" y="240.664368" style="stroke: #000000; stroke-width: 0.8"/>
      </g>
     </g>
     <g id="text_22">
      <!-- 10 -->
      <g transform="translate(878.667699 258.190536) rotate(-45) scale(0.08 -0.08)">
       <use xlink:href="#MalgunGothic-31"/>
       <use xlink:href="#MalgunGothic-30" transform="translate(55.078125 0)"/>
      </g>
     </g>
    </g>
    <g id="xtick_23">
     <g id="line2d_23">
      <g>
       <use xlink:href="#me409df56a9" x="923.398522" y="240.664368" style="stroke: #000000; stroke-width: 0.8"/>
      </g>
     </g>
     <g id="text_23">
      <!-- 11 -->
      <g transform="translate(915.829828 258.190536) rotate(-45) scale(0.08 -0.08)">
       <use xlink:href="#MalgunGothic-31"/>
       <use xlink:href="#MalgunGothic-31" transform="translate(55.078125 0)"/>
      </g>
     </g>
    </g>
    <g id="xtick_24">
     <g id="line2d_24">
      <g>
       <use xlink:href="#me409df56a9" x="960.56065" y="240.664368" style="stroke: #000000; stroke-width: 0.8"/>
      </g>
     </g>
     <g id="text_24">
      <!-- 12 -->
      <g transform="translate(952.991956 258.190536) rotate(-45) scale(0.08 -0.08)">
       <use xlink:href="#MalgunGothic-31"/>
       <use xlink:href="#MalgunGothic-32" transform="translate(55.078125 0)"/>
      </g>
     </g>
    </g>
    <g id="xtick_25">
     <g id="line2d_25">
      <g>
       <use xlink:href="#me409df56a9" x="997.722779" y="240.664368" style="stroke: #000000; stroke-width: 0.8"/>
      </g>
     </g>
     <g id="text_25">
      <!-- 2026.01 -->
      <g transform="translate(976.45389 271.89073) rotate(-45) scale(0.08 -0.08)">
       <use xlink:href="#MalgunGothic-32"/>
       <use xlink:href="#MalgunGothic-30" transform="translate(55.078125 0)"/>
       <use xlink:href="#MalgunGothic-32" transform="translate(110.15625 0)"/>
       <use xlink:href="#MalgunGothic-36" transform="translate(165.234375 0)"/>
       <use xlink:href="#MalgunGothic-2e" transform="translate(220.3125 0)"/>
       <use xlink:href="#MalgunGothic-30" transform="translate(242.1875 0)"/>
       <use xlink:href="#MalgunGothic-31" transform="translate(297.265625 0)"/>
      </g>
     </g>
    </g>
    <g id="xtick_26">
     <g id="line2d_26">
      <g>
       <use xlink:href="#me409df56a9" x="1034.884907" y="240.664368" style="stroke: #000000; stroke-width: 0.8"/>
      </g>
     </g>
     <g id="text_26">
      <!-- 02 -->
      <g transform="translate(1027.316213 258.190536) rotate(-45) scale(0.08 -0.08)">
       <use xlink:href="#MalgunGothic-30"/>
       <use xlink:href="#MalgunGothic-32" transform="translate(55.078125 0)"/>
      </g>
     </g>
    </g>
    <g id="xtick_27">
     <g id="line2d_27">
      <g>
       <use xlink:href="#me409df56a9" x="1072.047035" y="240.664368" style="stroke: #000000; stroke-width: 0.8"/>
      </g>
     </g>
     <g id="text_27">
      <!-- 03 -->
      <g transform="translate(1064.478341 258.190536) rotate(-45) scale(0.08 -0.08)">
       <use xlink:href="#MalgunGothic-30"/>
       <use xlink:href="#MalgunGothic-33" transform="translate(55.078125 0)"/>
      </g>
     </g>
    </g>
    <g id="xtick_28">
     <g id="line2d_28">
      <g>
       <use xlink:href="#me409df56a9" x="1109.209164" y="240.664368" style="stroke: #000000; stroke-width: 0.8"/>
      </g>
     </g>
     <g id="text_28">
      <!-- 04 -->
      <g transform="translate(1101.640469 258.190536) rotate(-45) scale(0.08 -0.08)">
       <use xlink:href="#MalgunGothic-30"/>
       <use xlink:href="#MalgunGothic-34" transform="translate(55.078125 0)"/>
      </g>
     </g>
    </g>
    <g id="xtick_29">
     <g id="line2d_29">
      <g>
       <use xlink:href="#me409df56a9" x="1146.371292" y="240.664368" style="stroke: #000000; stroke-width: 0.8"/>
      </g>
     </g>
     <g id="text_29">
      <!-- 05 -->
      <g transform="translate(1138.802598 258.190536) rotate(-45) scale(0.08 -0.08)">
       <use xlink:href="#MalgunGothic-30"/>
       <use xlink:href="#MalgunGothic-35" transform="translate(55.078125 0)"/>
      </g>
     </g>
    </g>
    <g id="xtick_30">
     <g id="line2d_30">
      <g>
       <use xlink:href="#me409df56a9" x="1183.53342" y="240.664368" style="stroke: #000000; stroke-width: 0.8"/>
      </g>
     </g>
     <g id="text_30">
      <!-- 06 -->
      <g transform="translate(1175.964726 258.190536) rotate(-45) scale(0.08 -0.08)">
       <use xlink:href="#MalgunGothic-30"/>
       <use xlink:href="#MalgunGothic-36" transform="translate(55.078125 0)"/>
      </g>
     </g>
    </g>
    <g id="xtick_31">
     <g id="line2d_31">
      <g>
       <use xlink:href="#me409df56a9" x="1220.695549" y="240.664368" style="stroke: #000000; stroke-width: 0.8"/>
      </g>
     </g>
     <g id="text_31">
      <!-- 07 -->
      <g transform="translate(1213.126854 258.190536) rotate(-45) scale(0.08 -0.08)">
       <use xlink:href="#MalgunGothic-30"/>
       <use xlink:href="#MalgunGothic-37" transform="translate(55.078125 0)"/>
      </g>
     </g>
    </g>
    <g id="xtick_32">
     <g id="line2d_32">
      <g>
       <use xlink:href="#me409df56a9" x="1257.857677" y="240.664368" style="stroke: #000000; stroke-width: 0.8"/>
      </g>
     </g>
     <g id="text_32">
      <!-- 08 -->
      <g transform="translate(1250.288983 258.190536) rotate(-45) scale(0.08 -0.08)">
       <use xlink:href="#MalgunGothic-30"/>
       <use xlink:href="#MalgunGothic-38" transform="translate(55.078125 0)"/>
      </g>
     </g>
    </g>
   </g>
   <g id="matplotlib.axis_2">
    <g id="ytick_1">
     <g id="line2d_33">
      <defs>
       <path id="m6026f10142" d="M 0 0 
L -3.5 0 
" style="stroke: #000000; stroke-width: 0.8"/>
      </defs>
      <g>
       <use xlink:href="#m6026f10142" x="31.879063" y="240.664368" style="stroke: #000000; stroke-width: 0.8"/>
      </g>
     </g>
     <g id="text_33">
      <!-- 0 -->
      <g transform="translate(20.472813 243.701243) scale(0.08 -0.08)">
       <use xlink:href="#MalgunGothic-30"/>
      </g>
     </g>
    </g>
    <g id="ytick_2">
     <g id="line2d_34">
      <g>
       <use xlink:href="#m6026f10142" x="31.879063" y="197.117774" style="stroke: #000000; stroke-width: 0.8"/>
      </g>
     </g>
     <g id="text_34">
      <!-- 0 -->
      <g transform="translate(20.472813 200.154649) scale(0.08 -0.08)">
       <use xlink:href="#MalgunGothic-30"/>
      </g>
     </g>
    </g>
    <g id="ytick_3">
     <g id="line2d_35">
      <g>
       <use xlink:href="#m6026f10142" x="31.879063" y="153.57118" style="stroke: #000000; stroke-width: 0.8"/>
      </g>
     </g>
     <g id="text_35">
      <!-- 0 -->
      <g transform="translate(20.472813 156.608055) scale(0.08 -0.08)">
       <use xlink:href="#MalgunGothic-30"/>
      </g>
     </g>
    </g>
    <g id="ytick_4">
     <g id="line2d_36">
      <g>
       <use xlink:href="#m6026f10142" x="31.879063" y="110.024586" style="stroke: #000000; stroke-width: 0.8"/>
      </g>
     </g>
     <g id="text_36">
      <!-- 0 -->
      <g transform="translate(20.472813 113.061461) scale(0.08 -0.08)">
       <use xlink:href="#MalgunGothic-30"/>
      </g>
     </g>
    </g>
    <g id="ytick_5">
     <g id="line2d_37">
      <g>
       <use xlink:href="#m6026f10142" x="31.879063" y="66.477991" style="stroke: #000000; stroke-width: 0.8"/>
      </g>
     </g>
     <g id="text_37">
      <!-- 0 -->
      <g transform="translate(20.472813 69.514866) scale(0.08 -0.08)">
       <use xlink:href="#MalgunGothic-30"/>
      </g>
     </g>
    </g>
    <g id="text_38">
     <!-- 수출 (백만$) -->
     <g transform="translate(14.345156 157.101403) rotate(-90) scale(0.09 -0.09)">
      <defs>
       <path id="MalgunGothic-c218" d="M 5491 2994 
Q 4750 3097 4078 3498 
Q 3406 3900 3200 4275 
Q 2975 3891 2309 3491 
Q 1644 3091 922 2956 
L 634 3347 
Q 1559 3450 2261 3942 
Q 2963 4434 2963 5013 
L 2963 5275 
L 3431 5275 
L 3431 5013 
Q 3431 4431 4118 3948 
Q 4806 3466 5766 3378 
L 5491 2994 
z
M 3431 1838 
L 3431 -563 
L 2963 -563 
L 2963 1838 
L 403 1838 
L 403 2253 
L 5997 2253 
L 5997 1838 
L 3431 1838 
z
" transform="scale(0.015625)"/>
       <path id="MalgunGothic-cd9c" d="M 5466 3334 
Q 4759 3400 4114 3664 
Q 3469 3928 3213 4225 
Q 2966 3931 2323 3670 
Q 1681 3409 966 3341 
L 709 3750 
Q 1328 3725 2017 3970 
Q 2706 4216 2906 4603 
L 1056 4603 
L 1056 5019 
L 2969 5019 
L 2969 5550 
L 3444 5550 
L 3444 5019 
L 5344 5019 
L 5344 4603 
L 3494 4603 
Q 3691 4241 4356 3995 
Q 5022 3750 5691 3750 
L 5466 3334 
z
M 1319 -416 
L 1319 947 
L 4616 947 
L 4616 1478 
L 1319 1478 
L 1319 1888 
L 2963 1888 
L 2963 2484 
L 403 2484 
L 403 2900 
L 5997 2900 
L 5997 2484 
L 3438 2484 
L 3438 1888 
L 5075 1888 
L 5075 544 
L 1778 544 
L 1778 0 
L 5234 0 
L 5234 -416 
L 1319 -416 
z
" transform="scale(0.015625)"/>
       <path id="MalgunGothic-20" transform="scale(0.015625)"/>
       <path id="MalgunGothic-28" d="M 1438 -1044 
Q 447 88 447 1753 
Q 447 3431 1438 4600 
L 1888 4600 
Q 878 3372 878 1759 
Q 878 153 1881 -1044 
L 1438 -1044 
z
" transform="scale(0.015625)"/>
       <path id="MalgunGothic-bc31" d="M 5056 2028 
L 5056 3438 
L 4359 3438 
L 4359 2028 
L 3897 2028 
L 3897 5344 
L 4359 5344 
L 4359 3859 
L 5056 3859 
L 5056 5466 
L 5522 5466 
L 5522 2028 
L 5056 2028 
z
M 763 2363 
L 763 5209 
L 1222 5209 
L 1222 4103 
L 2772 4103 
L 2772 5209 
L 3231 5209 
L 3231 2363 
L 763 2363 
z
M 2772 3688 
L 1222 3688 
L 1222 2778 
L 2772 2778 
L 2772 3688 
z
M 5056 -563 
L 5056 1281 
L 1581 1281 
L 1581 1697 
L 5522 1697 
L 5522 -563 
L 5056 -563 
z
" transform="scale(0.015625)"/>
       <path id="MalgunGothic-b9cc" d="M 5125 3169 
L 5125 1056 
L 4659 1056 
L 4659 5466 
L 5125 5466 
L 5125 3591 
L 6034 3591 
L 6034 3169 
L 5125 3169 
z
M 763 2241 
L 763 5100 
L 3513 5100 
L 3513 2241 
L 763 2241 
z
M 3053 4684 
L 1222 4684 
L 1222 2656 
L 3053 2656 
L 3053 4684 
z
M 1459 -331 
L 1459 1581 
L 1925 1581 
L 1925 91 
L 5294 91 
L 5294 -331 
L 1459 -331 
z
" transform="scale(0.015625)"/>
       <path id="MalgunGothic-24" d="M 1963 -672 
L 1638 -672 
L 1638 0 
Q 953 0 534 272 
L 534 809 
Q 703 653 1039 537 
Q 1375 422 1638 428 
L 1638 2103 
Q 922 2453 725 2731 
Q 528 3009 528 3400 
Q 528 3841 842 4192 
Q 1156 4544 1638 4603 
L 1638 5181 
L 1963 5181 
L 1963 4616 
Q 2594 4597 2822 4441 
L 2822 3916 
Q 2509 4172 1963 4188 
L 1963 2466 
Q 2497 2200 2803 1912 
Q 3109 1625 3109 1181 
Q 3109 725 2804 420 
Q 2500 116 1963 28 
L 1963 -672 
z
M 1638 4172 
Q 1044 4031 1044 3469 
Q 1044 3222 1136 3056 
Q 1228 2891 1638 2644 
L 1638 4172 
z
M 1963 453 
Q 2591 594 2591 1134 
Q 2591 1588 1963 1934 
L 1963 453 
z
" transform="scale(0.015625)"/>
       <path id="MalgunGothic-29" d="M 81 -1044 
Q 1081 150 1081 1759 
Q 1081 3378 72 4600 
L 525 4600 
Q 1522 3431 1522 1753 
Q 1522 88 525 -1044 
L 81 -1044 
z
" transform="scale(0.015625)"/>
      </defs>
      <use xlink:href="#MalgunGothic-c218"/>
      <use xlink:href="#MalgunGothic-cd9c" transform="translate(100 0)"/>
      <use xlink:href="#MalgunGothic-20" transform="translate(200 0)"/>
      <use xlink:href="#MalgunGothic-28" transform="translate(235.15625 0)"/>
      <use xlink:href="#MalgunGothic-bc31" transform="translate(265.625 0)"/>
      <use xlink:href="#MalgunGothic-b9cc" transform="translate(365.625 0)"/>
      <use xlink:href="#MalgunGothic-24" transform="translate(465.625 0)"/>
      <use xlink:href="#MalgunGothic-29" transform="translate(520.703125 0)"/>
     </g>
    </g>
   </g>
   <g id="patch_35">
    <path d="M 31.879063 240.664368 
L 31.879063 23.932969 
" style="fill: none; stroke: #000000; stroke-width: 0.8; stroke-linejoin: miter; stroke-linecap: square"/>
   </g>
   <g id="patch_36">
    <path d="M 1331.810312 240.664368 
L 1331.810312 23.932969 
" style="fill: none; stroke: #000000; stroke-width: 0.8; stroke-linejoin: miter; stroke-linecap: square"/>
   </g>
   <g id="patch_37">
    <path d="M 31.879063 240.664368 
L 1331.810312 240.664368 
" style="fill: none; stroke: #000000; stroke-width: 0.8; stroke-linejoin: miter; stroke-linecap: square"/>
   </g>
   <g id="patch_38">
    <path d="M 31.879063 23.932969 
L 1331.810312 23.932969 
" style="fill: none; stroke: #000000; stroke-width: 0.8; stroke-linejoin: miter; stroke-linecap: square"/>
   </g>
   <g id="text_39">
    <!-- HS 060110 인경(鱗莖)ㆍ괴경(塊莖)ㆍ괴근(塊根)… — 수출 -->
    <g transform="translate(541.196797 15.932969) scale(0.11 -0.11)">
     <defs>
      <path id="MalgunGothic-48" d="M 4028 0 
L 3525 0 
L 3525 2109 
L 1113 2109 
L 1113 0 
L 609 0 
L 609 4600 
L 1113 4600 
L 1113 2569 
L 3525 2569 
L 3525 4600 
L 4028 4600 
L 4028 0 
z
" transform="scale(0.015625)"/>
      <path id="MalgunGothic-53" d="M 394 797 
Q 606 613 964 500 
Q 1322 388 1625 388 
Q 2628 388 2628 1116 
Q 2628 1325 2523 1484 
Q 2419 1644 2250 1756 
Q 2081 1869 1547 2144 
Q 903 2475 651 2754 
Q 400 3034 400 3456 
Q 400 4019 858 4347 
Q 1316 4675 1988 4675 
Q 2669 4675 2963 4513 
L 2963 3928 
Q 2563 4206 1922 4206 
Q 1484 4206 1207 4018 
Q 931 3831 931 3500 
Q 931 3200 1126 3011 
Q 1322 2822 1938 2522 
Q 2656 2163 2906 1844 
Q 3156 1525 3156 1153 
Q 3156 556 2725 239 
Q 2294 -78 1531 -78 
Q 1291 -78 927 -1 
Q 563 75 394 188 
L 394 797 
z
" transform="scale(0.015625)"/>
      <path id="MalgunGothic-c778" d="M 4947 1063 
L 4947 5466 
L 5416 5466 
L 5416 1063 
L 4947 1063 
z
M 2438 2175 
Q 1763 2175 1309 2601 
Q 856 3028 856 3706 
Q 856 4388 1307 4811 
Q 1759 5234 2438 5234 
Q 3116 5234 3564 4812 
Q 4013 4391 4013 3706 
Q 4013 3028 3563 2601 
Q 3113 2175 2438 2175 
z
M 2438 4819 
Q 1944 4819 1634 4516 
Q 1325 4213 1325 3706 
Q 1325 3200 1633 2895 
Q 1941 2591 2438 2591 
Q 2934 2591 3243 2895 
Q 3553 3200 3553 3706 
Q 3553 4213 3243 4516 
Q 2934 4819 2438 4819 
z
M 1613 -331 
L 1613 1625 
L 2081 1625 
L 2081 91 
L 5575 91 
L 5575 -331 
L 1613 -331 
z
" transform="scale(0.015625)"/>
      <path id="MalgunGothic-acbd" d="M 4947 1934 
L 4947 2688 
L 3681 2688 
L 3681 3109 
L 4947 3109 
L 4947 3963 
L 3744 3963 
L 3744 4384 
L 4947 4384 
L 4947 5466 
L 5416 5466 
L 5416 1934 
L 4947 1934 
z
M 3609 5147 
Q 3547 4019 2742 3156 
Q 1938 2294 872 1881 
L 544 2253 
Q 1459 2544 2181 3217 
Q 2903 3891 3066 4728 
L 941 4728 
L 941 5147 
L 3609 5147 
z
M 3481 -481 
Q 2538 -481 2020 -143 
Q 1503 194 1503 716 
Q 1503 1238 2020 1569 
Q 2538 1900 3481 1900 
Q 4428 1900 4947 1569 
Q 5466 1238 5466 716 
Q 5466 194 4948 -143 
Q 4431 -481 3481 -481 
z
M 3481 1497 
Q 2775 1497 2386 1275 
Q 1997 1053 1997 716 
Q 1997 375 2381 148 
Q 2766 -78 3481 -78 
Q 4194 -78 4580 147 
Q 4966 372 4966 716 
Q 4966 1056 4575 1276 
Q 4184 1497 3481 1497 
z
" transform="scale(0.015625)"/>
      <path id="MalgunGothic-f9f2" d="M 6119 2847 
L 5831 2522 
Q 5041 3016 4603 3781 
L 4603 2522 
L 4206 2522 
L 4206 3781 
Q 3669 2938 2963 2572 
L 2725 2900 
Q 3306 3181 3738 3775 
L 2900 3775 
L 2900 4097 
L 4197 4097 
L 4197 5228 
L 4594 5228 
L 4594 4103 
L 5991 4103 
L 5991 3781 
L 5063 3781 
Q 5475 3163 6119 2847 
z
M 2688 1575 
L 775 1569 
L 775 3419 
Q 722 3359 622 3256 
L 313 3553 
Q 928 4106 1153 5216 
L 1516 5081 
Q 1488 4891 1422 4738 
L 2363 4738 
Q 2309 4234 2138 3834 
L 2688 3834 
L 2688 1575 
z
M 1906 4397 
L 1331 4397 
Q 1169 4003 1050 3828 
L 1722 3828 
Q 1819 4016 1906 4397 
z
M 2322 2900 
L 2322 3494 
L 1900 3494 
L 1900 2900 
L 2322 2900 
z
M 1556 2900 
L 1563 3494 
L 1141 3494 
L 1141 2900 
L 1556 2900 
z
M 2322 1906 
L 2322 2566 
L 1900 2566 
L 1900 1906 
L 2322 1906 
z
M 1556 1906 
L 1563 2566 
L 1141 2566 
L 1141 1906 
L 1556 1906 
z
M 5759 4916 
Q 5484 4481 5100 4231 
L 4769 4441 
Q 5213 4697 5447 5094 
L 5759 4916 
z
M 4006 4397 
L 3669 4225 
Q 3306 4709 2956 4884 
L 3291 5075 
Q 3688 4872 4006 4397 
z
M 4300 2188 
Q 4300 1453 4164 1003 
Q 4028 553 3689 178 
Q 3350 -197 2828 -416 
L 2597 -103 
Q 3219 131 3572 634 
Q 3459 825 3250 972 
L 3475 1259 
Q 3606 1159 3763 978 
Q 3916 1269 3938 1875 
L 3525 1875 
Q 3391 1372 3175 1038 
L 2816 1222 
Q 3253 1803 3309 2681 
L 3675 2606 
Q 3653 2369 3622 2188 
L 4300 2188 
z
M 6009 422 
L 5575 428 
L 5575 -403 
L 5178 -403 
L 5178 422 
L 4219 422 
L 4219 738 
L 4513 738 
L 4513 2163 
L 5172 2163 
L 5172 2547 
L 5569 2547 
L 5569 2169 
L 5966 2169 
L 5966 1856 
L 5569 1856 
L 5569 738 
L 6009 738 
L 6009 422 
z
M 5178 738 
L 5178 1856 
L 4863 1856 
L 4863 738 
L 5178 738 
z
M 3066 281 
L 2688 191 
Q 2559 863 2284 1306 
L 2650 1369 
Q 2875 994 3066 281 
z
M 1166 1153 
Q 1063 434 703 -197 
L 306 -44 
Q 713 578 800 1306 
L 1166 1153 
z
M 2406 128 
L 1997 72 
Q 1997 847 1784 1234 
L 2144 1300 
Q 2328 825 2406 128 
z
M 1684 0 
L 1300 -44 
Q 1344 297 1344 547 
Q 1344 856 1275 1184 
L 1625 1253 
Q 1713 881 1713 472 
Q 1713 238 1684 0 
z
" transform="scale(0.015625)"/>
      <path id="MalgunGothic-8396" d="M 5919 4288 
L 4538 4288 
L 4538 3775 
L 4134 3775 
L 4134 4288 
L 2291 4288 
L 2291 3775 
L 1888 3775 
L 1888 4281 
L 500 4281 
L 500 4659 
L 1881 4659 
L 1881 5222 
L 2284 5222 
L 2284 4659 
L 4128 4659 
L 4128 5222 
L 4531 5222 
L 4531 4666 
L 5919 4666 
L 5919 4288 
z
M 5663 3231 
L 738 3225 
L 738 3616 
L 5663 3616 
L 5663 3231 
z
M 2278 2944 
Q 2081 2616 1600 2272 
Q 2019 1938 2278 1575 
L 1906 1356 
Q 1469 1928 953 2291 
Q 1616 2663 1947 3163 
L 2278 2944 
z
M 5394 1563 
L 5031 1356 
Q 4516 1991 4038 2266 
Q 4559 2650 4819 3150 
L 5216 2994 
Q 5006 2616 4659 2284 
Q 5169 1916 5394 1563 
z
M 3788 1538 
L 3444 1331 
Q 3009 2013 2509 2284 
Q 3113 2678 3378 3150 
L 3719 2925 
Q 3519 2606 3122 2297 
Q 3534 1966 3788 1538 
z
M 6047 -197 
L 353 -197 
L 353 184 
L 2988 184 
L 2988 863 
L 984 863 
L 984 1253 
L 5394 1253 
L 5394 872 
L 3391 872 
L 3391 191 
L 6047 191 
L 6047 -197 
z
" transform="scale(0.015625)"/>
      <path id="MalgunGothic-318d" d="M 3781 2438 
Q 3781 2184 3611 2011 
Q 3441 1838 3181 1838 
Q 2928 1838 2753 2011 
Q 2578 2184 2578 2438 
Q 2578 2703 2751 2875 
Q 2925 3047 3181 3047 
Q 3438 3047 3609 2873 
Q 3781 2700 3781 2438 
z
" transform="scale(0.015625)"/>
      <path id="MalgunGothic-ad34" d="M 4978 -563 
L 4978 5466 
L 5453 5466 
L 5453 -563 
L 4978 -563 
z
M 953 4447 
L 953 4863 
L 4013 4863 
Q 4013 3022 3897 1734 
L 3444 1766 
Q 3484 2206 3515 3165 
Q 3547 4125 3547 4447 
L 953 4447 
z
M 506 519 
L 447 928 
L 722 928 
Q 1472 928 1941 941 
L 1941 3028 
L 2413 3028 
L 2413 947 
Q 3703 963 4475 1013 
L 4506 609 
Q 3884 572 2478 545 
Q 1072 519 506 519 
z
" transform="scale(0.015625)"/>
      <path id="MalgunGothic-584a" d="M 2356 1222 
L 538 441 
L 319 769 
L 1147 1119 
L 1147 3078 
L 447 3078 
L 447 3463 
L 1141 3463 
L 1141 5228 
L 1544 5228 
L 1544 3469 
L 2156 3469 
L 2156 3084 
L 1544 3084 
L 1544 1294 
L 2356 1644 
L 2356 1222 
z
M 6100 622 
Q 6084 516 6001 266 
Q 5919 16 5819 -98 
Q 5719 -213 5338 -213 
L 4441 -213 
Q 3788 -213 3788 475 
L 3788 2034 
L 3500 2047 
Q 3450 1194 3106 639 
Q 2763 84 1869 -397 
L 1563 -63 
Q 3056 581 3097 2041 
L 2394 2041 
L 2394 4581 
L 3481 4581 
Q 3581 4850 3634 5222 
L 4072 5119 
Q 4003 4809 3891 4588 
L 5350 4588 
L 5350 2047 
L 4184 2047 
L 4184 447 
Q 4184 184 4403 184 
L 5344 184 
Q 5531 184 5593 346 
Q 5656 509 5656 603 
L 5478 525 
Q 5447 634 5381 819 
L 4391 513 
L 4281 850 
L 4447 884 
Q 4616 1313 4744 1913 
L 5081 1813 
Q 4856 1047 4775 941 
L 5294 1069 
Q 5197 1219 5088 1344 
L 5375 1478 
Q 5584 1238 5753 769 
L 6100 622 
z
M 4947 3547 
L 4947 4206 
L 4072 4206 
L 4072 3547 
L 4947 3547 
z
M 3669 3547 
L 3675 4206 
L 2772 4206 
L 2772 3547 
L 3669 3547 
z
M 4947 2425 
L 4947 3163 
L 4072 3163 
L 4072 2425 
L 4947 2425 
z
M 3675 2425 
L 3675 3163 
L 2772 3163 
L 2772 2425 
L 3675 2425 
z
" transform="scale(0.015625)"/>
      <path id="MalgunGothic-adfc" d="M 403 2356 
L 403 2772 
L 4563 2772 
Q 4634 3506 4634 4744 
L 1338 4744 
L 1338 5159 
L 5100 5159 
Q 5100 3575 5025 2772 
L 5997 2772 
L 5997 2356 
L 403 2356 
z
M 1381 -306 
L 1381 1716 
L 1850 1716 
L 1850 116 
L 5184 116 
L 5184 -306 
L 1381 -306 
z
" transform="scale(0.015625)"/>
      <path id="MalgunGothic-6839" d="M 2766 1966 
L 2419 1728 
Q 2325 2166 1919 2613 
L 1919 -403 
L 1516 -403 
L 1516 2688 
Q 1284 1863 622 1088 
L 313 1369 
Q 1141 2153 1441 3622 
L 603 3622 
L 603 4006 
L 1509 4006 
L 1509 5222 
L 1913 5222 
L 1913 4013 
L 2700 4013 
L 2700 3628 
L 1913 3628 
L 1913 2875 
L 2094 2950 
Q 2578 2569 2766 1966 
z
M 6034 -31 
L 5778 -416 
Q 4222 316 3994 2222 
L 3272 2222 
L 3272 191 
L 4372 538 
L 4372 141 
L 2559 -409 
L 2375 -38 
L 2869 97 
L 2869 4966 
L 5388 4966 
L 5388 2222 
L 4403 2222 
Q 4506 1659 4641 1375 
Q 5059 1597 5575 2088 
L 5838 1778 
Q 5291 1238 4806 1031 
Q 5156 413 6034 -31 
z
M 4984 3803 
L 4984 4581 
L 3272 4581 
L 3272 3803 
L 4984 3803 
z
M 4984 2597 
L 4984 3419 
L 3272 3419 
L 3272 2597 
L 4984 2597 
z
" transform="scale(0.015625)"/>
      <path id="MalgunGothic-2026" d="M 3616 281 
Q 3616 425 3712 529 
Q 3809 634 3950 634 
Q 4088 634 4188 528 
Q 4288 422 4288 281 
Q 4288 141 4186 42 
Q 4084 -56 3950 -56 
Q 3813 -56 3714 44 
Q 3616 144 3616 281 
z
M 2025 281 
Q 2025 428 2126 531 
Q 2228 634 2366 634 
Q 2509 634 2606 526 
Q 2703 419 2703 281 
Q 2703 141 2601 42 
Q 2500 -56 2366 -56 
Q 2228 -56 2126 42 
Q 2025 141 2025 281 
z
M 450 281 
Q 450 428 547 531 
Q 644 634 784 634 
Q 919 634 1019 528 
Q 1119 422 1119 281 
Q 1119 144 1020 44 
Q 922 -56 784 -56 
Q 644 -56 547 42 
Q 450 141 450 281 
z
" transform="scale(0.015625)"/>
      <path id="MalgunGothic-2014" d="M 6566 1634 
L 0 1634 
L 0 2031 
L 6566 2031 
L 6566 1634 
z
" transform="scale(0.015625)"/>
     </defs>
     <use xlink:href="#MalgunGothic-48"/>
     <use xlink:href="#MalgunGothic-53" transform="translate(72.460938 0)"/>
     <use xlink:href="#MalgunGothic-20" transform="translate(126.757812 0)"/>
     <use xlink:href="#MalgunGothic-30" transform="translate(161.914062 0)"/>
     <use xlink:href="#MalgunGothic-36" transform="translate(216.992188 0)"/>
     <use xlink:href="#MalgunGothic-30" transform="translate(272.070312 0)"/>
     <use xlink:href="#MalgunGothic-31" transform="translate(327.148438 0)"/>
     <use xlink:href="#MalgunGothic-31" transform="translate(382.226562 0)"/>
     <use xlink:href="#MalgunGothic-30" transform="translate(437.304688 0)"/>
     <use xlink:href="#MalgunGothic-20" transform="translate(492.382812 0)"/>
     <use xlink:href="#MalgunGothic-c778" transform="translate(527.539062 0)"/>
     <use xlink:href="#MalgunGothic-acbd" transform="translate(627.539062 0)"/>
     <use xlink:href="#MalgunGothic-28" transform="translate(727.539062 0)"/>
     <use xlink:href="#MalgunGothic-f9f2" transform="translate(758.007812 0)"/>
     <use xlink:href="#MalgunGothic-8396" transform="translate(858.007812 0)"/>
     <use xlink:href="#MalgunGothic-29" transform="translate(958.007812 0)"/>
     <use xlink:href="#MalgunGothic-318d" transform="translate(988.476562 0)"/>
     <use xlink:href="#MalgunGothic-ad34" transform="translate(1088.476562 0)"/>
     <use xlink:href="#MalgunGothic-acbd" transform="translate(1188.476562 0)"/>
     <use xlink:href="#MalgunGothic-28" transform="translate(1288.476562 0)"/>
     <use xlink:href="#MalgunGothic-584a" transform="translate(1318.945312 0)"/>
     <use xlink:href="#MalgunGothic-8396" transform="translate(1418.945312 0)"/>
     <use xlink:href="#MalgunGothic-29" transform="translate(1518.945312 0)"/>
     <use xlink:href="#MalgunGothic-318d" transform="translate(1549.414062 0)"/>
     <use xlink:href="#MalgunGothic-ad34" transform="translate(1649.414062 0)"/>
     <use xlink:href="#MalgunGothic-adfc" transform="translate(1749.414062 0)"/>
     <use xlink:href="#MalgunGothic-28" transform="translate(1849.414062 0)"/>
     <use xlink:href="#MalgunGothic-584a" transform="translate(1879.882812 0)"/>
     <use xlink:href="#MalgunGothic-6839" transform="translate(1979.882812 0)"/>
     <use xlink:href="#MalgunGothic-29" transform="translate(2079.882812 0)"/>
     <use xlink:href="#MalgunGothic-2026" transform="translate(2110.351562 0)"/>
     <use xlink:href="#MalgunGothic-20" transform="translate(2184.326172 0)"/>
     <use xlink:href="#MalgunGothic-2014" transform="translate(2219.482422 0)"/>
     <use xlink:href="#MalgunGothic-20" transform="translate(2322.070312 0)"/>
     <use xlink:href="#MalgunGothic-c218" transform="translate(2357.226562 0)"/>
     <use xlink:href="#MalgunGothic-cd9c" transform="translate(2457.226562 0)"/>
    </g>
   </g>
   <g id="legend_1">
    <g id="patch_39">
     <path d="M 37.479063 55.446719 
L 127.519063 55.446719 
Q 129.119063 55.446719 129.119063 53.846719 
L 129.119063 29.532969 
Q 129.119063 27.932969 127.519063 27.932969 
L 37.479063 27.932969 
Q 35.879063 27.932969 35.879063 29.532969 
L 35.879063 53.846719 
Q 35.879063 55.446719 37.479063 55.446719 
z
" style="fill: #ffffff; opacity: 0.7; stroke: #cccccc; stroke-linejoin: miter"/>
    </g>
    <g id="patch_40">
     <path d="M 39.079063 37.484219 
L 55.079063 37.484219 
L 55.079063 31.884219 
L 39.079063 31.884219 
z
" style="fill: #4472c4; opacity: 0.85"/>
    </g>
    <g id="text_40">
     <!-- 수출(백만$) -->
     <g transform="translate(61.479063 37.484219) scale(0.08 -0.08)">
      <use xlink:href="#MalgunGothic-c218"/>
      <use xlink:href="#MalgunGothic-cd9c" transform="translate(100 0)"/>
      <use xlink:href="#MalgunGothic-28" transform="translate(200 0)"/>
      <use xlink:href="#MalgunGothic-bc31" transform="translate(230.46875 0)"/>
      <use xlink:href="#MalgunGothic-b9cc" transform="translate(330.46875 0)"/>
      <use xlink:href="#MalgunGothic-24" transform="translate(430.46875 0)"/>
      <use xlink:href="#MalgunGothic-29" transform="translate(485.546875 0)"/>
     </g>
    </g>
    <g id="line2d_38">
     <path d="M 39.079063 47.512969 
L 47.079063 47.512969 
L 55.079063 47.512969 
" style="fill: none; stroke: #1f4e79; stroke-width: 1.5; stroke-linecap: square"/>
     <defs>
      <path id="mbe2b3de931" d="M 0 1.5 
C 0.397805 1.5 0.77937 1.341951 1.06066 1.06066 
C 1.341951 0.77937 1.5 0.397805 1.5 0 
C 1.5 -0.397805 1.341951 -0.77937 1.06066 -1.06066 
C 0.77937 -1.341951 0.397805 -1.5 0 -1.5 
C -0.397805 -1.5 -0.77937 -1.341951 -1.06066 -1.06066 
C -1.341951 -0.77937 -1.5 -0.397805 -1.5 0 
C -1.5 0.397805 -1.341951 0.77937 -1.06066 1.06066 
C -0.77937 1.341951 -0.397805 1.5 0 1.5 
z
" style="stroke: #1f4e79"/>
     </defs>
     <g>
      <use xlink:href="#mbe2b3de931" x="47.079063" y="47.512969" style="fill: #1f4e79; stroke: #1f4e79"/>
     </g>
    </g>
    <g id="text_41">
     <!-- 수출단가(USD/kg) -->
     <g transform="translate(61.479063 50.312969) scale(0.08 -0.08)">
      <defs>
       <path id="MalgunGothic-b2e8" d="M 5125 3169 
L 5125 1063 
L 4659 1063 
L 4659 5466 
L 5125 5466 
L 5125 3584 
L 6034 3584 
L 6034 3169 
L 5125 3169 
z
M 3903 2363 
Q 3306 2291 850 2291 
L 850 5081 
L 3688 5081 
L 3688 4666 
L 1319 4666 
L 1319 2706 
Q 3244 2706 3872 2766 
L 3903 2363 
z
M 1459 -378 
L 1459 1581 
L 1925 1581 
L 1925 38 
L 5294 38 
L 5294 -378 
L 1459 -378 
z
" transform="scale(0.015625)"/>
       <path id="MalgunGothic-ac00" d="M 5094 2566 
L 5094 -563 
L 4628 -563 
L 4628 5466 
L 5094 5466 
L 5094 2981 
L 6175 2981 
L 6175 2566 
L 5094 2566 
z
M 3609 4928 
Q 3541 2363 897 863 
L 538 1241 
Q 1484 1631 2234 2506 
Q 2984 3381 3109 4513 
L 794 4513 
L 794 4928 
L 3609 4928 
z
" transform="scale(0.015625)"/>
       <path id="MalgunGothic-55" d="M 3947 1850 
Q 3947 -78 2209 -78 
Q 553 -78 553 1778 
L 553 4600 
L 1056 4600 
L 1056 1813 
Q 1056 381 2272 381 
Q 3441 381 3441 1763 
L 3441 4600 
L 3947 4600 
L 3947 1850 
z
" transform="scale(0.015625)"/>
       <path id="MalgunGothic-44" d="M 609 0 
L 609 4600 
L 1856 4600 
Q 4281 4600 4281 2356 
Q 4281 1288 3587 644 
Q 2894 0 1800 0 
L 609 0 
z
M 1113 4134 
L 1113 463 
L 1813 463 
Q 2734 463 3243 958 
Q 3753 1453 3753 2344 
Q 3753 4134 1844 4134 
L 1113 4134 
z
" transform="scale(0.015625)"/>
       <path id="MalgunGothic-2f" d="M 2584 4600 
L 378 -763 
L -84 -763 
L 2113 4600 
L 2584 4600 
z
" transform="scale(0.015625)"/>
       <path id="MalgunGothic-6b" d="M 3228 0 
L 2525 0 
L 1047 1575 
L 1034 1575 
L 1034 0 
L 538 0 
L 538 4859 
L 1034 4859 
L 1034 1778 
L 1047 1778 
L 2450 3284 
L 3106 3284 
L 1563 1694 
L 3228 0 
z
" transform="scale(0.015625)"/>
       <path id="MalgunGothic-67" d="M 3313 259 
Q 3313 -1547 1603 -1547 
Q 1003 -1547 538 -1313 
L 538 -806 
Q 1088 -1116 1600 -1116 
Q 2822 -1116 2822 194 
L 2822 559 
L 2809 559 
Q 2422 -78 1675 -78 
Q 1066 -78 691 362 
Q 316 803 316 1534 
Q 316 2375 722 2867 
Q 1128 3359 1816 3359 
Q 2484 3359 2809 2822 
L 2822 2822 
L 2822 3284 
L 3313 3284 
L 3313 259 
z
M 2822 1978 
Q 2822 2378 2547 2659 
Q 2272 2941 1878 2941 
Q 1384 2941 1101 2577 
Q 819 2213 819 1572 
Q 819 1016 1092 680 
Q 1366 344 1803 344 
Q 2247 344 2534 666 
Q 2822 988 2822 1478 
L 2822 1978 
z
" transform="scale(0.015625)"/>
      </defs>
      <use xlink:href="#MalgunGothic-c218"/>
      <use xlink:href="#MalgunGothic-cd9c" transform="translate(100 0)"/>
      <use xlink:href="#MalgunGothic-b2e8" transform="translate(200 0)"/>
      <use xlink:href="#MalgunGothic-ac00" transform="translate(300 0)"/>
      <use xlink:href="#MalgunGothic-28" transform="translate(400 0)"/>
      <use xlink:href="#MalgunGothic-55" transform="translate(430.46875 0)"/>
      <use xlink:href="#MalgunGothic-53" transform="translate(500.732422 0)"/>
      <use xlink:href="#MalgunGothic-44" transform="translate(555.029297 0)"/>
      <use xlink:href="#MalgunGothic-2f" transform="translate(626.757812 0)"/>
      <use xlink:href="#MalgunGothic-6b" transform="translate(666.357422 0)"/>
      <use xlink:href="#MalgunGothic-67" transform="translate(714.818359 0)"/>
      <use xlink:href="#MalgunGothic-29" transform="translate(775.023438 0)"/>
     </g>
    </g>
   </g>
  </g>
  <g id="axes_2">
   <g id="matplotlib.axis_3">
    <g id="ytick_6">
     <g id="line2d_39">
      <defs>
       <path id="m23b526ad90" d="M 0 0 
L 3.5 0 
" style="stroke: #000000; stroke-width: 0.8"/>
      </defs>
      <g>
       <use xlink:href="#m23b526ad90" x="1331.810312" y="237.92361" style="stroke: #000000; stroke-width: 0.8"/>
      </g>
     </g>
     <g id="text_42">
      <!-- 0.0 -->
      <g style="fill: #808080" transform="translate(1338.810312 240.960485) scale(0.08 -0.08)">
       <use xlink:href="#MalgunGothic-30"/>
       <use xlink:href="#MalgunGothic-2e" transform="translate(55.078125 0)"/>
       <use xlink:href="#MalgunGothic-30" transform="translate(76.953125 0)"/>
      </g>
     </g>
    </g>
    <g id="ytick_7">
     <g id="line2d_40">
      <g>
       <use xlink:href="#m23b526ad90" x="1331.810312" y="212.721238" style="stroke: #000000; stroke-width: 0.8"/>
      </g>
     </g>
     <g id="text_43">
      <!-- 10.0 -->
      <g style="fill: #808080" transform="translate(1338.810312 215.758113) scale(0.08 -0.08)">
       <use xlink:href="#MalgunGothic-31"/>
       <use xlink:href="#MalgunGothic-30" transform="translate(55.078125 0)"/>
       <use xlink:href="#MalgunGothic-2e" transform="translate(110.15625 0)"/>
       <use xlink:href="#MalgunGothic-30" transform="translate(132.03125 0)"/>
      </g>
     </g>
    </g>
    <g id="ytick_8">
     <g id="line2d_41">
      <g>
       <use xlink:href="#m23b526ad90" x="1331.810312" y="187.518866" style="stroke: #000000; stroke-width: 0.8"/>
      </g>
     </g>
     <g id="text_44">
      <!-- 20.0 -->
      <g style="fill: #808080" transform="translate(1338.810312 190.555741) scale(0.08 -0.08)">
       <use xlink:href="#MalgunGothic-32"/>
       <use xlink:href="#MalgunGothic-30" transform="translate(55.078125 0)"/>
       <use xlink:href="#MalgunGothic-2e" transform="translate(110.15625 0)"/>
       <use xlink:href="#MalgunGothic-30" transform="translate(132.03125 0)"/>
      </g>
     </g>
    </g>
    <g id="ytick_9">
     <g id="line2d_42">
      <g>
       <use xlink:href="#m23b526ad90" x="1331.810312" y="162.316494" style="stroke: #000000; stroke-width: 0.8"/>
      </g>
     </g>
     <g id="text_45">
      <!-- 30.0 -->
      <g style="fill: #808080" transform="translate(1338.810312 165.353369) scale(0.08 -0.08)">
       <use xlink:href="#MalgunGothic-33"/>
       <use xlink:href="#MalgunGothic-30" transform="translate(55.078125 0)"/>
       <use xlink:href="#MalgunGothic-2e" transform="translate(110.15625 0)"/>
       <use xlink:href="#MalgunGothic-30" transform="translate(132.03125 0)"/>
      </g>
     </g>
    </g>
    <g id="ytick_10">
     <g id="line2d_43">
      <g>
       <use xlink:href="#m23b526ad90" x="1331.810312" y="137.114122" style="stroke: #000000; stroke-width: 0.8"/>
      </g>
     </g>
     <g id="text_46">
      <!-- 40.0 -->
      <g style="fill: #808080" transform="translate(1338.810312 140.150997) scale(0.08 -0.08)">
       <use xlink:href="#MalgunGothic-34"/>
       <use xlink:href="#MalgunGothic-30" transform="translate(55.078125 0)"/>
       <use xlink:href="#MalgunGothic-2e" transform="translate(110.15625 0)"/>
       <use xlink:href="#MalgunGothic-30" transform="translate(132.03125 0)"/>
      </g>
     </g>
    </g>
    <g id="ytick_11">
     <g id="line2d_44">
      <g>
       <use xlink:href="#m23b526ad90" x="1331.810312" y="111.91175" style="stroke: #000000; stroke-width: 0.8"/>
      </g>
     </g>
     <g id="text_47">
      <!-- 50.0 -->
      <g style="fill: #808080" transform="translate(1338.810312 114.948625) scale(0.08 -0.08)">
       <use xlink:href="#MalgunGothic-35"/>
       <use xlink:href="#MalgunGothic-30" transform="translate(55.078125 0)"/>
       <use xlink:href="#MalgunGothic-2e" transform="translate(110.15625 0)"/>
       <use xlink:href="#MalgunGothic-30" transform="translate(132.03125 0)"/>
      </g>
     </g>
    </g>
    <g id="ytick_12">
     <g id="line2d_45">
      <g>
       <use xlink:href="#m23b526ad90" x="1331.810312" y="86.709377" style="stroke: #000000; stroke-width: 0.8"/>
      </g>
     </g>
     <g id="text_48">
      <!-- 60.0 -->
      <g style="fill: #808080" transform="translate(1338.810312 89.746252) scale(0.08 -0.08)">
       <use xlink:href="#MalgunGothic-36"/>
       <use xlink:href="#MalgunGothic-30" transform="translate(55.078125 0)"/>
       <use xlink:href="#MalgunGothic-2e" transform="translate(110.15625 0)"/>
       <use xlink:href="#MalgunGothic-30" transform="translate(132.03125 0)"/>
      </g>
     </g>
    </g>
    <g id="ytick_13">
     <g id="line2d_46">
      <g>
       <use xlink:href="#m23b526ad90" x="1331.810312" y="61.507005" style="stroke: #000000; stroke-width: 0.8"/>
      </g>
     </g>
     <g id="text_49">
      <!-- 70.0 -->
      <g style="fill: #808080" transform="translate(1338.810312 64.54388) scale(0.08 -0.08)">
       <use xlink:href="#MalgunGothic-37"/>
       <use xlink:href="#MalgunGothic-30" transform="translate(55.078125 0)"/>
       <use xlink:href="#MalgunGothic-2e" transform="translate(110.15625 0)"/>
       <use xlink:href="#MalgunGothic-30" transform="translate(132.03125 0)"/>
      </g>
     </g>
    </g>
    <g id="ytick_14">
     <g id="line2d_47">
      <g>
       <use xlink:href="#m23b526ad90" x="1331.810312" y="36.304633" style="stroke: #000000; stroke-width: 0.8"/>
      </g>
     </g>
     <g id="text_50">
      <!-- 80.0 -->
      <g style="fill: #808080" transform="translate(1338.810312 39.341508) scale(0.08 -0.08)">
       <use xlink:href="#MalgunGothic-38"/>
       <use xlink:href="#MalgunGothic-30" transform="translate(55.078125 0)"/>
       <use xlink:href="#MalgunGothic-2e" transform="translate(110.15625 0)"/>
       <use xlink:href="#MalgunGothic-30" transform="translate(132.03125 0)"/>
      </g>
     </g>
    </g>
    <g id="text_51">
     <!-- 단가 (USD/kg) -->
     <g style="fill: #808080" transform="translate(1365.465625 161.1282) rotate(-90) scale(0.09 -0.09)">
      <use xlink:href="#MalgunGothic-b2e8"/>
      <use xlink:href="#MalgunGothic-ac00" transform="translate(100 0)"/>
      <use xlink:href="#MalgunGothic-20" transform="translate(200 0)"/>
      <use xlink:href="#MalgunGothic-28" transform="translate(235.15625 0)"/>
      <use xlink:href="#MalgunGothic-55" transform="translate(265.625 0)"/>
      <use xlink:href="#MalgunGothic-53" transform="translate(335.888672 0)"/>
      <use xlink:href="#MalgunGothic-44" transform="translate(390.185547 0)"/>
      <use xlink:href="#MalgunGothic-2f" transform="translate(461.914062 0)"/>
      <use xlink:href="#MalgunGothic-6b" transform="translate(501.513672 0)"/>
      <use xlink:href="#MalgunGothic-67" transform="translate(549.974609 0)"/>
      <use xlink:href="#MalgunGothic-29" transform="translate(610.179688 0)"/>
     </g>
    </g>
   </g>
   <g id="line2d_48">
    <path d="M 180.155955 33.784396 
M 626.101495 230.812941 
" clip-path="url(#pf49c1e83c6)" style="fill: none; stroke: #1f4e79; stroke-width: 1.5; stroke-linecap: square"/>
    <g clip-path="url(#pf49c1e83c6)">
     <use xlink:href="#mbe2b3de931" x="180.155955" y="33.784396" style="fill: #1f4e79; stroke: #1f4e79"/>
     <use xlink:href="#mbe2b3de931" x="626.101495" y="230.812941" style="fill: #1f4e79; stroke: #1f4e79"/>
    </g>
   </g>
   <g id="patch_41">
    <path d="M 31.879063 240.664368 
L 31.879063 23.932969 
" style="fill: none; stroke: #000000; stroke-width: 0.8; stroke-linejoin: miter; stroke-linecap: square"/>
   </g>
   <g id="patch_42">
    <path d="M 1331.810312 240.664368 
L 1331.810312 23.932969 
" style="fill: none; stroke: #000000; stroke-width: 0.8; stroke-linejoin: miter; stroke-linecap: square"/>
   </g>
   <g id="patch_43">
    <path d="M 31.879063 240.664368 
L 1331.810312 240.664368 
" style="fill: none; stroke: #000000; stroke-width: 0.8; stroke-linejoin: miter; stroke-linecap: square"/>
   </g>
   <g id="patch_44">
    <path d="M 31.879063 23.932969 
L 1331.810312 23.932969 
" style="fill: none; stroke: #000000; stroke-width: 0.8; stroke-linejoin: miter; stroke-linecap: square"/>
   </g>
  </g>
 </g>
 <defs>
  <clipPath id="pf49c1e83c6">
   <rect x="31.879063" y="23.932969" width="1299.93125" height="216.731399"/>
  </clipPath>
 </defs>
</svg>
