<?xml version="1.0" encoding="utf-8" standalone="no"?>
<!DOCTYPE svg PUBLIC "-//W3C//DTD SVG 1.1//EN"
  "http://www.w3.org/Graphics/SVG/1.1/DTD/svg11.dtd">
<svg xmlns:xlink="http://www.w3.org/1999/xlink" width="1374.837344pt" height="280.094609pt" viewBox="0 0 1374.837344 280.094609" xmlns="http://www.w3.org/2000/svg" version="1.1">
 <metadata>
  <rdf:RDF xmlns:dc="http://purl.org/dc/elements/1.1/" xmlns:cc="http://creativecommons.org/ns#" xmlns:rdf="http://www.w3.org/1999/02/22-rdf-syntax-ns#">
   <cc:Work>
    <dc:type rdf:resource="http://purl.org/dc/dcmitype/StillImage"/>
    <dc:date>2026-10-01T11:38:41.582652</dc:date>
    <dc:format>image/svg+xml</dc:format>
    <dc:creator>
     <cc:Agent>
      <dc:title>Matplotlib v3.10.9, https://matplotlib.org/</dc:title>
     </cc:Agent>
    </dc:creator>
   </cc:Work>
  </rdf:RDF>
 </metadata>
 <defs>
  <style type="text/css">*{stroke-linejoin: round; stroke-linecap: butt}</style>
 </defs>
 <g id="figure_1">
  <g id="patch_1">
   <path d="M 0 280.094609 
L 1374.837344 280.094609 
L 1374.837344 0 
L 0 0 
z
" style="fill: #ffffff"/>
  </g>
  <g id="axes_1">
   <g id="patch_2">
    <path d="M 36.285313 240.330931 
L 1331.806562 240.330931 
L 1331.806562 23.599531 
L 36.285313 23.599531 
z
" style="fill: #ffffff"/>
   </g>
   <g id="patch_3">
    <path d="M 95.172642 240.330931 
L 124.801487 240.330931 
L 124.801487 109.314283 
L 95.172642 109.314283 
z
" clip-path="url(#pd20b228271)" style="fill: #4472c4; opacity: 0.85"/>
   </g>
   <g id="patch_4">
    <path d="M 132.208698 240.330931 
L 161.837543 240.330931 
L 161.837543 116.20185 
L 132.208698 116.20185 
z
" clip-path="url(#pd20b228271)" style="fill: #4472c4; opacity: 0.85"/>
   </g>
   <g id="patch_5">
    <path d="M 169.244755 240.330931 
L 198.8736 240.330931 
L 198.8736 118.385962 
L 169.244755 118.385962 
z
" clip-path="url(#pd20b228271)" style="fill: #4472c4; opacity: 0.85"/>
   </g>
   <g id="patch_6">
    <path d="M 206.280811 240.330931 
L 235.909656 240.330931 
L 235.909656 104.813199 
L 206.280811 104.813199 
z
" clip-path="url(#pd20b228271)" style="fill: #4472c4; opacity: 0.85"/>
   </g>
   <g id="patch_7">
    <path d="M 243.316867 240.330931 
L 272.945712 240.330931 
L 272.945712 106.016064 
L 243.316867 106.016064 
z
" clip-path="url(#pd20b228271)" style="fill: #4472c4; opacity: 0.85"/>
   </g>
   <g id="patch_8">
    <path d="M 280.352924 240.330931 
L 309.981769 240.330931 
L 309.981769 107.679813 
L 280.352924 107.679813 
z
" clip-path="url(#pd20b228271)" style="fill: #4472c4; opacity: 0.85"/>
   </g>
   <g id="patch_9">
    <path d="M 317.38898 240.330931 
L 347.017825 240.330931 
L 347.017825 102.422847 
L 317.38898 102.422847 
z
" clip-path="url(#pd20b228271)" style="fill: #4472c4; opacity: 0.85"/>
   </g>
   <g id="patch_10">
    <path d="M 354.425036 240.330931 
L 384.053881 240.330931 
L 384.053881 92.265976 
L 354.425036 92.265976 
z
" clip-path="url(#pd20b228271)" style="fill: #4472c4; opacity: 0.85"/>
   </g>
   <g id="patch_11">
    <path d="M 391.461093 240.330931 
L 421.089938 240.330931 
L 421.089938 109.589391 
L 391.461093 109.589391 
z
" clip-path="url(#pd20b228271)" style="fill: #4472c4; opacity: 0.85"/>
   </g>
   <g id="patch_12">
    <path d="M 428.497149 240.330931 
L 458.125994 240.330931 
L 458.125994 112.994922 
L 428.497149 112.994922 
z
" clip-path="url(#pd20b228271)" style="fill: #4472c4; opacity: 0.85"/>
   </g>
   <g id="patch_13">
    <path d="M 465.533205 240.330931 
L 495.16205 240.330931 
L 495.16205 105.422598 
L 465.533205 105.422598 
z
" clip-path="url(#pd20b228271)" style="fill: #4472c4; opacity: 0.85"/>
   </g>
   <g id="patch_14">
    <path d="M 502.569262 240.330931 
L 532.198107 240.330931 
L 532.198107 124.529969 
L 502.569262 124.529969 
z
" clip-path="url(#pd20b228271)" style="fill: #4472c4; opacity: 0.85"/>
   </g>
   <g id="patch_15">
    <path d="M 539.605318 240.330931 
L 569.234163 240.330931 
L 569.234163 113.966693 
L 539.605318 113.966693 
z
" clip-path="url(#pd20b228271)" style="fill: #4472c4; opacity: 0.85"/>
   </g>
   <g id="patch_16">
    <path d="M 576.641374 240.330931 
L 606.270219 240.330931 
L 606.270219 96.267038 
L 576.641374 96.267038 
z
" clip-path="url(#pd20b228271)" style="fill: #4472c4; opacity: 0.85"/>
   </g>
   <g id="patch_17">
    <path d="M 613.67743 240.330931 
L 643.306276 240.330931 
L 643.306276 104.912422 
L 613.67743 104.912422 
z
" clip-path="url(#pd20b228271)" style="fill: #4472c4; opacity: 0.85"/>
   </g>
   <g id="patch_18">
    <path d="M 650.713487 240.330931 
L 680.342332 240.330931 
L 680.342332 104.723764 
L 650.713487 104.723764 
z
" clip-path="url(#pd20b228271)" style="fill: #4472c4; opacity: 0.85"/>
   </g>
   <g id="patch_19">
    <path d="M 687.749543 240.330931 
L 717.378388 240.330931 
L 717.378388 99.583603 
L 687.749543 99.583603 
z
" clip-path="url(#pd20b228271)" style="fill: #4472c4; opacity: 0.85"/>
   </g>
   <g id="patch_20">
    <path d="M 724.785599 240.330931 
L 754.414445 240.330931 
L 754.414445 119.44493 
L 724.785599 119.44493 
z
" clip-path="url(#pd20b228271)" style="fill: #4472c4; opacity: 0.85"/>
   </g>
   <g id="patch_21">
    <path d="M 761.821656 240.330931 
L 791.450501 240.330931 
L 791.450501 100.095444 
L 761.821656 100.095444 
z
" clip-path="url(#pd20b228271)" style="fill: #4472c4; opacity: 0.85"/>
   </g>
   <g id="patch_22">
    <path d="M 798.857712 240.330931 
L 828.486557 240.330931 
L 828.486557 100.587014 
L 798.857712 100.587014 
z
" clip-path="url(#pd20b228271)" style="fill: #4472c4; opacity: 0.85"/>
   </g>
   <g id="patch_23">
    <path d="M 835.893768 240.330931 
L 865.522613 240.330931 
L 865.522613 69.262041 
L 835.893768 69.262041 
z
" clip-path="url(#pd20b228271)" style="fill: #4472c4; opacity: 0.85"/>
   </g>
   <g id="patch_24">
    <path d="M 872.929825 240.330931 
L 902.55867 240.330931 
L 902.55867 101.152155 
L 872.929825 101.152155 
z
" clip-path="url(#pd20b228271)" style="fill: #4472c4; opacity: 0.85"/>
   </g>
   <g id="patch_25">
    <path d="M 909.965881 240.330931 
L 939.594726 240.330931 
L 939.594726 110.224997 
L 909.965881 110.224997 
z
" clip-path="url(#pd20b228271)" style="fill: #4472c4; opacity: 0.85"/>
   </g>
   <g id="patch_26">
    <path d="M 947.001937 240.330931 
L 976.630782 240.330931 
L 976.630782 93.391919 
L 947.001937 93.391919 
z
" clip-path="url(#pd20b228271)" style="fill: #4472c4; opacity: 0.85"/>
   </g>
   <g id="patch_27">
    <path d="M 984.037994 240.330931 
L 1013.666839 240.330931 
L 1013.666839 64.552288 
L 984.037994 64.552288 
z
" clip-path="url(#pd20b228271)" style="fill: #4472c4; opacity: 0.85"/>
   </g>
   <g id="patch_28">
    <path d="M 1021.07405 240.330931 
L 1050.702895 240.330931 
L 1050.702895 89.447073 
L 1021.07405 89.447073 
z
" clip-path="url(#pd20b228271)" style="fill: #4472c4; opacity: 0.85"/>
   </g>
   <g id="patch_29">
    <path d="M 1058.110106 240.330931 
L 1087.738951 240.330931 
L 1087.738951 53.762501 
L 1058.110106 53.762501 
z
" clip-path="url(#pd20b228271)" style="fill: #4472c4; opacity: 0.85"/>
   </g>
   <g id="patch_30">
    <path d="M 1095.146163 240.330931 
L 1124.775008 240.330931 
L 1124.775008 61.303064 
L 1095.146163 61.303064 
z
" clip-path="url(#pd20b228271)" style="fill: #4472c4; opacity: 0.85"/>
   </g>
   <g id="patch_31">
    <path d="M 1132.182219 240.330931 
L 1161.811064 240.330931 
L 1161.811064 50.137991 
L 1132.182219 50.137991 
z
" clip-path="url(#pd20b228271)" style="fill: #4472c4; opacity: 0.85"/>
   </g>
   <g id="patch_32">
    <path d="M 1169.218275 240.330931 
L 1198.84712 240.330931 
L 1198.84712 48.684195 
L 1169.218275 48.684195 
z
" clip-path="url(#pd20b228271)" style="fill: #4472c4; opacity: 0.85"/>
   </g>
   <g id="patch_33">
    <path d="M 1206.254332 240.330931 
L 1235.883177 240.330931 
L 1235.883177 43.840558 
L 1206.254332 43.840558 
z
" clip-path="url(#pd20b228271)" style="fill: #4472c4; opacity: 0.85"/>
   </g>
   <g id="patch_34">
    <path d="M 1243.290388 240.330931 
L 1272.919233 240.330931 
L 1272.919233 33.920074 
L 1243.290388 33.920074 
z
" clip-path="url(#pd20b228271)" style="fill: #4472c4; opacity: 0.85"/>
   </g>
   <g id="matplotlib.axis_1">
    <g id="xtick_1">
     <g id="line2d_1">
      <defs>
       <path id="m7a3147a094" d="M 0 0 
L 0 3.5 
" style="stroke: #000000; stroke-width: 0.8"/>
      </defs>
      <g>
       <use xlink:href="#m7a3147a094" x="109.987065" y="240.330931" style="stroke: #000000; stroke-width: 0.8"/>
      </g>
     </g>
     <g id="text_1">
      <!-- 2024.01 -->
      <g transform="translate(88.718176 271.557293) rotate(-45) scale(0.08 -0.08)">
       <defs>
        <path id="MalgunGothic-32" d="M 2519 3372 
Q 2519 3784 2275 4018 
Q 2031 4253 1628 4253 
Q 1341 4253 1053 4104 
Q 766 3956 534 3697 
L 534 4234 
Q 981 4675 1691 4675 
Q 2281 4675 2642 4334 
Q 3003 3994 3003 3416 
Q 3003 2919 2772 2545 
Q 2541 2172 1984 1775 
Q 1459 1406 1254 1215 
Q 1050 1025 967 854 
Q 884 684 884 450 
L 3116 450 
L 3116 0 
L 356 0 
L 356 225 
Q 356 603 461 870 
Q 566 1138 811 1392 
Q 1056 1647 1597 2022 
Q 2091 2363 2305 2670 
Q 2519 2978 2519 3372 
z
" transform="scale(0.015625)"/>
        <path id="MalgunGothic-30" d="M 278 2206 
Q 278 3425 675 4050 
Q 1072 4675 1819 4675 
Q 3253 4675 3253 2319 
Q 3253 1156 2854 539 
Q 2456 -78 1716 -78 
Q 1016 -78 647 520 
Q 278 1119 278 2206 
z
M 784 2231 
Q 784 344 1769 344 
Q 2747 344 2747 2259 
Q 2747 4250 1794 4250 
Q 784 4250 784 2231 
z
" transform="scale(0.015625)"/>
        <path id="MalgunGothic-34" d="M 2703 4600 
L 2703 1563 
L 3309 1563 
L 3309 1113 
L 2703 1113 
L 2703 0 
L 2213 0 
L 2213 1113 
L 50 1113 
L 50 1534 
Q 728 2297 1295 3109 
Q 1863 3922 2172 4600 
L 2703 4600 
z
M 625 1563 
L 2213 1563 
L 2213 3831 
Q 1613 2788 959 1981 
L 625 1563 
z
" transform="scale(0.015625)"/>
        <path id="MalgunGothic-2e" d="M 356 275 
Q 356 422 459 523 
Q 563 625 700 625 
Q 838 625 941 523 
Q 1044 422 1044 275 
Q 1044 138 942 33 
Q 841 -72 700 -72 
Q 559 -72 457 29 
Q 356 131 356 275 
z
" transform="scale(0.015625)"/>
        <path id="MalgunGothic-31" d="M 2231 0 
L 1734 0 
L 1734 3972 
Q 1591 3828 1266 3661 
Q 941 3494 672 3428 
L 672 3959 
Q 1016 4056 1409 4275 
Q 1803 4494 2031 4700 
L 2231 4700 
L 2231 0 
z
" transform="scale(0.015625)"/>
       </defs>
       <use xlink:href="#MalgunGothic-32"/>
       <use xlink:href="#MalgunGothic-30" transform="translate(55.078125 0)"/>
       <use xlink:href="#MalgunGothic-32" transform="translate(110.15625 0)"/>
       <use xlink:href="#MalgunGothic-34" transform="translate(165.234375 0)"/>
       <use xlink:href="#MalgunGothic-2e" transform="translate(220.3125 0)"/>
       <use xlink:href="#MalgunGothic-30" transform="translate(242.1875 0)"/>
       <use xlink:href="#MalgunGothic-31" transform="translate(297.265625 0)"/>
      </g>
     </g>
    </g>
    <g id="xtick_2">
     <g id="line2d_2">
      <g>
       <use xlink:href="#m7a3147a094" x="147.023121" y="240.330931" style="stroke: #000000; stroke-width: 0.8"/>
      </g>
     </g>
     <g id="text_2">
      <!-- 02 -->
      <g transform="translate(139.454427 257.857099) rotate(-45) scale(0.08 -0.08)">
       <use xlink:href="#MalgunGothic-30"/>
       <use xlink:href="#MalgunGothic-32" transform="translate(55.078125 0)"/>
      </g>
     </g>
    </g>
    <g id="xtick_3">
     <g id="line2d_3">
      <g>
       <use xlink:href="#m7a3147a094" x="184.059177" y="240.330931" style="stroke: #000000; stroke-width: 0.8"/>
      </g>
     </g>
     <g id="text_3">
      <!-- 03 -->
      <g transform="translate(176.490483 257.857099) rotate(-45) scale(0.08 -0.08)">
       <defs>
        <path id="MalgunGothic-33" d="M 416 719 
Q 891 344 1478 344 
Q 1959 344 2254 587 
Q 2550 831 2550 1247 
Q 2550 2169 1253 2169 
L 872 2169 
L 872 2591 
L 1234 2591 
Q 2388 2591 2388 3453 
Q 2388 4250 1509 4250 
Q 1022 4250 594 3916 
L 594 4413 
Q 1031 4675 1634 4675 
Q 2184 4675 2539 4372 
Q 2894 4069 2894 3581 
Q 2894 2678 1972 2409 
L 1972 2400 
Q 2469 2356 2764 2053 
Q 3059 1750 3059 1300 
Q 3059 672 2604 297 
Q 2150 -78 1450 -78 
Q 806 -78 416 169 
L 416 719 
z
" transform="scale(0.015625)"/>
       </defs>
       <use xlink:href="#MalgunGothic-30"/>
       <use xlink:href="#MalgunGothic-33" transform="translate(55.078125 0)"/>
      </g>
     </g>
    </g>
    <g id="xtick_4">
     <g id="line2d_4">
      <g>
       <use xlink:href="#m7a3147a094" x="221.095234" y="240.330931" style="stroke: #000000; stroke-width: 0.8"/>
      </g>
     </g>
     <g id="text_4">
      <!-- 04 -->
      <g transform="translate(213.526539 257.857099) rotate(-45) scale(0.08 -0.08)">
       <use xlink:href="#MalgunGothic-30"/>
       <use xlink:href="#MalgunGothic-34" transform="translate(55.078125 0)"/>
      </g>
     </g>
    </g>
    <g id="xtick_5">
     <g id="line2d_5">
      <g>
       <use xlink:href="#m7a3147a094" x="258.13129" y="240.330931" style="stroke: #000000; stroke-width: 0.8"/>
      </g>
     </g>
     <g id="text_5">
      <!-- 05 -->
      <g transform="translate(250.562596 257.857099) rotate(-45) scale(0.08 -0.08)">
       <defs>
        <path id="MalgunGothic-35" d="M 3072 1403 
Q 3072 722 2636 322 
Q 2200 -78 1469 -78 
Q 828 -78 516 113 
L 516 650 
Q 994 344 1475 344 
Q 1969 344 2270 630 
Q 2572 916 2572 1372 
Q 2572 1838 2265 2092 
Q 1959 2347 1381 2347 
Q 994 2347 603 2300 
L 759 4600 
L 2869 4600 
L 2869 4147 
L 1206 4147 
L 1106 2763 
Q 1347 2784 1547 2784 
Q 2263 2784 2667 2414 
Q 3072 2044 3072 1403 
z
" transform="scale(0.015625)"/>
       </defs>
       <use xlink:href="#MalgunGothic-30"/>
       <use xlink:href="#MalgunGothic-35" transform="translate(55.078125 0)"/>
      </g>
     </g>
    </g>
    <g id="xtick_6">
     <g id="line2d_6">
      <g>
       <use xlink:href="#m7a3147a094" x="295.167346" y="240.330931" style="stroke: #000000; stroke-width: 0.8"/>
      </g>
     </g>
     <g id="text_6">
      <!-- 06 -->
      <g transform="translate(287.598652 257.857099) rotate(-45) scale(0.08 -0.08)">
       <defs>
        <path id="MalgunGothic-36" d="M 2981 4069 
Q 2619 4250 2228 4250 
Q 1591 4250 1228 3689 
Q 866 3128 869 2213 
L 884 2213 
Q 1203 2872 1938 2872 
Q 2547 2872 2903 2478 
Q 3259 2084 3259 1450 
Q 3259 797 2857 359 
Q 2456 -78 1825 -78 
Q 1116 -78 736 478 
Q 356 1034 356 2019 
Q 356 3181 847 3928 
Q 1338 4675 2222 4675 
Q 2700 4675 2981 4544 
L 2981 4069 
z
M 906 1506 
Q 906 1022 1165 683 
Q 1425 344 1844 344 
Q 2247 344 2498 645 
Q 2750 947 2750 1388 
Q 2750 1888 2509 2167 
Q 2269 2447 1838 2447 
Q 1444 2447 1175 2173 
Q 906 1900 906 1506 
z
" transform="scale(0.015625)"/>
       </defs>
       <use xlink:href="#MalgunGothic-30"/>
       <use xlink:href="#MalgunGothic-36" transform="translate(55.078125 0)"/>
      </g>
     </g>
    </g>
    <g id="xtick_7">
     <g id="line2d_7">
      <g>
       <use xlink:href="#m7a3147a094" x="332.203402" y="240.330931" style="stroke: #000000; stroke-width: 0.8"/>
      </g>
     </g>
     <g id="text_7">
      <!-- 07 -->
      <g transform="translate(324.634708 257.857099) rotate(-45) scale(0.08 -0.08)">
       <defs>
        <path id="MalgunGothic-37" d="M 3213 4297 
Q 2478 3006 2064 1918 
Q 1650 831 1550 0 
L 1009 0 
Q 1084 531 1290 1176 
Q 1497 1822 1815 2537 
Q 2134 3253 2631 4147 
L 291 4147 
L 291 4600 
L 3213 4600 
L 3213 4297 
z
" transform="scale(0.015625)"/>
       </defs>
       <use xlink:href="#MalgunGothic-30"/>
       <use xlink:href="#MalgunGothic-37" transform="translate(55.078125 0)"/>
      </g>
     </g>
    </g>
    <g id="xtick_8">
     <g id="line2d_8">
      <g>
       <use xlink:href="#m7a3147a094" x="369.239459" y="240.330931" style="stroke: #000000; stroke-width: 0.8"/>
      </g>
     </g>
     <g id="text_8">
      <!-- 08 -->
      <g transform="translate(361.670765 257.857099) rotate(-45) scale(0.08 -0.08)">
       <defs>
        <path id="MalgunGothic-38" d="M 303 1281 
Q 303 1669 539 2011 
Q 775 2353 1153 2494 
Q 856 2647 675 2915 
Q 494 3184 494 3500 
Q 494 3828 659 4098 
Q 825 4369 1122 4522 
Q 1419 4675 1778 4675 
Q 2334 4675 2700 4342 
Q 3066 4009 3066 3500 
Q 3066 3181 2881 2914 
Q 2697 2647 2413 2494 
Q 2788 2350 3022 2009 
Q 3256 1669 3256 1281 
Q 3256 672 2843 297 
Q 2431 -78 1778 -78 
Q 1131 -78 717 301 
Q 303 681 303 1281 
z
M 809 1328 
Q 809 878 1081 611 
Q 1353 344 1781 344 
Q 2206 344 2482 619 
Q 2759 894 2759 1328 
Q 2759 1731 2482 2011 
Q 2206 2291 1781 2291 
Q 1372 2291 1090 2020 
Q 809 1750 809 1328 
z
M 1003 3459 
Q 1003 3125 1234 2900 
Q 1466 2675 1781 2675 
Q 2097 2675 2330 2900 
Q 2563 3125 2563 3459 
Q 2563 3803 2341 4026 
Q 2119 4250 1781 4250 
Q 1450 4250 1226 4029 
Q 1003 3809 1003 3459 
z
" transform="scale(0.015625)"/>
       </defs>
       <use xlink:href="#MalgunGothic-30"/>
       <use xlink:href="#MalgunGothic-38" transform="translate(55.078125 0)"/>
      </g>
     </g>
    </g>
    <g id="xtick_9">
     <g id="line2d_9">
      <g>
       <use xlink:href="#m7a3147a094" x="406.275515" y="240.330931" style="stroke: #000000; stroke-width: 0.8"/>
      </g>
     </g>
     <g id="text_9">
      <!-- 09 -->
      <g transform="translate(398.706821 257.857099) rotate(-45) scale(0.08 -0.08)">
       <defs>
        <path id="MalgunGothic-39" d="M 556 563 
Q 941 344 1366 344 
Q 1994 344 2347 855 
Q 2700 1366 2700 2313 
Q 2694 2306 2688 2313 
Q 2388 1713 1653 1713 
Q 1059 1713 682 2120 
Q 306 2528 306 3144 
Q 306 3806 711 4240 
Q 1116 4675 1772 4675 
Q 2466 4675 2833 4131 
Q 3200 3588 3200 2578 
Q 3200 1319 2717 620 
Q 2234 -78 1344 -78 
Q 881 -78 556 78 
L 556 563 
z
M 813 3219 
Q 813 2741 1063 2450 
Q 1313 2159 1759 2159 
Q 2147 2159 2406 2417 
Q 2666 2675 2666 3047 
Q 2666 3556 2411 3903 
Q 2156 4250 1725 4250 
Q 1322 4250 1067 3948 
Q 813 3647 813 3219 
z
" transform="scale(0.015625)"/>
       </defs>
       <use xlink:href="#MalgunGothic-30"/>
       <use xlink:href="#MalgunGothic-39" transform="translate(55.078125 0)"/>
      </g>
     </g>
    </g>
    <g id="xtick_10">
     <g id="line2d_10">
      <g>
       <use xlink:href="#m7a3147a094" x="443.311571" y="240.330931" style="stroke: #000000; stroke-width: 0.8"/>
      </g>
     </g>
     <g id="text_10">
      <!-- 10 -->
      <g transform="translate(435.742877 257.857099) rotate(-45) scale(0.08 -0.08)">
       <use xlink:href="#MalgunGothic-31"/>
       <use xlink:href="#MalgunGothic-30" transform="translate(55.078125 0)"/>
      </g>
     </g>
    </g>
    <g id="xtick_11">
     <g id="line2d_11">
      <g>
       <use xlink:href="#m7a3147a094" x="480.347628" y="240.330931" style="stroke: #000000; stroke-width: 0.8"/>
      </g>
     </g>
     <g id="text_11">
      <!-- 11 -->
      <g transform="translate(472.778934 257.857099) rotate(-45) scale(0.08 -0.08)">
       <use xlink:href="#MalgunGothic-31"/>
       <use xlink:href="#MalgunGothic-31" transform="translate(55.078125 0)"/>
      </g>
     </g>
    </g>
    <g id="xtick_12">
     <g id="line2d_12">
      <g>
       <use xlink:href="#m7a3147a094" x="517.383684" y="240.330931" style="stroke: #000000; stroke-width: 0.8"/>
      </g>
     </g>
     <g id="text_12">
      <!-- 12 -->
      <g transform="translate(509.81499 257.857099) rotate(-45) scale(0.08 -0.08)">
       <use xlink:href="#MalgunGothic-31"/>
       <use xlink:href="#MalgunGothic-32" transform="translate(55.078125 0)"/>
      </g>
     </g>
    </g>
    <g id="xtick_13">
     <g id="line2d_13">
      <g>
       <use xlink:href="#m7a3147a094" x="554.41974" y="240.330931" style="stroke: #000000; stroke-width: 0.8"/>
      </g>
     </g>
     <g id="text_13">
      <!-- 2025.01 -->
      <g transform="translate(533.150852 271.557293) rotate(-45) scale(0.08 -0.08)">
       <use xlink:href="#MalgunGothic-32"/>
       <use xlink:href="#MalgunGothic-30" transform="translate(55.078125 0)"/>
       <use xlink:href="#MalgunGothic-32" transform="translate(110.15625 0)"/>
       <use xlink:href="#MalgunGothic-35" transform="translate(165.234375 0)"/>
       <use xlink:href="#MalgunGothic-2e" transform="translate(220.3125 0)"/>
       <use xlink:href="#MalgunGothic-30" transform="translate(242.1875 0)"/>
       <use xlink:href="#MalgunGothic-31" transform="translate(297.265625 0)"/>
      </g>
     </g>
    </g>
    <g id="xtick_14">
     <g id="line2d_14">
      <g>
       <use xlink:href="#m7a3147a094" x="591.455797" y="240.330931" style="stroke: #000000; stroke-width: 0.8"/>
      </g>
     </g>
     <g id="text_14">
      <!-- 02 -->
      <g transform="translate(583.887102 257.857099) rotate(-45) scale(0.08 -0.08)">
       <use xlink:href="#MalgunGothic-30"/>
       <use xlink:href="#MalgunGothic-32" transform="translate(55.078125 0)"/>
      </g>
     </g>
    </g>
    <g id="xtick_15">
     <g id="line2d_15">
      <g>
       <use xlink:href="#m7a3147a094" x="628.491853" y="240.330931" style="stroke: #000000; stroke-width: 0.8"/>
      </g>
     </g>
     <g id="text_15">
      <!-- 03 -->
      <g transform="translate(620.923159 257.857099) rotate(-45) scale(0.08 -0.08)">
       <use xlink:href="#MalgunGothic-30"/>
       <use xlink:href="#MalgunGothic-33" transform="translate(55.078125 0)"/>
      </g>
     </g>
    </g>
    <g id="xtick_16">
     <g id="line2d_16">
      <g>
       <use xlink:href="#m7a3147a094" x="665.527909" y="240.330931" style="stroke: #000000; stroke-width: 0.8"/>
      </g>
     </g>
     <g id="text_16">
      <!-- 04 -->
      <g transform="translate(657.959215 257.857099) rotate(-45) scale(0.08 -0.08)">
       <use xlink:href="#MalgunGothic-30"/>
       <use xlink:href="#MalgunGothic-34" transform="translate(55.078125 0)"/>
      </g>
     </g>
    </g>
    <g id="xtick_17">
     <g id="line2d_17">
      <g>
       <use xlink:href="#m7a3147a094" x="702.563966" y="240.330931" style="stroke: #000000; stroke-width: 0.8"/>
      </g>
     </g>
     <g id="text_17">
      <!-- 05 -->
      <g transform="translate(694.995271 257.857099) rotate(-45) scale(0.08 -0.08)">
       <use xlink:href="#MalgunGothic-30"/>
       <use xlink:href="#MalgunGothic-35" transform="translate(55.078125 0)"/>
      </g>
     </g>
    </g>
    <g id="xtick_18">
     <g id="line2d_18">
      <g>
       <use xlink:href="#m7a3147a094" x="739.600022" y="240.330931" style="stroke: #000000; stroke-width: 0.8"/>
      </g>
     </g>
     <g id="text_18">
      <!-- 06 -->
      <g transform="translate(732.031328 257.857099) rotate(-45) scale(0.08 -0.08)">
       <use xlink:href="#MalgunGothic-30"/>
       <use xlink:href="#MalgunGothic-36" transform="translate(55.078125 0)"/>
      </g>
     </g>
    </g>
    <g id="xtick_19">
     <g id="line2d_19">
      <g>
       <use xlink:href="#m7a3147a094" x="776.636078" y="240.330931" style="stroke: #000000; stroke-width: 0.8"/>
      </g>
     </g>
     <g id="text_19">
      <!-- 07 -->
      <g transform="translate(769.067384 257.857099) rotate(-45) scale(0.08 -0.08)">
       <use xlink:href="#MalgunGothic-30"/>
       <use xlink:href="#MalgunGothic-37" transform="translate(55.078125 0)"/>
      </g>
     </g>
    </g>
    <g id="xtick_20">
     <g id="line2d_20">
      <g>
       <use xlink:href="#m7a3147a094" x="813.672135" y="240.330931" style="stroke: #000000; stroke-width: 0.8"/>
      </g>
     </g>
     <g id="text_20">
      <!-- 08 -->
      <g transform="translate(806.10344 257.857099) rotate(-45) scale(0.08 -0.08)">
       <use xlink:href="#MalgunGothic-30"/>
       <use xlink:href="#MalgunGothic-38" transform="translate(55.078125 0)"/>
      </g>
     </g>
    </g>
    <g id="xtick_21">
     <g id="line2d_21">
      <g>
       <use xlink:href="#m7a3147a094" x="850.708191" y="240.330931" style="stroke: #000000; stroke-width: 0.8"/>
      </g>
     </g>
     <g id="text_21">
      <!-- 09 -->
      <g transform="translate(843.139497 257.857099) rotate(-45) scale(0.08 -0.08)">
       <use xlink:href="#MalgunGothic-30"/>
       <use xlink:href="#MalgunGothic-39" transform="translate(55.078125 0)"/>
      </g>
     </g>
    </g>
    <g id="xtick_22">
     <g id="line2d_22">
      <g>
       <use xlink:href="#m7a3147a094" x="887.744247" y="240.330931" style="stroke: #000000; stroke-width: 0.8"/>
      </g>
     </g>
     <g id="text_22">
      <!-- 10 -->
      <g transform="translate(880.175553 257.857099) rotate(-45) scale(0.08 -0.08)">
       <use xlink:href="#MalgunGothic-31"/>
       <use xlink:href="#MalgunGothic-30" transform="translate(55.078125 0)"/>
      </g>
     </g>
    </g>
    <g id="xtick_23">
     <g id="line2d_23">
      <g>
       <use xlink:href="#m7a3147a094" x="924.780304" y="240.330931" style="stroke: #000000; stroke-width: 0.8"/>
      </g>
     </g>
     <g id="text_23">
      <!-- 11 -->
      <g transform="translate(917.211609 257.857099) rotate(-45) scale(0.08 -0.08)">
       <use xlink:href="#MalgunGothic-31"/>
       <use xlink:href="#MalgunGothic-31" transform="translate(55.078125 0)"/>
      </g>
     </g>
    </g>
    <g id="xtick_24">
     <g id="line2d_24">
      <g>
       <use xlink:href="#m7a3147a094" x="961.81636" y="240.330931" style="stroke: #000000; stroke-width: 0.8"/>
      </g>
     </g>
     <g id="text_24">
      <!-- 12 -->
      <g transform="translate(954.247666 257.857099) rotate(-45) scale(0.08 -0.08)">
       <use xlink:href="#MalgunGothic-31"/>
       <use xlink:href="#MalgunGothic-32" transform="translate(55.078125 0)"/>
      </g>
     </g>
    </g>
    <g id="xtick_25">
     <g id="line2d_25">
      <g>
       <use xlink:href="#m7a3147a094" x="998.852416" y="240.330931" style="stroke: #000000; stroke-width: 0.8"/>
      </g>
     </g>
     <g id="text_25">
      <!-- 2026.01 -->
      <g transform="translate(977.583528 271.557293) rotate(-45) scale(0.08 -0.08)">
       <use xlink:href="#MalgunGothic-32"/>
       <use xlink:href="#MalgunGothic-30" transform="translate(55.078125 0)"/>
       <use xlink:href="#MalgunGothic-32" transform="translate(110.15625 0)"/>
       <use xlink:href="#MalgunGothic-36" transform="translate(165.234375 0)"/>
       <use xlink:href="#MalgunGothic-2e" transform="translate(220.3125 0)"/>
       <use xlink:href="#MalgunGothic-30" transform="translate(242.1875 0)"/>
       <use xlink:href="#MalgunGothic-31" transform="translate(297.265625 0)"/>
      </g>
     </g>
    </g>
    <g id="xtick_26">
     <g id="line2d_26">
      <g>
       <use xlink:href="#m7a3147a094" x="1035.888473" y="240.330931" style="stroke: #000000; stroke-width: 0.8"/>
      </g>
     </g>
     <g id="text_26">
      <!-- 02 -->
      <g transform="translate(1028.319778 257.857099) rotate(-45) scale(0.08 -0.08)">
       <use xlink:href="#MalgunGothic-30"/>
       <use xlink:href="#MalgunGothic-32" transform="translate(55.078125 0)"/>
      </g>
     </g>
    </g>
    <g id="xtick_27">
     <g id="line2d_27">
      <g>
       <use xlink:href="#m7a3147a094" x="1072.924529" y="240.330931" style="stroke: #000000; stroke-width: 0.8"/>
      </g>
     </g>
     <g id="text_27">
      <!-- 03 -->
      <g transform="translate(1065.355835 257.857099) rotate(-45) scale(0.08 -0.08)">
       <use xlink:href="#MalgunGothic-30"/>
       <use xlink:href="#MalgunGothic-33" transform="translate(55.078125 0)"/>
      </g>
     </g>
    </g>
    <g id="xtick_28">
     <g id="line2d_28">
      <g>
       <use xlink:href="#m7a3147a094" x="1109.960585" y="240.330931" style="stroke: #000000; stroke-width: 0.8"/>
      </g>
     </g>
     <g id="text_28">
      <!-- 04 -->
      <g transform="translate(1102.391891 257.857099) rotate(-45) scale(0.08 -0.08)">
       <use xlink:href="#MalgunGothic-30"/>
       <use xlink:href="#MalgunGothic-34" transform="translate(55.078125 0)"/>
      </g>
     </g>
    </g>
    <g id="xtick_29">
     <g id="line2d_29">
      <g>
       <use xlink:href="#m7a3147a094" x="1146.996641" y="240.330931" style="stroke: #000000; stroke-width: 0.8"/>
      </g>
     </g>
     <g id="text_29">
      <!-- 05 -->
      <g transform="translate(1139.427947 257.857099) rotate(-45) scale(0.08 -0.08)">
       <use xlink:href="#MalgunGothic-30"/>
       <use xlink:href="#MalgunGothic-35" transform="translate(55.078125 0)"/>
      </g>
     </g>
    </g>
    <g id="xtick_30">
     <g id="line2d_30">
      <g>
       <use xlink:href="#m7a3147a094" x="1184.032698" y="240.330931" style="stroke: #000000; stroke-width: 0.8"/>
      </g>
     </g>
     <g id="text_30">
      <!-- 06 -->
      <g transform="translate(1176.464004 257.857099) rotate(-45) scale(0.08 -0.08)">
       <use xlink:href="#MalgunGothic-30"/>
       <use xlink:href="#MalgunGothic-36" transform="translate(55.078125 0)"/>
      </g>
     </g>
    </g>
    <g id="xtick_31">
     <g id="line2d_31">
      <g>
       <use xlink:href="#m7a3147a094" x="1221.068754" y="240.330931" style="stroke: #000000; stroke-width: 0.8"/>
      </g>
     </g>
     <g id="text_31">
      <!-- 07 -->
      <g transform="translate(1213.50006 257.857099) rotate(-45) scale(0.08 -0.08)">
       <use xlink:href="#MalgunGothic-30"/>
       <use xlink:href="#MalgunGothic-37" transform="translate(55.078125 0)"/>
      </g>
     </g>
    </g>
    <g id="xtick_32">
     <g id="line2d_32">
      <g>
       <use xlink:href="#m7a3147a094" x="1258.10481" y="240.330931" style="stroke: #000000; stroke-width: 0.8"/>
      </g>
     </g>
     <g id="text_32">
      <!-- 08 -->
      <g transform="translate(1250.536116 257.857099) rotate(-45) scale(0.08 -0.08)">
       <use xlink:href="#MalgunGothic-30"/>
       <use xlink:href="#MalgunGothic-38" transform="translate(55.078125 0)"/>
      </g>
     </g>
    </g>
   </g>
   <g id="matplotlib.axis_2">
    <g id="ytick_1">
     <g id="line2d_33">
      <defs>
       <path id="m5cefafc0e7" d="M 0 0 
L -3.5 0 
" style="stroke: #000000; stroke-width: 0.8"/>
      </defs>
      <g>
       <use xlink:href="#m5cefafc0e7" x="36.285313" y="240.330931" style="stroke: #000000; stroke-width: 0.8"/>
      </g>
     </g>
     <g id="text_33">
      <!-- 0 -->
      <g transform="translate(24.879063 243.367806) scale(0.08 -0.08)">
       <use xlink:href="#MalgunGothic-30"/>
      </g>
     </g>
    </g>
    <g id="ytick_2">
     <g id="line2d_34">
      <g>
       <use xlink:href="#m5cefafc0e7" x="36.285313" y="205.619224" style="stroke: #000000; stroke-width: 0.8"/>
      </g>
     </g>
     <g id="text_34">
      <!-- 2 -->
      <g transform="translate(24.879063 208.656099) scale(0.08 -0.08)">
       <use xlink:href="#MalgunGothic-32"/>
      </g>
     </g>
    </g>
    <g id="ytick_3">
     <g id="line2d_35">
      <g>
       <use xlink:href="#m5cefafc0e7" x="36.285313" y="170.907517" style="stroke: #000000; stroke-width: 0.8"/>
      </g>
     </g>
     <g id="text_35">
      <!-- 4 -->
      <g transform="translate(24.879063 173.944392) scale(0.08 -0.08)">
       <use xlink:href="#MalgunGothic-34"/>
      </g>
     </g>
    </g>
    <g id="ytick_4">
     <g id="line2d_36">
      <g>
       <use xlink:href="#m5cefafc0e7" x="36.285313" y="136.19581" style="stroke: #000000; stroke-width: 0.8"/>
      </g>
     </g>
     <g id="text_36">
      <!-- 6 -->
      <g transform="translate(24.879063 139.232685) scale(0.08 -0.08)">
       <use xlink:href="#MalgunGothic-36"/>
      </g>
     </g>
    </g>
    <g id="ytick_5">
     <g id="line2d_37">
      <g>
       <use xlink:href="#m5cefafc0e7" x="36.285313" y="101.484103" style="stroke: #000000; stroke-width: 0.8"/>
      </g>
     </g>
     <g id="text_37">
      <!-- 8 -->
      <g transform="translate(24.879063 104.520978) scale(0.08 -0.08)">
       <use xlink:href="#MalgunGothic-38"/>
      </g>
     </g>
    </g>
    <g id="ytick_6">
     <g id="line2d_38">
      <g>
       <use xlink:href="#m5cefafc0e7" x="36.285313" y="66.772396" style="stroke: #000000; stroke-width: 0.8"/>
      </g>
     </g>
     <g id="text_38">
      <!-- 10 -->
      <g transform="translate(20.472813 69.809271) scale(0.08 -0.08)">
       <use xlink:href="#MalgunGothic-31"/>
       <use xlink:href="#MalgunGothic-30" transform="translate(55.078125 0)"/>
      </g>
     </g>
    </g>
    <g id="ytick_7">
     <g id="line2d_39">
      <g>
       <use xlink:href="#m5cefafc0e7" x="36.285313" y="32.060689" style="stroke: #000000; stroke-width: 0.8"/>
      </g>
     </g>
     <g id="text_39">
      <!-- 12 -->
      <g transform="translate(20.472813 35.097564) scale(0.08 -0.08)">
       <use xlink:href="#MalgunGothic-31"/>
       <use xlink:href="#MalgunGothic-32" transform="translate(55.078125 0)"/>
      </g>
     </g>
    </g>
    <g id="text_40">
     <!-- 수출 (백만$) -->
     <g transform="translate(14.345156 156.767965) rotate(-90) scale(0.09 -0.09)">
      <defs>
       <path id="MalgunGothic-c218" d="M 5491 2994 
Q 4750 3097 4078 3498 
Q 3406 3900 3200 4275 
Q 2975 3891 2309 3491 
Q 1644 3091 922 2956 
L 634 3347 
Q 1559 3450 2261 3942 
Q 2963 4434 2963 5013 
L 2963 5275 
L 3431 5275 
L 3431 5013 
Q 3431 4431 4118 3948 
Q 4806 3466 5766 3378 
L 5491 2994 
z
M 3431 1838 
L 3431 -563 
L 2963 -563 
L 2963 1838 
L 403 1838 
L 403 2253 
L 5997 2253 
L 5997 1838 
L 3431 1838 
z
" transform="scale(0.015625)"/>
       <path id="MalgunGothic-cd9c" d="M 5466 3334 
Q 4759 3400 4114 3664 
Q 3469 3928 3213 4225 
Q 2966 3931 2323 3670 
Q 1681 3409 966 3341 
L 709 3750 
Q 1328 3725 2017 3970 
Q 2706 4216 2906 4603 
L 1056 4603 
L 1056 5019 
L 2969 5019 
L 2969 5550 
L 3444 5550 
L 3444 5019 
L 5344 5019 
L 5344 4603 
L 3494 4603 
Q 3691 4241 4356 3995 
Q 5022 3750 5691 3750 
L 5466 3334 
z
M 1319 -416 
L 1319 947 
L 4616 947 
L 4616 1478 
L 1319 1478 
L 1319 1888 
L 2963 1888 
L 2963 2484 
L 403 2484 
L 403 2900 
L 5997 2900 
L 5997 2484 
L 3438 2484 
L 3438 1888 
L 5075 1888 
L 5075 544 
L 1778 544 
L 1778 0 
L 5234 0 
L 5234 -416 
L 1319 -416 
z
" transform="scale(0.015625)"/>
       <path id="MalgunGothic-20" transform="scale(0.015625)"/>
       <path id="MalgunGothic-28" d="M 1438 -1044 
Q 447 88 447 1753 
Q 447 3431 1438 4600 
L 1888 4600 
Q 878 3372 878 1759 
Q 878 153 1881 -1044 
L 1438 -1044 
z
" transform="scale(0.015625)"/>
       <path id="MalgunGothic-bc31" d="M 5056 2028 
L 5056 3438 
L 4359 3438 
L 4359 2028 
L 3897 2028 
L 3897 5344 
L 4359 5344 
L 4359 3859 
L 5056 3859 
L 5056 5466 
L 5522 5466 
L 5522 2028 
L 5056 2028 
z
M 763 2363 
L 763 5209 
L 1222 5209 
L 1222 4103 
L 2772 4103 
L 2772 5209 
L 3231 5209 
L 3231 2363 
L 763 2363 
z
M 2772 3688 
L 1222 3688 
L 1222 2778 
L 2772 2778 
L 2772 3688 
z
M 5056 -563 
L 5056 1281 
L 1581 1281 
L 1581 1697 
L 5522 1697 
L 5522 -563 
L 5056 -563 
z
" transform="scale(0.015625)"/>
       <path id="MalgunGothic-b9cc" d="M 5125 3169 
L 5125 1056 
L 4659 1056 
L 4659 5466 
L 5125 5466 
L 5125 3591 
L 6034 3591 
L 6034 3169 
L 5125 3169 
z
M 763 2241 
L 763 5100 
L 3513 5100 
L 3513 2241 
L 763 2241 
z
M 3053 4684 
L 1222 4684 
L 1222 2656 
L 3053 2656 
L 3053 4684 
z
M 1459 -331 
L 1459 1581 
L 1925 1581 
L 1925 91 
L 5294 91 
L 5294 -331 
L 1459 -331 
z
" transform="scale(0.015625)"/>
       <path id="MalgunGothic-24" d="M 1963 -672 
L 1638 -672 
L 1638 0 
Q 953 0 534 272 
L 534 809 
Q 703 653 1039 537 
Q 1375 422 1638 428 
L 1638 2103 
Q 922 2453 725 2731 
Q 528 3009 528 3400 
Q 528 3841 842 4192 
Q 1156 4544 1638 4603 
L 1638 5181 
L 1963 5181 
L 1963 4616 
Q 2594 4597 2822 4441 
L 2822 3916 
Q 2509 4172 1963 4188 
L 1963 2466 
Q 2497 2200 2803 1912 
Q 3109 1625 3109 1181 
Q 3109 725 2804 420 
Q 2500 116 1963 28 
L 1963 -672 
z
M 1638 4172 
Q 1044 4031 1044 3469 
Q 1044 3222 1136 3056 
Q 1228 2891 1638 2644 
L 1638 4172 
z
M 1963 453 
Q 2591 594 2591 1134 
Q 2591 1588 1963 1934 
L 1963 453 
z
" transform="scale(0.015625)"/>
       <path id="MalgunGothic-29" d="M 81 -1044 
Q 1081 150 1081 1759 
Q 1081 3378 72 4600 
L 525 4600 
Q 1522 3431 1522 1753 
Q 1522 88 525 -1044 
L 81 -1044 
z
" transform="scale(0.015625)"/>
      </defs>
      <use xlink:href="#MalgunGothic-c218"/>
      <use xlink:href="#MalgunGothic-cd9c" transform="translate(100 0)"/>
      <use xlink:href="#MalgunGothic-20" transform="translate(200 0)"/>
      <use xlink:href="#MalgunGothic-28" transform="translate(235.15625 0)"/>
      <use xlink:href="#MalgunGothic-bc31" transform="translate(265.625 0)"/>
      <use xlink:href="#MalgunGothic-b9cc" transform="translate(365.625 0)"/>
      <use xlink:href="#MalgunGothic-24" transform="translate(465.625 0)"/>
      <use xlink:href="#MalgunGothic-29" transform="translate(520.703125 0)"/>
     </g>
    </g>
   </g>
   <g id="patch_35">
    <path d="M 36.285313 240.330931 
L 36.285313 23.599531 
" style="fill: none; stroke: #000000; stroke-width: 0.8; stroke-linejoin: miter; stroke-linecap: square"/>
   </g>
   <g id="patch_36">
    <path d="M 1331.806562 240.330931 
L 1331.806562 23.599531 
" style="fill: none; stroke: #000000; stroke-width: 0.8; stroke-linejoin: miter; stroke-linecap: square"/>
   </g>
   <g id="patch_37">
    <path d="M 36.285313 240.330931 
L 1331.806562 240.330931 
" style="fill: none; stroke: #000000; stroke-width: 0.8; stroke-linejoin: miter; stroke-linecap: square"/>
   </g>
   <g id="patch_38">
    <path d="M 36.285313 23.599531 
L 1331.806562 23.599531 
" style="fill: none; stroke: #000000; stroke-width: 0.8; stroke-linejoin: miter; stroke-linecap: square"/>
   </g>
   <g id="text_41">
    <!-- HS 381010 금속표면처리용 침지 조제품, 납땜용ㆍ… — 수출 -->
    <g transform="translate(535.448828 15.599531) scale(0.11 -0.11)">
     <defs>
      <path id="MalgunGothic-48" d="M 4028 0 
L 3525 0 
L 3525 2109 
L 1113 2109 
L 1113 0 
L 609 0 
L 609 4600 
L 1113 4600 
L 1113 2569 
L 3525 2569 
L 3525 4600 
L 4028 4600 
L 4028 0 
z
" transform="scale(0.015625)"/>
      <path id="MalgunGothic-53" d="M 394 797 
Q 606 613 964 500 
Q 1322 388 1625 388 
Q 2628 388 2628 1116 
Q 2628 1325 2523 1484 
Q 2419 1644 2250 1756 
Q 2081 1869 1547 2144 
Q 903 2475 651 2754 
Q 400 3034 400 3456 
Q 400 4019 858 4347 
Q 1316 4675 1988 4675 
Q 2669 4675 2963 4513 
L 2963 3928 
Q 2563 4206 1922 4206 
Q 1484 4206 1207 4018 
Q 931 3831 931 3500 
Q 931 3200 1126 3011 
Q 1322 2822 1938 2522 
Q 2656 2163 2906 1844 
Q 3156 1525 3156 1153 
Q 3156 556 2725 239 
Q 2294 -78 1531 -78 
Q 1291 -78 927 -1 
Q 563 75 394 188 
L 394 797 
z
" transform="scale(0.015625)"/>
      <path id="MalgunGothic-ae08" d="M 403 2663 
L 403 3084 
L 4563 3084 
Q 4634 3803 4634 4819 
L 1338 4819 
L 1338 5234 
L 5100 5234 
Q 5100 4081 5019 3084 
L 5997 3084 
L 5997 2663 
L 403 2663 
z
M 1350 -416 
L 1350 1856 
L 5075 1856 
L 5075 -416 
L 1350 -416 
z
M 4616 1447 
L 1813 1447 
L 1813 0 
L 4616 0 
L 4616 1447 
z
" transform="scale(0.015625)"/>
      <path id="MalgunGothic-c18d" d="M 5459 3284 
Q 4697 3403 4080 3768 
Q 3463 4134 3206 4519 
Q 2988 4172 2341 3792 
Q 1694 3413 972 3303 
L 697 3681 
Q 1641 3759 2305 4231 
Q 2969 4703 2969 5153 
L 2969 5356 
L 3431 5356 
L 3431 5153 
Q 3431 4706 4098 4220 
Q 4766 3734 5703 3653 
L 5459 3284 
z
M 403 2203 
L 403 2625 
L 2963 2625 
L 2963 3506 
L 3438 3506 
L 3438 2625 
L 5997 2625 
L 5997 2203 
L 403 2203 
z
M 4609 -563 
L 4609 1106 
L 1197 1106 
L 1197 1522 
L 5075 1522 
L 5075 -563 
L 4609 -563 
z
" transform="scale(0.015625)"/>
      <path id="MalgunGothic-d45c" d="M 997 4897 
L 5403 4897 
L 5403 4488 
L 997 4488 
L 997 4897 
z
M 4481 2566 
L 5478 2566 
L 5478 2156 
L 4494 2156 
L 4494 756 
L 5997 756 
L 5997 341 
L 403 341 
L 403 756 
L 1906 756 
L 1906 2156 
L 922 2156 
L 922 2566 
L 1919 2566 
L 1844 4172 
L 2303 4172 
L 2381 2566 
L 4019 2566 
L 4097 4172 
L 4556 4172 
L 4481 2566 
z
M 2375 756 
L 4025 756 
L 4025 2156 
L 2375 2156 
L 2375 756 
z
" transform="scale(0.015625)"/>
      <path id="MalgunGothic-ba74" d="M 4953 1063 
L 4953 2753 
L 3750 2753 
L 3750 2163 
L 984 2163 
L 984 5125 
L 3750 5125 
L 3750 4531 
L 4953 4531 
L 4953 5466 
L 5422 5466 
L 5422 1063 
L 4953 1063 
z
M 3284 4709 
L 1453 4709 
L 1453 2578 
L 3284 2578 
L 3284 4709 
z
M 4953 4128 
L 3750 4128 
L 3750 3156 
L 4953 3156 
L 4953 4128 
z
M 1734 -391 
L 1734 1509 
L 2203 1509 
L 2203 25 
L 5606 25 
L 5606 -391 
L 1734 -391 
z
" transform="scale(0.015625)"/>
      <path id="MalgunGothic-cc98" d="M 4947 -563 
L 4947 2803 
L 3634 2803 
L 3634 3219 
L 4947 3219 
L 4947 5466 
L 5416 5466 
L 5416 -563 
L 4947 -563 
z
M 3853 966 
Q 3369 1244 2919 1747 
Q 2469 2250 2316 2656 
Q 2188 2250 1736 1679 
Q 1284 1109 825 831 
L 469 1197 
Q 1131 1516 1606 2239 
Q 2081 2963 2081 3628 
L 2081 4206 
L 616 4206 
L 616 4622 
L 2075 4622 
L 2075 5466 
L 2541 5466 
L 2541 4622 
L 4006 4622 
L 4006 4206 
L 2547 4206 
L 2541 3603 
Q 2534 2991 3012 2312 
Q 3491 1634 4184 1338 
L 3853 966 
z
" transform="scale(0.015625)"/>
      <path id="MalgunGothic-b9ac" d="M 4884 -563 
L 4884 5466 
L 5350 5466 
L 5350 -563 
L 4884 -563 
z
M 856 738 
L 856 3128 
L 3150 3128 
L 3150 4519 
L 856 4519 
L 856 4934 
L 3616 4934 
L 3616 2725 
L 1325 2725 
L 1325 1153 
Q 3597 1153 4197 1281 
L 4250 878 
Q 3500 738 856 738 
z
" transform="scale(0.015625)"/>
      <path id="MalgunGothic-c6a9" d="M 1900 3378 
Q 1288 3678 1288 4269 
Q 1288 4803 1784 5095 
Q 2281 5388 3200 5388 
Q 4119 5388 4616 5095 
Q 5113 4803 5113 4269 
Q 5113 3669 4494 3378 
L 4494 2522 
L 5997 2522 
L 5997 2106 
L 403 2106 
L 403 2522 
L 1900 2522 
L 1900 3378 
z
M 3200 4991 
Q 1772 4991 1772 4269 
Q 1772 3928 2126 3737 
Q 2481 3547 3200 3547 
Q 3919 3547 4273 3737 
Q 4628 3928 4628 4269 
Q 4628 4991 3200 4991 
z
M 2369 2522 
L 4025 2522 
L 4025 3225 
Q 3678 3150 3200 3150 
Q 2756 3150 2369 3231 
L 2369 2522 
z
M 3200 -531 
Q 2259 -531 1764 -234 
Q 1269 63 1269 581 
Q 1269 1106 1767 1404 
Q 2266 1703 3200 1703 
Q 4134 1703 4632 1404 
Q 5131 1106 5131 581 
Q 5131 63 4636 -234 
Q 4141 -531 3200 -531 
z
M 3200 1306 
Q 2484 1306 2118 1112 
Q 1753 919 1753 581 
Q 1753 244 2117 55 
Q 2481 -134 3200 -134 
Q 3916 -134 4281 55 
Q 4647 244 4647 581 
Q 4647 922 4280 1114 
Q 3913 1306 3200 1306 
z
" transform="scale(0.015625)"/>
      <path id="MalgunGothic-ce68" d="M 3853 2156 
Q 2800 2659 2369 3438 
Q 1950 2600 884 2034 
L 538 2394 
Q 1178 2622 1654 3145 
Q 2131 3669 2131 4147 
L 2131 4409 
L 738 4409 
L 738 4819 
L 2131 4819 
L 2131 5522 
L 2597 5522 
L 2597 4819 
L 3994 4819 
L 3994 4409 
L 2597 4409 
L 2597 4147 
Q 2597 3691 3083 3198 
Q 3569 2706 4159 2534 
L 3853 2156 
z
M 4872 2081 
L 4872 5466 
L 5338 5466 
L 5338 2081 
L 4872 2081 
z
M 1625 -397 
L 1625 1734 
L 5338 1734 
L 5338 -397 
L 1625 -397 
z
M 4878 1325 
L 2094 1325 
L 2094 13 
L 4878 13 
L 4878 1325 
z
" transform="scale(0.015625)"/>
      <path id="MalgunGothic-c9c0" d="M 4884 -563 
L 4884 5466 
L 5350 5466 
L 5350 -563 
L 4884 -563 
z
M 3775 909 
Q 3228 1338 2822 1881 
Q 2416 2425 2297 2859 
Q 2178 2397 1756 1814 
Q 1334 1231 825 825 
L 475 1147 
Q 1191 1638 1625 2425 
Q 2059 3213 2059 4019 
L 2059 4525 
L 716 4525 
L 716 4941 
L 3884 4941 
L 3884 4525 
L 2528 4525 
L 2528 4038 
Q 2528 3238 2968 2459 
Q 3409 1681 4097 1269 
L 3775 909 
z
" transform="scale(0.015625)"/>
      <path id="MalgunGothic-c870" d="M 3438 4494 
L 3438 4441 
Q 3438 3903 4070 3286 
Q 4703 2669 5759 2425 
L 5428 2041 
Q 4684 2275 4050 2754 
Q 3416 3234 3194 3688 
Q 2963 3231 2341 2759 
Q 1719 2288 972 2034 
L 641 2419 
Q 1666 2628 2311 3268 
Q 2956 3909 2956 4441 
L 2956 4494 
L 1025 4494 
L 1025 4909 
L 5375 4909 
L 5375 4494 
L 3438 4494 
z
M 403 391 
L 403 800 
L 2963 800 
L 2963 2322 
L 3438 2322 
L 3438 800 
L 5997 800 
L 5997 391 
L 403 391 
z
" transform="scale(0.015625)"/>
      <path id="MalgunGothic-c81c" d="M 5038 -563 
L 5038 5466 
L 5503 5466 
L 5503 -563 
L 5038 -563 
z
M 3944 -378 
L 3944 2975 
L 2894 2975 
L 2894 3391 
L 3944 3391 
L 3944 5344 
L 4403 5344 
L 4403 -378 
L 3944 -378 
z
M 3116 850 
Q 2306 1647 1984 2734 
Q 1881 2291 1529 1722 
Q 1178 1153 775 769 
L 409 1063 
Q 941 1438 1350 2248 
Q 1759 3059 1759 3834 
L 1759 4525 
L 634 4525 
L 634 4941 
L 3359 4941 
L 3359 4525 
L 2222 4525 
L 2222 3828 
Q 2222 3075 2589 2328 
Q 2956 1581 3469 1153 
L 3116 850 
z
" transform="scale(0.015625)"/>
      <path id="MalgunGothic-d488" d="M 1088 4897 
L 1088 5313 
L 5313 5313 
L 5313 4897 
L 1088 4897 
z
M 1013 3181 
L 1013 3584 
L 1913 3584 
L 1856 4678 
L 2316 4678 
L 2381 3584 
L 4019 3584 
L 4084 4678 
L 4544 4678 
L 4488 3584 
L 5388 3584 
L 5388 3181 
L 1013 3181 
z
M 1325 -384 
L 1325 1528 
L 2963 1528 
L 2963 2228 
L 403 2228 
L 403 2644 
L 5997 2644 
L 5997 2228 
L 3438 2228 
L 3438 1528 
L 5075 1528 
L 5075 -384 
L 1325 -384 
z
M 4616 1113 
L 1784 1113 
L 1784 25 
L 4616 25 
L 4616 1113 
z
" transform="scale(0.015625)"/>
      <path id="MalgunGothic-2c" d="M 988 725 
L 472 -850 
L 125 -850 
L 503 725 
L 988 725 
z
" transform="scale(0.015625)"/>
      <path id="MalgunGothic-b0a9" d="M 5125 3609 
L 5125 2388 
L 4659 2388 
L 4659 5466 
L 5125 5466 
L 5125 4025 
L 6034 4025 
L 6034 3609 
L 5125 3609 
z
M 4263 2853 
Q 3678 2706 916 2706 
L 916 5253 
L 1381 5253 
L 1381 3122 
L 1794 3122 
Q 3500 3122 4206 3250 
L 4263 2853 
z
M 1466 -422 
L 1466 2059 
L 1925 2059 
L 1925 1172 
L 4666 1172 
L 4666 2059 
L 5125 2059 
L 5125 -422 
L 1466 -422 
z
M 4666 763 
L 1925 763 
L 1925 -6 
L 4666 -6 
L 4666 763 
z
" transform="scale(0.015625)"/>
      <path id="MalgunGothic-b55c" d="M 5113 2088 
L 5113 3475 
L 4488 3475 
L 4488 2088 
L 4031 2088 
L 4031 5344 
L 4488 5344 
L 4488 3891 
L 5113 3891 
L 5113 5466 
L 5581 5466 
L 5581 2088 
L 5113 2088 
z
M 3738 2591 
Q 3328 2497 2350 2497 
L 2350 5125 
L 3616 5125 
L 3616 4709 
L 2809 4709 
L 2809 2913 
Q 3359 2913 3681 2981 
L 3738 2591 
z
M 2138 2591 
Q 1747 2497 703 2497 
L 703 5125 
L 1959 5125 
L 1959 4709 
L 1172 4709 
L 1172 2913 
Q 1781 2913 2094 2988 
L 2138 2591 
z
M 1709 -397 
L 1709 1759 
L 5581 1759 
L 5581 -397 
L 1709 -397 
z
M 5113 1344 
L 2169 1344 
L 2169 13 
L 5113 13 
L 5113 1344 
z
" transform="scale(0.015625)"/>
      <path id="MalgunGothic-318d" d="M 3781 2438 
Q 3781 2184 3611 2011 
Q 3441 1838 3181 1838 
Q 2928 1838 2753 2011 
Q 2578 2184 2578 2438 
Q 2578 2703 2751 2875 
Q 2925 3047 3181 3047 
Q 3438 3047 3609 2873 
Q 3781 2700 3781 2438 
z
" transform="scale(0.015625)"/>
      <path id="MalgunGothic-2026" d="M 3616 281 
Q 3616 425 3712 529 
Q 3809 634 3950 634 
Q 4088 634 4188 528 
Q 4288 422 4288 281 
Q 4288 141 4186 42 
Q 4084 -56 3950 -56 
Q 3813 -56 3714 44 
Q 3616 144 3616 281 
z
M 2025 281 
Q 2025 428 2126 531 
Q 2228 634 2366 634 
Q 2509 634 2606 526 
Q 2703 419 2703 281 
Q 2703 141 2601 42 
Q 2500 -56 2366 -56 
Q 2228 -56 2126 42 
Q 2025 141 2025 281 
z
M 450 281 
Q 450 428 547 531 
Q 644 634 784 634 
Q 919 634 1019 528 
Q 1119 422 1119 281 
Q 1119 144 1020 44 
Q 922 -56 784 -56 
Q 644 -56 547 42 
Q 450 141 450 281 
z
" transform="scale(0.015625)"/>
      <path id="MalgunGothic-2014" d="M 6566 1634 
L 0 1634 
L 0 2031 
L 6566 2031 
L 6566 1634 
z
" transform="scale(0.015625)"/>
     </defs>
     <use xlink:href="#MalgunGothic-48"/>
     <use xlink:href="#MalgunGothic-53" transform="translate(72.460938 0)"/>
     <use xlink:href="#MalgunGothic-20" transform="translate(126.757812 0)"/>
     <use xlink:href="#MalgunGothic-33" transform="translate(161.914062 0)"/>
     <use xlink:href="#MalgunGothic-38" transform="translate(216.992188 0)"/>
     <use xlink:href="#MalgunGothic-31" transform="translate(272.070312 0)"/>
     <use xlink:href="#MalgunGothic-30" transform="translate(327.148438 0)"/>
     <use xlink:href="#MalgunGothic-31" transform="translate(382.226562 0)"/>
     <use xlink:href="#MalgunGothic-30" transform="translate(437.304688 0)"/>
     <use xlink:href="#MalgunGothic-20" transform="translate(492.382812 0)"/>
     <use xlink:href="#MalgunGothic-ae08" transform="translate(527.539062 0)"/>
     <use xlink:href="#MalgunGothic-c18d" transform="translate(627.539062 0)"/>
     <use xlink:href="#MalgunGothic-d45c" transform="translate(727.539062 0)"/>
     <use xlink:href="#MalgunGothic-ba74" transform="translate(827.539062 0)"/>
     <use xlink:href="#MalgunGothic-cc98" transform="translate(927.539062 0)"/>
     <use xlink:href="#MalgunGothic-b9ac" transform="translate(1027.539062 0)"/>
     <use xlink:href="#MalgunGothic-c6a9" transform="translate(1127.539062 0)"/>
     <use xlink:href="#MalgunGothic-20" transform="translate(1227.539062 0)"/>
     <use xlink:href="#MalgunGothic-ce68" transform="translate(1262.695312 0)"/>
     <use xlink:href="#MalgunGothic-c9c0" transform="translate(1362.695312 0)"/>
     <use xlink:href="#MalgunGothic-20" transform="translate(1462.695312 0)"/>
     <use xlink:href="#MalgunGothic-c870" transform="translate(1497.851562 0)"/>
     <use xlink:href="#MalgunGothic-c81c" transform="translate(1597.851562 0)"/>
     <use xlink:href="#MalgunGothic-d488" transform="translate(1697.851562 0)"/>
     <use xlink:href="#MalgunGothic-2c" transform="translate(1797.851562 0)"/>
     <use xlink:href="#MalgunGothic-20" transform="translate(1819.726562 0)"/>
     <use xlink:href="#MalgunGothic-b0a9" transform="translate(1854.882812 0)"/>
     <use xlink:href="#MalgunGothic-b55c" transform="translate(1954.882812 0)"/>
     <use xlink:href="#MalgunGothic-c6a9" transform="translate(2054.882812 0)"/>
     <use xlink:href="#MalgunGothic-318d" transform="translate(2154.882812 0)"/>
     <use xlink:href="#MalgunGothic-2026" transform="translate(2254.882812 0)"/>
     <use xlink:href="#MalgunGothic-20" transform="translate(2328.857422 0)"/>
     <use xlink:href="#MalgunGothic-2014" transform="translate(2364.013672 0)"/>
     <use xlink:href="#MalgunGothic-20" transform="translate(2466.601562 0)"/>
     <use xlink:href="#MalgunGothic-c218" transform="translate(2501.757812 0)"/>
     <use xlink:href="#MalgunGothic-cd9c" transform="translate(2601.757812 0)"/>
    </g>
   </g>
   <g id="legend_1">
    <g id="patch_39">
     <path d="M 41.885313 55.113281 
L 131.925313 55.113281 
Q 133.525313 55.113281 133.525313 53.513281 
L 133.525313 29.199531 
Q 133.525313 27.599531 131.925313 27.599531 
L 41.885313 27.599531 
Q 40.285313 27.599531 40.285313 29.199531 
L 40.285313 53.513281 
Q 40.285313 55.113281 41.885313 55.113281 
z
" style="fill: #ffffff; opacity: 0.7; stroke: #cccccc; stroke-linejoin: miter"/>
    </g>
    <g id="patch_40">
     <path d="M 43.485313 37.150781 
L 59.485313 37.150781 
L 59.485313 31.550781 
L 43.485313 31.550781 
z
" style="fill: #4472c4; opacity: 0.85"/>
    </g>
    <g id="text_42">
     <!-- 수출(백만$) -->
     <g transform="translate(65.885312 37.150781) scale(0.08 -0.08)">
      <use xlink:href="#MalgunGothic-c218"/>
      <use xlink:href="#MalgunGothic-cd9c" transform="translate(100 0)"/>
      <use xlink:href="#MalgunGothic-28" transform="translate(200 0)"/>
      <use xlink:href="#MalgunGothic-bc31" transform="translate(230.46875 0)"/>
      <use xlink:href="#MalgunGothic-b9cc" transform="translate(330.46875 0)"/>
      <use xlink:href="#MalgunGothic-24" transform="translate(430.46875 0)"/>
      <use xlink:href="#MalgunGothic-29" transform="translate(485.546875 0)"/>
     </g>
    </g>
    <g id="line2d_40">
     <path d="M 43.485313 47.179531 
L 51.485313 47.179531 
L 59.485313 47.179531 
" style="fill: none; stroke: #1f4e79; stroke-width: 1.5; stroke-linecap: square"/>
     <defs>
      <path id="m399ec723de" d="M 0 1.5 
C 0.397805 1.5 0.77937 1.341951 1.06066 1.06066 
C 1.341951 0.77937 1.5 0.397805 1.5 0 
C 1.5 -0.397805 1.341951 -0.77937 1.06066 -1.06066 
C 0.77937 -1.341951 0.397805 -1.5 0 -1.5 
C -0.397805 -1.5 -0.77937 -1.341951 -1.06066 -1.06066 
C -1.341951 -0.77937 -1.5 -0.397805 -1.5 0 
C -1.5 0.397805 -1.341951 0.77937 -1.06066 1.06066 
C -0.77937 1.341951 -0.397805 1.5 0 1.5 
z
" style="stroke: #1f4e79"/>
     </defs>
     <g>
      <use xlink:href="#m399ec723de" x="51.485313" y="47.179531" style="fill: #1f4e79; stroke: #1f4e79"/>
     </g>
    </g>
    <g id="text_43">
     <!-- 수출단가(USD/kg) -->
     <g transform="translate(65.885312 49.979531) scale(0.08 -0.08)">
      <defs>
       <path id="MalgunGothic-b2e8" d="M 5125 3169 
L 5125 1063 
L 4659 1063 
L 4659 5466 
L 5125 5466 
L 5125 3584 
L 6034 3584 
L 6034 3169 
L 5125 3169 
z
M 3903 2363 
Q 3306 2291 850 2291 
L 850 5081 
L 3688 5081 
L 3688 4666 
L 1319 4666 
L 1319 2706 
Q 3244 2706 3872 2766 
L 3903 2363 
z
M 1459 -378 
L 1459 1581 
L 1925 1581 
L 1925 38 
L 5294 38 
L 5294 -378 
L 1459 -378 
z
" transform="scale(0.015625)"/>
       <path id="MalgunGothic-ac00" d="M 5094 2566 
L 5094 -563 
L 4628 -563 
L 4628 5466 
L 5094 5466 
L 5094 2981 
L 6175 2981 
L 6175 2566 
L 5094 2566 
z
M 3609 4928 
Q 3541 2363 897 863 
L 538 1241 
Q 1484 1631 2234 2506 
Q 2984 3381 3109 4513 
L 794 4513 
L 794 4928 
L 3609 4928 
z
" transform="scale(0.015625)"/>
       <path id="MalgunGothic-55" d="M 3947 1850 
Q 3947 -78 2209 -78 
Q 553 -78 553 1778 
L 553 4600 
L 1056 4600 
L 1056 1813 
Q 1056 381 2272 381 
Q 3441 381 3441 1763 
L 3441 4600 
L 3947 4600 
L 3947 1850 
z
" transform="scale(0.015625)"/>
       <path id="MalgunGothic-44" d="M 609 0 
L 609 4600 
L 1856 4600 
Q 4281 4600 4281 2356 
Q 4281 1288 3587 644 
Q 2894 0 1800 0 
L 609 0 
z
M 1113 4134 
L 1113 463 
L 1813 463 
Q 2734 463 3243 958 
Q 3753 1453 3753 2344 
Q 3753 4134 1844 4134 
L 1113 4134 
z
" transform="scale(0.015625)"/>
       <path id="MalgunGothic-2f" d="M 2584 4600 
L 378 -763 
L -84 -763 
L 2113 4600 
L 2584 4600 
z
" transform="scale(0.015625)"/>
       <path id="MalgunGothic-6b" d="M 3228 0 
L 2525 0 
L 1047 1575 
L 1034 1575 
L 1034 0 
L 538 0 
L 538 4859 
L 1034 4859 
L 1034 1778 
L 1047 1778 
L 2450 3284 
L 3106 3284 
L 1563 1694 
L 3228 0 
z
" transform="scale(0.015625)"/>
       <path id="MalgunGothic-67" d="M 3313 259 
Q 3313 -1547 1603 -1547 
Q 1003 -1547 538 -1313 
L 538 -806 
Q 1088 -1116 1600 -1116 
Q 2822 -1116 2822 194 
L 2822 559 
L 2809 559 
Q 2422 -78 1675 -78 
Q 1066 -78 691 362 
Q 316 803 316 1534 
Q 316 2375 722 2867 
Q 1128 3359 1816 3359 
Q 2484 3359 2809 2822 
L 2822 2822 
L 2822 3284 
L 3313 3284 
L 3313 259 
z
M 2822 1978 
Q 2822 2378 2547 2659 
Q 2272 2941 1878 2941 
Q 1384 2941 1101 2577 
Q 819 2213 819 1572 
Q 819 1016 1092 680 
Q 1366 344 1803 344 
Q 2247 344 2534 666 
Q 2822 988 2822 1478 
L 2822 1978 
z
" transform="scale(0.015625)"/>
      </defs>
      <use xlink:href="#MalgunGothic-c218"/>
      <use xlink:href="#MalgunGothic-cd9c" transform="translate(100 0)"/>
      <use xlink:href="#MalgunGothic-b2e8" transform="translate(200 0)"/>
      <use xlink:href="#MalgunGothic-ac00" transform="translate(300 0)"/>
      <use xlink:href="#MalgunGothic-28" transform="translate(400 0)"/>
      <use xlink:href="#MalgunGothic-55" transform="translate(430.46875 0)"/>
      <use xlink:href="#MalgunGothic-53" transform="translate(500.732422 0)"/>
      <use xlink:href="#MalgunGothic-44" transform="translate(555.029297 0)"/>
      <use xlink:href="#MalgunGothic-2f" transform="translate(626.757812 0)"/>
      <use xlink:href="#MalgunGothic-6b" transform="translate(666.357422 0)"/>
      <use xlink:href="#MalgunGothic-67" transform="translate(714.818359 0)"/>
      <use xlink:href="#MalgunGothic-29" transform="translate(775.023438 0)"/>
     </g>
    </g>
   </g>
  </g>
  <g id="axes_2">
   <g id="matplotlib.axis_3">
    <g id="ytick_8">
     <g id="line2d_41">
      <defs>
       <path id="m7d16927308" d="M 0 0 
L 3.5 0 
" style="stroke: #000000; stroke-width: 0.8"/>
      </defs>
      <g>
       <use xlink:href="#m7d16927308" x="1331.806562" y="207.550368" style="stroke: #000000; stroke-width: 0.8"/>
      </g>
     </g>
     <g id="text_44">
      <!-- 12.0 -->
      <g style="fill: #808080" transform="translate(1338.806562 210.587243) scale(0.08 -0.08)">
       <use xlink:href="#MalgunGothic-31"/>
       <use xlink:href="#MalgunGothic-32" transform="translate(55.078125 0)"/>
       <use xlink:href="#MalgunGothic-2e" transform="translate(110.15625 0)"/>
       <use xlink:href="#MalgunGothic-30" transform="translate(132.03125 0)"/>
      </g>
     </g>
    </g>
    <g id="ytick_9">
     <g id="line2d_42">
      <g>
       <use xlink:href="#m7d16927308" x="1331.806562" y="167.182927" style="stroke: #000000; stroke-width: 0.8"/>
      </g>
     </g>
     <g id="text_45">
      <!-- 14.0 -->
      <g style="fill: #808080" transform="translate(1338.806562 170.219802) scale(0.08 -0.08)">
       <use xlink:href="#MalgunGothic-31"/>
       <use xlink:href="#MalgunGothic-34" transform="translate(55.078125 0)"/>
       <use xlink:href="#MalgunGothic-2e" transform="translate(110.15625 0)"/>
       <use xlink:href="#MalgunGothic-30" transform="translate(132.03125 0)"/>
      </g>
     </g>
    </g>
    <g id="ytick_10">
     <g id="line2d_43">
      <g>
       <use xlink:href="#m7d16927308" x="1331.806562" y="126.815486" style="stroke: #000000; stroke-width: 0.8"/>
      </g>
     </g>
     <g id="text_46">
      <!-- 16.0 -->
      <g style="fill: #808080" transform="translate(1338.806562 129.852361) scale(0.08 -0.08)">
       <use xlink:href="#MalgunGothic-31"/>
       <use xlink:href="#MalgunGothic-36" transform="translate(55.078125 0)"/>
       <use xlink:href="#MalgunGothic-2e" transform="translate(110.15625 0)"/>
       <use xlink:href="#MalgunGothic-30" transform="translate(132.03125 0)"/>
      </g>
     </g>
    </g>
    <g id="ytick_11">
     <g id="line2d_44">
      <g>
       <use xlink:href="#m7d16927308" x="1331.806562" y="86.448045" style="stroke: #000000; stroke-width: 0.8"/>
      </g>
     </g>
     <g id="text_47">
      <!-- 18.0 -->
      <g style="fill: #808080" transform="translate(1338.806562 89.48492) scale(0.08 -0.08)">
       <use xlink:href="#MalgunGothic-31"/>
       <use xlink:href="#MalgunGothic-38" transform="translate(55.078125 0)"/>
       <use xlink:href="#MalgunGothic-2e" transform="translate(110.15625 0)"/>
       <use xlink:href="#MalgunGothic-30" transform="translate(132.03125 0)"/>
      </g>
     </g>
    </g>
    <g id="ytick_12">
     <g id="line2d_45">
      <g>
       <use xlink:href="#m7d16927308" x="1331.806562" y="46.080604" style="stroke: #000000; stroke-width: 0.8"/>
      </g>
     </g>
     <g id="text_48">
      <!-- 20.0 -->
      <g style="fill: #808080" transform="translate(1338.806562 49.117479) scale(0.08 -0.08)">
       <use xlink:href="#MalgunGothic-32"/>
       <use xlink:href="#MalgunGothic-30" transform="translate(55.078125 0)"/>
       <use xlink:href="#MalgunGothic-2e" transform="translate(110.15625 0)"/>
       <use xlink:href="#MalgunGothic-30" transform="translate(132.03125 0)"/>
      </g>
     </g>
    </g>
    <g id="text_49">
     <!-- 단가 (USD/kg) -->
     <g style="fill: #808080" transform="translate(1365.461875 160.794762) rotate(-90) scale(0.09 -0.09)">
      <use xlink:href="#MalgunGothic-b2e8"/>
      <use xlink:href="#MalgunGothic-ac00" transform="translate(100 0)"/>
      <use xlink:href="#MalgunGothic-20" transform="translate(200 0)"/>
      <use xlink:href="#MalgunGothic-28" transform="translate(235.15625 0)"/>
      <use xlink:href="#MalgunGothic-55" transform="translate(265.625 0)"/>
      <use xlink:href="#MalgunGothic-53" transform="translate(335.888672 0)"/>
      <use xlink:href="#MalgunGothic-44" transform="translate(390.185547 0)"/>
      <use xlink:href="#MalgunGothic-2f" transform="translate(461.914062 0)"/>
      <use xlink:href="#MalgunGothic-6b" transform="translate(501.513672 0)"/>
      <use xlink:href="#MalgunGothic-67" transform="translate(549.974609 0)"/>
      <use xlink:href="#MalgunGothic-29" transform="translate(610.179688 0)"/>
     </g>
    </g>
   </g>
   <g id="line2d_46">
    <path d="M 109.987065 187.006749 
L 147.023121 154.378014 
L 184.059177 160.900461 
L 221.095234 198.545987 
L 258.13129 182.45279 
L 295.167346 189.525968 
L 332.203402 136.53679 
L 369.239459 196.877901 
L 406.275515 163.407146 
L 443.311571 210.354349 
L 480.347628 227.62907 
L 517.383684 230.479503 
L 554.41974 153.07499 
L 591.455797 106.488886 
L 628.491853 147.114639 
L 665.527909 197.070377 
L 702.563966 166.893281 
L 739.600022 151.821103 
L 776.636078 184.891918 
L 813.672135 118.222989 
L 850.708191 137.576153 
L 887.744247 120.571064 
L 924.780304 177.207635 
L 961.81636 146.633079 
L 998.852416 150.7888 
L 1035.888473 68.057965 
L 1072.924529 53.391047 
L 1109.960585 145.885553 
L 1146.996641 33.450958 
L 1184.032698 134.986328 
L 1221.068754 71.978913 
L 1258.10481 96.35353 
" clip-path="url(#pd20b228271)" style="fill: none; stroke: #1f4e79; stroke-width: 1.5; stroke-linecap: square"/>
    <g clip-path="url(#pd20b228271)">
     <use xlink:href="#m399ec723de" x="109.987065" y="187.006749" style="fill: #1f4e79; stroke: #1f4e79"/>
     <use xlink:href="#m399ec723de" x="147.023121" y="154.378014" style="fill: #1f4e79; stroke: #1f4e79"/>
     <use xlink:href="#m399ec723de" x="184.059177" y="160.900461" style="fill: #1f4e79; stroke: #1f4e79"/>
     <use xlink:href="#m399ec723de" x="221.095234" y="198.545987" style="fill: #1f4e79; stroke: #1f4e79"/>
     <use xlink:href="#m399ec723de" x="258.13129" y="182.45279" style="fill: #1f4e79; stroke: #1f4e79"/>
     <use xlink:href="#m399ec723de" x="295.167346" y="189.525968" style="fill: #1f4e79; stroke: #1f4e79"/>
     <use xlink:href="#m399ec723de" x="332.203402" y="136.53679" style="fill: #1f4e79; stroke: #1f4e79"/>
     <use xlink:href="#m399ec723de" x="369.239459" y="196.877901" style="fill: #1f4e79; stroke: #1f4e79"/>
     <use xlink:href="#m399ec723de" x="406.275515" y="163.407146" style="fill: #1f4e79; stroke: #1f4e79"/>
     <use xlink:href="#m399ec723de" x="443.311571" y="210.354349" style="fill: #1f4e79; stroke: #1f4e79"/>
     <use xlink:href="#m399ec723de" x="480.347628" y="227.62907" style="fill: #1f4e79; stroke: #1f4e79"/>
     <use xlink:href="#m399ec723de" x="517.383684" y="230.479503" style="fill: #1f4e79; stroke: #1f4e79"/>
     <use xlink:href="#m399ec723de" x="554.41974" y="153.07499" style="fill: #1f4e79; stroke: #1f4e79"/>
     <use xlink:href="#m399ec723de" x="591.455797" y="106.488886" style="fill: #1f4e79; stroke: #1f4e79"/>
     <use xlink:href="#m399ec723de" x="628.491853" y="147.114639" style="fill: #1f4e79; stroke: #1f4e79"/>
     <use xlink:href="#m399ec723de" x="665.527909" y="197.070377" style="fill: #1f4e79; stroke: #1f4e79"/>
     <use xlink:href="#m399ec723de" x="702.563966" y="166.893281" style="fill: #1f4e79; stroke: #1f4e79"/>
     <use xlink:href="#m399ec723de" x="739.600022" y="151.821103" style="fill: #1f4e79; stroke: #1f4e79"/>
     <use xlink:href="#m399ec723de" x="776.636078" y="184.891918" style="fill: #1f4e79; stroke: #1f4e79"/>
     <use xlink:href="#m399ec723de" x="813.672135" y="118.222989" style="fill: #1f4e79; stroke: #1f4e79"/>
     <use xlink:href="#m399ec723de" x="850.708191" y="137.576153" style="fill: #1f4e79; stroke: #1f4e79"/>
     <use xlink:href="#m399ec723de" x="887.744247" y="120.571064" style="fill: #1f4e79; stroke: #1f4e79"/>
     <use xlink:href="#m399ec723de" x="924.780304" y="177.207635" style="fill: #1f4e79; stroke: #1f4e79"/>
     <use xlink:href="#m399ec723de" x="961.81636" y="146.633079" style="fill: #1f4e79; stroke: #1f4e79"/>
     <use xlink:href="#m399ec723de" x="998.852416" y="150.7888" style="fill: #1f4e79; stroke: #1f4e79"/>
     <use xlink:href="#m399ec723de" x="1035.888473" y="68.057965" style="fill: #1f4e79; stroke: #1f4e79"/>
     <use xlink:href="#m399ec723de" x="1072.924529" y="53.391047" style="fill: #1f4e79; stroke: #1f4e79"/>
     <use xlink:href="#m399ec723de" x="1109.960585" y="145.885553" style="fill: #1f4e79; stroke: #1f4e79"/>
     <use xlink:href="#m399ec723de" x="1146.996641" y="33.450958" style="fill: #1f4e79; stroke: #1f4e79"/>
     <use xlink:href="#m399ec723de" x="1184.032698" y="134.986328" style="fill: #1f4e79; stroke: #1f4e79"/>
     <use xlink:href="#m399ec723de" x="1221.068754" y="71.978913" style="fill: #1f4e79; stroke: #1f4e79"/>
     <use xlink:href="#m399ec723de" x="1258.10481" y="96.35353" style="fill: #1f4e79; stroke: #1f4e79"/>
    </g>
   </g>
   <g id="patch_41">
    <path d="M 36.285313 240.330931 
L 36.285313 23.599531 
" style="fill: none; stroke: #000000; stroke-width: 0.8; stroke-linejoin: miter; stroke-linecap: square"/>
   </g>
   <g id="patch_42">
    <path d="M 1331.806562 240.330931 
L 1331.806562 23.599531 
" style="fill: none; stroke: #000000; stroke-width: 0.8; stroke-linejoin: miter; stroke-linecap: square"/>
   </g>
   <g id="patch_43">
    <path d="M 36.285313 240.330931 
L 1331.806562 240.330931 
" style="fill: none; stroke: #000000; stroke-width: 0.8; stroke-linejoin: miter; stroke-linecap: square"/>
   </g>
   <g id="patch_44">
    <path d="M 36.285313 23.599531 
L 1331.806562 23.599531 
" style="fill: none; stroke: #000000; stroke-width: 0.8; stroke-linejoin: miter; stroke-linecap: square"/>
   </g>
  </g>
 </g>
 <defs>
  <clipPath id="pd20b228271">
   <rect x="36.285313" y="23.599531" width="1295.52125" height="216.731399"/>
  </clipPath>
 </defs>
</svg>
